M48
; DRILL file {KiCad (5.1.9)-1} date 09/28/21 20:21:46
; FORMAT={-:-/ absolute / inch / decimal}
; #@! TF.CreationDate,2021-09-28T20:21:46+01:00
; #@! TF.GenerationSoftware,Kicad,Pcbnew,(5.1.9)-1
; #@! TF.FileFunction,Plated,1,2,PTH
FMAT,2
INCH
T1C0.0157
T2C0.0315
T3C0.0394
T4C0.0400
%
G90
G05
T1
X3.4449Y-2.7874
X3.6417Y-3.0827
X3.6811Y-2.8071
X3.7205Y-2.2165
X3.7402Y-3.2205
X3.7598Y-2.8071
T2
X3.0827Y-3.8346
X3.1024Y-3.0441
X3.1024Y-3.1441
X3.1024Y-3.2441
X3.1575Y-2.6929
X3.1575Y-2.8898
X3.1811Y-3.8346
X3.2835Y-2.1496
X3.2835Y-2.4496
X3.2864Y-2.9813
X3.2864Y-3.2813
X3.2864Y-3.3732
X3.2864Y-3.6732
X3.3083Y-4.2008
X3.3622Y-2.6929
X3.3622Y-2.8898
X3.378Y-3.7638
X3.378Y-3.9606
X3.4094Y-2.1496
X3.4094Y-2.4496
X3.4173Y-2.9803
X3.4173Y-3.2803
X3.4173Y-3.3732
X3.4173Y-3.6732
X3.5364Y-1.8327
X3.5364Y-1.9327
X3.5364Y-2.0327
X3.5364Y-2.1327
X3.5364Y-2.2327
X3.5364Y-2.3327
X3.5364Y-2.4327
X3.5425Y-4.0551
X3.5494Y-3.0033
X3.5494Y-3.1033
X3.5494Y-3.2033
X3.5494Y-3.3033
X3.5494Y-3.4033
X3.5494Y-3.5033
X3.5494Y-3.6033
X3.5494Y-3.7033
X3.5669Y-2.6929
X3.5669Y-2.8898
X3.5748Y-1.5197
X3.5748Y-1.7165
X3.5953Y-3.8819
X3.6083Y-4.2008
X3.6953Y-3.8819
X3.7057Y-4.2008
X3.7717Y-2.6929
X3.7717Y-2.8898
X3.7795Y-1.5197
X3.7795Y-1.7165
X3.7953Y-3.8819
X3.8364Y-1.8327
X3.8364Y-1.9327
X3.8364Y-2.0327
X3.8364Y-2.1327
X3.8364Y-2.2327
X3.8364Y-2.3327
X3.8364Y-2.4327
X3.8425Y-4.0551
X3.8494Y-3.0033
X3.8494Y-3.1033
X3.8494Y-3.2033
X3.8494Y-3.3033
X3.8494Y-3.4033
X3.8494Y-3.5033
X3.8494Y-3.6033
X3.8494Y-3.7033
X3.9606Y-2.1102
X3.9606Y-2.4102
X3.9764Y-2.5906
X3.9764Y-2.8906
X3.9764Y-2.9835
X3.9764Y-3.2835
X4.0057Y-4.2008
X4.0079Y-3.3701
X4.0079Y-3.5669
X4.0354Y-3.9606
X4.0866Y-1.322
X4.0866Y-1.622
X4.0866Y-1.7157
X4.0866Y-2.0157
X4.0866Y-2.1102
X4.0866Y-2.4102
X4.1024Y-2.5906
X4.1024Y-2.8906
X4.1033Y-2.9837
X4.1033Y-3.2837
X4.1339Y-3.9606
X4.1654Y-3.3701
X4.1654Y-3.6701
X4.2283Y-2.5898
X4.2283Y-2.8898
X4.2283Y-2.9835
X4.2283Y-3.2835
T3
X3.1512Y-1.1772
X3.2512Y-1.1772
X3.3512Y-1.1772
X3.4512Y-1.1772
X3.5512Y-1.1772
X3.6512Y-1.1772
X3.7512Y-1.1772
X3.8512Y-1.1772
X3.9512Y-1.1772
X4.0512Y-1.1772
X4.1512Y-1.1772
X4.2512Y-1.1772
X4.252Y-1.3512
X4.252Y-1.4512
X4.252Y-1.5512
X4.252Y-1.7055
X4.252Y-1.8055
X4.252Y-1.9055
X4.252Y-2.0598
X4.252Y-2.1598
X4.252Y-2.2598
T4
X3.4774Y-4.4207
X3.4774Y-4.5207
X3.5774Y-4.4207
X3.5774Y-4.5207
X3.6774Y-4.4207
X3.6774Y-4.5207
X3.7774Y-4.4207
X3.7774Y-4.5207
X3.8774Y-4.4207
X3.8774Y-4.5207
T0
M30
