%TF.GenerationSoftware,KiCad,Pcbnew,(5.1.9)-1*%
%TF.CreationDate,2021-09-28T20:21:57+01:00*%
%TF.ProjectId,1222 LMNC VCO ,31323232-204c-44d4-9e43-2056434f202e,rev?*%
%TF.SameCoordinates,Original*%
%TF.FileFunction,Soldermask,Top*%
%TF.FilePolarity,Negative*%
%FSLAX46Y46*%
G04 Gerber Fmt 4.6, Leading zero omitted, Abs format (unit mm)*
G04 Created by KiCad (PCBNEW (5.1.9)-1) date 2021-09-28 20:21:57*
%MOMM*%
%LPD*%
G01*
G04 APERTURE LIST*
%ADD10C,3.200000*%
%ADD11O,2.400000X1.600000*%
%ADD12R,2.400000X1.600000*%
%ADD13C,1.440000*%
%ADD14O,1.700000X1.700000*%
%ADD15R,1.700000X1.700000*%
%ADD16O,1.600000X1.600000*%
%ADD17C,1.600000*%
%ADD18R,1.727200X1.727200*%
%ADD19O,1.727200X1.727200*%
%ADD20R,1.600000X1.600000*%
G04 APERTURE END LIST*
D10*
%TO.C,REF\u002A\u002A*%
X79000000Y-35800000D03*
%TD*%
%TO.C,REF\u002A\u002A*%
X79000000Y-115800000D03*
%TD*%
%TO.C,REF\u002A\u002A*%
X107000000Y-115800000D03*
%TD*%
D11*
%TO.C,U3*%
X97775000Y-76285000D03*
X90155000Y-94065000D03*
X97775000Y-78825000D03*
X90155000Y-91525000D03*
X97775000Y-81365000D03*
X90155000Y-88985000D03*
X97775000Y-83905000D03*
X90155000Y-86445000D03*
X97775000Y-86445000D03*
X90155000Y-83905000D03*
X97775000Y-88985000D03*
X90155000Y-81365000D03*
X97775000Y-91525000D03*
X90155000Y-78825000D03*
X97775000Y-94065000D03*
D12*
X90155000Y-76285000D03*
%TD*%
D11*
%TO.C,U1*%
X97445000Y-46550000D03*
X89825000Y-61790000D03*
X97445000Y-49090000D03*
X89825000Y-59250000D03*
X97445000Y-51630000D03*
X89825000Y-56710000D03*
X97445000Y-54170000D03*
X89825000Y-54170000D03*
X97445000Y-56710000D03*
X89825000Y-51630000D03*
X97445000Y-59250000D03*
X89825000Y-49090000D03*
X97445000Y-61790000D03*
D12*
X89825000Y-46550000D03*
%TD*%
D13*
%TO.C,RV6*%
X91320000Y-98600000D03*
X93860000Y-98600000D03*
X96400000Y-98600000D03*
%TD*%
D14*
%TO.C,TUNE*%
X108000000Y-39400000D03*
X108000000Y-36860000D03*
D15*
X108000000Y-34320000D03*
%TD*%
D14*
%TO.C,PW*%
X108000000Y-48400000D03*
X108000000Y-45860000D03*
D15*
X108000000Y-43320000D03*
%TD*%
D14*
%TO.C,PW ATT*%
X108000000Y-57400000D03*
X108000000Y-54860000D03*
D15*
X108000000Y-52320000D03*
%TD*%
D13*
%TO.C,RV1*%
X78800000Y-82400000D03*
X78800000Y-79860000D03*
X78800000Y-77320000D03*
%TD*%
D16*
%TO.C,R22*%
X97600000Y-103000000D03*
D17*
X89980000Y-103000000D03*
%TD*%
D16*
%TO.C,R19*%
X104200000Y-65800000D03*
D17*
X104200000Y-73420000D03*
%TD*%
D16*
%TO.C,R18*%
X107400000Y-73400000D03*
D17*
X107400000Y-65780000D03*
%TD*%
D16*
%TO.C,R17*%
X83400000Y-54600000D03*
D17*
X83400000Y-62220000D03*
%TD*%
D16*
%TO.C,R16*%
X86600000Y-54600000D03*
D17*
X86600000Y-62220000D03*
%TD*%
D16*
%TO.C,R15*%
X103800000Y-41200000D03*
D17*
X103800000Y-33580000D03*
%TD*%
D16*
%TO.C,R14*%
X100600000Y-53600000D03*
D17*
X100600000Y-61220000D03*
%TD*%
D16*
%TO.C,R13*%
X103800000Y-53600000D03*
D17*
X103800000Y-61220000D03*
%TD*%
D16*
%TO.C,R12*%
X103800000Y-43580000D03*
D17*
X103800000Y-51200000D03*
%TD*%
D16*
%TO.C,R11*%
X86800000Y-93300000D03*
D17*
X86800000Y-85680000D03*
%TD*%
D16*
%TO.C,R10*%
X105800000Y-85600000D03*
D17*
X105800000Y-93220000D03*
%TD*%
D16*
%TO.C,R9*%
X101000000Y-65800000D03*
D17*
X101000000Y-73420000D03*
%TD*%
D16*
%TO.C,R8*%
X83475000Y-93300000D03*
D17*
X83475000Y-85680000D03*
%TD*%
D16*
%TO.C,R7*%
X94125000Y-106700000D03*
D17*
X101745000Y-106700000D03*
%TD*%
D16*
%TO.C,R6*%
X91650000Y-106700000D03*
D17*
X84030000Y-106700000D03*
%TD*%
D16*
%TO.C,R5*%
X83475000Y-75725000D03*
D17*
X83475000Y-83345000D03*
%TD*%
D16*
%TO.C,R4*%
X107400000Y-83400000D03*
D17*
X107400000Y-75780000D03*
%TD*%
D16*
%TO.C,R3*%
X86800000Y-75700000D03*
D17*
X86800000Y-83320000D03*
%TD*%
D16*
%TO.C,R2*%
X104225000Y-83405000D03*
D17*
X104225000Y-75785000D03*
%TD*%
D16*
%TO.C,R1*%
X101000000Y-83400000D03*
D17*
X101000000Y-75780000D03*
%TD*%
D14*
%TO.C,J2*%
X107980000Y-29900000D03*
X105440000Y-29900000D03*
X102900000Y-29900000D03*
X100360000Y-29900000D03*
X97820000Y-29900000D03*
X95280000Y-29900000D03*
X92740000Y-29900000D03*
X90200000Y-29900000D03*
X87660000Y-29900000D03*
X85120000Y-29900000D03*
X82580000Y-29900000D03*
D15*
X80040000Y-29900000D03*
%TD*%
D18*
%TO.C,J1*%
X88325000Y-114825000D03*
D19*
X88325000Y-112285000D03*
X90865000Y-114825000D03*
X90865000Y-112285000D03*
X93405000Y-114825000D03*
X93405000Y-112285000D03*
X95945000Y-114825000D03*
X95945000Y-112285000D03*
X98485000Y-114825000D03*
X98485000Y-112285000D03*
%TD*%
D17*
%TO.C,C12*%
X80200000Y-68400000D03*
X80200000Y-73400000D03*
%TD*%
%TO.C,C9*%
X78300000Y-97400000D03*
D20*
X80800000Y-97400000D03*
%TD*%
D17*
%TO.C,C8*%
X105000000Y-100600000D03*
D20*
X102500000Y-100600000D03*
%TD*%
D17*
%TO.C,C7*%
X85400000Y-73400000D03*
X85400000Y-68400000D03*
%TD*%
%TO.C,C6*%
X101800000Y-85600000D03*
X101800000Y-90600000D03*
%TD*%
%TO.C,C5*%
X85800000Y-100600000D03*
X85800000Y-95600000D03*
%TD*%
%TO.C,C4*%
X90600000Y-68400000D03*
X90600000Y-73400000D03*
%TD*%
%TO.C,C3*%
X90800000Y-43600000D03*
X90800000Y-38600000D03*
%TD*%
%TO.C,C2*%
X96000000Y-43600000D03*
X96000000Y-38600000D03*
%TD*%
%TO.C,C1*%
X95800000Y-73400000D03*
X95800000Y-68400000D03*
%TD*%
M02*
