%TF.GenerationSoftware,KiCad,Pcbnew,(5.1.9)-1*%
%TF.CreationDate,2021-09-28T20:21:56+01:00*%
%TF.ProjectId,1222 LMNC VCO ,31323232-204c-44d4-9e43-2056434f202e,rev?*%
%TF.SameCoordinates,Original*%
%TF.FileFunction,Copper,L1,Top*%
%TF.FilePolarity,Positive*%
%FSLAX46Y46*%
G04 Gerber Fmt 4.6, Leading zero omitted, Abs format (unit mm)*
G04 Created by KiCad (PCBNEW (5.1.9)-1) date 2021-09-28 20:21:56*
%MOMM*%
%LPD*%
G01*
G04 APERTURE LIST*
%TA.AperFunction,ComponentPad*%
%ADD10O,2.400000X1.600000*%
%TD*%
%TA.AperFunction,ComponentPad*%
%ADD11R,2.400000X1.600000*%
%TD*%
%TA.AperFunction,ComponentPad*%
%ADD12C,1.440000*%
%TD*%
%TA.AperFunction,ComponentPad*%
%ADD13O,1.700000X1.700000*%
%TD*%
%TA.AperFunction,ComponentPad*%
%ADD14R,1.700000X1.700000*%
%TD*%
%TA.AperFunction,ComponentPad*%
%ADD15O,1.600000X1.600000*%
%TD*%
%TA.AperFunction,ComponentPad*%
%ADD16C,1.600000*%
%TD*%
%TA.AperFunction,ComponentPad*%
%ADD17R,1.727200X1.727200*%
%TD*%
%TA.AperFunction,ComponentPad*%
%ADD18O,1.727200X1.727200*%
%TD*%
%TA.AperFunction,ComponentPad*%
%ADD19R,1.600000X1.600000*%
%TD*%
%TA.AperFunction,ViaPad*%
%ADD20C,0.800000*%
%TD*%
%TA.AperFunction,Conductor*%
%ADD21C,0.250000*%
%TD*%
%TA.AperFunction,Conductor*%
%ADD22C,0.320000*%
%TD*%
%TA.AperFunction,Conductor*%
%ADD23C,0.254000*%
%TD*%
%TA.AperFunction,Conductor*%
%ADD24C,0.100000*%
%TD*%
G04 APERTURE END LIST*
D10*
%TO.P,U3,16*%
%TO.N,+12V*%
X97775000Y-76285000D03*
%TO.P,U3,8*%
%TO.N,VSO*%
X90155000Y-94065000D03*
%TO.P,U3,15*%
%TO.N,CVINPUTS*%
X97775000Y-78825000D03*
%TO.P,U3,7*%
%TO.N,HighFtrack*%
X90155000Y-91525000D03*
%TO.P,U3,14*%
%TO.N,Net-(R10-Pad2)*%
X97775000Y-81365000D03*
%TO.P,U3,6*%
%TO.N,Net-(C4-Pad1)*%
X90155000Y-88985000D03*
%TO.P,U3,13*%
%TO.N,Net-(R1-Pad2)*%
X97775000Y-83905000D03*
%TO.P,U3,5*%
%TO.N,VPWM*%
X90155000Y-86445000D03*
%TO.P,U3,12*%
%TO.N,GND*%
X97775000Y-86445000D03*
%TO.P,U3,4*%
%TO.N,VP*%
X90155000Y-83905000D03*
%TO.P,U3,11*%
%TO.N,Net-(C6-Pad1)*%
X97775000Y-88985000D03*
%TO.P,U3,3*%
%TO.N,Net-(C5-Pad1)*%
X90155000Y-81365000D03*
%TO.P,U3,10*%
%TO.N,VTO*%
X97775000Y-91525000D03*
%TO.P,U3,2*%
%TO.N,Net-(R5-Pad1)*%
X90155000Y-78825000D03*
%TO.P,U3,9*%
%TO.N,Net-(U3-Pad9)*%
X97775000Y-94065000D03*
D11*
%TO.P,U3,1*%
%TO.N,Net-(R3-Pad1)*%
X90155000Y-76285000D03*
%TD*%
D10*
%TO.P,U1,14*%
%TO.N,TRIANGLEOUT*%
X97445000Y-46550000D03*
%TO.P,U1,7*%
%TO.N,VPWM*%
X89825000Y-61790000D03*
%TO.P,U1,13*%
%TO.N,TRIANGLEOUT*%
X97445000Y-49090000D03*
%TO.P,U1,6*%
%TO.N,Net-(R16-Pad2)*%
X89825000Y-59250000D03*
%TO.P,U1,12*%
%TO.N,VTO*%
X97445000Y-51630000D03*
%TO.P,U1,5*%
%TO.N,Net-(R13-Pad1)*%
X89825000Y-56710000D03*
%TO.P,U1,11*%
%TO.N,-12V*%
X97445000Y-54170000D03*
%TO.P,U1,4*%
%TO.N,+12V*%
X89825000Y-54170000D03*
%TO.P,U1,10*%
%TO.N,VSO*%
X97445000Y-56710000D03*
%TO.P,U1,3*%
%TO.N,VP*%
X89825000Y-51630000D03*
%TO.P,U1,9*%
%TO.N,RAMPOUT*%
X97445000Y-59250000D03*
%TO.P,U1,2*%
%TO.N,SQUAREOUT*%
X89825000Y-49090000D03*
%TO.P,U1,8*%
%TO.N,RAMPOUT*%
X97445000Y-61790000D03*
D11*
%TO.P,U1,1*%
%TO.N,SQUAREOUT*%
X89825000Y-46550000D03*
%TD*%
D12*
%TO.P,RV6,3*%
%TO.N,GND*%
X91320000Y-98600000D03*
%TO.P,RV6,2*%
%TO.N,Net-(R22-Pad2)*%
X93860000Y-98600000D03*
%TO.P,RV6,1*%
%TO.N,HighFtrack*%
X96400000Y-98600000D03*
%TD*%
D13*
%TO.P,TUNE,3*%
%TO.N,GND*%
X108000000Y-39400000D03*
%TO.P,TUNE,2*%
%TO.N,Net-(R18-Pad1)*%
X108000000Y-36860000D03*
D14*
%TO.P,TUNE,1*%
%TO.N,+12V*%
X108000000Y-34320000D03*
%TD*%
D13*
%TO.P,PW,3*%
%TO.N,Net-(R12-Pad1)*%
X108000000Y-48400000D03*
%TO.P,PW,2*%
%TO.N,Net-(R14-Pad2)*%
X108000000Y-45860000D03*
D14*
%TO.P,PW,1*%
%TO.N,Net-(R15-Pad2)*%
X108000000Y-43320000D03*
%TD*%
D13*
%TO.P,PW ATT,3*%
%TO.N,GND*%
X108000000Y-57400000D03*
%TO.P,PW ATT,2*%
%TO.N,Net-(R13-Pad2)*%
X108000000Y-54860000D03*
D14*
%TO.P,PW ATT,1*%
%TO.N,PWMIN*%
X108000000Y-52320000D03*
%TD*%
D12*
%TO.P,RV1,3*%
%TO.N,Net-(C5-Pad1)*%
X78800000Y-82400000D03*
%TO.P,RV1,2*%
X78800000Y-79860000D03*
%TO.P,RV1,1*%
%TO.N,Net-(R3-Pad2)*%
X78800000Y-77320000D03*
%TD*%
D15*
%TO.P,R22,2*%
%TO.N,Net-(R22-Pad2)*%
X97600000Y-103000000D03*
D16*
%TO.P,R22,1*%
%TO.N,CVINPUTS*%
X89980000Y-103000000D03*
%TD*%
D15*
%TO.P,R19,2*%
%TO.N,1voctin*%
X104200000Y-65800000D03*
D16*
%TO.P,R19,1*%
%TO.N,CVINPUTS*%
X104200000Y-73420000D03*
%TD*%
D15*
%TO.P,R18,2*%
%TO.N,CVINPUTS*%
X107400000Y-73400000D03*
D16*
%TO.P,R18,1*%
%TO.N,Net-(R18-Pad1)*%
X107400000Y-65780000D03*
%TD*%
D15*
%TO.P,R17,2*%
%TO.N,GND*%
X83400000Y-54600000D03*
D16*
%TO.P,R17,1*%
%TO.N,VPWM*%
X83400000Y-62220000D03*
%TD*%
D15*
%TO.P,R16,2*%
%TO.N,Net-(R16-Pad2)*%
X86600000Y-54600000D03*
D16*
%TO.P,R16,1*%
%TO.N,VPWM*%
X86600000Y-62220000D03*
%TD*%
D15*
%TO.P,R15,2*%
%TO.N,Net-(R15-Pad2)*%
X103800000Y-41200000D03*
D16*
%TO.P,R15,1*%
%TO.N,+12V*%
X103800000Y-33580000D03*
%TD*%
D15*
%TO.P,R14,2*%
%TO.N,Net-(R14-Pad2)*%
X100600000Y-53600000D03*
D16*
%TO.P,R14,1*%
%TO.N,Net-(R13-Pad1)*%
X100600000Y-61220000D03*
%TD*%
D15*
%TO.P,R13,2*%
%TO.N,Net-(R13-Pad2)*%
X103800000Y-53600000D03*
D16*
%TO.P,R13,1*%
%TO.N,Net-(R13-Pad1)*%
X103800000Y-61220000D03*
%TD*%
D15*
%TO.P,R12,2*%
%TO.N,GND*%
X103800000Y-43580000D03*
D16*
%TO.P,R12,1*%
%TO.N,Net-(R12-Pad1)*%
X103800000Y-51200000D03*
%TD*%
D15*
%TO.P,R11,2*%
%TO.N,GND*%
X86800000Y-93300000D03*
D16*
%TO.P,R11,1*%
%TO.N,VP*%
X86800000Y-85680000D03*
%TD*%
D15*
%TO.P,R10,2*%
%TO.N,Net-(R10-Pad2)*%
X105800000Y-85600000D03*
D16*
%TO.P,R10,1*%
%TO.N,GND*%
X105800000Y-93220000D03*
%TD*%
D15*
%TO.P,R9,2*%
%TO.N,Net-(C7-Pad1)*%
X101000000Y-65800000D03*
D16*
%TO.P,R9,1*%
%TO.N,CVINPUTS*%
X101000000Y-73420000D03*
%TD*%
D15*
%TO.P,R8,2*%
%TO.N,-12V*%
X83475000Y-93300000D03*
D16*
%TO.P,R8,1*%
%TO.N,Net-(C5-Pad1)*%
X83475000Y-85680000D03*
%TD*%
D15*
%TO.P,R7,2*%
%TO.N,Net-(J1-Pad1)*%
X94125000Y-106700000D03*
D16*
%TO.P,R7,1*%
%TO.N,-12V*%
X101745000Y-106700000D03*
%TD*%
D15*
%TO.P,R6,2*%
%TO.N,Net-(J1-Pad10)*%
X91650000Y-106700000D03*
D16*
%TO.P,R6,1*%
%TO.N,+12V*%
X84030000Y-106700000D03*
%TD*%
D15*
%TO.P,R5,2*%
%TO.N,Net-(C5-Pad1)*%
X83475000Y-75725000D03*
D16*
%TO.P,R5,1*%
%TO.N,Net-(R5-Pad1)*%
X83475000Y-83345000D03*
%TD*%
D15*
%TO.P,R4,2*%
%TO.N,+12V*%
X107400000Y-83400000D03*
D16*
%TO.P,R4,1*%
%TO.N,Net-(R1-Pad2)*%
X107400000Y-75780000D03*
%TD*%
D15*
%TO.P,R3,2*%
%TO.N,Net-(R3-Pad2)*%
X86800000Y-75700000D03*
D16*
%TO.P,R3,1*%
%TO.N,Net-(R3-Pad1)*%
X86800000Y-83320000D03*
%TD*%
D15*
%TO.P,R2,2*%
%TO.N,GND*%
X104225000Y-83405000D03*
D16*
%TO.P,R2,1*%
%TO.N,Net-(R1-Pad2)*%
X104225000Y-75785000D03*
%TD*%
D15*
%TO.P,R1,2*%
%TO.N,Net-(R1-Pad2)*%
X101000000Y-83400000D03*
D16*
%TO.P,R1,1*%
%TO.N,Net-(C1-Pad2)*%
X101000000Y-75780000D03*
%TD*%
D13*
%TO.P,J2,12*%
%TO.N,GND*%
X107980000Y-29900000D03*
%TO.P,J2,11*%
X105440000Y-29900000D03*
%TO.P,J2,10*%
%TO.N,1voctin*%
X102900000Y-29900000D03*
%TO.P,J2,9*%
%TO.N,CVIN*%
X100360000Y-29900000D03*
%TO.P,J2,8*%
%TO.N,FMINPUT*%
X97820000Y-29900000D03*
%TO.P,J2,7*%
%TO.N,SYNCIN1*%
X95280000Y-29900000D03*
%TO.P,J2,6*%
%TO.N,PWMIN*%
X92740000Y-29900000D03*
%TO.P,J2,5*%
%TO.N,TRIANGLEOUT*%
X90200000Y-29900000D03*
%TO.P,J2,4*%
%TO.N,RAMPOUT*%
X87660000Y-29900000D03*
%TO.P,J2,3*%
%TO.N,SQUAREOUT*%
X85120000Y-29900000D03*
%TO.P,J2,2*%
%TO.N,GND*%
X82580000Y-29900000D03*
D14*
%TO.P,J2,1*%
X80040000Y-29900000D03*
%TD*%
D17*
%TO.P,J1,1*%
%TO.N,Net-(J1-Pad1)*%
X88325000Y-114825000D03*
D18*
%TO.P,J1,2*%
X88325000Y-112285000D03*
%TO.P,J1,3*%
%TO.N,GND*%
X90865000Y-114825000D03*
%TO.P,J1,4*%
X90865000Y-112285000D03*
%TO.P,J1,5*%
X93405000Y-114825000D03*
%TO.P,J1,6*%
X93405000Y-112285000D03*
%TO.P,J1,7*%
X95945000Y-114825000D03*
%TO.P,J1,8*%
X95945000Y-112285000D03*
%TO.P,J1,9*%
%TO.N,Net-(J1-Pad10)*%
X98485000Y-114825000D03*
%TO.P,J1,10*%
X98485000Y-112285000D03*
%TD*%
D16*
%TO.P,C12,2*%
%TO.N,+12V*%
X80200000Y-68400000D03*
%TO.P,C12,1*%
%TO.N,GND*%
X80200000Y-73400000D03*
%TD*%
%TO.P,C9,2*%
%TO.N,-12V*%
X78300000Y-97400000D03*
D19*
%TO.P,C9,1*%
%TO.N,GND*%
X80800000Y-97400000D03*
%TD*%
D16*
%TO.P,C8,2*%
%TO.N,GND*%
X105000000Y-100600000D03*
D19*
%TO.P,C8,1*%
%TO.N,+12V*%
X102500000Y-100600000D03*
%TD*%
D16*
%TO.P,C7,2*%
%TO.N,GND*%
X85400000Y-73400000D03*
%TO.P,C7,1*%
%TO.N,Net-(C7-Pad1)*%
X85400000Y-68400000D03*
%TD*%
%TO.P,C6,2*%
%TO.N,GND*%
X101800000Y-85600000D03*
%TO.P,C6,1*%
%TO.N,Net-(C6-Pad1)*%
X101800000Y-90600000D03*
%TD*%
%TO.P,C5,2*%
%TO.N,GND*%
X85800000Y-100600000D03*
%TO.P,C5,1*%
%TO.N,Net-(C5-Pad1)*%
X85800000Y-95600000D03*
%TD*%
%TO.P,C4,2*%
%TO.N,SYNCIN1*%
X90600000Y-68400000D03*
%TO.P,C4,1*%
%TO.N,Net-(C4-Pad1)*%
X90600000Y-73400000D03*
%TD*%
%TO.P,C3,2*%
%TO.N,-12V*%
X90800000Y-43600000D03*
%TO.P,C3,1*%
%TO.N,GND*%
X90800000Y-38600000D03*
%TD*%
%TO.P,C2,2*%
%TO.N,+12V*%
X96000000Y-43600000D03*
%TO.P,C2,1*%
%TO.N,GND*%
X96000000Y-38600000D03*
%TD*%
%TO.P,C1,2*%
%TO.N,Net-(C1-Pad2)*%
X95800000Y-73400000D03*
%TO.P,C1,1*%
%TO.N,FMINPUT*%
X95800000Y-68400000D03*
%TD*%
D20*
%TO.N,VP*%
X92500000Y-78300000D03*
X93500000Y-71300000D03*
X94500000Y-56300000D03*
%TO.N,VPWM*%
X87500000Y-70800000D03*
%TO.N,VTO*%
X95000000Y-81800000D03*
X95500000Y-71300000D03*
%TD*%
D21*
%TO.N,Net-(C1-Pad2)*%
X98620000Y-73400000D02*
X101000000Y-75780000D01*
X95800000Y-73400000D02*
X98620000Y-73400000D01*
D22*
%TO.N,+12V*%
X85190001Y-105539999D02*
X97560001Y-105539999D01*
X84030000Y-106700000D02*
X85190001Y-105539999D01*
X97560001Y-105539999D02*
X102500000Y-100600000D01*
X103800000Y-35800000D02*
X96000000Y-43600000D01*
X103800000Y-33580000D02*
X103800000Y-35800000D01*
X107260000Y-33580000D02*
X108000000Y-34320000D01*
X103800000Y-33580000D02*
X107260000Y-33580000D01*
X80200000Y-68400000D02*
X80200000Y-60396800D01*
X80200000Y-60396800D02*
X85439999Y-55156801D01*
X85439999Y-55156801D02*
X85439999Y-54043199D01*
X85439999Y-54043199D02*
X86043199Y-53439999D01*
X86043199Y-53439999D02*
X89094999Y-53439999D01*
X89094999Y-53439999D02*
X89825000Y-54170000D01*
X92884805Y-69560001D02*
X81360001Y-69560001D01*
X95201802Y-76285000D02*
X94260002Y-75343200D01*
X97775000Y-76285000D02*
X95201802Y-76285000D01*
X94260002Y-75343200D02*
X94260002Y-70935198D01*
X94260002Y-70935198D02*
X92884805Y-69560001D01*
X81360001Y-69560001D02*
X80200000Y-68400000D01*
X88944509Y-50469990D02*
X90705491Y-50469990D01*
X89825000Y-54170000D02*
X88264990Y-52609990D01*
X88264990Y-52609990D02*
X88264990Y-51149509D01*
X88264990Y-51149509D02*
X88944509Y-50469990D01*
X90705491Y-50469990D02*
X96000000Y-45175481D01*
X96000000Y-45175481D02*
X96000000Y-43600000D01*
D21*
%TO.N,Net-(C5-Pad1)*%
X79340000Y-79860000D02*
X78800000Y-79860000D01*
X83475000Y-75725000D02*
X79340000Y-79860000D01*
X78800000Y-82400000D02*
X78800000Y-79860000D01*
X82080000Y-85680000D02*
X78800000Y-82400000D01*
X83475000Y-85680000D02*
X82080000Y-85680000D01*
X84709999Y-84445001D02*
X83475000Y-85680000D01*
X87340001Y-84445001D02*
X84709999Y-84445001D01*
X90155000Y-81630002D02*
X87340001Y-84445001D01*
X90155000Y-81365000D02*
X90155000Y-81630002D01*
X85000001Y-87205001D02*
X83475000Y-85680000D01*
X85000001Y-94800001D02*
X85000001Y-87205001D01*
X85800000Y-95600000D02*
X85000001Y-94800001D01*
%TO.N,Net-(C6-Pad1)*%
X99390000Y-90600000D02*
X97775000Y-88985000D01*
X101800000Y-90600000D02*
X99390000Y-90600000D01*
%TO.N,Net-(C7-Pad1)*%
X88000000Y-65800000D02*
X85400000Y-68400000D01*
X101000000Y-65800000D02*
X88000000Y-65800000D01*
D22*
%TO.N,Net-(J1-Pad1)*%
X88325000Y-114825000D02*
X88325000Y-112285000D01*
X99708601Y-115412329D02*
X99708601Y-111152231D01*
X88325000Y-112285000D02*
X89641399Y-113601399D01*
X89641399Y-113601399D02*
X96625127Y-113601399D01*
X96625127Y-113601399D02*
X97261399Y-114237671D01*
X97261399Y-114237671D02*
X97261399Y-115412329D01*
X97897671Y-116048601D02*
X99072329Y-116048601D01*
X97261399Y-115412329D02*
X97897671Y-116048601D01*
X99708601Y-111152231D02*
X95256370Y-106700000D01*
X99072329Y-116048601D02*
X99708601Y-115412329D01*
X95256370Y-106700000D02*
X94125000Y-106700000D01*
%TO.N,Net-(J1-Pad10)*%
X98485000Y-112285000D02*
X98485000Y-114825000D01*
X98485000Y-112285000D02*
X97261399Y-111061399D01*
X97261399Y-111061399D02*
X96011399Y-111061399D01*
X96011399Y-111061399D02*
X91650000Y-106700000D01*
D21*
%TO.N,TRIANGLEOUT*%
X97445000Y-46550000D02*
X97445000Y-49090000D01*
%TO.N,RAMPOUT*%
X97445000Y-61790000D02*
X97445000Y-59250000D01*
%TO.N,SQUAREOUT*%
X89825000Y-46550000D02*
X89825000Y-49090000D01*
%TO.N,Net-(R1-Pad2)*%
X100495000Y-83905000D02*
X101000000Y-83400000D01*
X97775000Y-83905000D02*
X100495000Y-83905000D01*
X104225000Y-80175000D02*
X101000000Y-83400000D01*
X104225000Y-75785000D02*
X104225000Y-80175000D01*
X104230000Y-75780000D02*
X104225000Y-75785000D01*
X107400000Y-75780000D02*
X104230000Y-75780000D01*
%TO.N,Net-(R3-Pad2)*%
X81520001Y-74599999D02*
X78800000Y-77320000D01*
X85699999Y-74599999D02*
X81520001Y-74599999D01*
X86800000Y-75700000D02*
X85699999Y-74599999D01*
%TO.N,Net-(R3-Pad1)*%
X84015001Y-84470001D02*
X82934999Y-84470001D01*
X85165002Y-83320000D02*
X84015001Y-84470001D01*
X82349999Y-83885001D02*
X82349999Y-82640001D01*
X82934999Y-84470001D02*
X82349999Y-83885001D01*
X88705000Y-76285000D02*
X90155000Y-76285000D01*
X86800000Y-83320000D02*
X85165002Y-83320000D01*
X82349999Y-82640001D02*
X88705000Y-76285000D01*
%TO.N,Net-(R5-Pad1)*%
X87995000Y-78825000D02*
X83475000Y-83345000D01*
X90155000Y-78825000D02*
X87995000Y-78825000D01*
%TO.N,CVINPUTS*%
X104220000Y-73400000D02*
X104200000Y-73420000D01*
X107400000Y-73400000D02*
X104220000Y-73400000D01*
X101000000Y-73420000D02*
X104200000Y-73420000D01*
X99620002Y-78825000D02*
X97775000Y-78825000D01*
X101000000Y-73420000D02*
X102125001Y-74545001D01*
X102125001Y-74545001D02*
X102125001Y-76320001D01*
X102125001Y-76320001D02*
X99620002Y-78825000D01*
X92130021Y-89000983D02*
X90731014Y-90399990D01*
X92130021Y-83019979D02*
X92130021Y-89000983D01*
X89289006Y-90399990D02*
X88629990Y-91059006D01*
X88629990Y-101649990D02*
X89980000Y-103000000D01*
X90731014Y-90399990D02*
X89289006Y-90399990D01*
X96325000Y-78825000D02*
X92130021Y-83019979D01*
X97775000Y-78825000D02*
X96325000Y-78825000D01*
X88629990Y-91059006D02*
X88629990Y-101649990D01*
%TO.N,Net-(R10-Pad2)*%
X96909006Y-85030010D02*
X96249990Y-84370994D01*
X105800000Y-85600000D02*
X104674999Y-86725001D01*
X104674999Y-86725001D02*
X100335985Y-86725001D01*
X100335985Y-86725001D02*
X98640994Y-85030010D01*
X98640994Y-85030010D02*
X96909006Y-85030010D01*
X96249990Y-84370994D02*
X96249990Y-82890010D01*
X96249990Y-82890010D02*
X97775000Y-81365000D01*
%TO.N,VP*%
X88380000Y-85680000D02*
X90155000Y-83905000D01*
X86800000Y-85680000D02*
X88380000Y-85680000D01*
X92500000Y-72300000D02*
X93500000Y-71300000D01*
X92500000Y-78300000D02*
X92500000Y-72300000D01*
X94500000Y-56300000D02*
X89830000Y-51630000D01*
X89830000Y-51630000D02*
X89825000Y-51630000D01*
%TO.N,Net-(R12-Pad1)*%
X106600000Y-48400000D02*
X103800000Y-51200000D01*
X108000000Y-48400000D02*
X106600000Y-48400000D01*
%TO.N,Net-(R13-Pad2)*%
X105060000Y-54860000D02*
X103800000Y-53600000D01*
X108000000Y-54860000D02*
X105060000Y-54860000D01*
%TO.N,Net-(R13-Pad1)*%
X103800000Y-61220000D02*
X100600000Y-61220000D01*
X100600000Y-61220000D02*
X100600000Y-60088630D01*
X100600000Y-60088630D02*
X98636360Y-58124990D01*
X91239990Y-58124990D02*
X89825000Y-56710000D01*
X98636360Y-58124990D02*
X91239990Y-58124990D01*
%TO.N,Net-(R14-Pad2)*%
X100600000Y-52057919D02*
X100600000Y-53600000D01*
X106797919Y-45860000D02*
X100600000Y-52057919D01*
X108000000Y-45860000D02*
X106797919Y-45860000D01*
%TO.N,Net-(R15-Pad2)*%
X105920000Y-43320000D02*
X103800000Y-41200000D01*
X108000000Y-43320000D02*
X105920000Y-43320000D01*
%TO.N,Net-(R16-Pad2)*%
X86600000Y-57475000D02*
X86600000Y-54600000D01*
X88375000Y-59250000D02*
X86600000Y-57475000D01*
X89825000Y-59250000D02*
X88375000Y-59250000D01*
%TO.N,VPWM*%
X90155000Y-86445000D02*
X90355000Y-86445000D01*
X83400000Y-62220000D02*
X86600000Y-62220000D01*
X87030000Y-61790000D02*
X86600000Y-62220000D01*
X89825000Y-61790000D02*
X87030000Y-61790000D01*
X87500000Y-71965002D02*
X87500000Y-70800000D01*
X91680001Y-75224999D02*
X90980003Y-74525001D01*
X91680001Y-86369999D02*
X91680001Y-75224999D01*
X90155000Y-86445000D02*
X91605000Y-86445000D01*
X90059999Y-74525001D02*
X87500000Y-71965002D01*
X91605000Y-86445000D02*
X91680001Y-86369999D01*
X90980003Y-74525001D02*
X90059999Y-74525001D01*
%TO.N,Net-(R18-Pad1)*%
X109175001Y-64004999D02*
X107400000Y-65780000D01*
X109175001Y-38035001D02*
X109175001Y-64004999D01*
X108000000Y-36860000D02*
X109175001Y-38035001D01*
%TO.N,Net-(R22-Pad2)*%
X97600000Y-102340000D02*
X97600000Y-103000000D01*
X93860000Y-98600000D02*
X97600000Y-102340000D01*
%TO.N,HighFtrack*%
X96400000Y-97770000D02*
X90155000Y-91525000D01*
X96400000Y-98600000D02*
X96400000Y-97770000D01*
%TO.N,VTO*%
X96249990Y-88519006D02*
X96909006Y-87859990D01*
X96249990Y-89450994D02*
X96249990Y-88519006D01*
X96909006Y-90110010D02*
X96249990Y-89450994D01*
X97775000Y-90110010D02*
X96909006Y-90110010D01*
X97775000Y-91525000D02*
X97775000Y-90110010D01*
X95000000Y-85950984D02*
X95000000Y-81800000D01*
X96909006Y-87859990D02*
X95000000Y-85950984D01*
X104925001Y-59590003D02*
X97445000Y-52110002D01*
X97445000Y-52110002D02*
X97445000Y-51630000D01*
X104925001Y-61760001D02*
X104925001Y-59590003D01*
X103074999Y-63610003D02*
X104925001Y-61760001D01*
X103074999Y-65390003D02*
X103074999Y-63610003D01*
X101540001Y-66925001D02*
X103074999Y-65390003D01*
X95609997Y-66925001D02*
X101540001Y-66925001D01*
X94674999Y-67859999D02*
X95609997Y-66925001D01*
X94674999Y-70474999D02*
X94674999Y-67859999D01*
X95500000Y-71300000D02*
X94674999Y-70474999D01*
%TD*%
D23*
%TO.N,GND*%
X107449016Y-26032312D02*
X107880930Y-26162714D01*
X108279285Y-26374524D01*
X108628914Y-26659675D01*
X108916497Y-27007303D01*
X109131086Y-27404177D01*
X109264498Y-27835161D01*
X109315000Y-28315654D01*
X109315000Y-29253375D01*
X109175178Y-29018645D01*
X108980269Y-28802412D01*
X108746920Y-28628359D01*
X108484099Y-28503175D01*
X108336890Y-28458524D01*
X108107000Y-28579845D01*
X108107000Y-29773000D01*
X108127000Y-29773000D01*
X108127000Y-30027000D01*
X108107000Y-30027000D01*
X108107000Y-31220155D01*
X108336890Y-31341476D01*
X108484099Y-31296825D01*
X108746920Y-31171641D01*
X108980269Y-30997588D01*
X109175178Y-30781355D01*
X109315000Y-30546625D01*
X109315000Y-33035649D01*
X109301185Y-33018815D01*
X109204494Y-32939463D01*
X109094180Y-32880498D01*
X108974482Y-32844188D01*
X108850000Y-32831928D01*
X107532624Y-32831928D01*
X107415847Y-32796504D01*
X107299048Y-32785000D01*
X107299040Y-32785000D01*
X107260000Y-32781155D01*
X107220960Y-32785000D01*
X104994657Y-32785000D01*
X104914637Y-32665241D01*
X104714759Y-32465363D01*
X104479727Y-32308320D01*
X104218574Y-32200147D01*
X103941335Y-32145000D01*
X103658665Y-32145000D01*
X103381426Y-32200147D01*
X103120273Y-32308320D01*
X102885241Y-32465363D01*
X102685363Y-32665241D01*
X102528320Y-32900273D01*
X102420147Y-33161426D01*
X102365000Y-33438665D01*
X102365000Y-33721335D01*
X102420147Y-33998574D01*
X102528320Y-34259727D01*
X102685363Y-34494759D01*
X102885241Y-34694637D01*
X103005001Y-34774658D01*
X103005001Y-35470699D01*
X96282602Y-42193100D01*
X96141335Y-42165000D01*
X95858665Y-42165000D01*
X95581426Y-42220147D01*
X95320273Y-42328320D01*
X95085241Y-42485363D01*
X94885363Y-42685241D01*
X94728320Y-42920273D01*
X94620147Y-43181426D01*
X94565000Y-43458665D01*
X94565000Y-43741335D01*
X94620147Y-44018574D01*
X94728320Y-44279727D01*
X94885363Y-44514759D01*
X95085241Y-44714637D01*
X95205000Y-44794657D01*
X95205000Y-44846181D01*
X91541789Y-48509394D01*
X91423932Y-48288899D01*
X91244608Y-48070392D01*
X91131518Y-47977581D01*
X91149482Y-47975812D01*
X91269180Y-47939502D01*
X91379494Y-47880537D01*
X91476185Y-47801185D01*
X91555537Y-47704494D01*
X91614502Y-47594180D01*
X91650812Y-47474482D01*
X91663072Y-47350000D01*
X91663072Y-45750000D01*
X91650812Y-45625518D01*
X91614502Y-45505820D01*
X91555537Y-45395506D01*
X91476185Y-45298815D01*
X91379494Y-45219463D01*
X91269180Y-45160498D01*
X91149482Y-45124188D01*
X91025000Y-45111928D01*
X88625000Y-45111928D01*
X88500518Y-45124188D01*
X88380820Y-45160498D01*
X88270506Y-45219463D01*
X88173815Y-45298815D01*
X88094463Y-45395506D01*
X88035498Y-45505820D01*
X87999188Y-45625518D01*
X87986928Y-45750000D01*
X87986928Y-47350000D01*
X87999188Y-47474482D01*
X88035498Y-47594180D01*
X88094463Y-47704494D01*
X88173815Y-47801185D01*
X88270506Y-47880537D01*
X88380820Y-47939502D01*
X88500518Y-47975812D01*
X88518482Y-47977581D01*
X88405392Y-48070392D01*
X88226068Y-48288899D01*
X88092818Y-48538192D01*
X88010764Y-48808691D01*
X87983057Y-49090000D01*
X88010764Y-49371309D01*
X88092818Y-49641808D01*
X88226068Y-49891101D01*
X88304062Y-49986137D01*
X87730453Y-50559748D01*
X87700122Y-50584640D01*
X87600775Y-50705694D01*
X87563359Y-50775694D01*
X87526953Y-50843805D01*
X87481494Y-50993662D01*
X87466145Y-51149509D01*
X87469991Y-51188559D01*
X87469990Y-52570949D01*
X87466145Y-52609990D01*
X87469593Y-52644999D01*
X86082239Y-52644999D01*
X86043199Y-52641154D01*
X86004159Y-52644999D01*
X86004151Y-52644999D01*
X85887352Y-52656503D01*
X85737494Y-52701962D01*
X85599384Y-52775783D01*
X85508660Y-52850238D01*
X85508656Y-52850242D01*
X85478330Y-52875130D01*
X85453441Y-52905457D01*
X84905462Y-53453438D01*
X84875131Y-53478330D01*
X84775784Y-53599384D01*
X84756501Y-53635460D01*
X84701962Y-53737495D01*
X84656503Y-53887352D01*
X84653870Y-53914087D01*
X84552385Y-53744869D01*
X84363414Y-53536481D01*
X84137420Y-53368963D01*
X83883087Y-53248754D01*
X83749039Y-53208096D01*
X83527000Y-53330085D01*
X83527000Y-54473000D01*
X83547000Y-54473000D01*
X83547000Y-54727000D01*
X83527000Y-54727000D01*
X83527000Y-55869915D01*
X83575784Y-55896717D01*
X79665464Y-59807038D01*
X79635132Y-59831931D01*
X79535785Y-59952985D01*
X79511189Y-59999002D01*
X79461963Y-60091096D01*
X79416504Y-60240953D01*
X79401155Y-60396800D01*
X79405001Y-60435850D01*
X79405000Y-67205343D01*
X79285241Y-67285363D01*
X79085363Y-67485241D01*
X78928320Y-67720273D01*
X78820147Y-67981426D01*
X78765000Y-68258665D01*
X78765000Y-68541335D01*
X78820147Y-68818574D01*
X78928320Y-69079727D01*
X79085363Y-69314759D01*
X79285241Y-69514637D01*
X79520273Y-69671680D01*
X79781426Y-69779853D01*
X80058665Y-69835000D01*
X80341335Y-69835000D01*
X80482601Y-69806900D01*
X80770239Y-70094538D01*
X80795132Y-70124870D01*
X80916186Y-70224217D01*
X81054296Y-70298038D01*
X81169275Y-70332916D01*
X81204153Y-70343497D01*
X81219604Y-70345019D01*
X81320953Y-70355001D01*
X81320960Y-70355001D01*
X81360000Y-70358846D01*
X81399040Y-70355001D01*
X86564049Y-70355001D01*
X86504774Y-70498102D01*
X86465000Y-70698061D01*
X86465000Y-70901939D01*
X86504774Y-71101898D01*
X86582795Y-71290256D01*
X86696063Y-71459774D01*
X86740000Y-71503711D01*
X86740000Y-71927679D01*
X86736324Y-71965002D01*
X86740000Y-72002324D01*
X86740000Y-72002334D01*
X86750997Y-72113987D01*
X86794454Y-72257248D01*
X86865026Y-72389278D01*
X86879815Y-72407298D01*
X86959999Y-72505003D01*
X86989003Y-72528806D01*
X89307124Y-74846928D01*
X88955000Y-74846928D01*
X88830518Y-74859188D01*
X88710820Y-74895498D01*
X88600506Y-74954463D01*
X88503815Y-75033815D01*
X88424463Y-75130506D01*
X88365498Y-75240820D01*
X88329188Y-75360518D01*
X88316928Y-75485000D01*
X88316928Y-75630674D01*
X88280724Y-75650026D01*
X88235000Y-75687551D01*
X88235000Y-75558665D01*
X88179853Y-75281426D01*
X88071680Y-75020273D01*
X87914637Y-74785241D01*
X87714759Y-74585363D01*
X87479727Y-74428320D01*
X87218574Y-74320147D01*
X86941335Y-74265000D01*
X86658665Y-74265000D01*
X86480122Y-74300515D01*
X86392704Y-74213097D01*
X86636671Y-74141514D01*
X86757571Y-73886004D01*
X86826300Y-73611816D01*
X86840217Y-73329488D01*
X86798787Y-73049870D01*
X86703603Y-72783708D01*
X86636671Y-72658486D01*
X86392702Y-72586903D01*
X85579605Y-73400000D01*
X85593748Y-73414143D01*
X85414143Y-73593748D01*
X85400000Y-73579605D01*
X85385858Y-73593748D01*
X85206253Y-73414143D01*
X85220395Y-73400000D01*
X84407298Y-72586903D01*
X84163329Y-72658486D01*
X84042429Y-72913996D01*
X83973700Y-73188184D01*
X83959783Y-73470512D01*
X84001213Y-73750130D01*
X84033352Y-73839999D01*
X81569103Y-73839999D01*
X81626300Y-73611816D01*
X81640217Y-73329488D01*
X81598787Y-73049870D01*
X81503603Y-72783708D01*
X81436671Y-72658486D01*
X81192702Y-72586903D01*
X80379605Y-73400000D01*
X80393748Y-73414143D01*
X80214143Y-73593748D01*
X80200000Y-73579605D01*
X79386903Y-74392702D01*
X79458486Y-74636671D01*
X79713996Y-74757571D01*
X79988184Y-74826300D01*
X80208060Y-74837138D01*
X79055852Y-75989346D01*
X78933456Y-75965000D01*
X78666544Y-75965000D01*
X78404761Y-76017072D01*
X78158167Y-76119215D01*
X77936238Y-76267503D01*
X77747503Y-76456238D01*
X77599215Y-76678167D01*
X77497072Y-76924761D01*
X77445000Y-77186544D01*
X77445000Y-77453456D01*
X77497072Y-77715239D01*
X77599215Y-77961833D01*
X77747503Y-78183762D01*
X77936238Y-78372497D01*
X78158167Y-78520785D01*
X78325266Y-78590000D01*
X78158167Y-78659215D01*
X77936238Y-78807503D01*
X77747503Y-78996238D01*
X77599215Y-79218167D01*
X77497072Y-79464761D01*
X77445000Y-79726544D01*
X77445000Y-79993456D01*
X77497072Y-80255239D01*
X77599215Y-80501833D01*
X77747503Y-80723762D01*
X77936238Y-80912497D01*
X78040001Y-80981829D01*
X78040000Y-81278171D01*
X77936238Y-81347503D01*
X77747503Y-81536238D01*
X77599215Y-81758167D01*
X77497072Y-82004761D01*
X77445000Y-82266544D01*
X77445000Y-82533456D01*
X77497072Y-82795239D01*
X77599215Y-83041833D01*
X77747503Y-83263762D01*
X77936238Y-83452497D01*
X78158167Y-83600785D01*
X78404761Y-83702928D01*
X78666544Y-83755000D01*
X78933456Y-83755000D01*
X79055852Y-83730654D01*
X81516205Y-86191008D01*
X81539999Y-86220001D01*
X81568992Y-86243795D01*
X81568996Y-86243799D01*
X81612775Y-86279727D01*
X81655724Y-86314974D01*
X81787753Y-86385546D01*
X81931014Y-86429003D01*
X82042667Y-86440000D01*
X82042676Y-86440000D01*
X82079999Y-86443676D01*
X82117322Y-86440000D01*
X82256957Y-86440000D01*
X82360363Y-86594759D01*
X82560241Y-86794637D01*
X82795273Y-86951680D01*
X83056426Y-87059853D01*
X83333665Y-87115000D01*
X83616335Y-87115000D01*
X83798886Y-87078688D01*
X84240002Y-87519804D01*
X84240001Y-92085298D01*
X84154727Y-92028320D01*
X83893574Y-91920147D01*
X83616335Y-91865000D01*
X83333665Y-91865000D01*
X83056426Y-91920147D01*
X82795273Y-92028320D01*
X82560241Y-92185363D01*
X82360363Y-92385241D01*
X82203320Y-92620273D01*
X82095147Y-92881426D01*
X82040000Y-93158665D01*
X82040000Y-93441335D01*
X82095147Y-93718574D01*
X82203320Y-93979727D01*
X82360363Y-94214759D01*
X82560241Y-94414637D01*
X82795273Y-94571680D01*
X83056426Y-94679853D01*
X83333665Y-94735000D01*
X83616335Y-94735000D01*
X83893574Y-94679853D01*
X84154727Y-94571680D01*
X84240001Y-94514702D01*
X84240001Y-94762679D01*
X84236325Y-94800001D01*
X84240001Y-94837323D01*
X84240001Y-94837333D01*
X84250998Y-94948986D01*
X84292138Y-95084608D01*
X84294455Y-95092247D01*
X84365027Y-95224277D01*
X84402533Y-95269977D01*
X84365000Y-95458665D01*
X84365000Y-95741335D01*
X84420147Y-96018574D01*
X84528320Y-96279727D01*
X84685363Y-96514759D01*
X84885241Y-96714637D01*
X85120273Y-96871680D01*
X85381426Y-96979853D01*
X85658665Y-97035000D01*
X85941335Y-97035000D01*
X86218574Y-96979853D01*
X86479727Y-96871680D01*
X86714759Y-96714637D01*
X86914637Y-96514759D01*
X87071680Y-96279727D01*
X87179853Y-96018574D01*
X87235000Y-95741335D01*
X87235000Y-95458665D01*
X87179853Y-95181426D01*
X87071680Y-94920273D01*
X86927002Y-94703747D01*
X86927002Y-94569916D01*
X87149039Y-94691904D01*
X87283087Y-94651246D01*
X87537420Y-94531037D01*
X87763414Y-94363519D01*
X87869990Y-94245992D01*
X87869991Y-101612658D01*
X87866314Y-101649990D01*
X87869991Y-101687323D01*
X87880988Y-101798976D01*
X87890095Y-101828997D01*
X87924444Y-101942236D01*
X87995016Y-102074266D01*
X88066191Y-102160992D01*
X88089990Y-102189991D01*
X88118988Y-102213789D01*
X88581312Y-102676114D01*
X88545000Y-102858665D01*
X88545000Y-103141335D01*
X88600147Y-103418574D01*
X88708320Y-103679727D01*
X88865363Y-103914759D01*
X89065241Y-104114637D01*
X89300273Y-104271680D01*
X89561426Y-104379853D01*
X89838665Y-104435000D01*
X90121335Y-104435000D01*
X90398574Y-104379853D01*
X90659727Y-104271680D01*
X90894759Y-104114637D01*
X91094637Y-103914759D01*
X91251680Y-103679727D01*
X91359853Y-103418574D01*
X91415000Y-103141335D01*
X91415000Y-102858665D01*
X91359853Y-102581426D01*
X91251680Y-102320273D01*
X91094637Y-102085241D01*
X90894759Y-101885363D01*
X90659727Y-101728320D01*
X90398574Y-101620147D01*
X90121335Y-101565000D01*
X89838665Y-101565000D01*
X89656114Y-101601312D01*
X89389990Y-101335189D01*
X89389990Y-99535560D01*
X90564045Y-99535560D01*
X90625932Y-99771368D01*
X90867790Y-99884266D01*
X91127027Y-99947811D01*
X91393680Y-99959561D01*
X91657501Y-99919063D01*
X91908353Y-99827875D01*
X92014068Y-99771368D01*
X92075955Y-99535560D01*
X91320000Y-98779605D01*
X90564045Y-99535560D01*
X89389990Y-99535560D01*
X89389990Y-98673680D01*
X89960439Y-98673680D01*
X90000937Y-98937501D01*
X90092125Y-99188353D01*
X90148632Y-99294068D01*
X90384440Y-99355955D01*
X91140395Y-98600000D01*
X90384440Y-97844045D01*
X90148632Y-97905932D01*
X90035734Y-98147790D01*
X89972189Y-98407027D01*
X89960439Y-98673680D01*
X89389990Y-98673680D01*
X89389990Y-97664440D01*
X90564045Y-97664440D01*
X91320000Y-98420395D01*
X92075955Y-97664440D01*
X92014068Y-97428632D01*
X91772210Y-97315734D01*
X91512973Y-97252189D01*
X91246320Y-97240439D01*
X90982499Y-97280937D01*
X90731647Y-97372125D01*
X90625932Y-97428632D01*
X90564045Y-97664440D01*
X89389990Y-97664440D01*
X89389990Y-95453846D01*
X89473691Y-95479236D01*
X89684508Y-95500000D01*
X90625492Y-95500000D01*
X90836309Y-95479236D01*
X91106808Y-95397182D01*
X91356101Y-95263932D01*
X91574608Y-95084608D01*
X91753932Y-94866101D01*
X91887182Y-94616808D01*
X91953473Y-94398274D01*
X95325046Y-97769848D01*
X95199215Y-97958167D01*
X95130000Y-98125266D01*
X95060785Y-97958167D01*
X94912497Y-97736238D01*
X94723762Y-97547503D01*
X94501833Y-97399215D01*
X94255239Y-97297072D01*
X93993456Y-97245000D01*
X93726544Y-97245000D01*
X93464761Y-97297072D01*
X93218167Y-97399215D01*
X92996238Y-97547503D01*
X92807503Y-97736238D01*
X92659215Y-97958167D01*
X92589562Y-98126324D01*
X92547875Y-98011647D01*
X92491368Y-97905932D01*
X92255560Y-97844045D01*
X91499605Y-98600000D01*
X92255560Y-99355955D01*
X92491368Y-99294068D01*
X92591764Y-99078993D01*
X92659215Y-99241833D01*
X92807503Y-99463762D01*
X92996238Y-99652497D01*
X93218167Y-99800785D01*
X93464761Y-99902928D01*
X93726544Y-99955000D01*
X93993456Y-99955000D01*
X94115853Y-99930654D01*
X96399277Y-102214079D01*
X96328320Y-102320273D01*
X96220147Y-102581426D01*
X96165000Y-102858665D01*
X96165000Y-103141335D01*
X96220147Y-103418574D01*
X96328320Y-103679727D01*
X96485363Y-103914759D01*
X96685241Y-104114637D01*
X96920273Y-104271680D01*
X97181426Y-104379853D01*
X97458665Y-104435000D01*
X97540702Y-104435000D01*
X97230703Y-104744999D01*
X85229040Y-104744999D01*
X85190000Y-104741154D01*
X85150960Y-104744999D01*
X85150953Y-104744999D01*
X85049604Y-104754981D01*
X85034153Y-104756503D01*
X84999275Y-104767084D01*
X84884296Y-104801962D01*
X84746186Y-104875783D01*
X84625132Y-104975130D01*
X84600240Y-105005461D01*
X84312601Y-105293100D01*
X84171335Y-105265000D01*
X83888665Y-105265000D01*
X83611426Y-105320147D01*
X83350273Y-105428320D01*
X83115241Y-105585363D01*
X82915363Y-105785241D01*
X82758320Y-106020273D01*
X82650147Y-106281426D01*
X82595000Y-106558665D01*
X82595000Y-106841335D01*
X82650147Y-107118574D01*
X82758320Y-107379727D01*
X82915363Y-107614759D01*
X83115241Y-107814637D01*
X83350273Y-107971680D01*
X83611426Y-108079853D01*
X83888665Y-108135000D01*
X84171335Y-108135000D01*
X84448574Y-108079853D01*
X84709727Y-107971680D01*
X84944759Y-107814637D01*
X85144637Y-107614759D01*
X85301680Y-107379727D01*
X85409853Y-107118574D01*
X85465000Y-106841335D01*
X85465000Y-106558665D01*
X85436900Y-106417399D01*
X85519300Y-106334999D01*
X90259491Y-106334999D01*
X90215000Y-106558665D01*
X90215000Y-106841335D01*
X90270147Y-107118574D01*
X90378320Y-107379727D01*
X90535363Y-107614759D01*
X90735241Y-107814637D01*
X90970273Y-107971680D01*
X91231426Y-108079853D01*
X91508665Y-108135000D01*
X91791335Y-108135000D01*
X91932602Y-108106900D01*
X94974281Y-111148580D01*
X94934707Y-111178146D01*
X94738183Y-111396512D01*
X94675000Y-111502770D01*
X94611817Y-111396512D01*
X94415293Y-111178146D01*
X94179944Y-111002316D01*
X93914814Y-110875778D01*
X93764026Y-110830042D01*
X93532000Y-110951183D01*
X93532000Y-112158000D01*
X95818000Y-112158000D01*
X95818000Y-112138000D01*
X96072000Y-112138000D01*
X96072000Y-112158000D01*
X96092000Y-112158000D01*
X96092000Y-112412000D01*
X96072000Y-112412000D01*
X96072000Y-112432000D01*
X95818000Y-112432000D01*
X95818000Y-112412000D01*
X93532000Y-112412000D01*
X93532000Y-112432000D01*
X93278000Y-112432000D01*
X93278000Y-112412000D01*
X90992000Y-112412000D01*
X90992000Y-112432000D01*
X90738000Y-112432000D01*
X90738000Y-112412000D01*
X90718000Y-112412000D01*
X90718000Y-112158000D01*
X90738000Y-112158000D01*
X90738000Y-110951183D01*
X90992000Y-110951183D01*
X90992000Y-112158000D01*
X93278000Y-112158000D01*
X93278000Y-110951183D01*
X93045974Y-110830042D01*
X92895186Y-110875778D01*
X92630056Y-111002316D01*
X92394707Y-111178146D01*
X92198183Y-111396512D01*
X92135000Y-111502770D01*
X92071817Y-111396512D01*
X91875293Y-111178146D01*
X91639944Y-111002316D01*
X91374814Y-110875778D01*
X91224026Y-110830042D01*
X90992000Y-110951183D01*
X90738000Y-110951183D01*
X90505974Y-110830042D01*
X90355186Y-110875778D01*
X90090056Y-111002316D01*
X89854707Y-111178146D01*
X89658183Y-111396512D01*
X89599559Y-111495103D01*
X89489039Y-111329698D01*
X89280302Y-111120961D01*
X89034853Y-110956958D01*
X88762125Y-110843990D01*
X88472599Y-110786400D01*
X88177401Y-110786400D01*
X87887875Y-110843990D01*
X87615147Y-110956958D01*
X87369698Y-111120961D01*
X87160961Y-111329698D01*
X86996958Y-111575147D01*
X86883990Y-111847875D01*
X86826400Y-112137401D01*
X86826400Y-112432599D01*
X86883990Y-112722125D01*
X86996958Y-112994853D01*
X87160961Y-113240302D01*
X87275023Y-113354364D01*
X87217220Y-113371898D01*
X87106906Y-113430863D01*
X87010215Y-113510215D01*
X86930863Y-113606906D01*
X86871898Y-113717220D01*
X86835588Y-113836918D01*
X86823328Y-113961400D01*
X86823328Y-115688600D01*
X86835588Y-115813082D01*
X86871898Y-115932780D01*
X86930863Y-116043094D01*
X87010215Y-116139785D01*
X87106906Y-116219137D01*
X87217220Y-116278102D01*
X87336918Y-116314412D01*
X87461400Y-116326672D01*
X89188600Y-116326672D01*
X89313082Y-116314412D01*
X89432780Y-116278102D01*
X89543094Y-116219137D01*
X89639785Y-116139785D01*
X89719137Y-116043094D01*
X89778102Y-115932780D01*
X89797624Y-115868426D01*
X89854707Y-115931854D01*
X90090056Y-116107684D01*
X90355186Y-116234222D01*
X90505974Y-116279958D01*
X90738000Y-116158817D01*
X90738000Y-114952000D01*
X90992000Y-114952000D01*
X90992000Y-116158817D01*
X91224026Y-116279958D01*
X91374814Y-116234222D01*
X91639944Y-116107684D01*
X91875293Y-115931854D01*
X92071817Y-115713488D01*
X92135000Y-115607230D01*
X92198183Y-115713488D01*
X92394707Y-115931854D01*
X92630056Y-116107684D01*
X92895186Y-116234222D01*
X93045974Y-116279958D01*
X93278000Y-116158817D01*
X93278000Y-114952000D01*
X93532000Y-114952000D01*
X93532000Y-116158817D01*
X93764026Y-116279958D01*
X93914814Y-116234222D01*
X94179944Y-116107684D01*
X94415293Y-115931854D01*
X94611817Y-115713488D01*
X94675000Y-115607230D01*
X94738183Y-115713488D01*
X94934707Y-115931854D01*
X95170056Y-116107684D01*
X95435186Y-116234222D01*
X95585974Y-116279958D01*
X95818000Y-116158817D01*
X95818000Y-114952000D01*
X93532000Y-114952000D01*
X93278000Y-114952000D01*
X90992000Y-114952000D01*
X90738000Y-114952000D01*
X90718000Y-114952000D01*
X90718000Y-114698000D01*
X90738000Y-114698000D01*
X90738000Y-114678000D01*
X90992000Y-114678000D01*
X90992000Y-114698000D01*
X93278000Y-114698000D01*
X93278000Y-114678000D01*
X93532000Y-114678000D01*
X93532000Y-114698000D01*
X95818000Y-114698000D01*
X95818000Y-114678000D01*
X96072000Y-114678000D01*
X96072000Y-114698000D01*
X96092000Y-114698000D01*
X96092000Y-114952000D01*
X96072000Y-114952000D01*
X96072000Y-116158817D01*
X96304026Y-116279958D01*
X96454814Y-116234222D01*
X96719944Y-116107684D01*
X96784343Y-116059571D01*
X97307913Y-116583143D01*
X97332802Y-116613470D01*
X97363128Y-116638358D01*
X97363131Y-116638361D01*
X97429738Y-116693024D01*
X97453856Y-116712817D01*
X97591966Y-116786638D01*
X97741824Y-116832097D01*
X97858623Y-116843601D01*
X97858632Y-116843601D01*
X97897670Y-116847446D01*
X97936708Y-116843601D01*
X99033289Y-116843601D01*
X99072329Y-116847446D01*
X99111369Y-116843601D01*
X99111377Y-116843601D01*
X99228176Y-116832097D01*
X99378034Y-116786638D01*
X99516144Y-116712817D01*
X99637198Y-116613470D01*
X99662095Y-116583133D01*
X100243144Y-116002086D01*
X100273470Y-115977198D01*
X100298363Y-115946867D01*
X100372816Y-115856145D01*
X100372817Y-115856144D01*
X100446638Y-115718034D01*
X100488549Y-115579872D01*
X104765000Y-115579872D01*
X104765000Y-116020128D01*
X104850890Y-116451925D01*
X105019369Y-116858669D01*
X105263962Y-117224729D01*
X105575271Y-117536038D01*
X105941331Y-117780631D01*
X106348075Y-117949110D01*
X106779872Y-118035000D01*
X107220128Y-118035000D01*
X107651925Y-117949110D01*
X108058669Y-117780631D01*
X108424729Y-117536038D01*
X108736038Y-117224729D01*
X108980631Y-116858669D01*
X109149110Y-116451925D01*
X109235000Y-116020128D01*
X109235000Y-115579872D01*
X109149110Y-115148075D01*
X108980631Y-114741331D01*
X108736038Y-114375271D01*
X108424729Y-114063962D01*
X108058669Y-113819369D01*
X107651925Y-113650890D01*
X107220128Y-113565000D01*
X106779872Y-113565000D01*
X106348075Y-113650890D01*
X105941331Y-113819369D01*
X105575271Y-114063962D01*
X105263962Y-114375271D01*
X105019369Y-114741331D01*
X104850890Y-115148075D01*
X104765000Y-115579872D01*
X100488549Y-115579872D01*
X100492097Y-115568176D01*
X100503601Y-115451377D01*
X100503601Y-115451368D01*
X100507446Y-115412330D01*
X100503601Y-115373292D01*
X100503601Y-111191268D01*
X100507446Y-111152230D01*
X100503601Y-111113192D01*
X100503601Y-111113183D01*
X100492097Y-110996384D01*
X100446638Y-110846526D01*
X100372817Y-110708416D01*
X100273470Y-110587362D01*
X100243144Y-110562474D01*
X96239334Y-106558665D01*
X100310000Y-106558665D01*
X100310000Y-106841335D01*
X100365147Y-107118574D01*
X100473320Y-107379727D01*
X100630363Y-107614759D01*
X100830241Y-107814637D01*
X101065273Y-107971680D01*
X101326426Y-108079853D01*
X101603665Y-108135000D01*
X101886335Y-108135000D01*
X102163574Y-108079853D01*
X102424727Y-107971680D01*
X102659759Y-107814637D01*
X102859637Y-107614759D01*
X103016680Y-107379727D01*
X103124853Y-107118574D01*
X103180000Y-106841335D01*
X103180000Y-106558665D01*
X103124853Y-106281426D01*
X103016680Y-106020273D01*
X102859637Y-105785241D01*
X102659759Y-105585363D01*
X102424727Y-105428320D01*
X102163574Y-105320147D01*
X101886335Y-105265000D01*
X101603665Y-105265000D01*
X101326426Y-105320147D01*
X101065273Y-105428320D01*
X100830241Y-105585363D01*
X100630363Y-105785241D01*
X100473320Y-106020273D01*
X100365147Y-106281426D01*
X100310000Y-106558665D01*
X96239334Y-106558665D01*
X96015667Y-106334999D01*
X97520961Y-106334999D01*
X97560001Y-106338844D01*
X97599041Y-106334999D01*
X97599049Y-106334999D01*
X97715848Y-106323495D01*
X97865706Y-106278036D01*
X98003816Y-106204215D01*
X98124870Y-106104868D01*
X98149767Y-106074531D01*
X102186228Y-102038072D01*
X103300000Y-102038072D01*
X103424482Y-102025812D01*
X103544180Y-101989502D01*
X103654494Y-101930537D01*
X103751185Y-101851185D01*
X103830537Y-101754494D01*
X103889502Y-101644180D01*
X103905117Y-101592702D01*
X104186903Y-101592702D01*
X104258486Y-101836671D01*
X104513996Y-101957571D01*
X104788184Y-102026300D01*
X105070512Y-102040217D01*
X105350130Y-101998787D01*
X105616292Y-101903603D01*
X105741514Y-101836671D01*
X105813097Y-101592702D01*
X105000000Y-100779605D01*
X104186903Y-101592702D01*
X103905117Y-101592702D01*
X103925812Y-101524482D01*
X103938072Y-101400000D01*
X103938072Y-101392785D01*
X104007298Y-101413097D01*
X104820395Y-100600000D01*
X105179605Y-100600000D01*
X105992702Y-101413097D01*
X106236671Y-101341514D01*
X106357571Y-101086004D01*
X106426300Y-100811816D01*
X106440217Y-100529488D01*
X106398787Y-100249870D01*
X106303603Y-99983708D01*
X106236671Y-99858486D01*
X105992702Y-99786903D01*
X105179605Y-100600000D01*
X104820395Y-100600000D01*
X104007298Y-99786903D01*
X103938072Y-99807215D01*
X103938072Y-99800000D01*
X103925812Y-99675518D01*
X103905118Y-99607298D01*
X104186903Y-99607298D01*
X105000000Y-100420395D01*
X105813097Y-99607298D01*
X105741514Y-99363329D01*
X105486004Y-99242429D01*
X105211816Y-99173700D01*
X104929488Y-99159783D01*
X104649870Y-99201213D01*
X104383708Y-99296397D01*
X104258486Y-99363329D01*
X104186903Y-99607298D01*
X103905118Y-99607298D01*
X103889502Y-99555820D01*
X103830537Y-99445506D01*
X103751185Y-99348815D01*
X103654494Y-99269463D01*
X103544180Y-99210498D01*
X103424482Y-99174188D01*
X103300000Y-99161928D01*
X101700000Y-99161928D01*
X101575518Y-99174188D01*
X101455820Y-99210498D01*
X101345506Y-99269463D01*
X101248815Y-99348815D01*
X101169463Y-99445506D01*
X101110498Y-99555820D01*
X101074188Y-99675518D01*
X101061928Y-99800000D01*
X101061928Y-100913772D01*
X99035000Y-102940701D01*
X99035000Y-102858665D01*
X98979853Y-102581426D01*
X98871680Y-102320273D01*
X98714637Y-102085241D01*
X98514759Y-101885363D01*
X98279727Y-101728320D01*
X98018574Y-101620147D01*
X97939150Y-101604348D01*
X96289802Y-99955000D01*
X96533456Y-99955000D01*
X96795239Y-99902928D01*
X97041833Y-99800785D01*
X97263762Y-99652497D01*
X97452497Y-99463762D01*
X97600785Y-99241833D01*
X97702928Y-98995239D01*
X97755000Y-98733456D01*
X97755000Y-98466544D01*
X97702928Y-98204761D01*
X97600785Y-97958167D01*
X97452497Y-97736238D01*
X97263762Y-97547503D01*
X97075640Y-97421804D01*
X97034974Y-97345724D01*
X96940001Y-97229999D01*
X96911003Y-97206201D01*
X91850408Y-92145607D01*
X91887182Y-92076808D01*
X91969236Y-91806309D01*
X91996943Y-91525000D01*
X91969236Y-91243691D01*
X91887182Y-90973192D01*
X91753932Y-90723899D01*
X91631315Y-90574490D01*
X92641024Y-89564782D01*
X92670022Y-89540984D01*
X92764995Y-89425259D01*
X92835567Y-89293230D01*
X92879024Y-89149969D01*
X92890021Y-89038316D01*
X92890021Y-89038308D01*
X92893697Y-89000983D01*
X92890021Y-88963658D01*
X92890021Y-83334780D01*
X94039373Y-82185428D01*
X94082795Y-82290256D01*
X94196063Y-82459774D01*
X94240001Y-82503712D01*
X94240000Y-85913661D01*
X94236324Y-85950984D01*
X94240000Y-85988306D01*
X94240000Y-85988316D01*
X94250997Y-86099969D01*
X94287408Y-86220001D01*
X94294454Y-86243230D01*
X94365026Y-86375260D01*
X94404871Y-86423810D01*
X94459999Y-86490985D01*
X94489003Y-86514788D01*
X95834205Y-87859990D01*
X95738988Y-87955207D01*
X95709990Y-87979005D01*
X95686192Y-88008003D01*
X95686191Y-88008004D01*
X95615016Y-88094730D01*
X95544444Y-88226760D01*
X95500988Y-88370021D01*
X95486314Y-88519006D01*
X95489991Y-88556338D01*
X95489990Y-89413671D01*
X95486314Y-89450994D01*
X95489990Y-89488316D01*
X95489990Y-89488326D01*
X95500987Y-89599979D01*
X95533308Y-89706529D01*
X95544444Y-89743240D01*
X95615016Y-89875270D01*
X95651949Y-89920273D01*
X95709989Y-89990995D01*
X95738992Y-90014797D01*
X96298684Y-90574490D01*
X96176068Y-90723899D01*
X96042818Y-90973192D01*
X95960764Y-91243691D01*
X95933057Y-91525000D01*
X95960764Y-91806309D01*
X96042818Y-92076808D01*
X96176068Y-92326101D01*
X96355392Y-92544608D01*
X96573899Y-92723932D01*
X96706858Y-92795000D01*
X96573899Y-92866068D01*
X96355392Y-93045392D01*
X96176068Y-93263899D01*
X96042818Y-93513192D01*
X95960764Y-93783691D01*
X95933057Y-94065000D01*
X95960764Y-94346309D01*
X96042818Y-94616808D01*
X96176068Y-94866101D01*
X96355392Y-95084608D01*
X96573899Y-95263932D01*
X96823192Y-95397182D01*
X97093691Y-95479236D01*
X97304508Y-95500000D01*
X98245492Y-95500000D01*
X98456309Y-95479236D01*
X98726808Y-95397182D01*
X98976101Y-95263932D01*
X99194608Y-95084608D01*
X99373932Y-94866101D01*
X99507182Y-94616808D01*
X99589236Y-94346309D01*
X99602395Y-94212702D01*
X104986903Y-94212702D01*
X105058486Y-94456671D01*
X105313996Y-94577571D01*
X105588184Y-94646300D01*
X105870512Y-94660217D01*
X106150130Y-94618787D01*
X106416292Y-94523603D01*
X106541514Y-94456671D01*
X106613097Y-94212702D01*
X105800000Y-93399605D01*
X104986903Y-94212702D01*
X99602395Y-94212702D01*
X99616943Y-94065000D01*
X99589236Y-93783691D01*
X99507182Y-93513192D01*
X99388157Y-93290512D01*
X104359783Y-93290512D01*
X104401213Y-93570130D01*
X104496397Y-93836292D01*
X104563329Y-93961514D01*
X104807298Y-94033097D01*
X105620395Y-93220000D01*
X105979605Y-93220000D01*
X106792702Y-94033097D01*
X107036671Y-93961514D01*
X107157571Y-93706004D01*
X107226300Y-93431816D01*
X107240217Y-93149488D01*
X107198787Y-92869870D01*
X107103603Y-92603708D01*
X107036671Y-92478486D01*
X106792702Y-92406903D01*
X105979605Y-93220000D01*
X105620395Y-93220000D01*
X104807298Y-92406903D01*
X104563329Y-92478486D01*
X104442429Y-92733996D01*
X104373700Y-93008184D01*
X104359783Y-93290512D01*
X99388157Y-93290512D01*
X99373932Y-93263899D01*
X99194608Y-93045392D01*
X98976101Y-92866068D01*
X98843142Y-92795000D01*
X98976101Y-92723932D01*
X99194608Y-92544608D01*
X99373932Y-92326101D01*
X99426743Y-92227298D01*
X104986903Y-92227298D01*
X105800000Y-93040395D01*
X106613097Y-92227298D01*
X106541514Y-91983329D01*
X106286004Y-91862429D01*
X106011816Y-91793700D01*
X105729488Y-91779783D01*
X105449870Y-91821213D01*
X105183708Y-91916397D01*
X105058486Y-91983329D01*
X104986903Y-92227298D01*
X99426743Y-92227298D01*
X99507182Y-92076808D01*
X99589236Y-91806309D01*
X99616943Y-91525000D01*
X99600692Y-91360000D01*
X100581957Y-91360000D01*
X100685363Y-91514759D01*
X100885241Y-91714637D01*
X101120273Y-91871680D01*
X101381426Y-91979853D01*
X101658665Y-92035000D01*
X101941335Y-92035000D01*
X102218574Y-91979853D01*
X102479727Y-91871680D01*
X102714759Y-91714637D01*
X102914637Y-91514759D01*
X103071680Y-91279727D01*
X103179853Y-91018574D01*
X103235000Y-90741335D01*
X103235000Y-90458665D01*
X103179853Y-90181426D01*
X103071680Y-89920273D01*
X102914637Y-89685241D01*
X102714759Y-89485363D01*
X102479727Y-89328320D01*
X102218574Y-89220147D01*
X101941335Y-89165000D01*
X101658665Y-89165000D01*
X101381426Y-89220147D01*
X101120273Y-89328320D01*
X100885241Y-89485363D01*
X100685363Y-89685241D01*
X100581957Y-89840000D01*
X99704802Y-89840000D01*
X99470408Y-89605607D01*
X99507182Y-89536808D01*
X99589236Y-89266309D01*
X99616943Y-88985000D01*
X99589236Y-88703691D01*
X99507182Y-88433192D01*
X99373932Y-88183899D01*
X99194608Y-87965392D01*
X98976101Y-87786068D01*
X98848259Y-87717735D01*
X99077839Y-87567601D01*
X99279500Y-87369895D01*
X99438715Y-87136646D01*
X99508638Y-86972456D01*
X99772186Y-87236004D01*
X99795984Y-87265002D01*
X99911709Y-87359975D01*
X100043738Y-87430547D01*
X100186999Y-87474004D01*
X100298652Y-87485001D01*
X100298661Y-87485001D01*
X100335984Y-87488677D01*
X100373307Y-87485001D01*
X104637677Y-87485001D01*
X104674999Y-87488677D01*
X104712321Y-87485001D01*
X104712332Y-87485001D01*
X104823985Y-87474004D01*
X104967246Y-87430547D01*
X105099275Y-87359975D01*
X105215000Y-87265002D01*
X105238803Y-87235999D01*
X105476113Y-86998688D01*
X105658665Y-87035000D01*
X105941335Y-87035000D01*
X106218574Y-86979853D01*
X106479727Y-86871680D01*
X106714759Y-86714637D01*
X106914637Y-86514759D01*
X107071680Y-86279727D01*
X107179853Y-86018574D01*
X107235000Y-85741335D01*
X107235000Y-85458665D01*
X107179853Y-85181426D01*
X107071680Y-84920273D01*
X106976488Y-84777808D01*
X106981426Y-84779853D01*
X107258665Y-84835000D01*
X107541335Y-84835000D01*
X107818574Y-84779853D01*
X108079727Y-84671680D01*
X108314759Y-84514637D01*
X108514637Y-84314759D01*
X108671680Y-84079727D01*
X108779853Y-83818574D01*
X108835000Y-83541335D01*
X108835000Y-83258665D01*
X108779853Y-82981426D01*
X108671680Y-82720273D01*
X108514637Y-82485241D01*
X108314759Y-82285363D01*
X108079727Y-82128320D01*
X107818574Y-82020147D01*
X107541335Y-81965000D01*
X107258665Y-81965000D01*
X106981426Y-82020147D01*
X106720273Y-82128320D01*
X106485241Y-82285363D01*
X106285363Y-82485241D01*
X106128320Y-82720273D01*
X106020147Y-82981426D01*
X105965000Y-83258665D01*
X105965000Y-83541335D01*
X106020147Y-83818574D01*
X106128320Y-84079727D01*
X106223512Y-84222192D01*
X106218574Y-84220147D01*
X105941335Y-84165000D01*
X105658665Y-84165000D01*
X105404065Y-84215644D01*
X105522070Y-84018881D01*
X105616909Y-83754040D01*
X105495624Y-83532000D01*
X104352000Y-83532000D01*
X104352000Y-84674915D01*
X104574039Y-84796904D01*
X104620084Y-84782938D01*
X104528320Y-84920273D01*
X104420147Y-85181426D01*
X104365000Y-85458665D01*
X104365000Y-85741335D01*
X104401312Y-85923887D01*
X104360198Y-85965001D01*
X103187902Y-85965001D01*
X103226300Y-85811816D01*
X103240217Y-85529488D01*
X103198787Y-85249870D01*
X103103603Y-84983708D01*
X103036671Y-84858486D01*
X102792702Y-84786903D01*
X101979605Y-85600000D01*
X101993748Y-85614143D01*
X101814143Y-85793748D01*
X101800000Y-85779605D01*
X101785858Y-85793748D01*
X101606253Y-85614143D01*
X101620395Y-85600000D01*
X101606253Y-85585858D01*
X101785858Y-85406253D01*
X101800000Y-85420395D01*
X102613097Y-84607298D01*
X102541514Y-84363329D01*
X102286004Y-84242429D01*
X102180617Y-84216012D01*
X102271680Y-84079727D01*
X102379853Y-83818574D01*
X102392689Y-83754040D01*
X102833091Y-83754040D01*
X102927930Y-84018881D01*
X103072615Y-84260131D01*
X103261586Y-84468519D01*
X103487580Y-84636037D01*
X103741913Y-84756246D01*
X103875961Y-84796904D01*
X104098000Y-84674915D01*
X104098000Y-83532000D01*
X102954376Y-83532000D01*
X102833091Y-83754040D01*
X102392689Y-83754040D01*
X102435000Y-83541335D01*
X102435000Y-83258665D01*
X102398688Y-83076114D01*
X102418842Y-83055960D01*
X102833091Y-83055960D01*
X102954376Y-83278000D01*
X104098000Y-83278000D01*
X104098000Y-82135085D01*
X104352000Y-82135085D01*
X104352000Y-83278000D01*
X105495624Y-83278000D01*
X105616909Y-83055960D01*
X105522070Y-82791119D01*
X105377385Y-82549869D01*
X105188414Y-82341481D01*
X104962420Y-82173963D01*
X104708087Y-82053754D01*
X104574039Y-82013096D01*
X104352000Y-82135085D01*
X104098000Y-82135085D01*
X103875961Y-82013096D01*
X103741913Y-82053754D01*
X103487580Y-82173963D01*
X103261586Y-82341481D01*
X103072615Y-82549869D01*
X102927930Y-82791119D01*
X102833091Y-83055960D01*
X102418842Y-83055960D01*
X104736003Y-80738799D01*
X104765001Y-80715001D01*
X104859974Y-80599276D01*
X104930546Y-80467247D01*
X104974003Y-80323986D01*
X104985000Y-80212333D01*
X104985000Y-80212325D01*
X104988676Y-80175000D01*
X104985000Y-80137675D01*
X104985000Y-77003043D01*
X105139759Y-76899637D01*
X105339637Y-76699759D01*
X105446384Y-76540000D01*
X106181957Y-76540000D01*
X106285363Y-76694759D01*
X106485241Y-76894637D01*
X106720273Y-77051680D01*
X106981426Y-77159853D01*
X107258665Y-77215000D01*
X107541335Y-77215000D01*
X107818574Y-77159853D01*
X108079727Y-77051680D01*
X108314759Y-76894637D01*
X108514637Y-76694759D01*
X108671680Y-76459727D01*
X108779853Y-76198574D01*
X108835000Y-75921335D01*
X108835000Y-75638665D01*
X108779853Y-75361426D01*
X108671680Y-75100273D01*
X108514637Y-74865241D01*
X108314759Y-74665363D01*
X108201970Y-74590000D01*
X108314759Y-74514637D01*
X108514637Y-74314759D01*
X108671680Y-74079727D01*
X108779853Y-73818574D01*
X108835000Y-73541335D01*
X108835000Y-73258665D01*
X108779853Y-72981426D01*
X108671680Y-72720273D01*
X108514637Y-72485241D01*
X108314759Y-72285363D01*
X108079727Y-72128320D01*
X107818574Y-72020147D01*
X107541335Y-71965000D01*
X107258665Y-71965000D01*
X106981426Y-72020147D01*
X106720273Y-72128320D01*
X106485241Y-72285363D01*
X106285363Y-72485241D01*
X106181957Y-72640000D01*
X105404680Y-72640000D01*
X105314637Y-72505241D01*
X105114759Y-72305363D01*
X104879727Y-72148320D01*
X104618574Y-72040147D01*
X104341335Y-71985000D01*
X104058665Y-71985000D01*
X103781426Y-72040147D01*
X103520273Y-72148320D01*
X103285241Y-72305363D01*
X103085363Y-72505241D01*
X102981957Y-72660000D01*
X102218043Y-72660000D01*
X102114637Y-72505241D01*
X101914759Y-72305363D01*
X101679727Y-72148320D01*
X101418574Y-72040147D01*
X101141335Y-71985000D01*
X100858665Y-71985000D01*
X100581426Y-72040147D01*
X100320273Y-72148320D01*
X100085241Y-72305363D01*
X99885363Y-72505241D01*
X99728320Y-72740273D01*
X99620147Y-73001426D01*
X99566405Y-73271603D01*
X99183804Y-72889003D01*
X99160001Y-72859999D01*
X99044276Y-72765026D01*
X98912247Y-72694454D01*
X98768986Y-72650997D01*
X98657333Y-72640000D01*
X98657322Y-72640000D01*
X98620000Y-72636324D01*
X98582678Y-72640000D01*
X97018043Y-72640000D01*
X96914637Y-72485241D01*
X96714759Y-72285363D01*
X96479727Y-72128320D01*
X96236245Y-72027466D01*
X96303937Y-71959774D01*
X96417205Y-71790256D01*
X96495226Y-71601898D01*
X96535000Y-71401939D01*
X96535000Y-71198061D01*
X96495226Y-70998102D01*
X96417205Y-70809744D01*
X96303937Y-70640226D01*
X96159774Y-70496063D01*
X95990256Y-70382795D01*
X95801898Y-70304774D01*
X95601939Y-70265000D01*
X95539801Y-70265000D01*
X95434999Y-70160198D01*
X95434999Y-69790509D01*
X95658665Y-69835000D01*
X95941335Y-69835000D01*
X96218574Y-69779853D01*
X96479727Y-69671680D01*
X96714759Y-69514637D01*
X96914637Y-69314759D01*
X97071680Y-69079727D01*
X97179853Y-68818574D01*
X97235000Y-68541335D01*
X97235000Y-68258665D01*
X97179853Y-67981426D01*
X97071680Y-67720273D01*
X97048112Y-67685001D01*
X101502679Y-67685001D01*
X101540001Y-67688677D01*
X101577323Y-67685001D01*
X101577334Y-67685001D01*
X101688987Y-67674004D01*
X101832248Y-67630547D01*
X101964277Y-67559975D01*
X102080002Y-67465002D01*
X102103805Y-67435998D01*
X102981094Y-66558709D01*
X103085363Y-66714759D01*
X103285241Y-66914637D01*
X103520273Y-67071680D01*
X103781426Y-67179853D01*
X104058665Y-67235000D01*
X104341335Y-67235000D01*
X104618574Y-67179853D01*
X104879727Y-67071680D01*
X105114759Y-66914637D01*
X105314637Y-66714759D01*
X105471680Y-66479727D01*
X105579853Y-66218574D01*
X105635000Y-65941335D01*
X105635000Y-65658665D01*
X105579853Y-65381426D01*
X105471680Y-65120273D01*
X105314637Y-64885241D01*
X105114759Y-64685363D01*
X104879727Y-64528320D01*
X104618574Y-64420147D01*
X104341335Y-64365000D01*
X104058665Y-64365000D01*
X103834999Y-64409491D01*
X103834999Y-63924804D01*
X105436005Y-62323799D01*
X105465002Y-62300002D01*
X105530658Y-62220000D01*
X105559975Y-62184278D01*
X105630547Y-62052248D01*
X105651347Y-61983677D01*
X105674004Y-61908987D01*
X105685001Y-61797334D01*
X105685001Y-61797324D01*
X105688677Y-61760001D01*
X105685001Y-61722678D01*
X105685001Y-59627326D01*
X105688677Y-59590003D01*
X105685001Y-59552680D01*
X105685001Y-59552670D01*
X105674004Y-59441017D01*
X105630547Y-59297756D01*
X105559975Y-59165727D01*
X105465002Y-59050002D01*
X105436004Y-59026204D01*
X104166690Y-57756890D01*
X106558524Y-57756890D01*
X106603175Y-57904099D01*
X106728359Y-58166920D01*
X106902412Y-58400269D01*
X107118645Y-58595178D01*
X107368748Y-58744157D01*
X107643109Y-58841481D01*
X107873000Y-58720814D01*
X107873000Y-57527000D01*
X106679845Y-57527000D01*
X106558524Y-57756890D01*
X104166690Y-57756890D01*
X101280778Y-54870978D01*
X101514759Y-54714637D01*
X101714637Y-54514759D01*
X101871680Y-54279727D01*
X101979853Y-54018574D01*
X102035000Y-53741335D01*
X102035000Y-53458665D01*
X101979853Y-53181426D01*
X101871680Y-52920273D01*
X101714637Y-52685241D01*
X101514759Y-52485363D01*
X101360000Y-52381957D01*
X101360000Y-52372720D01*
X102369378Y-51363343D01*
X102420147Y-51618574D01*
X102528320Y-51879727D01*
X102685363Y-52114759D01*
X102885241Y-52314637D01*
X103012996Y-52400000D01*
X102885241Y-52485363D01*
X102685363Y-52685241D01*
X102528320Y-52920273D01*
X102420147Y-53181426D01*
X102365000Y-53458665D01*
X102365000Y-53741335D01*
X102420147Y-54018574D01*
X102528320Y-54279727D01*
X102685363Y-54514759D01*
X102885241Y-54714637D01*
X103120273Y-54871680D01*
X103381426Y-54979853D01*
X103658665Y-55035000D01*
X103941335Y-55035000D01*
X104123886Y-54998688D01*
X104496201Y-55371003D01*
X104519999Y-55400001D01*
X104548997Y-55423799D01*
X104635723Y-55494974D01*
X104763759Y-55563411D01*
X104767753Y-55565546D01*
X104911014Y-55609003D01*
X105022667Y-55620000D01*
X105022676Y-55620000D01*
X105059999Y-55623676D01*
X105097322Y-55620000D01*
X106721822Y-55620000D01*
X106846525Y-55806632D01*
X107053368Y-56013475D01*
X107235534Y-56135195D01*
X107118645Y-56204822D01*
X106902412Y-56399731D01*
X106728359Y-56633080D01*
X106603175Y-56895901D01*
X106558524Y-57043110D01*
X106679845Y-57273000D01*
X107873000Y-57273000D01*
X107873000Y-57253000D01*
X108127000Y-57253000D01*
X108127000Y-57273000D01*
X108147000Y-57273000D01*
X108147000Y-57527000D01*
X108127000Y-57527000D01*
X108127000Y-58720814D01*
X108356891Y-58841481D01*
X108415002Y-58820867D01*
X108415002Y-63690195D01*
X107723886Y-64381312D01*
X107541335Y-64345000D01*
X107258665Y-64345000D01*
X106981426Y-64400147D01*
X106720273Y-64508320D01*
X106485241Y-64665363D01*
X106285363Y-64865241D01*
X106128320Y-65100273D01*
X106020147Y-65361426D01*
X105965000Y-65638665D01*
X105965000Y-65921335D01*
X106020147Y-66198574D01*
X106128320Y-66459727D01*
X106285363Y-66694759D01*
X106485241Y-66894637D01*
X106720273Y-67051680D01*
X106981426Y-67159853D01*
X107258665Y-67215000D01*
X107541335Y-67215000D01*
X107818574Y-67159853D01*
X108079727Y-67051680D01*
X108314759Y-66894637D01*
X108514637Y-66694759D01*
X108671680Y-66459727D01*
X108779853Y-66198574D01*
X108835000Y-65921335D01*
X108835000Y-65638665D01*
X108798688Y-65456114D01*
X109315000Y-64939802D01*
X109315001Y-115766485D01*
X109267688Y-116249016D01*
X109137287Y-116680927D01*
X108925480Y-117079280D01*
X108640325Y-117428914D01*
X108292697Y-117716497D01*
X107895825Y-117931085D01*
X107464834Y-118064500D01*
X106984346Y-118115000D01*
X79033504Y-118115000D01*
X78550984Y-118067688D01*
X78119073Y-117937287D01*
X77720720Y-117725480D01*
X77371086Y-117440325D01*
X77083503Y-117092697D01*
X76868915Y-116695825D01*
X76735500Y-116264834D01*
X76685000Y-115784346D01*
X76685000Y-115579872D01*
X76765000Y-115579872D01*
X76765000Y-116020128D01*
X76850890Y-116451925D01*
X77019369Y-116858669D01*
X77263962Y-117224729D01*
X77575271Y-117536038D01*
X77941331Y-117780631D01*
X78348075Y-117949110D01*
X78779872Y-118035000D01*
X79220128Y-118035000D01*
X79651925Y-117949110D01*
X80058669Y-117780631D01*
X80424729Y-117536038D01*
X80736038Y-117224729D01*
X80980631Y-116858669D01*
X81149110Y-116451925D01*
X81235000Y-116020128D01*
X81235000Y-115579872D01*
X81149110Y-115148075D01*
X80980631Y-114741331D01*
X80736038Y-114375271D01*
X80424729Y-114063962D01*
X80058669Y-113819369D01*
X79651925Y-113650890D01*
X79220128Y-113565000D01*
X78779872Y-113565000D01*
X78348075Y-113650890D01*
X77941331Y-113819369D01*
X77575271Y-114063962D01*
X77263962Y-114375271D01*
X77019369Y-114741331D01*
X76850890Y-115148075D01*
X76765000Y-115579872D01*
X76685000Y-115579872D01*
X76685000Y-101592702D01*
X84986903Y-101592702D01*
X85058486Y-101836671D01*
X85313996Y-101957571D01*
X85588184Y-102026300D01*
X85870512Y-102040217D01*
X86150130Y-101998787D01*
X86416292Y-101903603D01*
X86541514Y-101836671D01*
X86613097Y-101592702D01*
X85800000Y-100779605D01*
X84986903Y-101592702D01*
X76685000Y-101592702D01*
X76685000Y-100670512D01*
X84359783Y-100670512D01*
X84401213Y-100950130D01*
X84496397Y-101216292D01*
X84563329Y-101341514D01*
X84807298Y-101413097D01*
X85620395Y-100600000D01*
X85979605Y-100600000D01*
X86792702Y-101413097D01*
X87036671Y-101341514D01*
X87157571Y-101086004D01*
X87226300Y-100811816D01*
X87240217Y-100529488D01*
X87198787Y-100249870D01*
X87103603Y-99983708D01*
X87036671Y-99858486D01*
X86792702Y-99786903D01*
X85979605Y-100600000D01*
X85620395Y-100600000D01*
X84807298Y-99786903D01*
X84563329Y-99858486D01*
X84442429Y-100113996D01*
X84373700Y-100388184D01*
X84359783Y-100670512D01*
X76685000Y-100670512D01*
X76685000Y-99607298D01*
X84986903Y-99607298D01*
X85800000Y-100420395D01*
X86613097Y-99607298D01*
X86541514Y-99363329D01*
X86286004Y-99242429D01*
X86011816Y-99173700D01*
X85729488Y-99159783D01*
X85449870Y-99201213D01*
X85183708Y-99296397D01*
X85058486Y-99363329D01*
X84986903Y-99607298D01*
X76685000Y-99607298D01*
X76685000Y-97258665D01*
X76865000Y-97258665D01*
X76865000Y-97541335D01*
X76920147Y-97818574D01*
X77028320Y-98079727D01*
X77185363Y-98314759D01*
X77385241Y-98514637D01*
X77620273Y-98671680D01*
X77881426Y-98779853D01*
X78158665Y-98835000D01*
X78441335Y-98835000D01*
X78718574Y-98779853D01*
X78979727Y-98671680D01*
X79214759Y-98514637D01*
X79381339Y-98348057D01*
X79410498Y-98444180D01*
X79469463Y-98554494D01*
X79548815Y-98651185D01*
X79645506Y-98730537D01*
X79755820Y-98789502D01*
X79875518Y-98825812D01*
X80000000Y-98838072D01*
X80514250Y-98835000D01*
X80673000Y-98676250D01*
X80673000Y-97527000D01*
X80927000Y-97527000D01*
X80927000Y-98676250D01*
X81085750Y-98835000D01*
X81600000Y-98838072D01*
X81724482Y-98825812D01*
X81844180Y-98789502D01*
X81954494Y-98730537D01*
X82051185Y-98651185D01*
X82130537Y-98554494D01*
X82189502Y-98444180D01*
X82225812Y-98324482D01*
X82238072Y-98200000D01*
X82235000Y-97685750D01*
X82076250Y-97527000D01*
X80927000Y-97527000D01*
X80673000Y-97527000D01*
X80653000Y-97527000D01*
X80653000Y-97273000D01*
X80673000Y-97273000D01*
X80673000Y-96123750D01*
X80927000Y-96123750D01*
X80927000Y-97273000D01*
X82076250Y-97273000D01*
X82235000Y-97114250D01*
X82238072Y-96600000D01*
X82225812Y-96475518D01*
X82189502Y-96355820D01*
X82130537Y-96245506D01*
X82051185Y-96148815D01*
X81954494Y-96069463D01*
X81844180Y-96010498D01*
X81724482Y-95974188D01*
X81600000Y-95961928D01*
X81085750Y-95965000D01*
X80927000Y-96123750D01*
X80673000Y-96123750D01*
X80514250Y-95965000D01*
X80000000Y-95961928D01*
X79875518Y-95974188D01*
X79755820Y-96010498D01*
X79645506Y-96069463D01*
X79548815Y-96148815D01*
X79469463Y-96245506D01*
X79410498Y-96355820D01*
X79381339Y-96451943D01*
X79214759Y-96285363D01*
X78979727Y-96128320D01*
X78718574Y-96020147D01*
X78441335Y-95965000D01*
X78158665Y-95965000D01*
X77881426Y-96020147D01*
X77620273Y-96128320D01*
X77385241Y-96285363D01*
X77185363Y-96485241D01*
X77028320Y-96720273D01*
X76920147Y-96981426D01*
X76865000Y-97258665D01*
X76685000Y-97258665D01*
X76685000Y-73470512D01*
X78759783Y-73470512D01*
X78801213Y-73750130D01*
X78896397Y-74016292D01*
X78963329Y-74141514D01*
X79207298Y-74213097D01*
X80020395Y-73400000D01*
X79207298Y-72586903D01*
X78963329Y-72658486D01*
X78842429Y-72913996D01*
X78773700Y-73188184D01*
X78759783Y-73470512D01*
X76685000Y-73470512D01*
X76685000Y-72407298D01*
X79386903Y-72407298D01*
X80200000Y-73220395D01*
X81013097Y-72407298D01*
X84586903Y-72407298D01*
X85400000Y-73220395D01*
X86213097Y-72407298D01*
X86141514Y-72163329D01*
X85886004Y-72042429D01*
X85611816Y-71973700D01*
X85329488Y-71959783D01*
X85049870Y-72001213D01*
X84783708Y-72096397D01*
X84658486Y-72163329D01*
X84586903Y-72407298D01*
X81013097Y-72407298D01*
X80941514Y-72163329D01*
X80686004Y-72042429D01*
X80411816Y-71973700D01*
X80129488Y-71959783D01*
X79849870Y-72001213D01*
X79583708Y-72096397D01*
X79458486Y-72163329D01*
X79386903Y-72407298D01*
X76685000Y-72407298D01*
X76685000Y-54949040D01*
X82008091Y-54949040D01*
X82102930Y-55213881D01*
X82247615Y-55455131D01*
X82436586Y-55663519D01*
X82662580Y-55831037D01*
X82916913Y-55951246D01*
X83050961Y-55991904D01*
X83273000Y-55869915D01*
X83273000Y-54727000D01*
X82129376Y-54727000D01*
X82008091Y-54949040D01*
X76685000Y-54949040D01*
X76685000Y-54250960D01*
X82008091Y-54250960D01*
X82129376Y-54473000D01*
X83273000Y-54473000D01*
X83273000Y-53330085D01*
X83050961Y-53208096D01*
X82916913Y-53248754D01*
X82662580Y-53368963D01*
X82436586Y-53536481D01*
X82247615Y-53744869D01*
X82102930Y-53986119D01*
X82008091Y-54250960D01*
X76685000Y-54250960D01*
X76685000Y-43458665D01*
X89365000Y-43458665D01*
X89365000Y-43741335D01*
X89420147Y-44018574D01*
X89528320Y-44279727D01*
X89685363Y-44514759D01*
X89885241Y-44714637D01*
X90120273Y-44871680D01*
X90381426Y-44979853D01*
X90658665Y-45035000D01*
X90941335Y-45035000D01*
X91218574Y-44979853D01*
X91479727Y-44871680D01*
X91714759Y-44714637D01*
X91914637Y-44514759D01*
X92071680Y-44279727D01*
X92179853Y-44018574D01*
X92235000Y-43741335D01*
X92235000Y-43458665D01*
X92179853Y-43181426D01*
X92071680Y-42920273D01*
X91914637Y-42685241D01*
X91714759Y-42485363D01*
X91479727Y-42328320D01*
X91218574Y-42220147D01*
X90941335Y-42165000D01*
X90658665Y-42165000D01*
X90381426Y-42220147D01*
X90120273Y-42328320D01*
X89885241Y-42485363D01*
X89685363Y-42685241D01*
X89528320Y-42920273D01*
X89420147Y-43181426D01*
X89365000Y-43458665D01*
X76685000Y-43458665D01*
X76685000Y-39592702D01*
X89986903Y-39592702D01*
X90058486Y-39836671D01*
X90313996Y-39957571D01*
X90588184Y-40026300D01*
X90870512Y-40040217D01*
X91150130Y-39998787D01*
X91416292Y-39903603D01*
X91541514Y-39836671D01*
X91613097Y-39592702D01*
X95186903Y-39592702D01*
X95258486Y-39836671D01*
X95513996Y-39957571D01*
X95788184Y-40026300D01*
X96070512Y-40040217D01*
X96350130Y-39998787D01*
X96616292Y-39903603D01*
X96741514Y-39836671D01*
X96813097Y-39592702D01*
X96000000Y-38779605D01*
X95186903Y-39592702D01*
X91613097Y-39592702D01*
X90800000Y-38779605D01*
X89986903Y-39592702D01*
X76685000Y-39592702D01*
X76685000Y-38670512D01*
X89359783Y-38670512D01*
X89401213Y-38950130D01*
X89496397Y-39216292D01*
X89563329Y-39341514D01*
X89807298Y-39413097D01*
X90620395Y-38600000D01*
X90979605Y-38600000D01*
X91792702Y-39413097D01*
X92036671Y-39341514D01*
X92157571Y-39086004D01*
X92226300Y-38811816D01*
X92233265Y-38670512D01*
X94559783Y-38670512D01*
X94601213Y-38950130D01*
X94696397Y-39216292D01*
X94763329Y-39341514D01*
X95007298Y-39413097D01*
X95820395Y-38600000D01*
X96179605Y-38600000D01*
X96992702Y-39413097D01*
X97236671Y-39341514D01*
X97357571Y-39086004D01*
X97426300Y-38811816D01*
X97440217Y-38529488D01*
X97398787Y-38249870D01*
X97303603Y-37983708D01*
X97236671Y-37858486D01*
X96992702Y-37786903D01*
X96179605Y-38600000D01*
X95820395Y-38600000D01*
X95007298Y-37786903D01*
X94763329Y-37858486D01*
X94642429Y-38113996D01*
X94573700Y-38388184D01*
X94559783Y-38670512D01*
X92233265Y-38670512D01*
X92240217Y-38529488D01*
X92198787Y-38249870D01*
X92103603Y-37983708D01*
X92036671Y-37858486D01*
X91792702Y-37786903D01*
X90979605Y-38600000D01*
X90620395Y-38600000D01*
X89807298Y-37786903D01*
X89563329Y-37858486D01*
X89442429Y-38113996D01*
X89373700Y-38388184D01*
X89359783Y-38670512D01*
X76685000Y-38670512D01*
X76685000Y-35579872D01*
X76765000Y-35579872D01*
X76765000Y-36020128D01*
X76850890Y-36451925D01*
X77019369Y-36858669D01*
X77263962Y-37224729D01*
X77575271Y-37536038D01*
X77941331Y-37780631D01*
X78348075Y-37949110D01*
X78779872Y-38035000D01*
X79220128Y-38035000D01*
X79651925Y-37949110D01*
X80058669Y-37780631D01*
X80318080Y-37607298D01*
X89986903Y-37607298D01*
X90800000Y-38420395D01*
X91613097Y-37607298D01*
X95186903Y-37607298D01*
X96000000Y-38420395D01*
X96813097Y-37607298D01*
X96741514Y-37363329D01*
X96486004Y-37242429D01*
X96211816Y-37173700D01*
X95929488Y-37159783D01*
X95649870Y-37201213D01*
X95383708Y-37296397D01*
X95258486Y-37363329D01*
X95186903Y-37607298D01*
X91613097Y-37607298D01*
X91541514Y-37363329D01*
X91286004Y-37242429D01*
X91011816Y-37173700D01*
X90729488Y-37159783D01*
X90449870Y-37201213D01*
X90183708Y-37296397D01*
X90058486Y-37363329D01*
X89986903Y-37607298D01*
X80318080Y-37607298D01*
X80424729Y-37536038D01*
X80736038Y-37224729D01*
X80980631Y-36858669D01*
X81149110Y-36451925D01*
X81235000Y-36020128D01*
X81235000Y-35579872D01*
X81149110Y-35148075D01*
X80980631Y-34741331D01*
X80736038Y-34375271D01*
X80424729Y-34063962D01*
X80058669Y-33819369D01*
X79651925Y-33650890D01*
X79220128Y-33565000D01*
X78779872Y-33565000D01*
X78348075Y-33650890D01*
X77941331Y-33819369D01*
X77575271Y-34063962D01*
X77263962Y-34375271D01*
X77019369Y-34741331D01*
X76850890Y-35148075D01*
X76765000Y-35579872D01*
X76685000Y-35579872D01*
X76685000Y-30750000D01*
X78551928Y-30750000D01*
X78564188Y-30874482D01*
X78600498Y-30994180D01*
X78659463Y-31104494D01*
X78738815Y-31201185D01*
X78835506Y-31280537D01*
X78945820Y-31339502D01*
X79065518Y-31375812D01*
X79190000Y-31388072D01*
X79754250Y-31385000D01*
X79913000Y-31226250D01*
X79913000Y-30027000D01*
X80167000Y-30027000D01*
X80167000Y-31226250D01*
X80325750Y-31385000D01*
X80890000Y-31388072D01*
X81014482Y-31375812D01*
X81134180Y-31339502D01*
X81244494Y-31280537D01*
X81341185Y-31201185D01*
X81420537Y-31104494D01*
X81479502Y-30994180D01*
X81503966Y-30913534D01*
X81579731Y-30997588D01*
X81813080Y-31171641D01*
X82075901Y-31296825D01*
X82223110Y-31341476D01*
X82453000Y-31220155D01*
X82453000Y-30027000D01*
X80167000Y-30027000D01*
X79913000Y-30027000D01*
X78713750Y-30027000D01*
X78555000Y-30185750D01*
X78551928Y-30750000D01*
X76685000Y-30750000D01*
X76685000Y-29050000D01*
X78551928Y-29050000D01*
X78555000Y-29614250D01*
X78713750Y-29773000D01*
X79913000Y-29773000D01*
X79913000Y-28573750D01*
X80167000Y-28573750D01*
X80167000Y-29773000D01*
X82453000Y-29773000D01*
X82453000Y-28579845D01*
X82707000Y-28579845D01*
X82707000Y-29773000D01*
X82727000Y-29773000D01*
X82727000Y-30027000D01*
X82707000Y-30027000D01*
X82707000Y-31220155D01*
X82936890Y-31341476D01*
X83084099Y-31296825D01*
X83346920Y-31171641D01*
X83580269Y-30997588D01*
X83775178Y-30781355D01*
X83844805Y-30664466D01*
X83966525Y-30846632D01*
X84173368Y-31053475D01*
X84416589Y-31215990D01*
X84686842Y-31327932D01*
X84973740Y-31385000D01*
X85266260Y-31385000D01*
X85553158Y-31327932D01*
X85823411Y-31215990D01*
X86066632Y-31053475D01*
X86273475Y-30846632D01*
X86390000Y-30672240D01*
X86506525Y-30846632D01*
X86713368Y-31053475D01*
X86956589Y-31215990D01*
X87226842Y-31327932D01*
X87513740Y-31385000D01*
X87806260Y-31385000D01*
X88093158Y-31327932D01*
X88363411Y-31215990D01*
X88606632Y-31053475D01*
X88813475Y-30846632D01*
X88930000Y-30672240D01*
X89046525Y-30846632D01*
X89253368Y-31053475D01*
X89496589Y-31215990D01*
X89766842Y-31327932D01*
X90053740Y-31385000D01*
X90346260Y-31385000D01*
X90633158Y-31327932D01*
X90903411Y-31215990D01*
X91146632Y-31053475D01*
X91353475Y-30846632D01*
X91470000Y-30672240D01*
X91586525Y-30846632D01*
X91793368Y-31053475D01*
X92036589Y-31215990D01*
X92306842Y-31327932D01*
X92593740Y-31385000D01*
X92886260Y-31385000D01*
X93173158Y-31327932D01*
X93443411Y-31215990D01*
X93686632Y-31053475D01*
X93893475Y-30846632D01*
X94010000Y-30672240D01*
X94126525Y-30846632D01*
X94333368Y-31053475D01*
X94576589Y-31215990D01*
X94846842Y-31327932D01*
X95133740Y-31385000D01*
X95426260Y-31385000D01*
X95713158Y-31327932D01*
X95983411Y-31215990D01*
X96226632Y-31053475D01*
X96433475Y-30846632D01*
X96550000Y-30672240D01*
X96666525Y-30846632D01*
X96873368Y-31053475D01*
X97116589Y-31215990D01*
X97386842Y-31327932D01*
X97673740Y-31385000D01*
X97966260Y-31385000D01*
X98253158Y-31327932D01*
X98523411Y-31215990D01*
X98766632Y-31053475D01*
X98973475Y-30846632D01*
X99090000Y-30672240D01*
X99206525Y-30846632D01*
X99413368Y-31053475D01*
X99656589Y-31215990D01*
X99926842Y-31327932D01*
X100213740Y-31385000D01*
X100506260Y-31385000D01*
X100793158Y-31327932D01*
X101063411Y-31215990D01*
X101306632Y-31053475D01*
X101513475Y-30846632D01*
X101630000Y-30672240D01*
X101746525Y-30846632D01*
X101953368Y-31053475D01*
X102196589Y-31215990D01*
X102466842Y-31327932D01*
X102753740Y-31385000D01*
X103046260Y-31385000D01*
X103333158Y-31327932D01*
X103603411Y-31215990D01*
X103846632Y-31053475D01*
X104053475Y-30846632D01*
X104175195Y-30664466D01*
X104244822Y-30781355D01*
X104439731Y-30997588D01*
X104673080Y-31171641D01*
X104935901Y-31296825D01*
X105083110Y-31341476D01*
X105313000Y-31220155D01*
X105313000Y-30027000D01*
X105567000Y-30027000D01*
X105567000Y-31220155D01*
X105796890Y-31341476D01*
X105944099Y-31296825D01*
X106206920Y-31171641D01*
X106440269Y-30997588D01*
X106635178Y-30781355D01*
X106710000Y-30655745D01*
X106784822Y-30781355D01*
X106979731Y-30997588D01*
X107213080Y-31171641D01*
X107475901Y-31296825D01*
X107623110Y-31341476D01*
X107853000Y-31220155D01*
X107853000Y-30027000D01*
X105567000Y-30027000D01*
X105313000Y-30027000D01*
X105293000Y-30027000D01*
X105293000Y-29773000D01*
X105313000Y-29773000D01*
X105313000Y-28579845D01*
X105567000Y-28579845D01*
X105567000Y-29773000D01*
X107853000Y-29773000D01*
X107853000Y-28579845D01*
X107623110Y-28458524D01*
X107475901Y-28503175D01*
X107213080Y-28628359D01*
X106979731Y-28802412D01*
X106784822Y-29018645D01*
X106710000Y-29144255D01*
X106635178Y-29018645D01*
X106440269Y-28802412D01*
X106206920Y-28628359D01*
X105944099Y-28503175D01*
X105796890Y-28458524D01*
X105567000Y-28579845D01*
X105313000Y-28579845D01*
X105083110Y-28458524D01*
X104935901Y-28503175D01*
X104673080Y-28628359D01*
X104439731Y-28802412D01*
X104244822Y-29018645D01*
X104175195Y-29135534D01*
X104053475Y-28953368D01*
X103846632Y-28746525D01*
X103603411Y-28584010D01*
X103333158Y-28472068D01*
X103046260Y-28415000D01*
X102753740Y-28415000D01*
X102466842Y-28472068D01*
X102196589Y-28584010D01*
X101953368Y-28746525D01*
X101746525Y-28953368D01*
X101630000Y-29127760D01*
X101513475Y-28953368D01*
X101306632Y-28746525D01*
X101063411Y-28584010D01*
X100793158Y-28472068D01*
X100506260Y-28415000D01*
X100213740Y-28415000D01*
X99926842Y-28472068D01*
X99656589Y-28584010D01*
X99413368Y-28746525D01*
X99206525Y-28953368D01*
X99090000Y-29127760D01*
X98973475Y-28953368D01*
X98766632Y-28746525D01*
X98523411Y-28584010D01*
X98253158Y-28472068D01*
X97966260Y-28415000D01*
X97673740Y-28415000D01*
X97386842Y-28472068D01*
X97116589Y-28584010D01*
X96873368Y-28746525D01*
X96666525Y-28953368D01*
X96550000Y-29127760D01*
X96433475Y-28953368D01*
X96226632Y-28746525D01*
X95983411Y-28584010D01*
X95713158Y-28472068D01*
X95426260Y-28415000D01*
X95133740Y-28415000D01*
X94846842Y-28472068D01*
X94576589Y-28584010D01*
X94333368Y-28746525D01*
X94126525Y-28953368D01*
X94010000Y-29127760D01*
X93893475Y-28953368D01*
X93686632Y-28746525D01*
X93443411Y-28584010D01*
X93173158Y-28472068D01*
X92886260Y-28415000D01*
X92593740Y-28415000D01*
X92306842Y-28472068D01*
X92036589Y-28584010D01*
X91793368Y-28746525D01*
X91586525Y-28953368D01*
X91470000Y-29127760D01*
X91353475Y-28953368D01*
X91146632Y-28746525D01*
X90903411Y-28584010D01*
X90633158Y-28472068D01*
X90346260Y-28415000D01*
X90053740Y-28415000D01*
X89766842Y-28472068D01*
X89496589Y-28584010D01*
X89253368Y-28746525D01*
X89046525Y-28953368D01*
X88930000Y-29127760D01*
X88813475Y-28953368D01*
X88606632Y-28746525D01*
X88363411Y-28584010D01*
X88093158Y-28472068D01*
X87806260Y-28415000D01*
X87513740Y-28415000D01*
X87226842Y-28472068D01*
X86956589Y-28584010D01*
X86713368Y-28746525D01*
X86506525Y-28953368D01*
X86390000Y-29127760D01*
X86273475Y-28953368D01*
X86066632Y-28746525D01*
X85823411Y-28584010D01*
X85553158Y-28472068D01*
X85266260Y-28415000D01*
X84973740Y-28415000D01*
X84686842Y-28472068D01*
X84416589Y-28584010D01*
X84173368Y-28746525D01*
X83966525Y-28953368D01*
X83844805Y-29135534D01*
X83775178Y-29018645D01*
X83580269Y-28802412D01*
X83346920Y-28628359D01*
X83084099Y-28503175D01*
X82936890Y-28458524D01*
X82707000Y-28579845D01*
X82453000Y-28579845D01*
X82223110Y-28458524D01*
X82075901Y-28503175D01*
X81813080Y-28628359D01*
X81579731Y-28802412D01*
X81503966Y-28886466D01*
X81479502Y-28805820D01*
X81420537Y-28695506D01*
X81341185Y-28598815D01*
X81244494Y-28519463D01*
X81134180Y-28460498D01*
X81014482Y-28424188D01*
X80890000Y-28411928D01*
X80325750Y-28415000D01*
X80167000Y-28573750D01*
X79913000Y-28573750D01*
X79754250Y-28415000D01*
X79190000Y-28411928D01*
X79065518Y-28424188D01*
X78945820Y-28460498D01*
X78835506Y-28519463D01*
X78738815Y-28598815D01*
X78659463Y-28695506D01*
X78600498Y-28805820D01*
X78564188Y-28925518D01*
X78551928Y-29050000D01*
X76685000Y-29050000D01*
X76685000Y-28333505D01*
X76732312Y-27850984D01*
X76862714Y-27419070D01*
X77074524Y-27020715D01*
X77359675Y-26671086D01*
X77707303Y-26383503D01*
X78104177Y-26168914D01*
X78535161Y-26035502D01*
X79015654Y-25985000D01*
X106966495Y-25985000D01*
X107449016Y-26032312D01*
%TA.AperFunction,Conductor*%
D24*
G36*
X107449016Y-26032312D02*
G01*
X107880930Y-26162714D01*
X108279285Y-26374524D01*
X108628914Y-26659675D01*
X108916497Y-27007303D01*
X109131086Y-27404177D01*
X109264498Y-27835161D01*
X109315000Y-28315654D01*
X109315000Y-29253375D01*
X109175178Y-29018645D01*
X108980269Y-28802412D01*
X108746920Y-28628359D01*
X108484099Y-28503175D01*
X108336890Y-28458524D01*
X108107000Y-28579845D01*
X108107000Y-29773000D01*
X108127000Y-29773000D01*
X108127000Y-30027000D01*
X108107000Y-30027000D01*
X108107000Y-31220155D01*
X108336890Y-31341476D01*
X108484099Y-31296825D01*
X108746920Y-31171641D01*
X108980269Y-30997588D01*
X109175178Y-30781355D01*
X109315000Y-30546625D01*
X109315000Y-33035649D01*
X109301185Y-33018815D01*
X109204494Y-32939463D01*
X109094180Y-32880498D01*
X108974482Y-32844188D01*
X108850000Y-32831928D01*
X107532624Y-32831928D01*
X107415847Y-32796504D01*
X107299048Y-32785000D01*
X107299040Y-32785000D01*
X107260000Y-32781155D01*
X107220960Y-32785000D01*
X104994657Y-32785000D01*
X104914637Y-32665241D01*
X104714759Y-32465363D01*
X104479727Y-32308320D01*
X104218574Y-32200147D01*
X103941335Y-32145000D01*
X103658665Y-32145000D01*
X103381426Y-32200147D01*
X103120273Y-32308320D01*
X102885241Y-32465363D01*
X102685363Y-32665241D01*
X102528320Y-32900273D01*
X102420147Y-33161426D01*
X102365000Y-33438665D01*
X102365000Y-33721335D01*
X102420147Y-33998574D01*
X102528320Y-34259727D01*
X102685363Y-34494759D01*
X102885241Y-34694637D01*
X103005001Y-34774658D01*
X103005001Y-35470699D01*
X96282602Y-42193100D01*
X96141335Y-42165000D01*
X95858665Y-42165000D01*
X95581426Y-42220147D01*
X95320273Y-42328320D01*
X95085241Y-42485363D01*
X94885363Y-42685241D01*
X94728320Y-42920273D01*
X94620147Y-43181426D01*
X94565000Y-43458665D01*
X94565000Y-43741335D01*
X94620147Y-44018574D01*
X94728320Y-44279727D01*
X94885363Y-44514759D01*
X95085241Y-44714637D01*
X95205000Y-44794657D01*
X95205000Y-44846181D01*
X91541789Y-48509394D01*
X91423932Y-48288899D01*
X91244608Y-48070392D01*
X91131518Y-47977581D01*
X91149482Y-47975812D01*
X91269180Y-47939502D01*
X91379494Y-47880537D01*
X91476185Y-47801185D01*
X91555537Y-47704494D01*
X91614502Y-47594180D01*
X91650812Y-47474482D01*
X91663072Y-47350000D01*
X91663072Y-45750000D01*
X91650812Y-45625518D01*
X91614502Y-45505820D01*
X91555537Y-45395506D01*
X91476185Y-45298815D01*
X91379494Y-45219463D01*
X91269180Y-45160498D01*
X91149482Y-45124188D01*
X91025000Y-45111928D01*
X88625000Y-45111928D01*
X88500518Y-45124188D01*
X88380820Y-45160498D01*
X88270506Y-45219463D01*
X88173815Y-45298815D01*
X88094463Y-45395506D01*
X88035498Y-45505820D01*
X87999188Y-45625518D01*
X87986928Y-45750000D01*
X87986928Y-47350000D01*
X87999188Y-47474482D01*
X88035498Y-47594180D01*
X88094463Y-47704494D01*
X88173815Y-47801185D01*
X88270506Y-47880537D01*
X88380820Y-47939502D01*
X88500518Y-47975812D01*
X88518482Y-47977581D01*
X88405392Y-48070392D01*
X88226068Y-48288899D01*
X88092818Y-48538192D01*
X88010764Y-48808691D01*
X87983057Y-49090000D01*
X88010764Y-49371309D01*
X88092818Y-49641808D01*
X88226068Y-49891101D01*
X88304062Y-49986137D01*
X87730453Y-50559748D01*
X87700122Y-50584640D01*
X87600775Y-50705694D01*
X87563359Y-50775694D01*
X87526953Y-50843805D01*
X87481494Y-50993662D01*
X87466145Y-51149509D01*
X87469991Y-51188559D01*
X87469990Y-52570949D01*
X87466145Y-52609990D01*
X87469593Y-52644999D01*
X86082239Y-52644999D01*
X86043199Y-52641154D01*
X86004159Y-52644999D01*
X86004151Y-52644999D01*
X85887352Y-52656503D01*
X85737494Y-52701962D01*
X85599384Y-52775783D01*
X85508660Y-52850238D01*
X85508656Y-52850242D01*
X85478330Y-52875130D01*
X85453441Y-52905457D01*
X84905462Y-53453438D01*
X84875131Y-53478330D01*
X84775784Y-53599384D01*
X84756501Y-53635460D01*
X84701962Y-53737495D01*
X84656503Y-53887352D01*
X84653870Y-53914087D01*
X84552385Y-53744869D01*
X84363414Y-53536481D01*
X84137420Y-53368963D01*
X83883087Y-53248754D01*
X83749039Y-53208096D01*
X83527000Y-53330085D01*
X83527000Y-54473000D01*
X83547000Y-54473000D01*
X83547000Y-54727000D01*
X83527000Y-54727000D01*
X83527000Y-55869915D01*
X83575784Y-55896717D01*
X79665464Y-59807038D01*
X79635132Y-59831931D01*
X79535785Y-59952985D01*
X79511189Y-59999002D01*
X79461963Y-60091096D01*
X79416504Y-60240953D01*
X79401155Y-60396800D01*
X79405001Y-60435850D01*
X79405000Y-67205343D01*
X79285241Y-67285363D01*
X79085363Y-67485241D01*
X78928320Y-67720273D01*
X78820147Y-67981426D01*
X78765000Y-68258665D01*
X78765000Y-68541335D01*
X78820147Y-68818574D01*
X78928320Y-69079727D01*
X79085363Y-69314759D01*
X79285241Y-69514637D01*
X79520273Y-69671680D01*
X79781426Y-69779853D01*
X80058665Y-69835000D01*
X80341335Y-69835000D01*
X80482601Y-69806900D01*
X80770239Y-70094538D01*
X80795132Y-70124870D01*
X80916186Y-70224217D01*
X81054296Y-70298038D01*
X81169275Y-70332916D01*
X81204153Y-70343497D01*
X81219604Y-70345019D01*
X81320953Y-70355001D01*
X81320960Y-70355001D01*
X81360000Y-70358846D01*
X81399040Y-70355001D01*
X86564049Y-70355001D01*
X86504774Y-70498102D01*
X86465000Y-70698061D01*
X86465000Y-70901939D01*
X86504774Y-71101898D01*
X86582795Y-71290256D01*
X86696063Y-71459774D01*
X86740000Y-71503711D01*
X86740000Y-71927679D01*
X86736324Y-71965002D01*
X86740000Y-72002324D01*
X86740000Y-72002334D01*
X86750997Y-72113987D01*
X86794454Y-72257248D01*
X86865026Y-72389278D01*
X86879815Y-72407298D01*
X86959999Y-72505003D01*
X86989003Y-72528806D01*
X89307124Y-74846928D01*
X88955000Y-74846928D01*
X88830518Y-74859188D01*
X88710820Y-74895498D01*
X88600506Y-74954463D01*
X88503815Y-75033815D01*
X88424463Y-75130506D01*
X88365498Y-75240820D01*
X88329188Y-75360518D01*
X88316928Y-75485000D01*
X88316928Y-75630674D01*
X88280724Y-75650026D01*
X88235000Y-75687551D01*
X88235000Y-75558665D01*
X88179853Y-75281426D01*
X88071680Y-75020273D01*
X87914637Y-74785241D01*
X87714759Y-74585363D01*
X87479727Y-74428320D01*
X87218574Y-74320147D01*
X86941335Y-74265000D01*
X86658665Y-74265000D01*
X86480122Y-74300515D01*
X86392704Y-74213097D01*
X86636671Y-74141514D01*
X86757571Y-73886004D01*
X86826300Y-73611816D01*
X86840217Y-73329488D01*
X86798787Y-73049870D01*
X86703603Y-72783708D01*
X86636671Y-72658486D01*
X86392702Y-72586903D01*
X85579605Y-73400000D01*
X85593748Y-73414143D01*
X85414143Y-73593748D01*
X85400000Y-73579605D01*
X85385858Y-73593748D01*
X85206253Y-73414143D01*
X85220395Y-73400000D01*
X84407298Y-72586903D01*
X84163329Y-72658486D01*
X84042429Y-72913996D01*
X83973700Y-73188184D01*
X83959783Y-73470512D01*
X84001213Y-73750130D01*
X84033352Y-73839999D01*
X81569103Y-73839999D01*
X81626300Y-73611816D01*
X81640217Y-73329488D01*
X81598787Y-73049870D01*
X81503603Y-72783708D01*
X81436671Y-72658486D01*
X81192702Y-72586903D01*
X80379605Y-73400000D01*
X80393748Y-73414143D01*
X80214143Y-73593748D01*
X80200000Y-73579605D01*
X79386903Y-74392702D01*
X79458486Y-74636671D01*
X79713996Y-74757571D01*
X79988184Y-74826300D01*
X80208060Y-74837138D01*
X79055852Y-75989346D01*
X78933456Y-75965000D01*
X78666544Y-75965000D01*
X78404761Y-76017072D01*
X78158167Y-76119215D01*
X77936238Y-76267503D01*
X77747503Y-76456238D01*
X77599215Y-76678167D01*
X77497072Y-76924761D01*
X77445000Y-77186544D01*
X77445000Y-77453456D01*
X77497072Y-77715239D01*
X77599215Y-77961833D01*
X77747503Y-78183762D01*
X77936238Y-78372497D01*
X78158167Y-78520785D01*
X78325266Y-78590000D01*
X78158167Y-78659215D01*
X77936238Y-78807503D01*
X77747503Y-78996238D01*
X77599215Y-79218167D01*
X77497072Y-79464761D01*
X77445000Y-79726544D01*
X77445000Y-79993456D01*
X77497072Y-80255239D01*
X77599215Y-80501833D01*
X77747503Y-80723762D01*
X77936238Y-80912497D01*
X78040001Y-80981829D01*
X78040000Y-81278171D01*
X77936238Y-81347503D01*
X77747503Y-81536238D01*
X77599215Y-81758167D01*
X77497072Y-82004761D01*
X77445000Y-82266544D01*
X77445000Y-82533456D01*
X77497072Y-82795239D01*
X77599215Y-83041833D01*
X77747503Y-83263762D01*
X77936238Y-83452497D01*
X78158167Y-83600785D01*
X78404761Y-83702928D01*
X78666544Y-83755000D01*
X78933456Y-83755000D01*
X79055852Y-83730654D01*
X81516205Y-86191008D01*
X81539999Y-86220001D01*
X81568992Y-86243795D01*
X81568996Y-86243799D01*
X81612775Y-86279727D01*
X81655724Y-86314974D01*
X81787753Y-86385546D01*
X81931014Y-86429003D01*
X82042667Y-86440000D01*
X82042676Y-86440000D01*
X82079999Y-86443676D01*
X82117322Y-86440000D01*
X82256957Y-86440000D01*
X82360363Y-86594759D01*
X82560241Y-86794637D01*
X82795273Y-86951680D01*
X83056426Y-87059853D01*
X83333665Y-87115000D01*
X83616335Y-87115000D01*
X83798886Y-87078688D01*
X84240002Y-87519804D01*
X84240001Y-92085298D01*
X84154727Y-92028320D01*
X83893574Y-91920147D01*
X83616335Y-91865000D01*
X83333665Y-91865000D01*
X83056426Y-91920147D01*
X82795273Y-92028320D01*
X82560241Y-92185363D01*
X82360363Y-92385241D01*
X82203320Y-92620273D01*
X82095147Y-92881426D01*
X82040000Y-93158665D01*
X82040000Y-93441335D01*
X82095147Y-93718574D01*
X82203320Y-93979727D01*
X82360363Y-94214759D01*
X82560241Y-94414637D01*
X82795273Y-94571680D01*
X83056426Y-94679853D01*
X83333665Y-94735000D01*
X83616335Y-94735000D01*
X83893574Y-94679853D01*
X84154727Y-94571680D01*
X84240001Y-94514702D01*
X84240001Y-94762679D01*
X84236325Y-94800001D01*
X84240001Y-94837323D01*
X84240001Y-94837333D01*
X84250998Y-94948986D01*
X84292138Y-95084608D01*
X84294455Y-95092247D01*
X84365027Y-95224277D01*
X84402533Y-95269977D01*
X84365000Y-95458665D01*
X84365000Y-95741335D01*
X84420147Y-96018574D01*
X84528320Y-96279727D01*
X84685363Y-96514759D01*
X84885241Y-96714637D01*
X85120273Y-96871680D01*
X85381426Y-96979853D01*
X85658665Y-97035000D01*
X85941335Y-97035000D01*
X86218574Y-96979853D01*
X86479727Y-96871680D01*
X86714759Y-96714637D01*
X86914637Y-96514759D01*
X87071680Y-96279727D01*
X87179853Y-96018574D01*
X87235000Y-95741335D01*
X87235000Y-95458665D01*
X87179853Y-95181426D01*
X87071680Y-94920273D01*
X86927002Y-94703747D01*
X86927002Y-94569916D01*
X87149039Y-94691904D01*
X87283087Y-94651246D01*
X87537420Y-94531037D01*
X87763414Y-94363519D01*
X87869990Y-94245992D01*
X87869991Y-101612658D01*
X87866314Y-101649990D01*
X87869991Y-101687323D01*
X87880988Y-101798976D01*
X87890095Y-101828997D01*
X87924444Y-101942236D01*
X87995016Y-102074266D01*
X88066191Y-102160992D01*
X88089990Y-102189991D01*
X88118988Y-102213789D01*
X88581312Y-102676114D01*
X88545000Y-102858665D01*
X88545000Y-103141335D01*
X88600147Y-103418574D01*
X88708320Y-103679727D01*
X88865363Y-103914759D01*
X89065241Y-104114637D01*
X89300273Y-104271680D01*
X89561426Y-104379853D01*
X89838665Y-104435000D01*
X90121335Y-104435000D01*
X90398574Y-104379853D01*
X90659727Y-104271680D01*
X90894759Y-104114637D01*
X91094637Y-103914759D01*
X91251680Y-103679727D01*
X91359853Y-103418574D01*
X91415000Y-103141335D01*
X91415000Y-102858665D01*
X91359853Y-102581426D01*
X91251680Y-102320273D01*
X91094637Y-102085241D01*
X90894759Y-101885363D01*
X90659727Y-101728320D01*
X90398574Y-101620147D01*
X90121335Y-101565000D01*
X89838665Y-101565000D01*
X89656114Y-101601312D01*
X89389990Y-101335189D01*
X89389990Y-99535560D01*
X90564045Y-99535560D01*
X90625932Y-99771368D01*
X90867790Y-99884266D01*
X91127027Y-99947811D01*
X91393680Y-99959561D01*
X91657501Y-99919063D01*
X91908353Y-99827875D01*
X92014068Y-99771368D01*
X92075955Y-99535560D01*
X91320000Y-98779605D01*
X90564045Y-99535560D01*
X89389990Y-99535560D01*
X89389990Y-98673680D01*
X89960439Y-98673680D01*
X90000937Y-98937501D01*
X90092125Y-99188353D01*
X90148632Y-99294068D01*
X90384440Y-99355955D01*
X91140395Y-98600000D01*
X90384440Y-97844045D01*
X90148632Y-97905932D01*
X90035734Y-98147790D01*
X89972189Y-98407027D01*
X89960439Y-98673680D01*
X89389990Y-98673680D01*
X89389990Y-97664440D01*
X90564045Y-97664440D01*
X91320000Y-98420395D01*
X92075955Y-97664440D01*
X92014068Y-97428632D01*
X91772210Y-97315734D01*
X91512973Y-97252189D01*
X91246320Y-97240439D01*
X90982499Y-97280937D01*
X90731647Y-97372125D01*
X90625932Y-97428632D01*
X90564045Y-97664440D01*
X89389990Y-97664440D01*
X89389990Y-95453846D01*
X89473691Y-95479236D01*
X89684508Y-95500000D01*
X90625492Y-95500000D01*
X90836309Y-95479236D01*
X91106808Y-95397182D01*
X91356101Y-95263932D01*
X91574608Y-95084608D01*
X91753932Y-94866101D01*
X91887182Y-94616808D01*
X91953473Y-94398274D01*
X95325046Y-97769848D01*
X95199215Y-97958167D01*
X95130000Y-98125266D01*
X95060785Y-97958167D01*
X94912497Y-97736238D01*
X94723762Y-97547503D01*
X94501833Y-97399215D01*
X94255239Y-97297072D01*
X93993456Y-97245000D01*
X93726544Y-97245000D01*
X93464761Y-97297072D01*
X93218167Y-97399215D01*
X92996238Y-97547503D01*
X92807503Y-97736238D01*
X92659215Y-97958167D01*
X92589562Y-98126324D01*
X92547875Y-98011647D01*
X92491368Y-97905932D01*
X92255560Y-97844045D01*
X91499605Y-98600000D01*
X92255560Y-99355955D01*
X92491368Y-99294068D01*
X92591764Y-99078993D01*
X92659215Y-99241833D01*
X92807503Y-99463762D01*
X92996238Y-99652497D01*
X93218167Y-99800785D01*
X93464761Y-99902928D01*
X93726544Y-99955000D01*
X93993456Y-99955000D01*
X94115853Y-99930654D01*
X96399277Y-102214079D01*
X96328320Y-102320273D01*
X96220147Y-102581426D01*
X96165000Y-102858665D01*
X96165000Y-103141335D01*
X96220147Y-103418574D01*
X96328320Y-103679727D01*
X96485363Y-103914759D01*
X96685241Y-104114637D01*
X96920273Y-104271680D01*
X97181426Y-104379853D01*
X97458665Y-104435000D01*
X97540702Y-104435000D01*
X97230703Y-104744999D01*
X85229040Y-104744999D01*
X85190000Y-104741154D01*
X85150960Y-104744999D01*
X85150953Y-104744999D01*
X85049604Y-104754981D01*
X85034153Y-104756503D01*
X84999275Y-104767084D01*
X84884296Y-104801962D01*
X84746186Y-104875783D01*
X84625132Y-104975130D01*
X84600240Y-105005461D01*
X84312601Y-105293100D01*
X84171335Y-105265000D01*
X83888665Y-105265000D01*
X83611426Y-105320147D01*
X83350273Y-105428320D01*
X83115241Y-105585363D01*
X82915363Y-105785241D01*
X82758320Y-106020273D01*
X82650147Y-106281426D01*
X82595000Y-106558665D01*
X82595000Y-106841335D01*
X82650147Y-107118574D01*
X82758320Y-107379727D01*
X82915363Y-107614759D01*
X83115241Y-107814637D01*
X83350273Y-107971680D01*
X83611426Y-108079853D01*
X83888665Y-108135000D01*
X84171335Y-108135000D01*
X84448574Y-108079853D01*
X84709727Y-107971680D01*
X84944759Y-107814637D01*
X85144637Y-107614759D01*
X85301680Y-107379727D01*
X85409853Y-107118574D01*
X85465000Y-106841335D01*
X85465000Y-106558665D01*
X85436900Y-106417399D01*
X85519300Y-106334999D01*
X90259491Y-106334999D01*
X90215000Y-106558665D01*
X90215000Y-106841335D01*
X90270147Y-107118574D01*
X90378320Y-107379727D01*
X90535363Y-107614759D01*
X90735241Y-107814637D01*
X90970273Y-107971680D01*
X91231426Y-108079853D01*
X91508665Y-108135000D01*
X91791335Y-108135000D01*
X91932602Y-108106900D01*
X94974281Y-111148580D01*
X94934707Y-111178146D01*
X94738183Y-111396512D01*
X94675000Y-111502770D01*
X94611817Y-111396512D01*
X94415293Y-111178146D01*
X94179944Y-111002316D01*
X93914814Y-110875778D01*
X93764026Y-110830042D01*
X93532000Y-110951183D01*
X93532000Y-112158000D01*
X95818000Y-112158000D01*
X95818000Y-112138000D01*
X96072000Y-112138000D01*
X96072000Y-112158000D01*
X96092000Y-112158000D01*
X96092000Y-112412000D01*
X96072000Y-112412000D01*
X96072000Y-112432000D01*
X95818000Y-112432000D01*
X95818000Y-112412000D01*
X93532000Y-112412000D01*
X93532000Y-112432000D01*
X93278000Y-112432000D01*
X93278000Y-112412000D01*
X90992000Y-112412000D01*
X90992000Y-112432000D01*
X90738000Y-112432000D01*
X90738000Y-112412000D01*
X90718000Y-112412000D01*
X90718000Y-112158000D01*
X90738000Y-112158000D01*
X90738000Y-110951183D01*
X90992000Y-110951183D01*
X90992000Y-112158000D01*
X93278000Y-112158000D01*
X93278000Y-110951183D01*
X93045974Y-110830042D01*
X92895186Y-110875778D01*
X92630056Y-111002316D01*
X92394707Y-111178146D01*
X92198183Y-111396512D01*
X92135000Y-111502770D01*
X92071817Y-111396512D01*
X91875293Y-111178146D01*
X91639944Y-111002316D01*
X91374814Y-110875778D01*
X91224026Y-110830042D01*
X90992000Y-110951183D01*
X90738000Y-110951183D01*
X90505974Y-110830042D01*
X90355186Y-110875778D01*
X90090056Y-111002316D01*
X89854707Y-111178146D01*
X89658183Y-111396512D01*
X89599559Y-111495103D01*
X89489039Y-111329698D01*
X89280302Y-111120961D01*
X89034853Y-110956958D01*
X88762125Y-110843990D01*
X88472599Y-110786400D01*
X88177401Y-110786400D01*
X87887875Y-110843990D01*
X87615147Y-110956958D01*
X87369698Y-111120961D01*
X87160961Y-111329698D01*
X86996958Y-111575147D01*
X86883990Y-111847875D01*
X86826400Y-112137401D01*
X86826400Y-112432599D01*
X86883990Y-112722125D01*
X86996958Y-112994853D01*
X87160961Y-113240302D01*
X87275023Y-113354364D01*
X87217220Y-113371898D01*
X87106906Y-113430863D01*
X87010215Y-113510215D01*
X86930863Y-113606906D01*
X86871898Y-113717220D01*
X86835588Y-113836918D01*
X86823328Y-113961400D01*
X86823328Y-115688600D01*
X86835588Y-115813082D01*
X86871898Y-115932780D01*
X86930863Y-116043094D01*
X87010215Y-116139785D01*
X87106906Y-116219137D01*
X87217220Y-116278102D01*
X87336918Y-116314412D01*
X87461400Y-116326672D01*
X89188600Y-116326672D01*
X89313082Y-116314412D01*
X89432780Y-116278102D01*
X89543094Y-116219137D01*
X89639785Y-116139785D01*
X89719137Y-116043094D01*
X89778102Y-115932780D01*
X89797624Y-115868426D01*
X89854707Y-115931854D01*
X90090056Y-116107684D01*
X90355186Y-116234222D01*
X90505974Y-116279958D01*
X90738000Y-116158817D01*
X90738000Y-114952000D01*
X90992000Y-114952000D01*
X90992000Y-116158817D01*
X91224026Y-116279958D01*
X91374814Y-116234222D01*
X91639944Y-116107684D01*
X91875293Y-115931854D01*
X92071817Y-115713488D01*
X92135000Y-115607230D01*
X92198183Y-115713488D01*
X92394707Y-115931854D01*
X92630056Y-116107684D01*
X92895186Y-116234222D01*
X93045974Y-116279958D01*
X93278000Y-116158817D01*
X93278000Y-114952000D01*
X93532000Y-114952000D01*
X93532000Y-116158817D01*
X93764026Y-116279958D01*
X93914814Y-116234222D01*
X94179944Y-116107684D01*
X94415293Y-115931854D01*
X94611817Y-115713488D01*
X94675000Y-115607230D01*
X94738183Y-115713488D01*
X94934707Y-115931854D01*
X95170056Y-116107684D01*
X95435186Y-116234222D01*
X95585974Y-116279958D01*
X95818000Y-116158817D01*
X95818000Y-114952000D01*
X93532000Y-114952000D01*
X93278000Y-114952000D01*
X90992000Y-114952000D01*
X90738000Y-114952000D01*
X90718000Y-114952000D01*
X90718000Y-114698000D01*
X90738000Y-114698000D01*
X90738000Y-114678000D01*
X90992000Y-114678000D01*
X90992000Y-114698000D01*
X93278000Y-114698000D01*
X93278000Y-114678000D01*
X93532000Y-114678000D01*
X93532000Y-114698000D01*
X95818000Y-114698000D01*
X95818000Y-114678000D01*
X96072000Y-114678000D01*
X96072000Y-114698000D01*
X96092000Y-114698000D01*
X96092000Y-114952000D01*
X96072000Y-114952000D01*
X96072000Y-116158817D01*
X96304026Y-116279958D01*
X96454814Y-116234222D01*
X96719944Y-116107684D01*
X96784343Y-116059571D01*
X97307913Y-116583143D01*
X97332802Y-116613470D01*
X97363128Y-116638358D01*
X97363131Y-116638361D01*
X97429738Y-116693024D01*
X97453856Y-116712817D01*
X97591966Y-116786638D01*
X97741824Y-116832097D01*
X97858623Y-116843601D01*
X97858632Y-116843601D01*
X97897670Y-116847446D01*
X97936708Y-116843601D01*
X99033289Y-116843601D01*
X99072329Y-116847446D01*
X99111369Y-116843601D01*
X99111377Y-116843601D01*
X99228176Y-116832097D01*
X99378034Y-116786638D01*
X99516144Y-116712817D01*
X99637198Y-116613470D01*
X99662095Y-116583133D01*
X100243144Y-116002086D01*
X100273470Y-115977198D01*
X100298363Y-115946867D01*
X100372816Y-115856145D01*
X100372817Y-115856144D01*
X100446638Y-115718034D01*
X100488549Y-115579872D01*
X104765000Y-115579872D01*
X104765000Y-116020128D01*
X104850890Y-116451925D01*
X105019369Y-116858669D01*
X105263962Y-117224729D01*
X105575271Y-117536038D01*
X105941331Y-117780631D01*
X106348075Y-117949110D01*
X106779872Y-118035000D01*
X107220128Y-118035000D01*
X107651925Y-117949110D01*
X108058669Y-117780631D01*
X108424729Y-117536038D01*
X108736038Y-117224729D01*
X108980631Y-116858669D01*
X109149110Y-116451925D01*
X109235000Y-116020128D01*
X109235000Y-115579872D01*
X109149110Y-115148075D01*
X108980631Y-114741331D01*
X108736038Y-114375271D01*
X108424729Y-114063962D01*
X108058669Y-113819369D01*
X107651925Y-113650890D01*
X107220128Y-113565000D01*
X106779872Y-113565000D01*
X106348075Y-113650890D01*
X105941331Y-113819369D01*
X105575271Y-114063962D01*
X105263962Y-114375271D01*
X105019369Y-114741331D01*
X104850890Y-115148075D01*
X104765000Y-115579872D01*
X100488549Y-115579872D01*
X100492097Y-115568176D01*
X100503601Y-115451377D01*
X100503601Y-115451368D01*
X100507446Y-115412330D01*
X100503601Y-115373292D01*
X100503601Y-111191268D01*
X100507446Y-111152230D01*
X100503601Y-111113192D01*
X100503601Y-111113183D01*
X100492097Y-110996384D01*
X100446638Y-110846526D01*
X100372817Y-110708416D01*
X100273470Y-110587362D01*
X100243144Y-110562474D01*
X96239334Y-106558665D01*
X100310000Y-106558665D01*
X100310000Y-106841335D01*
X100365147Y-107118574D01*
X100473320Y-107379727D01*
X100630363Y-107614759D01*
X100830241Y-107814637D01*
X101065273Y-107971680D01*
X101326426Y-108079853D01*
X101603665Y-108135000D01*
X101886335Y-108135000D01*
X102163574Y-108079853D01*
X102424727Y-107971680D01*
X102659759Y-107814637D01*
X102859637Y-107614759D01*
X103016680Y-107379727D01*
X103124853Y-107118574D01*
X103180000Y-106841335D01*
X103180000Y-106558665D01*
X103124853Y-106281426D01*
X103016680Y-106020273D01*
X102859637Y-105785241D01*
X102659759Y-105585363D01*
X102424727Y-105428320D01*
X102163574Y-105320147D01*
X101886335Y-105265000D01*
X101603665Y-105265000D01*
X101326426Y-105320147D01*
X101065273Y-105428320D01*
X100830241Y-105585363D01*
X100630363Y-105785241D01*
X100473320Y-106020273D01*
X100365147Y-106281426D01*
X100310000Y-106558665D01*
X96239334Y-106558665D01*
X96015667Y-106334999D01*
X97520961Y-106334999D01*
X97560001Y-106338844D01*
X97599041Y-106334999D01*
X97599049Y-106334999D01*
X97715848Y-106323495D01*
X97865706Y-106278036D01*
X98003816Y-106204215D01*
X98124870Y-106104868D01*
X98149767Y-106074531D01*
X102186228Y-102038072D01*
X103300000Y-102038072D01*
X103424482Y-102025812D01*
X103544180Y-101989502D01*
X103654494Y-101930537D01*
X103751185Y-101851185D01*
X103830537Y-101754494D01*
X103889502Y-101644180D01*
X103905117Y-101592702D01*
X104186903Y-101592702D01*
X104258486Y-101836671D01*
X104513996Y-101957571D01*
X104788184Y-102026300D01*
X105070512Y-102040217D01*
X105350130Y-101998787D01*
X105616292Y-101903603D01*
X105741514Y-101836671D01*
X105813097Y-101592702D01*
X105000000Y-100779605D01*
X104186903Y-101592702D01*
X103905117Y-101592702D01*
X103925812Y-101524482D01*
X103938072Y-101400000D01*
X103938072Y-101392785D01*
X104007298Y-101413097D01*
X104820395Y-100600000D01*
X105179605Y-100600000D01*
X105992702Y-101413097D01*
X106236671Y-101341514D01*
X106357571Y-101086004D01*
X106426300Y-100811816D01*
X106440217Y-100529488D01*
X106398787Y-100249870D01*
X106303603Y-99983708D01*
X106236671Y-99858486D01*
X105992702Y-99786903D01*
X105179605Y-100600000D01*
X104820395Y-100600000D01*
X104007298Y-99786903D01*
X103938072Y-99807215D01*
X103938072Y-99800000D01*
X103925812Y-99675518D01*
X103905118Y-99607298D01*
X104186903Y-99607298D01*
X105000000Y-100420395D01*
X105813097Y-99607298D01*
X105741514Y-99363329D01*
X105486004Y-99242429D01*
X105211816Y-99173700D01*
X104929488Y-99159783D01*
X104649870Y-99201213D01*
X104383708Y-99296397D01*
X104258486Y-99363329D01*
X104186903Y-99607298D01*
X103905118Y-99607298D01*
X103889502Y-99555820D01*
X103830537Y-99445506D01*
X103751185Y-99348815D01*
X103654494Y-99269463D01*
X103544180Y-99210498D01*
X103424482Y-99174188D01*
X103300000Y-99161928D01*
X101700000Y-99161928D01*
X101575518Y-99174188D01*
X101455820Y-99210498D01*
X101345506Y-99269463D01*
X101248815Y-99348815D01*
X101169463Y-99445506D01*
X101110498Y-99555820D01*
X101074188Y-99675518D01*
X101061928Y-99800000D01*
X101061928Y-100913772D01*
X99035000Y-102940701D01*
X99035000Y-102858665D01*
X98979853Y-102581426D01*
X98871680Y-102320273D01*
X98714637Y-102085241D01*
X98514759Y-101885363D01*
X98279727Y-101728320D01*
X98018574Y-101620147D01*
X97939150Y-101604348D01*
X96289802Y-99955000D01*
X96533456Y-99955000D01*
X96795239Y-99902928D01*
X97041833Y-99800785D01*
X97263762Y-99652497D01*
X97452497Y-99463762D01*
X97600785Y-99241833D01*
X97702928Y-98995239D01*
X97755000Y-98733456D01*
X97755000Y-98466544D01*
X97702928Y-98204761D01*
X97600785Y-97958167D01*
X97452497Y-97736238D01*
X97263762Y-97547503D01*
X97075640Y-97421804D01*
X97034974Y-97345724D01*
X96940001Y-97229999D01*
X96911003Y-97206201D01*
X91850408Y-92145607D01*
X91887182Y-92076808D01*
X91969236Y-91806309D01*
X91996943Y-91525000D01*
X91969236Y-91243691D01*
X91887182Y-90973192D01*
X91753932Y-90723899D01*
X91631315Y-90574490D01*
X92641024Y-89564782D01*
X92670022Y-89540984D01*
X92764995Y-89425259D01*
X92835567Y-89293230D01*
X92879024Y-89149969D01*
X92890021Y-89038316D01*
X92890021Y-89038308D01*
X92893697Y-89000983D01*
X92890021Y-88963658D01*
X92890021Y-83334780D01*
X94039373Y-82185428D01*
X94082795Y-82290256D01*
X94196063Y-82459774D01*
X94240001Y-82503712D01*
X94240000Y-85913661D01*
X94236324Y-85950984D01*
X94240000Y-85988306D01*
X94240000Y-85988316D01*
X94250997Y-86099969D01*
X94287408Y-86220001D01*
X94294454Y-86243230D01*
X94365026Y-86375260D01*
X94404871Y-86423810D01*
X94459999Y-86490985D01*
X94489003Y-86514788D01*
X95834205Y-87859990D01*
X95738988Y-87955207D01*
X95709990Y-87979005D01*
X95686192Y-88008003D01*
X95686191Y-88008004D01*
X95615016Y-88094730D01*
X95544444Y-88226760D01*
X95500988Y-88370021D01*
X95486314Y-88519006D01*
X95489991Y-88556338D01*
X95489990Y-89413671D01*
X95486314Y-89450994D01*
X95489990Y-89488316D01*
X95489990Y-89488326D01*
X95500987Y-89599979D01*
X95533308Y-89706529D01*
X95544444Y-89743240D01*
X95615016Y-89875270D01*
X95651949Y-89920273D01*
X95709989Y-89990995D01*
X95738992Y-90014797D01*
X96298684Y-90574490D01*
X96176068Y-90723899D01*
X96042818Y-90973192D01*
X95960764Y-91243691D01*
X95933057Y-91525000D01*
X95960764Y-91806309D01*
X96042818Y-92076808D01*
X96176068Y-92326101D01*
X96355392Y-92544608D01*
X96573899Y-92723932D01*
X96706858Y-92795000D01*
X96573899Y-92866068D01*
X96355392Y-93045392D01*
X96176068Y-93263899D01*
X96042818Y-93513192D01*
X95960764Y-93783691D01*
X95933057Y-94065000D01*
X95960764Y-94346309D01*
X96042818Y-94616808D01*
X96176068Y-94866101D01*
X96355392Y-95084608D01*
X96573899Y-95263932D01*
X96823192Y-95397182D01*
X97093691Y-95479236D01*
X97304508Y-95500000D01*
X98245492Y-95500000D01*
X98456309Y-95479236D01*
X98726808Y-95397182D01*
X98976101Y-95263932D01*
X99194608Y-95084608D01*
X99373932Y-94866101D01*
X99507182Y-94616808D01*
X99589236Y-94346309D01*
X99602395Y-94212702D01*
X104986903Y-94212702D01*
X105058486Y-94456671D01*
X105313996Y-94577571D01*
X105588184Y-94646300D01*
X105870512Y-94660217D01*
X106150130Y-94618787D01*
X106416292Y-94523603D01*
X106541514Y-94456671D01*
X106613097Y-94212702D01*
X105800000Y-93399605D01*
X104986903Y-94212702D01*
X99602395Y-94212702D01*
X99616943Y-94065000D01*
X99589236Y-93783691D01*
X99507182Y-93513192D01*
X99388157Y-93290512D01*
X104359783Y-93290512D01*
X104401213Y-93570130D01*
X104496397Y-93836292D01*
X104563329Y-93961514D01*
X104807298Y-94033097D01*
X105620395Y-93220000D01*
X105979605Y-93220000D01*
X106792702Y-94033097D01*
X107036671Y-93961514D01*
X107157571Y-93706004D01*
X107226300Y-93431816D01*
X107240217Y-93149488D01*
X107198787Y-92869870D01*
X107103603Y-92603708D01*
X107036671Y-92478486D01*
X106792702Y-92406903D01*
X105979605Y-93220000D01*
X105620395Y-93220000D01*
X104807298Y-92406903D01*
X104563329Y-92478486D01*
X104442429Y-92733996D01*
X104373700Y-93008184D01*
X104359783Y-93290512D01*
X99388157Y-93290512D01*
X99373932Y-93263899D01*
X99194608Y-93045392D01*
X98976101Y-92866068D01*
X98843142Y-92795000D01*
X98976101Y-92723932D01*
X99194608Y-92544608D01*
X99373932Y-92326101D01*
X99426743Y-92227298D01*
X104986903Y-92227298D01*
X105800000Y-93040395D01*
X106613097Y-92227298D01*
X106541514Y-91983329D01*
X106286004Y-91862429D01*
X106011816Y-91793700D01*
X105729488Y-91779783D01*
X105449870Y-91821213D01*
X105183708Y-91916397D01*
X105058486Y-91983329D01*
X104986903Y-92227298D01*
X99426743Y-92227298D01*
X99507182Y-92076808D01*
X99589236Y-91806309D01*
X99616943Y-91525000D01*
X99600692Y-91360000D01*
X100581957Y-91360000D01*
X100685363Y-91514759D01*
X100885241Y-91714637D01*
X101120273Y-91871680D01*
X101381426Y-91979853D01*
X101658665Y-92035000D01*
X101941335Y-92035000D01*
X102218574Y-91979853D01*
X102479727Y-91871680D01*
X102714759Y-91714637D01*
X102914637Y-91514759D01*
X103071680Y-91279727D01*
X103179853Y-91018574D01*
X103235000Y-90741335D01*
X103235000Y-90458665D01*
X103179853Y-90181426D01*
X103071680Y-89920273D01*
X102914637Y-89685241D01*
X102714759Y-89485363D01*
X102479727Y-89328320D01*
X102218574Y-89220147D01*
X101941335Y-89165000D01*
X101658665Y-89165000D01*
X101381426Y-89220147D01*
X101120273Y-89328320D01*
X100885241Y-89485363D01*
X100685363Y-89685241D01*
X100581957Y-89840000D01*
X99704802Y-89840000D01*
X99470408Y-89605607D01*
X99507182Y-89536808D01*
X99589236Y-89266309D01*
X99616943Y-88985000D01*
X99589236Y-88703691D01*
X99507182Y-88433192D01*
X99373932Y-88183899D01*
X99194608Y-87965392D01*
X98976101Y-87786068D01*
X98848259Y-87717735D01*
X99077839Y-87567601D01*
X99279500Y-87369895D01*
X99438715Y-87136646D01*
X99508638Y-86972456D01*
X99772186Y-87236004D01*
X99795984Y-87265002D01*
X99911709Y-87359975D01*
X100043738Y-87430547D01*
X100186999Y-87474004D01*
X100298652Y-87485001D01*
X100298661Y-87485001D01*
X100335984Y-87488677D01*
X100373307Y-87485001D01*
X104637677Y-87485001D01*
X104674999Y-87488677D01*
X104712321Y-87485001D01*
X104712332Y-87485001D01*
X104823985Y-87474004D01*
X104967246Y-87430547D01*
X105099275Y-87359975D01*
X105215000Y-87265002D01*
X105238803Y-87235999D01*
X105476113Y-86998688D01*
X105658665Y-87035000D01*
X105941335Y-87035000D01*
X106218574Y-86979853D01*
X106479727Y-86871680D01*
X106714759Y-86714637D01*
X106914637Y-86514759D01*
X107071680Y-86279727D01*
X107179853Y-86018574D01*
X107235000Y-85741335D01*
X107235000Y-85458665D01*
X107179853Y-85181426D01*
X107071680Y-84920273D01*
X106976488Y-84777808D01*
X106981426Y-84779853D01*
X107258665Y-84835000D01*
X107541335Y-84835000D01*
X107818574Y-84779853D01*
X108079727Y-84671680D01*
X108314759Y-84514637D01*
X108514637Y-84314759D01*
X108671680Y-84079727D01*
X108779853Y-83818574D01*
X108835000Y-83541335D01*
X108835000Y-83258665D01*
X108779853Y-82981426D01*
X108671680Y-82720273D01*
X108514637Y-82485241D01*
X108314759Y-82285363D01*
X108079727Y-82128320D01*
X107818574Y-82020147D01*
X107541335Y-81965000D01*
X107258665Y-81965000D01*
X106981426Y-82020147D01*
X106720273Y-82128320D01*
X106485241Y-82285363D01*
X106285363Y-82485241D01*
X106128320Y-82720273D01*
X106020147Y-82981426D01*
X105965000Y-83258665D01*
X105965000Y-83541335D01*
X106020147Y-83818574D01*
X106128320Y-84079727D01*
X106223512Y-84222192D01*
X106218574Y-84220147D01*
X105941335Y-84165000D01*
X105658665Y-84165000D01*
X105404065Y-84215644D01*
X105522070Y-84018881D01*
X105616909Y-83754040D01*
X105495624Y-83532000D01*
X104352000Y-83532000D01*
X104352000Y-84674915D01*
X104574039Y-84796904D01*
X104620084Y-84782938D01*
X104528320Y-84920273D01*
X104420147Y-85181426D01*
X104365000Y-85458665D01*
X104365000Y-85741335D01*
X104401312Y-85923887D01*
X104360198Y-85965001D01*
X103187902Y-85965001D01*
X103226300Y-85811816D01*
X103240217Y-85529488D01*
X103198787Y-85249870D01*
X103103603Y-84983708D01*
X103036671Y-84858486D01*
X102792702Y-84786903D01*
X101979605Y-85600000D01*
X101993748Y-85614143D01*
X101814143Y-85793748D01*
X101800000Y-85779605D01*
X101785858Y-85793748D01*
X101606253Y-85614143D01*
X101620395Y-85600000D01*
X101606253Y-85585858D01*
X101785858Y-85406253D01*
X101800000Y-85420395D01*
X102613097Y-84607298D01*
X102541514Y-84363329D01*
X102286004Y-84242429D01*
X102180617Y-84216012D01*
X102271680Y-84079727D01*
X102379853Y-83818574D01*
X102392689Y-83754040D01*
X102833091Y-83754040D01*
X102927930Y-84018881D01*
X103072615Y-84260131D01*
X103261586Y-84468519D01*
X103487580Y-84636037D01*
X103741913Y-84756246D01*
X103875961Y-84796904D01*
X104098000Y-84674915D01*
X104098000Y-83532000D01*
X102954376Y-83532000D01*
X102833091Y-83754040D01*
X102392689Y-83754040D01*
X102435000Y-83541335D01*
X102435000Y-83258665D01*
X102398688Y-83076114D01*
X102418842Y-83055960D01*
X102833091Y-83055960D01*
X102954376Y-83278000D01*
X104098000Y-83278000D01*
X104098000Y-82135085D01*
X104352000Y-82135085D01*
X104352000Y-83278000D01*
X105495624Y-83278000D01*
X105616909Y-83055960D01*
X105522070Y-82791119D01*
X105377385Y-82549869D01*
X105188414Y-82341481D01*
X104962420Y-82173963D01*
X104708087Y-82053754D01*
X104574039Y-82013096D01*
X104352000Y-82135085D01*
X104098000Y-82135085D01*
X103875961Y-82013096D01*
X103741913Y-82053754D01*
X103487580Y-82173963D01*
X103261586Y-82341481D01*
X103072615Y-82549869D01*
X102927930Y-82791119D01*
X102833091Y-83055960D01*
X102418842Y-83055960D01*
X104736003Y-80738799D01*
X104765001Y-80715001D01*
X104859974Y-80599276D01*
X104930546Y-80467247D01*
X104974003Y-80323986D01*
X104985000Y-80212333D01*
X104985000Y-80212325D01*
X104988676Y-80175000D01*
X104985000Y-80137675D01*
X104985000Y-77003043D01*
X105139759Y-76899637D01*
X105339637Y-76699759D01*
X105446384Y-76540000D01*
X106181957Y-76540000D01*
X106285363Y-76694759D01*
X106485241Y-76894637D01*
X106720273Y-77051680D01*
X106981426Y-77159853D01*
X107258665Y-77215000D01*
X107541335Y-77215000D01*
X107818574Y-77159853D01*
X108079727Y-77051680D01*
X108314759Y-76894637D01*
X108514637Y-76694759D01*
X108671680Y-76459727D01*
X108779853Y-76198574D01*
X108835000Y-75921335D01*
X108835000Y-75638665D01*
X108779853Y-75361426D01*
X108671680Y-75100273D01*
X108514637Y-74865241D01*
X108314759Y-74665363D01*
X108201970Y-74590000D01*
X108314759Y-74514637D01*
X108514637Y-74314759D01*
X108671680Y-74079727D01*
X108779853Y-73818574D01*
X108835000Y-73541335D01*
X108835000Y-73258665D01*
X108779853Y-72981426D01*
X108671680Y-72720273D01*
X108514637Y-72485241D01*
X108314759Y-72285363D01*
X108079727Y-72128320D01*
X107818574Y-72020147D01*
X107541335Y-71965000D01*
X107258665Y-71965000D01*
X106981426Y-72020147D01*
X106720273Y-72128320D01*
X106485241Y-72285363D01*
X106285363Y-72485241D01*
X106181957Y-72640000D01*
X105404680Y-72640000D01*
X105314637Y-72505241D01*
X105114759Y-72305363D01*
X104879727Y-72148320D01*
X104618574Y-72040147D01*
X104341335Y-71985000D01*
X104058665Y-71985000D01*
X103781426Y-72040147D01*
X103520273Y-72148320D01*
X103285241Y-72305363D01*
X103085363Y-72505241D01*
X102981957Y-72660000D01*
X102218043Y-72660000D01*
X102114637Y-72505241D01*
X101914759Y-72305363D01*
X101679727Y-72148320D01*
X101418574Y-72040147D01*
X101141335Y-71985000D01*
X100858665Y-71985000D01*
X100581426Y-72040147D01*
X100320273Y-72148320D01*
X100085241Y-72305363D01*
X99885363Y-72505241D01*
X99728320Y-72740273D01*
X99620147Y-73001426D01*
X99566405Y-73271603D01*
X99183804Y-72889003D01*
X99160001Y-72859999D01*
X99044276Y-72765026D01*
X98912247Y-72694454D01*
X98768986Y-72650997D01*
X98657333Y-72640000D01*
X98657322Y-72640000D01*
X98620000Y-72636324D01*
X98582678Y-72640000D01*
X97018043Y-72640000D01*
X96914637Y-72485241D01*
X96714759Y-72285363D01*
X96479727Y-72128320D01*
X96236245Y-72027466D01*
X96303937Y-71959774D01*
X96417205Y-71790256D01*
X96495226Y-71601898D01*
X96535000Y-71401939D01*
X96535000Y-71198061D01*
X96495226Y-70998102D01*
X96417205Y-70809744D01*
X96303937Y-70640226D01*
X96159774Y-70496063D01*
X95990256Y-70382795D01*
X95801898Y-70304774D01*
X95601939Y-70265000D01*
X95539801Y-70265000D01*
X95434999Y-70160198D01*
X95434999Y-69790509D01*
X95658665Y-69835000D01*
X95941335Y-69835000D01*
X96218574Y-69779853D01*
X96479727Y-69671680D01*
X96714759Y-69514637D01*
X96914637Y-69314759D01*
X97071680Y-69079727D01*
X97179853Y-68818574D01*
X97235000Y-68541335D01*
X97235000Y-68258665D01*
X97179853Y-67981426D01*
X97071680Y-67720273D01*
X97048112Y-67685001D01*
X101502679Y-67685001D01*
X101540001Y-67688677D01*
X101577323Y-67685001D01*
X101577334Y-67685001D01*
X101688987Y-67674004D01*
X101832248Y-67630547D01*
X101964277Y-67559975D01*
X102080002Y-67465002D01*
X102103805Y-67435998D01*
X102981094Y-66558709D01*
X103085363Y-66714759D01*
X103285241Y-66914637D01*
X103520273Y-67071680D01*
X103781426Y-67179853D01*
X104058665Y-67235000D01*
X104341335Y-67235000D01*
X104618574Y-67179853D01*
X104879727Y-67071680D01*
X105114759Y-66914637D01*
X105314637Y-66714759D01*
X105471680Y-66479727D01*
X105579853Y-66218574D01*
X105635000Y-65941335D01*
X105635000Y-65658665D01*
X105579853Y-65381426D01*
X105471680Y-65120273D01*
X105314637Y-64885241D01*
X105114759Y-64685363D01*
X104879727Y-64528320D01*
X104618574Y-64420147D01*
X104341335Y-64365000D01*
X104058665Y-64365000D01*
X103834999Y-64409491D01*
X103834999Y-63924804D01*
X105436005Y-62323799D01*
X105465002Y-62300002D01*
X105530658Y-62220000D01*
X105559975Y-62184278D01*
X105630547Y-62052248D01*
X105651347Y-61983677D01*
X105674004Y-61908987D01*
X105685001Y-61797334D01*
X105685001Y-61797324D01*
X105688677Y-61760001D01*
X105685001Y-61722678D01*
X105685001Y-59627326D01*
X105688677Y-59590003D01*
X105685001Y-59552680D01*
X105685001Y-59552670D01*
X105674004Y-59441017D01*
X105630547Y-59297756D01*
X105559975Y-59165727D01*
X105465002Y-59050002D01*
X105436004Y-59026204D01*
X104166690Y-57756890D01*
X106558524Y-57756890D01*
X106603175Y-57904099D01*
X106728359Y-58166920D01*
X106902412Y-58400269D01*
X107118645Y-58595178D01*
X107368748Y-58744157D01*
X107643109Y-58841481D01*
X107873000Y-58720814D01*
X107873000Y-57527000D01*
X106679845Y-57527000D01*
X106558524Y-57756890D01*
X104166690Y-57756890D01*
X101280778Y-54870978D01*
X101514759Y-54714637D01*
X101714637Y-54514759D01*
X101871680Y-54279727D01*
X101979853Y-54018574D01*
X102035000Y-53741335D01*
X102035000Y-53458665D01*
X101979853Y-53181426D01*
X101871680Y-52920273D01*
X101714637Y-52685241D01*
X101514759Y-52485363D01*
X101360000Y-52381957D01*
X101360000Y-52372720D01*
X102369378Y-51363343D01*
X102420147Y-51618574D01*
X102528320Y-51879727D01*
X102685363Y-52114759D01*
X102885241Y-52314637D01*
X103012996Y-52400000D01*
X102885241Y-52485363D01*
X102685363Y-52685241D01*
X102528320Y-52920273D01*
X102420147Y-53181426D01*
X102365000Y-53458665D01*
X102365000Y-53741335D01*
X102420147Y-54018574D01*
X102528320Y-54279727D01*
X102685363Y-54514759D01*
X102885241Y-54714637D01*
X103120273Y-54871680D01*
X103381426Y-54979853D01*
X103658665Y-55035000D01*
X103941335Y-55035000D01*
X104123886Y-54998688D01*
X104496201Y-55371003D01*
X104519999Y-55400001D01*
X104548997Y-55423799D01*
X104635723Y-55494974D01*
X104763759Y-55563411D01*
X104767753Y-55565546D01*
X104911014Y-55609003D01*
X105022667Y-55620000D01*
X105022676Y-55620000D01*
X105059999Y-55623676D01*
X105097322Y-55620000D01*
X106721822Y-55620000D01*
X106846525Y-55806632D01*
X107053368Y-56013475D01*
X107235534Y-56135195D01*
X107118645Y-56204822D01*
X106902412Y-56399731D01*
X106728359Y-56633080D01*
X106603175Y-56895901D01*
X106558524Y-57043110D01*
X106679845Y-57273000D01*
X107873000Y-57273000D01*
X107873000Y-57253000D01*
X108127000Y-57253000D01*
X108127000Y-57273000D01*
X108147000Y-57273000D01*
X108147000Y-57527000D01*
X108127000Y-57527000D01*
X108127000Y-58720814D01*
X108356891Y-58841481D01*
X108415002Y-58820867D01*
X108415002Y-63690195D01*
X107723886Y-64381312D01*
X107541335Y-64345000D01*
X107258665Y-64345000D01*
X106981426Y-64400147D01*
X106720273Y-64508320D01*
X106485241Y-64665363D01*
X106285363Y-64865241D01*
X106128320Y-65100273D01*
X106020147Y-65361426D01*
X105965000Y-65638665D01*
X105965000Y-65921335D01*
X106020147Y-66198574D01*
X106128320Y-66459727D01*
X106285363Y-66694759D01*
X106485241Y-66894637D01*
X106720273Y-67051680D01*
X106981426Y-67159853D01*
X107258665Y-67215000D01*
X107541335Y-67215000D01*
X107818574Y-67159853D01*
X108079727Y-67051680D01*
X108314759Y-66894637D01*
X108514637Y-66694759D01*
X108671680Y-66459727D01*
X108779853Y-66198574D01*
X108835000Y-65921335D01*
X108835000Y-65638665D01*
X108798688Y-65456114D01*
X109315000Y-64939802D01*
X109315001Y-115766485D01*
X109267688Y-116249016D01*
X109137287Y-116680927D01*
X108925480Y-117079280D01*
X108640325Y-117428914D01*
X108292697Y-117716497D01*
X107895825Y-117931085D01*
X107464834Y-118064500D01*
X106984346Y-118115000D01*
X79033504Y-118115000D01*
X78550984Y-118067688D01*
X78119073Y-117937287D01*
X77720720Y-117725480D01*
X77371086Y-117440325D01*
X77083503Y-117092697D01*
X76868915Y-116695825D01*
X76735500Y-116264834D01*
X76685000Y-115784346D01*
X76685000Y-115579872D01*
X76765000Y-115579872D01*
X76765000Y-116020128D01*
X76850890Y-116451925D01*
X77019369Y-116858669D01*
X77263962Y-117224729D01*
X77575271Y-117536038D01*
X77941331Y-117780631D01*
X78348075Y-117949110D01*
X78779872Y-118035000D01*
X79220128Y-118035000D01*
X79651925Y-117949110D01*
X80058669Y-117780631D01*
X80424729Y-117536038D01*
X80736038Y-117224729D01*
X80980631Y-116858669D01*
X81149110Y-116451925D01*
X81235000Y-116020128D01*
X81235000Y-115579872D01*
X81149110Y-115148075D01*
X80980631Y-114741331D01*
X80736038Y-114375271D01*
X80424729Y-114063962D01*
X80058669Y-113819369D01*
X79651925Y-113650890D01*
X79220128Y-113565000D01*
X78779872Y-113565000D01*
X78348075Y-113650890D01*
X77941331Y-113819369D01*
X77575271Y-114063962D01*
X77263962Y-114375271D01*
X77019369Y-114741331D01*
X76850890Y-115148075D01*
X76765000Y-115579872D01*
X76685000Y-115579872D01*
X76685000Y-101592702D01*
X84986903Y-101592702D01*
X85058486Y-101836671D01*
X85313996Y-101957571D01*
X85588184Y-102026300D01*
X85870512Y-102040217D01*
X86150130Y-101998787D01*
X86416292Y-101903603D01*
X86541514Y-101836671D01*
X86613097Y-101592702D01*
X85800000Y-100779605D01*
X84986903Y-101592702D01*
X76685000Y-101592702D01*
X76685000Y-100670512D01*
X84359783Y-100670512D01*
X84401213Y-100950130D01*
X84496397Y-101216292D01*
X84563329Y-101341514D01*
X84807298Y-101413097D01*
X85620395Y-100600000D01*
X85979605Y-100600000D01*
X86792702Y-101413097D01*
X87036671Y-101341514D01*
X87157571Y-101086004D01*
X87226300Y-100811816D01*
X87240217Y-100529488D01*
X87198787Y-100249870D01*
X87103603Y-99983708D01*
X87036671Y-99858486D01*
X86792702Y-99786903D01*
X85979605Y-100600000D01*
X85620395Y-100600000D01*
X84807298Y-99786903D01*
X84563329Y-99858486D01*
X84442429Y-100113996D01*
X84373700Y-100388184D01*
X84359783Y-100670512D01*
X76685000Y-100670512D01*
X76685000Y-99607298D01*
X84986903Y-99607298D01*
X85800000Y-100420395D01*
X86613097Y-99607298D01*
X86541514Y-99363329D01*
X86286004Y-99242429D01*
X86011816Y-99173700D01*
X85729488Y-99159783D01*
X85449870Y-99201213D01*
X85183708Y-99296397D01*
X85058486Y-99363329D01*
X84986903Y-99607298D01*
X76685000Y-99607298D01*
X76685000Y-97258665D01*
X76865000Y-97258665D01*
X76865000Y-97541335D01*
X76920147Y-97818574D01*
X77028320Y-98079727D01*
X77185363Y-98314759D01*
X77385241Y-98514637D01*
X77620273Y-98671680D01*
X77881426Y-98779853D01*
X78158665Y-98835000D01*
X78441335Y-98835000D01*
X78718574Y-98779853D01*
X78979727Y-98671680D01*
X79214759Y-98514637D01*
X79381339Y-98348057D01*
X79410498Y-98444180D01*
X79469463Y-98554494D01*
X79548815Y-98651185D01*
X79645506Y-98730537D01*
X79755820Y-98789502D01*
X79875518Y-98825812D01*
X80000000Y-98838072D01*
X80514250Y-98835000D01*
X80673000Y-98676250D01*
X80673000Y-97527000D01*
X80927000Y-97527000D01*
X80927000Y-98676250D01*
X81085750Y-98835000D01*
X81600000Y-98838072D01*
X81724482Y-98825812D01*
X81844180Y-98789502D01*
X81954494Y-98730537D01*
X82051185Y-98651185D01*
X82130537Y-98554494D01*
X82189502Y-98444180D01*
X82225812Y-98324482D01*
X82238072Y-98200000D01*
X82235000Y-97685750D01*
X82076250Y-97527000D01*
X80927000Y-97527000D01*
X80673000Y-97527000D01*
X80653000Y-97527000D01*
X80653000Y-97273000D01*
X80673000Y-97273000D01*
X80673000Y-96123750D01*
X80927000Y-96123750D01*
X80927000Y-97273000D01*
X82076250Y-97273000D01*
X82235000Y-97114250D01*
X82238072Y-96600000D01*
X82225812Y-96475518D01*
X82189502Y-96355820D01*
X82130537Y-96245506D01*
X82051185Y-96148815D01*
X81954494Y-96069463D01*
X81844180Y-96010498D01*
X81724482Y-95974188D01*
X81600000Y-95961928D01*
X81085750Y-95965000D01*
X80927000Y-96123750D01*
X80673000Y-96123750D01*
X80514250Y-95965000D01*
X80000000Y-95961928D01*
X79875518Y-95974188D01*
X79755820Y-96010498D01*
X79645506Y-96069463D01*
X79548815Y-96148815D01*
X79469463Y-96245506D01*
X79410498Y-96355820D01*
X79381339Y-96451943D01*
X79214759Y-96285363D01*
X78979727Y-96128320D01*
X78718574Y-96020147D01*
X78441335Y-95965000D01*
X78158665Y-95965000D01*
X77881426Y-96020147D01*
X77620273Y-96128320D01*
X77385241Y-96285363D01*
X77185363Y-96485241D01*
X77028320Y-96720273D01*
X76920147Y-96981426D01*
X76865000Y-97258665D01*
X76685000Y-97258665D01*
X76685000Y-73470512D01*
X78759783Y-73470512D01*
X78801213Y-73750130D01*
X78896397Y-74016292D01*
X78963329Y-74141514D01*
X79207298Y-74213097D01*
X80020395Y-73400000D01*
X79207298Y-72586903D01*
X78963329Y-72658486D01*
X78842429Y-72913996D01*
X78773700Y-73188184D01*
X78759783Y-73470512D01*
X76685000Y-73470512D01*
X76685000Y-72407298D01*
X79386903Y-72407298D01*
X80200000Y-73220395D01*
X81013097Y-72407298D01*
X84586903Y-72407298D01*
X85400000Y-73220395D01*
X86213097Y-72407298D01*
X86141514Y-72163329D01*
X85886004Y-72042429D01*
X85611816Y-71973700D01*
X85329488Y-71959783D01*
X85049870Y-72001213D01*
X84783708Y-72096397D01*
X84658486Y-72163329D01*
X84586903Y-72407298D01*
X81013097Y-72407298D01*
X80941514Y-72163329D01*
X80686004Y-72042429D01*
X80411816Y-71973700D01*
X80129488Y-71959783D01*
X79849870Y-72001213D01*
X79583708Y-72096397D01*
X79458486Y-72163329D01*
X79386903Y-72407298D01*
X76685000Y-72407298D01*
X76685000Y-54949040D01*
X82008091Y-54949040D01*
X82102930Y-55213881D01*
X82247615Y-55455131D01*
X82436586Y-55663519D01*
X82662580Y-55831037D01*
X82916913Y-55951246D01*
X83050961Y-55991904D01*
X83273000Y-55869915D01*
X83273000Y-54727000D01*
X82129376Y-54727000D01*
X82008091Y-54949040D01*
X76685000Y-54949040D01*
X76685000Y-54250960D01*
X82008091Y-54250960D01*
X82129376Y-54473000D01*
X83273000Y-54473000D01*
X83273000Y-53330085D01*
X83050961Y-53208096D01*
X82916913Y-53248754D01*
X82662580Y-53368963D01*
X82436586Y-53536481D01*
X82247615Y-53744869D01*
X82102930Y-53986119D01*
X82008091Y-54250960D01*
X76685000Y-54250960D01*
X76685000Y-43458665D01*
X89365000Y-43458665D01*
X89365000Y-43741335D01*
X89420147Y-44018574D01*
X89528320Y-44279727D01*
X89685363Y-44514759D01*
X89885241Y-44714637D01*
X90120273Y-44871680D01*
X90381426Y-44979853D01*
X90658665Y-45035000D01*
X90941335Y-45035000D01*
X91218574Y-44979853D01*
X91479727Y-44871680D01*
X91714759Y-44714637D01*
X91914637Y-44514759D01*
X92071680Y-44279727D01*
X92179853Y-44018574D01*
X92235000Y-43741335D01*
X92235000Y-43458665D01*
X92179853Y-43181426D01*
X92071680Y-42920273D01*
X91914637Y-42685241D01*
X91714759Y-42485363D01*
X91479727Y-42328320D01*
X91218574Y-42220147D01*
X90941335Y-42165000D01*
X90658665Y-42165000D01*
X90381426Y-42220147D01*
X90120273Y-42328320D01*
X89885241Y-42485363D01*
X89685363Y-42685241D01*
X89528320Y-42920273D01*
X89420147Y-43181426D01*
X89365000Y-43458665D01*
X76685000Y-43458665D01*
X76685000Y-39592702D01*
X89986903Y-39592702D01*
X90058486Y-39836671D01*
X90313996Y-39957571D01*
X90588184Y-40026300D01*
X90870512Y-40040217D01*
X91150130Y-39998787D01*
X91416292Y-39903603D01*
X91541514Y-39836671D01*
X91613097Y-39592702D01*
X95186903Y-39592702D01*
X95258486Y-39836671D01*
X95513996Y-39957571D01*
X95788184Y-40026300D01*
X96070512Y-40040217D01*
X96350130Y-39998787D01*
X96616292Y-39903603D01*
X96741514Y-39836671D01*
X96813097Y-39592702D01*
X96000000Y-38779605D01*
X95186903Y-39592702D01*
X91613097Y-39592702D01*
X90800000Y-38779605D01*
X89986903Y-39592702D01*
X76685000Y-39592702D01*
X76685000Y-38670512D01*
X89359783Y-38670512D01*
X89401213Y-38950130D01*
X89496397Y-39216292D01*
X89563329Y-39341514D01*
X89807298Y-39413097D01*
X90620395Y-38600000D01*
X90979605Y-38600000D01*
X91792702Y-39413097D01*
X92036671Y-39341514D01*
X92157571Y-39086004D01*
X92226300Y-38811816D01*
X92233265Y-38670512D01*
X94559783Y-38670512D01*
X94601213Y-38950130D01*
X94696397Y-39216292D01*
X94763329Y-39341514D01*
X95007298Y-39413097D01*
X95820395Y-38600000D01*
X96179605Y-38600000D01*
X96992702Y-39413097D01*
X97236671Y-39341514D01*
X97357571Y-39086004D01*
X97426300Y-38811816D01*
X97440217Y-38529488D01*
X97398787Y-38249870D01*
X97303603Y-37983708D01*
X97236671Y-37858486D01*
X96992702Y-37786903D01*
X96179605Y-38600000D01*
X95820395Y-38600000D01*
X95007298Y-37786903D01*
X94763329Y-37858486D01*
X94642429Y-38113996D01*
X94573700Y-38388184D01*
X94559783Y-38670512D01*
X92233265Y-38670512D01*
X92240217Y-38529488D01*
X92198787Y-38249870D01*
X92103603Y-37983708D01*
X92036671Y-37858486D01*
X91792702Y-37786903D01*
X90979605Y-38600000D01*
X90620395Y-38600000D01*
X89807298Y-37786903D01*
X89563329Y-37858486D01*
X89442429Y-38113996D01*
X89373700Y-38388184D01*
X89359783Y-38670512D01*
X76685000Y-38670512D01*
X76685000Y-35579872D01*
X76765000Y-35579872D01*
X76765000Y-36020128D01*
X76850890Y-36451925D01*
X77019369Y-36858669D01*
X77263962Y-37224729D01*
X77575271Y-37536038D01*
X77941331Y-37780631D01*
X78348075Y-37949110D01*
X78779872Y-38035000D01*
X79220128Y-38035000D01*
X79651925Y-37949110D01*
X80058669Y-37780631D01*
X80318080Y-37607298D01*
X89986903Y-37607298D01*
X90800000Y-38420395D01*
X91613097Y-37607298D01*
X95186903Y-37607298D01*
X96000000Y-38420395D01*
X96813097Y-37607298D01*
X96741514Y-37363329D01*
X96486004Y-37242429D01*
X96211816Y-37173700D01*
X95929488Y-37159783D01*
X95649870Y-37201213D01*
X95383708Y-37296397D01*
X95258486Y-37363329D01*
X95186903Y-37607298D01*
X91613097Y-37607298D01*
X91541514Y-37363329D01*
X91286004Y-37242429D01*
X91011816Y-37173700D01*
X90729488Y-37159783D01*
X90449870Y-37201213D01*
X90183708Y-37296397D01*
X90058486Y-37363329D01*
X89986903Y-37607298D01*
X80318080Y-37607298D01*
X80424729Y-37536038D01*
X80736038Y-37224729D01*
X80980631Y-36858669D01*
X81149110Y-36451925D01*
X81235000Y-36020128D01*
X81235000Y-35579872D01*
X81149110Y-35148075D01*
X80980631Y-34741331D01*
X80736038Y-34375271D01*
X80424729Y-34063962D01*
X80058669Y-33819369D01*
X79651925Y-33650890D01*
X79220128Y-33565000D01*
X78779872Y-33565000D01*
X78348075Y-33650890D01*
X77941331Y-33819369D01*
X77575271Y-34063962D01*
X77263962Y-34375271D01*
X77019369Y-34741331D01*
X76850890Y-35148075D01*
X76765000Y-35579872D01*
X76685000Y-35579872D01*
X76685000Y-30750000D01*
X78551928Y-30750000D01*
X78564188Y-30874482D01*
X78600498Y-30994180D01*
X78659463Y-31104494D01*
X78738815Y-31201185D01*
X78835506Y-31280537D01*
X78945820Y-31339502D01*
X79065518Y-31375812D01*
X79190000Y-31388072D01*
X79754250Y-31385000D01*
X79913000Y-31226250D01*
X79913000Y-30027000D01*
X80167000Y-30027000D01*
X80167000Y-31226250D01*
X80325750Y-31385000D01*
X80890000Y-31388072D01*
X81014482Y-31375812D01*
X81134180Y-31339502D01*
X81244494Y-31280537D01*
X81341185Y-31201185D01*
X81420537Y-31104494D01*
X81479502Y-30994180D01*
X81503966Y-30913534D01*
X81579731Y-30997588D01*
X81813080Y-31171641D01*
X82075901Y-31296825D01*
X82223110Y-31341476D01*
X82453000Y-31220155D01*
X82453000Y-30027000D01*
X80167000Y-30027000D01*
X79913000Y-30027000D01*
X78713750Y-30027000D01*
X78555000Y-30185750D01*
X78551928Y-30750000D01*
X76685000Y-30750000D01*
X76685000Y-29050000D01*
X78551928Y-29050000D01*
X78555000Y-29614250D01*
X78713750Y-29773000D01*
X79913000Y-29773000D01*
X79913000Y-28573750D01*
X80167000Y-28573750D01*
X80167000Y-29773000D01*
X82453000Y-29773000D01*
X82453000Y-28579845D01*
X82707000Y-28579845D01*
X82707000Y-29773000D01*
X82727000Y-29773000D01*
X82727000Y-30027000D01*
X82707000Y-30027000D01*
X82707000Y-31220155D01*
X82936890Y-31341476D01*
X83084099Y-31296825D01*
X83346920Y-31171641D01*
X83580269Y-30997588D01*
X83775178Y-30781355D01*
X83844805Y-30664466D01*
X83966525Y-30846632D01*
X84173368Y-31053475D01*
X84416589Y-31215990D01*
X84686842Y-31327932D01*
X84973740Y-31385000D01*
X85266260Y-31385000D01*
X85553158Y-31327932D01*
X85823411Y-31215990D01*
X86066632Y-31053475D01*
X86273475Y-30846632D01*
X86390000Y-30672240D01*
X86506525Y-30846632D01*
X86713368Y-31053475D01*
X86956589Y-31215990D01*
X87226842Y-31327932D01*
X87513740Y-31385000D01*
X87806260Y-31385000D01*
X88093158Y-31327932D01*
X88363411Y-31215990D01*
X88606632Y-31053475D01*
X88813475Y-30846632D01*
X88930000Y-30672240D01*
X89046525Y-30846632D01*
X89253368Y-31053475D01*
X89496589Y-31215990D01*
X89766842Y-31327932D01*
X90053740Y-31385000D01*
X90346260Y-31385000D01*
X90633158Y-31327932D01*
X90903411Y-31215990D01*
X91146632Y-31053475D01*
X91353475Y-30846632D01*
X91470000Y-30672240D01*
X91586525Y-30846632D01*
X91793368Y-31053475D01*
X92036589Y-31215990D01*
X92306842Y-31327932D01*
X92593740Y-31385000D01*
X92886260Y-31385000D01*
X93173158Y-31327932D01*
X93443411Y-31215990D01*
X93686632Y-31053475D01*
X93893475Y-30846632D01*
X94010000Y-30672240D01*
X94126525Y-30846632D01*
X94333368Y-31053475D01*
X94576589Y-31215990D01*
X94846842Y-31327932D01*
X95133740Y-31385000D01*
X95426260Y-31385000D01*
X95713158Y-31327932D01*
X95983411Y-31215990D01*
X96226632Y-31053475D01*
X96433475Y-30846632D01*
X96550000Y-30672240D01*
X96666525Y-30846632D01*
X96873368Y-31053475D01*
X97116589Y-31215990D01*
X97386842Y-31327932D01*
X97673740Y-31385000D01*
X97966260Y-31385000D01*
X98253158Y-31327932D01*
X98523411Y-31215990D01*
X98766632Y-31053475D01*
X98973475Y-30846632D01*
X99090000Y-30672240D01*
X99206525Y-30846632D01*
X99413368Y-31053475D01*
X99656589Y-31215990D01*
X99926842Y-31327932D01*
X100213740Y-31385000D01*
X100506260Y-31385000D01*
X100793158Y-31327932D01*
X101063411Y-31215990D01*
X101306632Y-31053475D01*
X101513475Y-30846632D01*
X101630000Y-30672240D01*
X101746525Y-30846632D01*
X101953368Y-31053475D01*
X102196589Y-31215990D01*
X102466842Y-31327932D01*
X102753740Y-31385000D01*
X103046260Y-31385000D01*
X103333158Y-31327932D01*
X103603411Y-31215990D01*
X103846632Y-31053475D01*
X104053475Y-30846632D01*
X104175195Y-30664466D01*
X104244822Y-30781355D01*
X104439731Y-30997588D01*
X104673080Y-31171641D01*
X104935901Y-31296825D01*
X105083110Y-31341476D01*
X105313000Y-31220155D01*
X105313000Y-30027000D01*
X105567000Y-30027000D01*
X105567000Y-31220155D01*
X105796890Y-31341476D01*
X105944099Y-31296825D01*
X106206920Y-31171641D01*
X106440269Y-30997588D01*
X106635178Y-30781355D01*
X106710000Y-30655745D01*
X106784822Y-30781355D01*
X106979731Y-30997588D01*
X107213080Y-31171641D01*
X107475901Y-31296825D01*
X107623110Y-31341476D01*
X107853000Y-31220155D01*
X107853000Y-30027000D01*
X105567000Y-30027000D01*
X105313000Y-30027000D01*
X105293000Y-30027000D01*
X105293000Y-29773000D01*
X105313000Y-29773000D01*
X105313000Y-28579845D01*
X105567000Y-28579845D01*
X105567000Y-29773000D01*
X107853000Y-29773000D01*
X107853000Y-28579845D01*
X107623110Y-28458524D01*
X107475901Y-28503175D01*
X107213080Y-28628359D01*
X106979731Y-28802412D01*
X106784822Y-29018645D01*
X106710000Y-29144255D01*
X106635178Y-29018645D01*
X106440269Y-28802412D01*
X106206920Y-28628359D01*
X105944099Y-28503175D01*
X105796890Y-28458524D01*
X105567000Y-28579845D01*
X105313000Y-28579845D01*
X105083110Y-28458524D01*
X104935901Y-28503175D01*
X104673080Y-28628359D01*
X104439731Y-28802412D01*
X104244822Y-29018645D01*
X104175195Y-29135534D01*
X104053475Y-28953368D01*
X103846632Y-28746525D01*
X103603411Y-28584010D01*
X103333158Y-28472068D01*
X103046260Y-28415000D01*
X102753740Y-28415000D01*
X102466842Y-28472068D01*
X102196589Y-28584010D01*
X101953368Y-28746525D01*
X101746525Y-28953368D01*
X101630000Y-29127760D01*
X101513475Y-28953368D01*
X101306632Y-28746525D01*
X101063411Y-28584010D01*
X100793158Y-28472068D01*
X100506260Y-28415000D01*
X100213740Y-28415000D01*
X99926842Y-28472068D01*
X99656589Y-28584010D01*
X99413368Y-28746525D01*
X99206525Y-28953368D01*
X99090000Y-29127760D01*
X98973475Y-28953368D01*
X98766632Y-28746525D01*
X98523411Y-28584010D01*
X98253158Y-28472068D01*
X97966260Y-28415000D01*
X97673740Y-28415000D01*
X97386842Y-28472068D01*
X97116589Y-28584010D01*
X96873368Y-28746525D01*
X96666525Y-28953368D01*
X96550000Y-29127760D01*
X96433475Y-28953368D01*
X96226632Y-28746525D01*
X95983411Y-28584010D01*
X95713158Y-28472068D01*
X95426260Y-28415000D01*
X95133740Y-28415000D01*
X94846842Y-28472068D01*
X94576589Y-28584010D01*
X94333368Y-28746525D01*
X94126525Y-28953368D01*
X94010000Y-29127760D01*
X93893475Y-28953368D01*
X93686632Y-28746525D01*
X93443411Y-28584010D01*
X93173158Y-28472068D01*
X92886260Y-28415000D01*
X92593740Y-28415000D01*
X92306842Y-28472068D01*
X92036589Y-28584010D01*
X91793368Y-28746525D01*
X91586525Y-28953368D01*
X91470000Y-29127760D01*
X91353475Y-28953368D01*
X91146632Y-28746525D01*
X90903411Y-28584010D01*
X90633158Y-28472068D01*
X90346260Y-28415000D01*
X90053740Y-28415000D01*
X89766842Y-28472068D01*
X89496589Y-28584010D01*
X89253368Y-28746525D01*
X89046525Y-28953368D01*
X88930000Y-29127760D01*
X88813475Y-28953368D01*
X88606632Y-28746525D01*
X88363411Y-28584010D01*
X88093158Y-28472068D01*
X87806260Y-28415000D01*
X87513740Y-28415000D01*
X87226842Y-28472068D01*
X86956589Y-28584010D01*
X86713368Y-28746525D01*
X86506525Y-28953368D01*
X86390000Y-29127760D01*
X86273475Y-28953368D01*
X86066632Y-28746525D01*
X85823411Y-28584010D01*
X85553158Y-28472068D01*
X85266260Y-28415000D01*
X84973740Y-28415000D01*
X84686842Y-28472068D01*
X84416589Y-28584010D01*
X84173368Y-28746525D01*
X83966525Y-28953368D01*
X83844805Y-29135534D01*
X83775178Y-29018645D01*
X83580269Y-28802412D01*
X83346920Y-28628359D01*
X83084099Y-28503175D01*
X82936890Y-28458524D01*
X82707000Y-28579845D01*
X82453000Y-28579845D01*
X82223110Y-28458524D01*
X82075901Y-28503175D01*
X81813080Y-28628359D01*
X81579731Y-28802412D01*
X81503966Y-28886466D01*
X81479502Y-28805820D01*
X81420537Y-28695506D01*
X81341185Y-28598815D01*
X81244494Y-28519463D01*
X81134180Y-28460498D01*
X81014482Y-28424188D01*
X80890000Y-28411928D01*
X80325750Y-28415000D01*
X80167000Y-28573750D01*
X79913000Y-28573750D01*
X79754250Y-28415000D01*
X79190000Y-28411928D01*
X79065518Y-28424188D01*
X78945820Y-28460498D01*
X78835506Y-28519463D01*
X78738815Y-28598815D01*
X78659463Y-28695506D01*
X78600498Y-28805820D01*
X78564188Y-28925518D01*
X78551928Y-29050000D01*
X76685000Y-29050000D01*
X76685000Y-28333505D01*
X76732312Y-27850984D01*
X76862714Y-27419070D01*
X77074524Y-27020715D01*
X77359675Y-26671086D01*
X77707303Y-26383503D01*
X78104177Y-26168914D01*
X78535161Y-26035502D01*
X79015654Y-25985000D01*
X106966495Y-25985000D01*
X107449016Y-26032312D01*
G37*
%TD.AperFunction*%
D23*
X85420147Y-85261426D02*
X85365000Y-85538665D01*
X85365000Y-85821335D01*
X85420147Y-86098574D01*
X85528320Y-86359727D01*
X85685363Y-86594759D01*
X85885241Y-86794637D01*
X86120273Y-86951680D01*
X86381426Y-87059853D01*
X86658665Y-87115000D01*
X86941335Y-87115000D01*
X87218574Y-87059853D01*
X87479727Y-86951680D01*
X87714759Y-86794637D01*
X87914637Y-86594759D01*
X88018043Y-86440000D01*
X88313549Y-86440000D01*
X88313057Y-86445000D01*
X88340764Y-86726309D01*
X88422818Y-86996808D01*
X88556068Y-87246101D01*
X88735392Y-87464608D01*
X88953899Y-87643932D01*
X89086858Y-87715000D01*
X88953899Y-87786068D01*
X88735392Y-87965392D01*
X88556068Y-88183899D01*
X88422818Y-88433192D01*
X88340764Y-88703691D01*
X88313057Y-88985000D01*
X88340764Y-89266309D01*
X88422818Y-89536808D01*
X88556068Y-89786101D01*
X88678684Y-89935510D01*
X88118992Y-90495203D01*
X88089989Y-90519005D01*
X88065393Y-90548976D01*
X87995016Y-90634730D01*
X87927350Y-90761324D01*
X87924444Y-90766760D01*
X87880987Y-90910021D01*
X87869990Y-91021674D01*
X87869990Y-91021684D01*
X87866314Y-91059006D01*
X87869990Y-91096328D01*
X87869990Y-92354008D01*
X87763414Y-92236481D01*
X87537420Y-92068963D01*
X87283087Y-91948754D01*
X87149039Y-91908096D01*
X86927000Y-92030085D01*
X86927000Y-93173000D01*
X86947000Y-93173000D01*
X86947000Y-93427000D01*
X86927000Y-93427000D01*
X86927000Y-93447000D01*
X86673000Y-93447000D01*
X86673000Y-93427000D01*
X86653000Y-93427000D01*
X86653000Y-93173000D01*
X86673000Y-93173000D01*
X86673000Y-92030085D01*
X86450961Y-91908096D01*
X86316913Y-91948754D01*
X86062580Y-92068963D01*
X85836586Y-92236481D01*
X85760001Y-92320935D01*
X85760001Y-87242323D01*
X85763677Y-87205000D01*
X85760001Y-87167677D01*
X85760001Y-87167668D01*
X85749004Y-87056015D01*
X85705547Y-86912754D01*
X85682307Y-86869276D01*
X85634975Y-86780724D01*
X85563800Y-86693998D01*
X85540002Y-86665000D01*
X85511004Y-86641202D01*
X84873688Y-86003886D01*
X84910000Y-85821335D01*
X84910000Y-85538665D01*
X84873688Y-85356114D01*
X85024801Y-85205001D01*
X85443519Y-85205001D01*
X85420147Y-85261426D01*
%TA.AperFunction,Conductor*%
D24*
G36*
X85420147Y-85261426D02*
G01*
X85365000Y-85538665D01*
X85365000Y-85821335D01*
X85420147Y-86098574D01*
X85528320Y-86359727D01*
X85685363Y-86594759D01*
X85885241Y-86794637D01*
X86120273Y-86951680D01*
X86381426Y-87059853D01*
X86658665Y-87115000D01*
X86941335Y-87115000D01*
X87218574Y-87059853D01*
X87479727Y-86951680D01*
X87714759Y-86794637D01*
X87914637Y-86594759D01*
X88018043Y-86440000D01*
X88313549Y-86440000D01*
X88313057Y-86445000D01*
X88340764Y-86726309D01*
X88422818Y-86996808D01*
X88556068Y-87246101D01*
X88735392Y-87464608D01*
X88953899Y-87643932D01*
X89086858Y-87715000D01*
X88953899Y-87786068D01*
X88735392Y-87965392D01*
X88556068Y-88183899D01*
X88422818Y-88433192D01*
X88340764Y-88703691D01*
X88313057Y-88985000D01*
X88340764Y-89266309D01*
X88422818Y-89536808D01*
X88556068Y-89786101D01*
X88678684Y-89935510D01*
X88118992Y-90495203D01*
X88089989Y-90519005D01*
X88065393Y-90548976D01*
X87995016Y-90634730D01*
X87927350Y-90761324D01*
X87924444Y-90766760D01*
X87880987Y-90910021D01*
X87869990Y-91021674D01*
X87869990Y-91021684D01*
X87866314Y-91059006D01*
X87869990Y-91096328D01*
X87869990Y-92354008D01*
X87763414Y-92236481D01*
X87537420Y-92068963D01*
X87283087Y-91948754D01*
X87149039Y-91908096D01*
X86927000Y-92030085D01*
X86927000Y-93173000D01*
X86947000Y-93173000D01*
X86947000Y-93427000D01*
X86927000Y-93427000D01*
X86927000Y-93447000D01*
X86673000Y-93447000D01*
X86673000Y-93427000D01*
X86653000Y-93427000D01*
X86653000Y-93173000D01*
X86673000Y-93173000D01*
X86673000Y-92030085D01*
X86450961Y-91908096D01*
X86316913Y-91948754D01*
X86062580Y-92068963D01*
X85836586Y-92236481D01*
X85760001Y-92320935D01*
X85760001Y-87242323D01*
X85763677Y-87205000D01*
X85760001Y-87167677D01*
X85760001Y-87167668D01*
X85749004Y-87056015D01*
X85705547Y-86912754D01*
X85682307Y-86869276D01*
X85634975Y-86780724D01*
X85563800Y-86693998D01*
X85540002Y-86665000D01*
X85511004Y-86641202D01*
X84873688Y-86003886D01*
X84910000Y-85821335D01*
X84910000Y-85538665D01*
X84873688Y-85356114D01*
X85024801Y-85205001D01*
X85443519Y-85205001D01*
X85420147Y-85261426D01*
G37*
%TD.AperFunction*%
D23*
X97902000Y-86318000D02*
X97922000Y-86318000D01*
X97922000Y-86572000D01*
X97902000Y-86572000D01*
X97902000Y-86592000D01*
X97648000Y-86592000D01*
X97648000Y-86572000D01*
X97628000Y-86572000D01*
X97628000Y-86318000D01*
X97648000Y-86318000D01*
X97648000Y-86298000D01*
X97902000Y-86298000D01*
X97902000Y-86318000D01*
%TA.AperFunction,Conductor*%
D24*
G36*
X97902000Y-86318000D02*
G01*
X97922000Y-86318000D01*
X97922000Y-86572000D01*
X97902000Y-86572000D01*
X97902000Y-86592000D01*
X97648000Y-86592000D01*
X97648000Y-86572000D01*
X97628000Y-86572000D01*
X97628000Y-86318000D01*
X97648000Y-86318000D01*
X97648000Y-86298000D01*
X97902000Y-86298000D01*
X97902000Y-86318000D01*
G37*
%TD.AperFunction*%
D23*
X106511928Y-35170000D02*
X106524188Y-35294482D01*
X106560498Y-35414180D01*
X106619463Y-35524494D01*
X106698815Y-35621185D01*
X106795506Y-35700537D01*
X106905820Y-35759502D01*
X106978380Y-35781513D01*
X106846525Y-35913368D01*
X106684010Y-36156589D01*
X106572068Y-36426842D01*
X106515000Y-36713740D01*
X106515000Y-37006260D01*
X106572068Y-37293158D01*
X106684010Y-37563411D01*
X106846525Y-37806632D01*
X107053368Y-38013475D01*
X107235534Y-38135195D01*
X107118645Y-38204822D01*
X106902412Y-38399731D01*
X106728359Y-38633080D01*
X106603175Y-38895901D01*
X106558524Y-39043110D01*
X106679845Y-39273000D01*
X107873000Y-39273000D01*
X107873000Y-39253000D01*
X108127000Y-39253000D01*
X108127000Y-39273000D01*
X108147000Y-39273000D01*
X108147000Y-39527000D01*
X108127000Y-39527000D01*
X108127000Y-40720814D01*
X108356891Y-40841481D01*
X108415001Y-40820868D01*
X108415001Y-41831928D01*
X107150000Y-41831928D01*
X107025518Y-41844188D01*
X106905820Y-41880498D01*
X106795506Y-41939463D01*
X106698815Y-42018815D01*
X106619463Y-42115506D01*
X106560498Y-42225820D01*
X106524188Y-42345518D01*
X106511928Y-42470000D01*
X106511928Y-42560000D01*
X106234802Y-42560000D01*
X105198688Y-41523886D01*
X105235000Y-41341335D01*
X105235000Y-41058665D01*
X105179853Y-40781426D01*
X105071680Y-40520273D01*
X104914637Y-40285241D01*
X104714759Y-40085363D01*
X104479727Y-39928320D01*
X104218574Y-39820147D01*
X103941335Y-39765000D01*
X103658665Y-39765000D01*
X103381426Y-39820147D01*
X103120273Y-39928320D01*
X102885241Y-40085363D01*
X102685363Y-40285241D01*
X102528320Y-40520273D01*
X102420147Y-40781426D01*
X102365000Y-41058665D01*
X102365000Y-41341335D01*
X102420147Y-41618574D01*
X102528320Y-41879727D01*
X102685363Y-42114759D01*
X102885241Y-42314637D01*
X103002862Y-42393229D01*
X102836586Y-42516481D01*
X102647615Y-42724869D01*
X102502930Y-42966119D01*
X102408091Y-43230960D01*
X102529376Y-43453000D01*
X103673000Y-43453000D01*
X103673000Y-43433000D01*
X103927000Y-43433000D01*
X103927000Y-43453000D01*
X103947000Y-43453000D01*
X103947000Y-43707000D01*
X103927000Y-43707000D01*
X103927000Y-44849915D01*
X104149039Y-44971904D01*
X104283087Y-44931246D01*
X104537420Y-44811037D01*
X104763414Y-44643519D01*
X104952385Y-44435131D01*
X105097070Y-44193881D01*
X105191909Y-43929040D01*
X105070625Y-43707002D01*
X105232200Y-43707002D01*
X105356201Y-43831003D01*
X105379999Y-43860001D01*
X105495724Y-43954974D01*
X105627753Y-44025546D01*
X105771014Y-44069003D01*
X105882667Y-44080000D01*
X105882675Y-44080000D01*
X105920000Y-44083676D01*
X105957325Y-44080000D01*
X106511928Y-44080000D01*
X106511928Y-44170000D01*
X106524188Y-44294482D01*
X106560498Y-44414180D01*
X106619463Y-44524494D01*
X106698815Y-44621185D01*
X106795506Y-44700537D01*
X106905820Y-44759502D01*
X106978380Y-44781513D01*
X106846525Y-44913368D01*
X106719091Y-45104087D01*
X106648933Y-45110997D01*
X106505672Y-45154454D01*
X106373642Y-45225026D01*
X106290002Y-45293668D01*
X106257918Y-45319999D01*
X106234120Y-45348997D01*
X100089003Y-51494115D01*
X100059999Y-51517918D01*
X100017256Y-51570001D01*
X99965026Y-51633643D01*
X99937187Y-51685726D01*
X99894454Y-51765673D01*
X99850997Y-51908934D01*
X99840000Y-52020587D01*
X99840000Y-52020597D01*
X99836324Y-52057919D01*
X99840000Y-52095242D01*
X99840000Y-52381956D01*
X99685241Y-52485363D01*
X99485363Y-52685241D01*
X99329022Y-52919223D01*
X98952415Y-52542615D01*
X99043932Y-52431101D01*
X99177182Y-52181808D01*
X99259236Y-51911309D01*
X99286943Y-51630000D01*
X99259236Y-51348691D01*
X99177182Y-51078192D01*
X99043932Y-50828899D01*
X98864608Y-50610392D01*
X98646101Y-50431068D01*
X98513142Y-50360000D01*
X98646101Y-50288932D01*
X98864608Y-50109608D01*
X99043932Y-49891101D01*
X99177182Y-49641808D01*
X99259236Y-49371309D01*
X99286943Y-49090000D01*
X99259236Y-48808691D01*
X99177182Y-48538192D01*
X99043932Y-48288899D01*
X98864608Y-48070392D01*
X98646101Y-47891068D01*
X98513142Y-47820000D01*
X98646101Y-47748932D01*
X98864608Y-47569608D01*
X99043932Y-47351101D01*
X99177182Y-47101808D01*
X99259236Y-46831309D01*
X99286943Y-46550000D01*
X99259236Y-46268691D01*
X99177182Y-45998192D01*
X99043932Y-45748899D01*
X98864608Y-45530392D01*
X98646101Y-45351068D01*
X98396808Y-45217818D01*
X98126309Y-45135764D01*
X97915492Y-45115000D01*
X96974508Y-45115000D01*
X96795000Y-45132680D01*
X96795000Y-44794657D01*
X96914759Y-44714637D01*
X97114637Y-44514759D01*
X97271680Y-44279727D01*
X97379853Y-44018574D01*
X97397662Y-43929040D01*
X102408091Y-43929040D01*
X102502930Y-44193881D01*
X102647615Y-44435131D01*
X102836586Y-44643519D01*
X103062580Y-44811037D01*
X103316913Y-44931246D01*
X103450961Y-44971904D01*
X103673000Y-44849915D01*
X103673000Y-43707000D01*
X102529376Y-43707000D01*
X102408091Y-43929040D01*
X97397662Y-43929040D01*
X97435000Y-43741335D01*
X97435000Y-43458665D01*
X97406900Y-43317398D01*
X100967409Y-39756890D01*
X106558524Y-39756890D01*
X106603175Y-39904099D01*
X106728359Y-40166920D01*
X106902412Y-40400269D01*
X107118645Y-40595178D01*
X107368748Y-40744157D01*
X107643109Y-40841481D01*
X107873000Y-40720814D01*
X107873000Y-39527000D01*
X106679845Y-39527000D01*
X106558524Y-39756890D01*
X100967409Y-39756890D01*
X104334543Y-36389757D01*
X104364869Y-36364869D01*
X104389757Y-36334543D01*
X104389761Y-36334539D01*
X104421224Y-36296201D01*
X104464216Y-36243815D01*
X104538037Y-36105705D01*
X104583496Y-35955847D01*
X104595000Y-35839048D01*
X104595000Y-35839040D01*
X104598845Y-35800000D01*
X104595000Y-35760960D01*
X104595000Y-34774657D01*
X104714759Y-34694637D01*
X104914637Y-34494759D01*
X104994657Y-34375000D01*
X106511928Y-34375000D01*
X106511928Y-35170000D01*
%TA.AperFunction,Conductor*%
D24*
G36*
X106511928Y-35170000D02*
G01*
X106524188Y-35294482D01*
X106560498Y-35414180D01*
X106619463Y-35524494D01*
X106698815Y-35621185D01*
X106795506Y-35700537D01*
X106905820Y-35759502D01*
X106978380Y-35781513D01*
X106846525Y-35913368D01*
X106684010Y-36156589D01*
X106572068Y-36426842D01*
X106515000Y-36713740D01*
X106515000Y-37006260D01*
X106572068Y-37293158D01*
X106684010Y-37563411D01*
X106846525Y-37806632D01*
X107053368Y-38013475D01*
X107235534Y-38135195D01*
X107118645Y-38204822D01*
X106902412Y-38399731D01*
X106728359Y-38633080D01*
X106603175Y-38895901D01*
X106558524Y-39043110D01*
X106679845Y-39273000D01*
X107873000Y-39273000D01*
X107873000Y-39253000D01*
X108127000Y-39253000D01*
X108127000Y-39273000D01*
X108147000Y-39273000D01*
X108147000Y-39527000D01*
X108127000Y-39527000D01*
X108127000Y-40720814D01*
X108356891Y-40841481D01*
X108415001Y-40820868D01*
X108415001Y-41831928D01*
X107150000Y-41831928D01*
X107025518Y-41844188D01*
X106905820Y-41880498D01*
X106795506Y-41939463D01*
X106698815Y-42018815D01*
X106619463Y-42115506D01*
X106560498Y-42225820D01*
X106524188Y-42345518D01*
X106511928Y-42470000D01*
X106511928Y-42560000D01*
X106234802Y-42560000D01*
X105198688Y-41523886D01*
X105235000Y-41341335D01*
X105235000Y-41058665D01*
X105179853Y-40781426D01*
X105071680Y-40520273D01*
X104914637Y-40285241D01*
X104714759Y-40085363D01*
X104479727Y-39928320D01*
X104218574Y-39820147D01*
X103941335Y-39765000D01*
X103658665Y-39765000D01*
X103381426Y-39820147D01*
X103120273Y-39928320D01*
X102885241Y-40085363D01*
X102685363Y-40285241D01*
X102528320Y-40520273D01*
X102420147Y-40781426D01*
X102365000Y-41058665D01*
X102365000Y-41341335D01*
X102420147Y-41618574D01*
X102528320Y-41879727D01*
X102685363Y-42114759D01*
X102885241Y-42314637D01*
X103002862Y-42393229D01*
X102836586Y-42516481D01*
X102647615Y-42724869D01*
X102502930Y-42966119D01*
X102408091Y-43230960D01*
X102529376Y-43453000D01*
X103673000Y-43453000D01*
X103673000Y-43433000D01*
X103927000Y-43433000D01*
X103927000Y-43453000D01*
X103947000Y-43453000D01*
X103947000Y-43707000D01*
X103927000Y-43707000D01*
X103927000Y-44849915D01*
X104149039Y-44971904D01*
X104283087Y-44931246D01*
X104537420Y-44811037D01*
X104763414Y-44643519D01*
X104952385Y-44435131D01*
X105097070Y-44193881D01*
X105191909Y-43929040D01*
X105070625Y-43707002D01*
X105232200Y-43707002D01*
X105356201Y-43831003D01*
X105379999Y-43860001D01*
X105495724Y-43954974D01*
X105627753Y-44025546D01*
X105771014Y-44069003D01*
X105882667Y-44080000D01*
X105882675Y-44080000D01*
X105920000Y-44083676D01*
X105957325Y-44080000D01*
X106511928Y-44080000D01*
X106511928Y-44170000D01*
X106524188Y-44294482D01*
X106560498Y-44414180D01*
X106619463Y-44524494D01*
X106698815Y-44621185D01*
X106795506Y-44700537D01*
X106905820Y-44759502D01*
X106978380Y-44781513D01*
X106846525Y-44913368D01*
X106719091Y-45104087D01*
X106648933Y-45110997D01*
X106505672Y-45154454D01*
X106373642Y-45225026D01*
X106290002Y-45293668D01*
X106257918Y-45319999D01*
X106234120Y-45348997D01*
X100089003Y-51494115D01*
X100059999Y-51517918D01*
X100017256Y-51570001D01*
X99965026Y-51633643D01*
X99937187Y-51685726D01*
X99894454Y-51765673D01*
X99850997Y-51908934D01*
X99840000Y-52020587D01*
X99840000Y-52020597D01*
X99836324Y-52057919D01*
X99840000Y-52095242D01*
X99840000Y-52381956D01*
X99685241Y-52485363D01*
X99485363Y-52685241D01*
X99329022Y-52919223D01*
X98952415Y-52542615D01*
X99043932Y-52431101D01*
X99177182Y-52181808D01*
X99259236Y-51911309D01*
X99286943Y-51630000D01*
X99259236Y-51348691D01*
X99177182Y-51078192D01*
X99043932Y-50828899D01*
X98864608Y-50610392D01*
X98646101Y-50431068D01*
X98513142Y-50360000D01*
X98646101Y-50288932D01*
X98864608Y-50109608D01*
X99043932Y-49891101D01*
X99177182Y-49641808D01*
X99259236Y-49371309D01*
X99286943Y-49090000D01*
X99259236Y-48808691D01*
X99177182Y-48538192D01*
X99043932Y-48288899D01*
X98864608Y-48070392D01*
X98646101Y-47891068D01*
X98513142Y-47820000D01*
X98646101Y-47748932D01*
X98864608Y-47569608D01*
X99043932Y-47351101D01*
X99177182Y-47101808D01*
X99259236Y-46831309D01*
X99286943Y-46550000D01*
X99259236Y-46268691D01*
X99177182Y-45998192D01*
X99043932Y-45748899D01*
X98864608Y-45530392D01*
X98646101Y-45351068D01*
X98396808Y-45217818D01*
X98126309Y-45135764D01*
X97915492Y-45115000D01*
X96974508Y-45115000D01*
X96795000Y-45132680D01*
X96795000Y-44794657D01*
X96914759Y-44714637D01*
X97114637Y-44514759D01*
X97271680Y-44279727D01*
X97379853Y-44018574D01*
X97397662Y-43929040D01*
X102408091Y-43929040D01*
X102502930Y-44193881D01*
X102647615Y-44435131D01*
X102836586Y-44643519D01*
X103062580Y-44811037D01*
X103316913Y-44931246D01*
X103450961Y-44971904D01*
X103673000Y-44849915D01*
X103673000Y-43707000D01*
X102529376Y-43707000D01*
X102408091Y-43929040D01*
X97397662Y-43929040D01*
X97435000Y-43741335D01*
X97435000Y-43458665D01*
X97406900Y-43317398D01*
X100967409Y-39756890D01*
X106558524Y-39756890D01*
X106603175Y-39904099D01*
X106728359Y-40166920D01*
X106902412Y-40400269D01*
X107118645Y-40595178D01*
X107368748Y-40744157D01*
X107643109Y-40841481D01*
X107873000Y-40720814D01*
X107873000Y-39527000D01*
X106679845Y-39527000D01*
X106558524Y-39756890D01*
X100967409Y-39756890D01*
X104334543Y-36389757D01*
X104364869Y-36364869D01*
X104389757Y-36334543D01*
X104389761Y-36334539D01*
X104421224Y-36296201D01*
X104464216Y-36243815D01*
X104538037Y-36105705D01*
X104583496Y-35955847D01*
X104595000Y-35839048D01*
X104595000Y-35839040D01*
X104598845Y-35800000D01*
X104595000Y-35760960D01*
X104595000Y-34774657D01*
X104714759Y-34694637D01*
X104914637Y-34494759D01*
X104994657Y-34375000D01*
X106511928Y-34375000D01*
X106511928Y-35170000D01*
G37*
%TD.AperFunction*%
%TD*%
M02*
