%TF.GenerationSoftware,KiCad,Pcbnew,(5.1.9)-1*%
%TF.CreationDate,2021-09-28T20:21:56+01:00*%
%TF.ProjectId,1222 LMNC VCO ,31323232-204c-44d4-9e43-2056434f202e,rev?*%
%TF.SameCoordinates,Original*%
%TF.FileFunction,Legend,Top*%
%TF.FilePolarity,Positive*%
%FSLAX46Y46*%
G04 Gerber Fmt 4.6, Leading zero omitted, Abs format (unit mm)*
G04 Created by KiCad (PCBNEW (5.1.9)-1) date 2021-09-28 20:21:57*
%MOMM*%
%LPD*%
G01*
G04 APERTURE LIST*
%ADD10C,0.150000*%
%ADD11C,0.120000*%
%ADD12C,0.100000*%
G04 APERTURE END LIST*
D10*
X84285714Y-49800000D02*
X85095238Y-49800000D01*
X85190476Y-49847619D01*
X85238095Y-49895238D01*
X85285714Y-49990476D01*
X85285714Y-50133333D01*
X85238095Y-50228571D01*
X84904761Y-49800000D02*
X84952380Y-49895238D01*
X84952380Y-50085714D01*
X84904761Y-50180952D01*
X84857142Y-50228571D01*
X84761904Y-50276190D01*
X84476190Y-50276190D01*
X84380952Y-50228571D01*
X84333333Y-50180952D01*
X84285714Y-50085714D01*
X84285714Y-49895238D01*
X84333333Y-49800000D01*
X84952380Y-49323809D02*
X84285714Y-49323809D01*
X83952380Y-49323809D02*
X84000000Y-49371428D01*
X84047619Y-49323809D01*
X84000000Y-49276190D01*
X83952380Y-49323809D01*
X84047619Y-49323809D01*
X84285714Y-48990476D02*
X84285714Y-48609523D01*
X83952380Y-48847619D02*
X84809523Y-48847619D01*
X84904761Y-48800000D01*
X84952380Y-48704761D01*
X84952380Y-48609523D01*
X84952380Y-48276190D02*
X83952380Y-48276190D01*
X84952380Y-47847619D02*
X84428571Y-47847619D01*
X84333333Y-47895238D01*
X84285714Y-47990476D01*
X84285714Y-48133333D01*
X84333333Y-48228571D01*
X84380952Y-48276190D01*
X84285714Y-46942857D02*
X84952380Y-46942857D01*
X84285714Y-47371428D02*
X84809523Y-47371428D01*
X84904761Y-47323809D01*
X84952380Y-47228571D01*
X84952380Y-47085714D01*
X84904761Y-46990476D01*
X84857142Y-46942857D01*
X84952380Y-46466666D02*
X83952380Y-46466666D01*
X84333333Y-46466666D02*
X84285714Y-46371428D01*
X84285714Y-46180952D01*
X84333333Y-46085714D01*
X84380952Y-46038095D01*
X84476190Y-45990476D01*
X84761904Y-45990476D01*
X84857142Y-46038095D01*
X84904761Y-46085714D01*
X84952380Y-46180952D01*
X84952380Y-46371428D01*
X84904761Y-46466666D01*
X84857142Y-45561904D02*
X84904761Y-45514285D01*
X84952380Y-45561904D01*
X84904761Y-45609523D01*
X84857142Y-45561904D01*
X84952380Y-45561904D01*
X84904761Y-44657142D02*
X84952380Y-44752380D01*
X84952380Y-44942857D01*
X84904761Y-45038095D01*
X84857142Y-45085714D01*
X84761904Y-45133333D01*
X84476190Y-45133333D01*
X84380952Y-45085714D01*
X84333333Y-45038095D01*
X84285714Y-44942857D01*
X84285714Y-44752380D01*
X84333333Y-44657142D01*
X84952380Y-44085714D02*
X84904761Y-44180952D01*
X84857142Y-44228571D01*
X84761904Y-44276190D01*
X84476190Y-44276190D01*
X84380952Y-44228571D01*
X84333333Y-44180952D01*
X84285714Y-44085714D01*
X84285714Y-43942857D01*
X84333333Y-43847619D01*
X84380952Y-43800000D01*
X84476190Y-43752380D01*
X84761904Y-43752380D01*
X84857142Y-43800000D01*
X84904761Y-43847619D01*
X84952380Y-43942857D01*
X84952380Y-44085714D01*
X84952380Y-43323809D02*
X84285714Y-43323809D01*
X84380952Y-43323809D02*
X84333333Y-43276190D01*
X84285714Y-43180952D01*
X84285714Y-43038095D01*
X84333333Y-42942857D01*
X84428571Y-42895238D01*
X84952380Y-42895238D01*
X84428571Y-42895238D02*
X84333333Y-42847619D01*
X84285714Y-42752380D01*
X84285714Y-42609523D01*
X84333333Y-42514285D01*
X84428571Y-42466666D01*
X84952380Y-42466666D01*
X83904761Y-41276190D02*
X85190476Y-42133333D01*
X84904761Y-40990476D02*
X84952380Y-40895238D01*
X84952380Y-40704761D01*
X84904761Y-40609523D01*
X84809523Y-40561904D01*
X84761904Y-40561904D01*
X84666666Y-40609523D01*
X84619047Y-40704761D01*
X84619047Y-40847619D01*
X84571428Y-40942857D01*
X84476190Y-40990476D01*
X84428571Y-40990476D01*
X84333333Y-40942857D01*
X84285714Y-40847619D01*
X84285714Y-40704761D01*
X84333333Y-40609523D01*
X84952380Y-39990476D02*
X84904761Y-40085714D01*
X84857142Y-40133333D01*
X84761904Y-40180952D01*
X84476190Y-40180952D01*
X84380952Y-40133333D01*
X84333333Y-40085714D01*
X84285714Y-39990476D01*
X84285714Y-39847619D01*
X84333333Y-39752380D01*
X84380952Y-39704761D01*
X84476190Y-39657142D01*
X84761904Y-39657142D01*
X84857142Y-39704761D01*
X84904761Y-39752380D01*
X84952380Y-39847619D01*
X84952380Y-39990476D01*
X84285714Y-39228571D02*
X84952380Y-39228571D01*
X84380952Y-39228571D02*
X84333333Y-39180952D01*
X84285714Y-39085714D01*
X84285714Y-38942857D01*
X84333333Y-38847619D01*
X84428571Y-38800000D01*
X84952380Y-38800000D01*
X84952380Y-38180952D02*
X84904761Y-38276190D01*
X84857142Y-38323809D01*
X84761904Y-38371428D01*
X84476190Y-38371428D01*
X84380952Y-38323809D01*
X84333333Y-38276190D01*
X84285714Y-38180952D01*
X84285714Y-38038095D01*
X84333333Y-37942857D01*
X84380952Y-37895238D01*
X84476190Y-37847619D01*
X84761904Y-37847619D01*
X84857142Y-37895238D01*
X84904761Y-37942857D01*
X84952380Y-38038095D01*
X84952380Y-38180952D01*
X84904761Y-37466666D02*
X84952380Y-37371428D01*
X84952380Y-37180952D01*
X84904761Y-37085714D01*
X84809523Y-37038095D01*
X84761904Y-37038095D01*
X84666666Y-37085714D01*
X84619047Y-37180952D01*
X84619047Y-37323809D01*
X84571428Y-37419047D01*
X84476190Y-37466666D01*
X84428571Y-37466666D01*
X84333333Y-37419047D01*
X84285714Y-37323809D01*
X84285714Y-37180952D01*
X84333333Y-37085714D01*
X84285714Y-36180952D02*
X84952380Y-36180952D01*
X84285714Y-36609523D02*
X84809523Y-36609523D01*
X84904761Y-36561904D01*
X84952380Y-36466666D01*
X84952380Y-36323809D01*
X84904761Y-36228571D01*
X84857142Y-36180952D01*
X84904761Y-35752380D02*
X84952380Y-35657142D01*
X84952380Y-35466666D01*
X84904761Y-35371428D01*
X84809523Y-35323809D01*
X84761904Y-35323809D01*
X84666666Y-35371428D01*
X84619047Y-35466666D01*
X84619047Y-35609523D01*
X84571428Y-35704761D01*
X84476190Y-35752380D01*
X84428571Y-35752380D01*
X84333333Y-35704761D01*
X84285714Y-35609523D01*
X84285714Y-35466666D01*
X84333333Y-35371428D01*
X76802380Y-60633333D02*
X76802380Y-60014285D01*
X77183333Y-60347619D01*
X77183333Y-60204761D01*
X77230952Y-60109523D01*
X77278571Y-60061904D01*
X77373809Y-60014285D01*
X77611904Y-60014285D01*
X77707142Y-60061904D01*
X77754761Y-60109523D01*
X77802380Y-60204761D01*
X77802380Y-60490476D01*
X77754761Y-60585714D01*
X77707142Y-60633333D01*
X76802380Y-59680952D02*
X76802380Y-59061904D01*
X77183333Y-59395238D01*
X77183333Y-59252380D01*
X77230952Y-59157142D01*
X77278571Y-59109523D01*
X77373809Y-59061904D01*
X77611904Y-59061904D01*
X77707142Y-59109523D01*
X77754761Y-59157142D01*
X77802380Y-59252380D01*
X77802380Y-59538095D01*
X77754761Y-59633333D01*
X77707142Y-59680952D01*
X77135714Y-58204761D02*
X77802380Y-58204761D01*
X76754761Y-58442857D02*
X77469047Y-58680952D01*
X77469047Y-58061904D01*
X76802380Y-57490476D02*
X76802380Y-57395238D01*
X76850000Y-57300000D01*
X76897619Y-57252380D01*
X76992857Y-57204761D01*
X77183333Y-57157142D01*
X77421428Y-57157142D01*
X77611904Y-57204761D01*
X77707142Y-57252380D01*
X77754761Y-57300000D01*
X77802380Y-57395238D01*
X77802380Y-57490476D01*
X77754761Y-57585714D01*
X77707142Y-57633333D01*
X77611904Y-57680952D01*
X77421428Y-57728571D01*
X77183333Y-57728571D01*
X76992857Y-57680952D01*
X76897619Y-57633333D01*
X76850000Y-57585714D01*
X76802380Y-57490476D01*
X76802380Y-55776190D02*
X76802380Y-55585714D01*
X76850000Y-55490476D01*
X76945238Y-55395238D01*
X77135714Y-55347619D01*
X77469047Y-55347619D01*
X77659523Y-55395238D01*
X77754761Y-55490476D01*
X77802380Y-55585714D01*
X77802380Y-55776190D01*
X77754761Y-55871428D01*
X77659523Y-55966666D01*
X77469047Y-56014285D01*
X77135714Y-56014285D01*
X76945238Y-55966666D01*
X76850000Y-55871428D01*
X76802380Y-55776190D01*
X77754761Y-54966666D02*
X77802380Y-54823809D01*
X77802380Y-54585714D01*
X77754761Y-54490476D01*
X77707142Y-54442857D01*
X77611904Y-54395238D01*
X77516666Y-54395238D01*
X77421428Y-54442857D01*
X77373809Y-54490476D01*
X77326190Y-54585714D01*
X77278571Y-54776190D01*
X77230952Y-54871428D01*
X77183333Y-54919047D01*
X77088095Y-54966666D01*
X76992857Y-54966666D01*
X76897619Y-54919047D01*
X76850000Y-54871428D01*
X76802380Y-54776190D01*
X76802380Y-54538095D01*
X76850000Y-54395238D01*
X77707142Y-53395238D02*
X77754761Y-53442857D01*
X77802380Y-53585714D01*
X77802380Y-53680952D01*
X77754761Y-53823809D01*
X77659523Y-53919047D01*
X77564285Y-53966666D01*
X77373809Y-54014285D01*
X77230952Y-54014285D01*
X77040476Y-53966666D01*
X76945238Y-53919047D01*
X76850000Y-53823809D01*
X76802380Y-53680952D01*
X76802380Y-53585714D01*
X76850000Y-53442857D01*
X76897619Y-53395238D01*
X77278571Y-51871428D02*
X77326190Y-51728571D01*
X77373809Y-51680952D01*
X77469047Y-51633333D01*
X77611904Y-51633333D01*
X77707142Y-51680952D01*
X77754761Y-51728571D01*
X77802380Y-51823809D01*
X77802380Y-52204761D01*
X76802380Y-52204761D01*
X76802380Y-51871428D01*
X76850000Y-51776190D01*
X76897619Y-51728571D01*
X76992857Y-51680952D01*
X77088095Y-51680952D01*
X77183333Y-51728571D01*
X77230952Y-51776190D01*
X77278571Y-51871428D01*
X77278571Y-52204761D01*
X77802380Y-50633333D02*
X77326190Y-50966666D01*
X77802380Y-51204761D02*
X76802380Y-51204761D01*
X76802380Y-50823809D01*
X76850000Y-50728571D01*
X76897619Y-50680952D01*
X76992857Y-50633333D01*
X77135714Y-50633333D01*
X77230952Y-50680952D01*
X77278571Y-50728571D01*
X77326190Y-50823809D01*
X77326190Y-51204761D01*
X77278571Y-50204761D02*
X77278571Y-49871428D01*
X77802380Y-49728571D02*
X77802380Y-50204761D01*
X76802380Y-50204761D01*
X76802380Y-49728571D01*
X77516666Y-49347619D02*
X77516666Y-48871428D01*
X77802380Y-49442857D02*
X76802380Y-49109523D01*
X77802380Y-48776190D01*
X77802380Y-48442857D02*
X76802380Y-48442857D01*
X77802380Y-47871428D02*
X77230952Y-48300000D01*
X76802380Y-47871428D02*
X77373809Y-48442857D01*
X76802380Y-47252380D02*
X76802380Y-47061904D01*
X76850000Y-46966666D01*
X76945238Y-46871428D01*
X77135714Y-46823809D01*
X77469047Y-46823809D01*
X77659523Y-46871428D01*
X77754761Y-46966666D01*
X77802380Y-47061904D01*
X77802380Y-47252380D01*
X77754761Y-47347619D01*
X77659523Y-47442857D01*
X77469047Y-47490476D01*
X77135714Y-47490476D01*
X76945238Y-47442857D01*
X76850000Y-47347619D01*
X76802380Y-47252380D01*
X76802380Y-46395238D02*
X77611904Y-46395238D01*
X77707142Y-46347619D01*
X77754761Y-46300000D01*
X77802380Y-46204761D01*
X77802380Y-46014285D01*
X77754761Y-45919047D01*
X77707142Y-45871428D01*
X77611904Y-45823809D01*
X76802380Y-45823809D01*
X76802380Y-45490476D02*
X76802380Y-44919047D01*
X77802380Y-45204761D02*
X76802380Y-45204761D01*
X79452380Y-63752380D02*
X78452380Y-63752380D01*
X78452380Y-63371428D01*
X78500000Y-63276190D01*
X78547619Y-63228571D01*
X78642857Y-63180952D01*
X78785714Y-63180952D01*
X78880952Y-63228571D01*
X78928571Y-63276190D01*
X78976190Y-63371428D01*
X78976190Y-63752380D01*
X79357142Y-62180952D02*
X79404761Y-62228571D01*
X79452380Y-62371428D01*
X79452380Y-62466666D01*
X79404761Y-62609523D01*
X79309523Y-62704761D01*
X79214285Y-62752380D01*
X79023809Y-62800000D01*
X78880952Y-62800000D01*
X78690476Y-62752380D01*
X78595238Y-62704761D01*
X78500000Y-62609523D01*
X78452380Y-62466666D01*
X78452380Y-62371428D01*
X78500000Y-62228571D01*
X78547619Y-62180952D01*
X78928571Y-61419047D02*
X78976190Y-61276190D01*
X79023809Y-61228571D01*
X79119047Y-61180952D01*
X79261904Y-61180952D01*
X79357142Y-61228571D01*
X79404761Y-61276190D01*
X79452380Y-61371428D01*
X79452380Y-61752380D01*
X78452380Y-61752380D01*
X78452380Y-61419047D01*
X78500000Y-61323809D01*
X78547619Y-61276190D01*
X78642857Y-61228571D01*
X78738095Y-61228571D01*
X78833333Y-61276190D01*
X78880952Y-61323809D01*
X78928571Y-61419047D01*
X78928571Y-61752380D01*
X78928571Y-59657142D02*
X78976190Y-59514285D01*
X79023809Y-59466666D01*
X79119047Y-59419047D01*
X79261904Y-59419047D01*
X79357142Y-59466666D01*
X79404761Y-59514285D01*
X79452380Y-59609523D01*
X79452380Y-59990476D01*
X78452380Y-59990476D01*
X78452380Y-59657142D01*
X78500000Y-59561904D01*
X78547619Y-59514285D01*
X78642857Y-59466666D01*
X78738095Y-59466666D01*
X78833333Y-59514285D01*
X78880952Y-59561904D01*
X78928571Y-59657142D01*
X78928571Y-59990476D01*
X78976190Y-58800000D02*
X79452380Y-58800000D01*
X78452380Y-59133333D02*
X78976190Y-58800000D01*
X78452380Y-58466666D01*
X79404761Y-57419047D02*
X79452380Y-57276190D01*
X79452380Y-57038095D01*
X79404761Y-56942857D01*
X79357142Y-56895238D01*
X79261904Y-56847619D01*
X79166666Y-56847619D01*
X79071428Y-56895238D01*
X79023809Y-56942857D01*
X78976190Y-57038095D01*
X78928571Y-57228571D01*
X78880952Y-57323809D01*
X78833333Y-57371428D01*
X78738095Y-57419047D01*
X78642857Y-57419047D01*
X78547619Y-57371428D01*
X78500000Y-57323809D01*
X78452380Y-57228571D01*
X78452380Y-56990476D01*
X78500000Y-56847619D01*
X78452380Y-56228571D02*
X78452380Y-56038095D01*
X78500000Y-55942857D01*
X78595238Y-55847619D01*
X78785714Y-55800000D01*
X79119047Y-55800000D01*
X79309523Y-55847619D01*
X79404761Y-55942857D01*
X79452380Y-56038095D01*
X79452380Y-56228571D01*
X79404761Y-56323809D01*
X79309523Y-56419047D01*
X79119047Y-56466666D01*
X78785714Y-56466666D01*
X78595238Y-56419047D01*
X78500000Y-56323809D01*
X78452380Y-56228571D01*
X79452380Y-55371428D02*
X78452380Y-55371428D01*
X79452380Y-54800000D01*
X78452380Y-54800000D01*
X78452380Y-54133333D02*
X78452380Y-53942857D01*
X78500000Y-53847619D01*
X78595238Y-53752380D01*
X78785714Y-53704761D01*
X79119047Y-53704761D01*
X79309523Y-53752380D01*
X79404761Y-53847619D01*
X79452380Y-53942857D01*
X79452380Y-54133333D01*
X79404761Y-54228571D01*
X79309523Y-54323809D01*
X79119047Y-54371428D01*
X78785714Y-54371428D01*
X78595238Y-54323809D01*
X78500000Y-54228571D01*
X78452380Y-54133333D01*
X79404761Y-53323809D02*
X79452380Y-53180952D01*
X79452380Y-52942857D01*
X79404761Y-52847619D01*
X79357142Y-52800000D01*
X79261904Y-52752380D01*
X79166666Y-52752380D01*
X79071428Y-52800000D01*
X79023809Y-52847619D01*
X78976190Y-52942857D01*
X78928571Y-53133333D01*
X78880952Y-53228571D01*
X78833333Y-53276190D01*
X78738095Y-53323809D01*
X78642857Y-53323809D01*
X78547619Y-53276190D01*
X78500000Y-53228571D01*
X78452380Y-53133333D01*
X78452380Y-52895238D01*
X78500000Y-52752380D01*
X78452380Y-52323809D02*
X79261904Y-52323809D01*
X79357142Y-52276190D01*
X79404761Y-52228571D01*
X79452380Y-52133333D01*
X79452380Y-51942857D01*
X79404761Y-51847619D01*
X79357142Y-51800000D01*
X79261904Y-51752380D01*
X78452380Y-51752380D01*
X79404761Y-51323809D02*
X79452380Y-51180952D01*
X79452380Y-50942857D01*
X79404761Y-50847619D01*
X79357142Y-50800000D01*
X79261904Y-50752380D01*
X79166666Y-50752380D01*
X79071428Y-50800000D01*
X79023809Y-50847619D01*
X78976190Y-50942857D01*
X78928571Y-51133333D01*
X78880952Y-51228571D01*
X78833333Y-51276190D01*
X78738095Y-51323809D01*
X78642857Y-51323809D01*
X78547619Y-51276190D01*
X78500000Y-51228571D01*
X78452380Y-51133333D01*
X78452380Y-50895238D01*
X78500000Y-50752380D01*
X79404761Y-49609523D02*
X79452380Y-49466666D01*
X79452380Y-49228571D01*
X79404761Y-49133333D01*
X79357142Y-49085714D01*
X79261904Y-49038095D01*
X79166666Y-49038095D01*
X79071428Y-49085714D01*
X79023809Y-49133333D01*
X78976190Y-49228571D01*
X78928571Y-49419047D01*
X78880952Y-49514285D01*
X78833333Y-49561904D01*
X78738095Y-49609523D01*
X78642857Y-49609523D01*
X78547619Y-49561904D01*
X78500000Y-49514285D01*
X78452380Y-49419047D01*
X78452380Y-49180952D01*
X78500000Y-49038095D01*
X78928571Y-48609523D02*
X78928571Y-48276190D01*
X79452380Y-48133333D02*
X79452380Y-48609523D01*
X78452380Y-48609523D01*
X78452380Y-48133333D01*
X79452380Y-47704761D02*
X78452380Y-47704761D01*
X78452380Y-47323809D01*
X78500000Y-47228571D01*
X78547619Y-47180952D01*
X78642857Y-47133333D01*
X78785714Y-47133333D01*
X78880952Y-47180952D01*
X78928571Y-47228571D01*
X78976190Y-47323809D01*
X78976190Y-47704761D01*
X78452380Y-46847619D02*
X78452380Y-46276190D01*
X79452380Y-46561904D02*
X78452380Y-46561904D01*
X78547619Y-45228571D02*
X78500000Y-45180952D01*
X78452380Y-45085714D01*
X78452380Y-44847619D01*
X78500000Y-44752380D01*
X78547619Y-44704761D01*
X78642857Y-44657142D01*
X78738095Y-44657142D01*
X78880952Y-44704761D01*
X79452380Y-45276190D01*
X79452380Y-44657142D01*
X78452380Y-44038095D02*
X78452380Y-43942857D01*
X78500000Y-43847619D01*
X78547619Y-43800000D01*
X78642857Y-43752380D01*
X78833333Y-43704761D01*
X79071428Y-43704761D01*
X79261904Y-43752380D01*
X79357142Y-43800000D01*
X79404761Y-43847619D01*
X79452380Y-43942857D01*
X79452380Y-44038095D01*
X79404761Y-44133333D01*
X79357142Y-44180952D01*
X79261904Y-44228571D01*
X79071428Y-44276190D01*
X78833333Y-44276190D01*
X78642857Y-44228571D01*
X78547619Y-44180952D01*
X78500000Y-44133333D01*
X78452380Y-44038095D01*
X78547619Y-43323809D02*
X78500000Y-43276190D01*
X78452380Y-43180952D01*
X78452380Y-42942857D01*
X78500000Y-42847619D01*
X78547619Y-42800000D01*
X78642857Y-42752380D01*
X78738095Y-42752380D01*
X78880952Y-42800000D01*
X79452380Y-43371428D01*
X79452380Y-42752380D01*
X79452380Y-41800000D02*
X79452380Y-42371428D01*
X79452380Y-42085714D02*
X78452380Y-42085714D01*
X78595238Y-42180952D01*
X78690476Y-42276190D01*
X78738095Y-42371428D01*
X80578571Y-65252380D02*
X80626190Y-65109523D01*
X80673809Y-65061904D01*
X80769047Y-65014285D01*
X80911904Y-65014285D01*
X81007142Y-65061904D01*
X81054761Y-65109523D01*
X81102380Y-65204761D01*
X81102380Y-65585714D01*
X80102380Y-65585714D01*
X80102380Y-65252380D01*
X80150000Y-65157142D01*
X80197619Y-65109523D01*
X80292857Y-65061904D01*
X80388095Y-65061904D01*
X80483333Y-65109523D01*
X80530952Y-65157142D01*
X80578571Y-65252380D01*
X80578571Y-65585714D01*
X80816666Y-64633333D02*
X80816666Y-64157142D01*
X81102380Y-64728571D02*
X80102380Y-64395238D01*
X81102380Y-64061904D01*
X81054761Y-63776190D02*
X81102380Y-63633333D01*
X81102380Y-63395238D01*
X81054761Y-63300000D01*
X81007142Y-63252380D01*
X80911904Y-63204761D01*
X80816666Y-63204761D01*
X80721428Y-63252380D01*
X80673809Y-63300000D01*
X80626190Y-63395238D01*
X80578571Y-63585714D01*
X80530952Y-63680952D01*
X80483333Y-63728571D01*
X80388095Y-63776190D01*
X80292857Y-63776190D01*
X80197619Y-63728571D01*
X80150000Y-63680952D01*
X80102380Y-63585714D01*
X80102380Y-63347619D01*
X80150000Y-63204761D01*
X80578571Y-62776190D02*
X80578571Y-62442857D01*
X81102380Y-62300000D02*
X81102380Y-62776190D01*
X80102380Y-62776190D01*
X80102380Y-62300000D01*
X81102380Y-61871428D02*
X80102380Y-61871428D01*
X80102380Y-61633333D01*
X80150000Y-61490476D01*
X80245238Y-61395238D01*
X80340476Y-61347619D01*
X80530952Y-61300000D01*
X80673809Y-61300000D01*
X80864285Y-61347619D01*
X80959523Y-61395238D01*
X81054761Y-61490476D01*
X81102380Y-61633333D01*
X81102380Y-61871428D01*
X80102380Y-59919047D02*
X80102380Y-59728571D01*
X80150000Y-59633333D01*
X80245238Y-59538095D01*
X80435714Y-59490476D01*
X80769047Y-59490476D01*
X80959523Y-59538095D01*
X81054761Y-59633333D01*
X81102380Y-59728571D01*
X81102380Y-59919047D01*
X81054761Y-60014285D01*
X80959523Y-60109523D01*
X80769047Y-60157142D01*
X80435714Y-60157142D01*
X80245238Y-60109523D01*
X80150000Y-60014285D01*
X80102380Y-59919047D01*
X81102380Y-59061904D02*
X80102380Y-59061904D01*
X81102380Y-58490476D01*
X80102380Y-58490476D01*
X81054761Y-57300000D02*
X81102380Y-57157142D01*
X81102380Y-56919047D01*
X81054761Y-56823809D01*
X81007142Y-56776190D01*
X80911904Y-56728571D01*
X80816666Y-56728571D01*
X80721428Y-56776190D01*
X80673809Y-56823809D01*
X80626190Y-56919047D01*
X80578571Y-57109523D01*
X80530952Y-57204761D01*
X80483333Y-57252380D01*
X80388095Y-57300000D01*
X80292857Y-57300000D01*
X80197619Y-57252380D01*
X80150000Y-57204761D01*
X80102380Y-57109523D01*
X80102380Y-56871428D01*
X80150000Y-56728571D01*
X81007142Y-55728571D02*
X81054761Y-55776190D01*
X81102380Y-55919047D01*
X81102380Y-56014285D01*
X81054761Y-56157142D01*
X80959523Y-56252380D01*
X80864285Y-56300000D01*
X80673809Y-56347619D01*
X80530952Y-56347619D01*
X80340476Y-56300000D01*
X80245238Y-56252380D01*
X80150000Y-56157142D01*
X80102380Y-56014285D01*
X80102380Y-55919047D01*
X80150000Y-55776190D01*
X80197619Y-55728571D01*
X81102380Y-55300000D02*
X80102380Y-55300000D01*
X80578571Y-55300000D02*
X80578571Y-54728571D01*
X81102380Y-54728571D02*
X80102380Y-54728571D01*
X80578571Y-54252380D02*
X80578571Y-53919047D01*
X81102380Y-53776190D02*
X81102380Y-54252380D01*
X80102380Y-54252380D01*
X80102380Y-53776190D01*
X81102380Y-53347619D02*
X80102380Y-53347619D01*
X80816666Y-53014285D01*
X80102380Y-52680952D01*
X81102380Y-52680952D01*
X80816666Y-52252380D02*
X80816666Y-51776190D01*
X81102380Y-52347619D02*
X80102380Y-52014285D01*
X81102380Y-51680952D01*
X80102380Y-51490476D02*
X80102380Y-50919047D01*
X81102380Y-51204761D02*
X80102380Y-51204761D01*
X81102380Y-50585714D02*
X80102380Y-50585714D01*
X81007142Y-49538095D02*
X81054761Y-49585714D01*
X81102380Y-49728571D01*
X81102380Y-49823809D01*
X81054761Y-49966666D01*
X80959523Y-50061904D01*
X80864285Y-50109523D01*
X80673809Y-50157142D01*
X80530952Y-50157142D01*
X80340476Y-50109523D01*
X80245238Y-50061904D01*
X80150000Y-49966666D01*
X80102380Y-49823809D01*
X80102380Y-49728571D01*
X80150000Y-49585714D01*
X80197619Y-49538095D01*
X80578571Y-48014285D02*
X80578571Y-48347619D01*
X81102380Y-48347619D02*
X80102380Y-48347619D01*
X80102380Y-47871428D01*
X81102380Y-46919047D02*
X80626190Y-47252380D01*
X81102380Y-47490476D02*
X80102380Y-47490476D01*
X80102380Y-47109523D01*
X80150000Y-47014285D01*
X80197619Y-46966666D01*
X80292857Y-46919047D01*
X80435714Y-46919047D01*
X80530952Y-46966666D01*
X80578571Y-47014285D01*
X80626190Y-47109523D01*
X80626190Y-47490476D01*
X80102380Y-46300000D02*
X80102380Y-46109523D01*
X80150000Y-46014285D01*
X80245238Y-45919047D01*
X80435714Y-45871428D01*
X80769047Y-45871428D01*
X80959523Y-45919047D01*
X81054761Y-46014285D01*
X81102380Y-46109523D01*
X81102380Y-46300000D01*
X81054761Y-46395238D01*
X80959523Y-46490476D01*
X80769047Y-46538095D01*
X80435714Y-46538095D01*
X80245238Y-46490476D01*
X80150000Y-46395238D01*
X80102380Y-46300000D01*
X81102380Y-45442857D02*
X80102380Y-45442857D01*
X80816666Y-45109523D01*
X80102380Y-44776190D01*
X81102380Y-44776190D01*
X81102380Y-43061904D02*
X81102380Y-43538095D01*
X80102380Y-43538095D01*
X81102380Y-42728571D02*
X80102380Y-42728571D01*
X80816666Y-42395238D01*
X80102380Y-42061904D01*
X81102380Y-42061904D01*
X81102380Y-41585714D02*
X80102380Y-41585714D01*
X81102380Y-41014285D01*
X80102380Y-41014285D01*
X81007142Y-39966666D02*
X81054761Y-40014285D01*
X81102380Y-40157142D01*
X81102380Y-40252380D01*
X81054761Y-40395238D01*
X80959523Y-40490476D01*
X80864285Y-40538095D01*
X80673809Y-40585714D01*
X80530952Y-40585714D01*
X80340476Y-40538095D01*
X80245238Y-40490476D01*
X80150000Y-40395238D01*
X80102380Y-40252380D01*
X80102380Y-40157142D01*
X80150000Y-40014285D01*
X80197619Y-39966666D01*
X100452380Y-28085714D02*
X99452380Y-28085714D01*
X100452380Y-27514285D01*
X99452380Y-27514285D01*
X100357142Y-26466666D02*
X100404761Y-26514285D01*
X100452380Y-26657142D01*
X100452380Y-26752380D01*
X100404761Y-26895238D01*
X100309523Y-26990476D01*
X100214285Y-27038095D01*
X100023809Y-27085714D01*
X99880952Y-27085714D01*
X99690476Y-27038095D01*
X99595238Y-26990476D01*
X99500000Y-26895238D01*
X99452380Y-26752380D01*
X99452380Y-26657142D01*
X99500000Y-26514285D01*
X99547619Y-26466666D01*
X102857142Y-27419047D02*
X102904761Y-27466666D01*
X102952380Y-27609523D01*
X102952380Y-27704761D01*
X102904761Y-27847619D01*
X102809523Y-27942857D01*
X102714285Y-27990476D01*
X102523809Y-28038095D01*
X102380952Y-28038095D01*
X102190476Y-27990476D01*
X102095238Y-27942857D01*
X102000000Y-27847619D01*
X101952380Y-27704761D01*
X101952380Y-27609523D01*
X102000000Y-27466666D01*
X102047619Y-27419047D01*
X101952380Y-27133333D02*
X102952380Y-26800000D01*
X101952380Y-26466666D01*
X97428571Y-27728571D02*
X97428571Y-28061904D01*
X97952380Y-28061904D02*
X96952380Y-28061904D01*
X96952380Y-27585714D01*
X97952380Y-27204761D02*
X96952380Y-27204761D01*
X97666666Y-26871428D01*
X96952380Y-26538095D01*
X97952380Y-26538095D01*
X95404761Y-28609523D02*
X95452380Y-28466666D01*
X95452380Y-28228571D01*
X95404761Y-28133333D01*
X95357142Y-28085714D01*
X95261904Y-28038095D01*
X95166666Y-28038095D01*
X95071428Y-28085714D01*
X95023809Y-28133333D01*
X94976190Y-28228571D01*
X94928571Y-28419047D01*
X94880952Y-28514285D01*
X94833333Y-28561904D01*
X94738095Y-28609523D01*
X94642857Y-28609523D01*
X94547619Y-28561904D01*
X94500000Y-28514285D01*
X94452380Y-28419047D01*
X94452380Y-28180952D01*
X94500000Y-28038095D01*
X95452380Y-27609523D02*
X94452380Y-27609523D01*
X95452380Y-27038095D01*
X94452380Y-27038095D01*
X95357142Y-25990476D02*
X95404761Y-26038095D01*
X95452380Y-26180952D01*
X95452380Y-26276190D01*
X95404761Y-26419047D01*
X95309523Y-26514285D01*
X95214285Y-26561904D01*
X95023809Y-26609523D01*
X94880952Y-26609523D01*
X94690476Y-26561904D01*
X94595238Y-26514285D01*
X94500000Y-26419047D01*
X94452380Y-26276190D01*
X94452380Y-26180952D01*
X94500000Y-26038095D01*
X94547619Y-25990476D01*
X92952380Y-28133333D02*
X91952380Y-28133333D01*
X91952380Y-27752380D01*
X92000000Y-27657142D01*
X92047619Y-27609523D01*
X92142857Y-27561904D01*
X92285714Y-27561904D01*
X92380952Y-27609523D01*
X92428571Y-27657142D01*
X92476190Y-27752380D01*
X92476190Y-28133333D01*
X91952380Y-27228571D02*
X92952380Y-26990476D01*
X92238095Y-26800000D01*
X92952380Y-26609523D01*
X91952380Y-26371428D01*
X89452380Y-28323809D02*
X89452380Y-27752380D01*
X90452380Y-28038095D02*
X89452380Y-28038095D01*
X90452380Y-26847619D02*
X89976190Y-27180952D01*
X90452380Y-27419047D02*
X89452380Y-27419047D01*
X89452380Y-27038095D01*
X89500000Y-26942857D01*
X89547619Y-26895238D01*
X89642857Y-26847619D01*
X89785714Y-26847619D01*
X89880952Y-26895238D01*
X89928571Y-26942857D01*
X89976190Y-27038095D01*
X89976190Y-27419047D01*
X90452380Y-26419047D02*
X89452380Y-26419047D01*
X87904761Y-28585714D02*
X87952380Y-28442857D01*
X87952380Y-28204761D01*
X87904761Y-28109523D01*
X87857142Y-28061904D01*
X87761904Y-28014285D01*
X87666666Y-28014285D01*
X87571428Y-28061904D01*
X87523809Y-28109523D01*
X87476190Y-28204761D01*
X87428571Y-28395238D01*
X87380952Y-28490476D01*
X87333333Y-28538095D01*
X87238095Y-28585714D01*
X87142857Y-28585714D01*
X87047619Y-28538095D01*
X87000000Y-28490476D01*
X86952380Y-28395238D01*
X86952380Y-28157142D01*
X87000000Y-28014285D01*
X87666666Y-27633333D02*
X87666666Y-27157142D01*
X87952380Y-27728571D02*
X86952380Y-27395238D01*
X87952380Y-27061904D01*
X86952380Y-26823809D02*
X87952380Y-26585714D01*
X87238095Y-26395238D01*
X87952380Y-26204761D01*
X86952380Y-25966666D01*
X85404761Y-28609523D02*
X85452380Y-28466666D01*
X85452380Y-28228571D01*
X85404761Y-28133333D01*
X85357142Y-28085714D01*
X85261904Y-28038095D01*
X85166666Y-28038095D01*
X85071428Y-28085714D01*
X85023809Y-28133333D01*
X84976190Y-28228571D01*
X84928571Y-28419047D01*
X84880952Y-28514285D01*
X84833333Y-28561904D01*
X84738095Y-28609523D01*
X84642857Y-28609523D01*
X84547619Y-28561904D01*
X84500000Y-28514285D01*
X84452380Y-28419047D01*
X84452380Y-28180952D01*
X84500000Y-28038095D01*
X85547619Y-26942857D02*
X85500000Y-27038095D01*
X85404761Y-27133333D01*
X85261904Y-27276190D01*
X85214285Y-27371428D01*
X85214285Y-27466666D01*
X85452380Y-27419047D02*
X85404761Y-27514285D01*
X85309523Y-27609523D01*
X85119047Y-27657142D01*
X84785714Y-27657142D01*
X84595238Y-27609523D01*
X84500000Y-27514285D01*
X84452380Y-27419047D01*
X84452380Y-27228571D01*
X84500000Y-27133333D01*
X84595238Y-27038095D01*
X84785714Y-26990476D01*
X85119047Y-26990476D01*
X85309523Y-27038095D01*
X85404761Y-27133333D01*
X85452380Y-27228571D01*
X85452380Y-27419047D01*
X85452380Y-25990476D02*
X84976190Y-26323809D01*
X85452380Y-26561904D02*
X84452380Y-26561904D01*
X84452380Y-26180952D01*
X84500000Y-26085714D01*
X84547619Y-26038095D01*
X84642857Y-25990476D01*
X84785714Y-25990476D01*
X84880952Y-26038095D01*
X84928571Y-26085714D01*
X84976190Y-26180952D01*
X84976190Y-26561904D01*
X105000000Y-28061904D02*
X104952380Y-28157142D01*
X104952380Y-28300000D01*
X105000000Y-28442857D01*
X105095238Y-28538095D01*
X105190476Y-28585714D01*
X105380952Y-28633333D01*
X105523809Y-28633333D01*
X105714285Y-28585714D01*
X105809523Y-28538095D01*
X105904761Y-28442857D01*
X105952380Y-28300000D01*
X105952380Y-28204761D01*
X105904761Y-28061904D01*
X105857142Y-28014285D01*
X105523809Y-28014285D01*
X105523809Y-28204761D01*
X105952380Y-27585714D02*
X104952380Y-27585714D01*
X105952380Y-27014285D01*
X104952380Y-27014285D01*
X105952380Y-26538095D02*
X104952380Y-26538095D01*
X104952380Y-26300000D01*
X105000000Y-26157142D01*
X105095238Y-26061904D01*
X105190476Y-26014285D01*
X105380952Y-25966666D01*
X105523809Y-25966666D01*
X105714285Y-26014285D01*
X105809523Y-26061904D01*
X105904761Y-26157142D01*
X105952380Y-26300000D01*
X105952380Y-26538095D01*
X107500000Y-28061904D02*
X107452380Y-28157142D01*
X107452380Y-28300000D01*
X107500000Y-28442857D01*
X107595238Y-28538095D01*
X107690476Y-28585714D01*
X107880952Y-28633333D01*
X108023809Y-28633333D01*
X108214285Y-28585714D01*
X108309523Y-28538095D01*
X108404761Y-28442857D01*
X108452380Y-28300000D01*
X108452380Y-28204761D01*
X108404761Y-28061904D01*
X108357142Y-28014285D01*
X108023809Y-28014285D01*
X108023809Y-28204761D01*
X108452380Y-27585714D02*
X107452380Y-27585714D01*
X108452380Y-27014285D01*
X107452380Y-27014285D01*
X108452380Y-26538095D02*
X107452380Y-26538095D01*
X107452380Y-26300000D01*
X107500000Y-26157142D01*
X107595238Y-26061904D01*
X107690476Y-26014285D01*
X107880952Y-25966666D01*
X108023809Y-25966666D01*
X108214285Y-26014285D01*
X108309523Y-26061904D01*
X108404761Y-26157142D01*
X108452380Y-26300000D01*
X108452380Y-26538095D01*
X82000000Y-28061904D02*
X81952380Y-28157142D01*
X81952380Y-28300000D01*
X82000000Y-28442857D01*
X82095238Y-28538095D01*
X82190476Y-28585714D01*
X82380952Y-28633333D01*
X82523809Y-28633333D01*
X82714285Y-28585714D01*
X82809523Y-28538095D01*
X82904761Y-28442857D01*
X82952380Y-28300000D01*
X82952380Y-28204761D01*
X82904761Y-28061904D01*
X82857142Y-28014285D01*
X82523809Y-28014285D01*
X82523809Y-28204761D01*
X82952380Y-27585714D02*
X81952380Y-27585714D01*
X82952380Y-27014285D01*
X81952380Y-27014285D01*
X82952380Y-26538095D02*
X81952380Y-26538095D01*
X81952380Y-26300000D01*
X82000000Y-26157142D01*
X82095238Y-26061904D01*
X82190476Y-26014285D01*
X82380952Y-25966666D01*
X82523809Y-25966666D01*
X82714285Y-26014285D01*
X82809523Y-26061904D01*
X82904761Y-26157142D01*
X82952380Y-26300000D01*
X82952380Y-26538095D01*
X79500000Y-28061904D02*
X79452380Y-28157142D01*
X79452380Y-28300000D01*
X79500000Y-28442857D01*
X79595238Y-28538095D01*
X79690476Y-28585714D01*
X79880952Y-28633333D01*
X80023809Y-28633333D01*
X80214285Y-28585714D01*
X80309523Y-28538095D01*
X80404761Y-28442857D01*
X80452380Y-28300000D01*
X80452380Y-28204761D01*
X80404761Y-28061904D01*
X80357142Y-28014285D01*
X80023809Y-28014285D01*
X80023809Y-28204761D01*
X80452380Y-27585714D02*
X79452380Y-27585714D01*
X80452380Y-27014285D01*
X79452380Y-27014285D01*
X80452380Y-26538095D02*
X79452380Y-26538095D01*
X79452380Y-26300000D01*
X79500000Y-26157142D01*
X79595238Y-26061904D01*
X79690476Y-26014285D01*
X79880952Y-25966666D01*
X80023809Y-25966666D01*
X80214285Y-26014285D01*
X80309523Y-26061904D01*
X80404761Y-26157142D01*
X80452380Y-26300000D01*
X80452380Y-26538095D01*
D11*
%TO.C,U3*%
X99215000Y-74895000D02*
X88715000Y-74895000D01*
X99215000Y-95455000D02*
X99215000Y-74895000D01*
X88715000Y-95455000D02*
X99215000Y-95455000D01*
X88715000Y-74895000D02*
X88715000Y-95455000D01*
X96215000Y-74955000D02*
X94965000Y-74955000D01*
X96215000Y-95395000D02*
X96215000Y-74955000D01*
X91715000Y-95395000D02*
X96215000Y-95395000D01*
X91715000Y-74955000D02*
X91715000Y-95395000D01*
X92965000Y-74955000D02*
X91715000Y-74955000D01*
X94965000Y-74955000D02*
G75*
G02*
X92965000Y-74955000I-1000000J0D01*
G01*
%TO.C,U1*%
X92635000Y-45220000D02*
X91385000Y-45220000D01*
X91385000Y-45220000D02*
X91385000Y-63120000D01*
X91385000Y-63120000D02*
X95885000Y-63120000D01*
X95885000Y-63120000D02*
X95885000Y-45220000D01*
X95885000Y-45220000D02*
X94635000Y-45220000D01*
X88385000Y-45160000D02*
X88385000Y-63180000D01*
X88385000Y-63180000D02*
X98885000Y-63180000D01*
X98885000Y-63180000D02*
X98885000Y-45160000D01*
X98885000Y-45160000D02*
X88385000Y-45160000D01*
X94635000Y-45220000D02*
G75*
G02*
X92635000Y-45220000I-1000000J0D01*
G01*
%TO.C,RV6*%
X98745000Y-96070000D02*
X98745000Y-101140000D01*
X88975000Y-96070000D02*
X88975000Y-101140000D01*
X88975000Y-101140000D02*
X98745000Y-101140000D01*
X88975000Y-96070000D02*
X98745000Y-96070000D01*
%TO.C,TUNE*%
X106670000Y-32990000D02*
X108000000Y-32990000D01*
X106670000Y-34320000D02*
X106670000Y-32990000D01*
X106670000Y-35590000D02*
X109330000Y-35590000D01*
X109330000Y-35590000D02*
X109330000Y-40730000D01*
X106670000Y-35590000D02*
X106670000Y-40730000D01*
X106670000Y-40730000D02*
X109330000Y-40730000D01*
%TO.C,PW*%
X106670000Y-41990000D02*
X108000000Y-41990000D01*
X106670000Y-43320000D02*
X106670000Y-41990000D01*
X106670000Y-44590000D02*
X109330000Y-44590000D01*
X109330000Y-44590000D02*
X109330000Y-49730000D01*
X106670000Y-44590000D02*
X106670000Y-49730000D01*
X106670000Y-49730000D02*
X109330000Y-49730000D01*
%TO.C,PW ATT*%
X106670000Y-50990000D02*
X108000000Y-50990000D01*
X106670000Y-52320000D02*
X106670000Y-50990000D01*
X106670000Y-53590000D02*
X109330000Y-53590000D01*
X109330000Y-53590000D02*
X109330000Y-58730000D01*
X106670000Y-53590000D02*
X106670000Y-58730000D01*
X106670000Y-58730000D02*
X109330000Y-58730000D01*
%TO.C,RV1*%
X76270000Y-74975000D02*
X81340000Y-74975000D01*
X76270000Y-84745000D02*
X81340000Y-84745000D01*
X81340000Y-84745000D02*
X81340000Y-74975000D01*
X76270000Y-84745000D02*
X76270000Y-74975000D01*
%TO.C,R22*%
X90520000Y-101960000D02*
X90520000Y-101630000D01*
X90520000Y-101630000D02*
X97060000Y-101630000D01*
X97060000Y-101630000D02*
X97060000Y-101960000D01*
X90520000Y-104040000D02*
X90520000Y-104370000D01*
X90520000Y-104370000D02*
X97060000Y-104370000D01*
X97060000Y-104370000D02*
X97060000Y-104040000D01*
%TO.C,R19*%
X103160000Y-72880000D02*
X102830000Y-72880000D01*
X102830000Y-72880000D02*
X102830000Y-66340000D01*
X102830000Y-66340000D02*
X103160000Y-66340000D01*
X105240000Y-72880000D02*
X105570000Y-72880000D01*
X105570000Y-72880000D02*
X105570000Y-66340000D01*
X105570000Y-66340000D02*
X105240000Y-66340000D01*
%TO.C,R18*%
X108440000Y-66320000D02*
X108770000Y-66320000D01*
X108770000Y-66320000D02*
X108770000Y-72860000D01*
X108770000Y-72860000D02*
X108440000Y-72860000D01*
X106360000Y-66320000D02*
X106030000Y-66320000D01*
X106030000Y-66320000D02*
X106030000Y-72860000D01*
X106030000Y-72860000D02*
X106360000Y-72860000D01*
%TO.C,R17*%
X82360000Y-61680000D02*
X82030000Y-61680000D01*
X82030000Y-61680000D02*
X82030000Y-55140000D01*
X82030000Y-55140000D02*
X82360000Y-55140000D01*
X84440000Y-61680000D02*
X84770000Y-61680000D01*
X84770000Y-61680000D02*
X84770000Y-55140000D01*
X84770000Y-55140000D02*
X84440000Y-55140000D01*
%TO.C,R16*%
X85560000Y-61680000D02*
X85230000Y-61680000D01*
X85230000Y-61680000D02*
X85230000Y-55140000D01*
X85230000Y-55140000D02*
X85560000Y-55140000D01*
X87640000Y-61680000D02*
X87970000Y-61680000D01*
X87970000Y-61680000D02*
X87970000Y-55140000D01*
X87970000Y-55140000D02*
X87640000Y-55140000D01*
%TO.C,R15*%
X104840000Y-34120000D02*
X105170000Y-34120000D01*
X105170000Y-34120000D02*
X105170000Y-40660000D01*
X105170000Y-40660000D02*
X104840000Y-40660000D01*
X102760000Y-34120000D02*
X102430000Y-34120000D01*
X102430000Y-34120000D02*
X102430000Y-40660000D01*
X102430000Y-40660000D02*
X102760000Y-40660000D01*
%TO.C,R14*%
X99560000Y-60680000D02*
X99230000Y-60680000D01*
X99230000Y-60680000D02*
X99230000Y-54140000D01*
X99230000Y-54140000D02*
X99560000Y-54140000D01*
X101640000Y-60680000D02*
X101970000Y-60680000D01*
X101970000Y-60680000D02*
X101970000Y-54140000D01*
X101970000Y-54140000D02*
X101640000Y-54140000D01*
%TO.C,R13*%
X102760000Y-60680000D02*
X102430000Y-60680000D01*
X102430000Y-60680000D02*
X102430000Y-54140000D01*
X102430000Y-54140000D02*
X102760000Y-54140000D01*
X104840000Y-60680000D02*
X105170000Y-60680000D01*
X105170000Y-60680000D02*
X105170000Y-54140000D01*
X105170000Y-54140000D02*
X104840000Y-54140000D01*
%TO.C,R12*%
X102760000Y-50660000D02*
X102430000Y-50660000D01*
X102430000Y-50660000D02*
X102430000Y-44120000D01*
X102430000Y-44120000D02*
X102760000Y-44120000D01*
X104840000Y-50660000D02*
X105170000Y-50660000D01*
X105170000Y-50660000D02*
X105170000Y-44120000D01*
X105170000Y-44120000D02*
X104840000Y-44120000D01*
%TO.C,R11*%
X87840000Y-86220000D02*
X88170000Y-86220000D01*
X88170000Y-86220000D02*
X88170000Y-92760000D01*
X88170000Y-92760000D02*
X87840000Y-92760000D01*
X85760000Y-86220000D02*
X85430000Y-86220000D01*
X85430000Y-86220000D02*
X85430000Y-92760000D01*
X85430000Y-92760000D02*
X85760000Y-92760000D01*
%TO.C,R10*%
X104760000Y-92680000D02*
X104430000Y-92680000D01*
X104430000Y-92680000D02*
X104430000Y-86140000D01*
X104430000Y-86140000D02*
X104760000Y-86140000D01*
X106840000Y-92680000D02*
X107170000Y-92680000D01*
X107170000Y-92680000D02*
X107170000Y-86140000D01*
X107170000Y-86140000D02*
X106840000Y-86140000D01*
%TO.C,R9*%
X99960000Y-72880000D02*
X99630000Y-72880000D01*
X99630000Y-72880000D02*
X99630000Y-66340000D01*
X99630000Y-66340000D02*
X99960000Y-66340000D01*
X102040000Y-72880000D02*
X102370000Y-72880000D01*
X102370000Y-72880000D02*
X102370000Y-66340000D01*
X102370000Y-66340000D02*
X102040000Y-66340000D01*
%TO.C,R8*%
X84515000Y-86220000D02*
X84845000Y-86220000D01*
X84845000Y-86220000D02*
X84845000Y-92760000D01*
X84845000Y-92760000D02*
X84515000Y-92760000D01*
X82435000Y-86220000D02*
X82105000Y-86220000D01*
X82105000Y-86220000D02*
X82105000Y-92760000D01*
X82105000Y-92760000D02*
X82435000Y-92760000D01*
%TO.C,R7*%
X101205000Y-107740000D02*
X101205000Y-108070000D01*
X101205000Y-108070000D02*
X94665000Y-108070000D01*
X94665000Y-108070000D02*
X94665000Y-107740000D01*
X101205000Y-105660000D02*
X101205000Y-105330000D01*
X101205000Y-105330000D02*
X94665000Y-105330000D01*
X94665000Y-105330000D02*
X94665000Y-105660000D01*
%TO.C,R6*%
X84570000Y-105660000D02*
X84570000Y-105330000D01*
X84570000Y-105330000D02*
X91110000Y-105330000D01*
X91110000Y-105330000D02*
X91110000Y-105660000D01*
X84570000Y-107740000D02*
X84570000Y-108070000D01*
X84570000Y-108070000D02*
X91110000Y-108070000D01*
X91110000Y-108070000D02*
X91110000Y-107740000D01*
%TO.C,R5*%
X82435000Y-82805000D02*
X82105000Y-82805000D01*
X82105000Y-82805000D02*
X82105000Y-76265000D01*
X82105000Y-76265000D02*
X82435000Y-76265000D01*
X84515000Y-82805000D02*
X84845000Y-82805000D01*
X84845000Y-82805000D02*
X84845000Y-76265000D01*
X84845000Y-76265000D02*
X84515000Y-76265000D01*
%TO.C,R4*%
X108440000Y-76320000D02*
X108770000Y-76320000D01*
X108770000Y-76320000D02*
X108770000Y-82860000D01*
X108770000Y-82860000D02*
X108440000Y-82860000D01*
X106360000Y-76320000D02*
X106030000Y-76320000D01*
X106030000Y-76320000D02*
X106030000Y-82860000D01*
X106030000Y-82860000D02*
X106360000Y-82860000D01*
%TO.C,R3*%
X85760000Y-82780000D02*
X85430000Y-82780000D01*
X85430000Y-82780000D02*
X85430000Y-76240000D01*
X85430000Y-76240000D02*
X85760000Y-76240000D01*
X87840000Y-82780000D02*
X88170000Y-82780000D01*
X88170000Y-82780000D02*
X88170000Y-76240000D01*
X88170000Y-76240000D02*
X87840000Y-76240000D01*
%TO.C,R2*%
X105265000Y-76325000D02*
X105595000Y-76325000D01*
X105595000Y-76325000D02*
X105595000Y-82865000D01*
X105595000Y-82865000D02*
X105265000Y-82865000D01*
X103185000Y-76325000D02*
X102855000Y-76325000D01*
X102855000Y-76325000D02*
X102855000Y-82865000D01*
X102855000Y-82865000D02*
X103185000Y-82865000D01*
%TO.C,R1*%
X102040000Y-76320000D02*
X102370000Y-76320000D01*
X102370000Y-76320000D02*
X102370000Y-82860000D01*
X102370000Y-82860000D02*
X102040000Y-82860000D01*
X99960000Y-76320000D02*
X99630000Y-76320000D01*
X99630000Y-76320000D02*
X99630000Y-82860000D01*
X99630000Y-82860000D02*
X99960000Y-82860000D01*
%TO.C,J2*%
X78710000Y-31230000D02*
X78710000Y-29900000D01*
X80040000Y-31230000D02*
X78710000Y-31230000D01*
X81310000Y-31230000D02*
X81310000Y-28570000D01*
X81310000Y-28570000D02*
X109310000Y-28570000D01*
X81310000Y-31230000D02*
X109310000Y-31230000D01*
X109310000Y-31230000D02*
X109310000Y-28570000D01*
%TO.C,J1*%
X82975000Y-108880000D02*
X103835000Y-108880000D01*
X103835000Y-108880000D02*
X103835000Y-118230000D01*
X103835000Y-118230000D02*
X82975000Y-118230000D01*
X82975000Y-118230000D02*
X82975000Y-108880000D01*
X83225000Y-117975000D02*
X83225000Y-109125000D01*
X83225000Y-109125000D02*
X103575000Y-109125000D01*
X103575000Y-109125000D02*
X103575000Y-117975000D01*
X103575000Y-117975000D02*
X83225000Y-117975000D01*
X83225000Y-117975000D02*
X83775000Y-117425000D01*
X83775000Y-117425000D02*
X83775000Y-109675000D01*
X83775000Y-109675000D02*
X83225000Y-109125000D01*
X83775000Y-109675000D02*
X103025000Y-109675000D01*
X103025000Y-109675000D02*
X103575000Y-109125000D01*
X103025000Y-109675000D02*
X103025000Y-117425000D01*
X103025000Y-117425000D02*
X103525000Y-117925000D01*
X103025000Y-117425000D02*
X95675000Y-117425000D01*
X95655000Y-117425000D02*
X95655000Y-117935000D01*
X91155000Y-117925000D02*
X91155000Y-117445000D01*
X91155000Y-117425000D02*
X83775000Y-117425000D01*
%TO.C,C12*%
X81125000Y-67780000D02*
X82521000Y-67780000D01*
X77879000Y-67780000D02*
X79275000Y-67780000D01*
X81125000Y-74020000D02*
X82521000Y-74020000D01*
X77879000Y-74020000D02*
X79275000Y-74020000D01*
X82521000Y-74020000D02*
X82521000Y-67780000D01*
X77879000Y-74020000D02*
X77879000Y-67780000D01*
%TO.C,C9*%
X82735241Y-99554000D02*
X82735241Y-98924000D01*
X83050241Y-99239000D02*
X82420241Y-99239000D01*
X76309000Y-97802000D02*
X76309000Y-96998000D01*
X76349000Y-98033000D02*
X76349000Y-96767000D01*
X76389000Y-98202000D02*
X76389000Y-96598000D01*
X76429000Y-98340000D02*
X76429000Y-96460000D01*
X76469000Y-98459000D02*
X76469000Y-96341000D01*
X76509000Y-98565000D02*
X76509000Y-96235000D01*
X76549000Y-98662000D02*
X76549000Y-96138000D01*
X76589000Y-98750000D02*
X76589000Y-96050000D01*
X76629000Y-98832000D02*
X76629000Y-95968000D01*
X76669000Y-98909000D02*
X76669000Y-95891000D01*
X76709000Y-98981000D02*
X76709000Y-95819000D01*
X76749000Y-99050000D02*
X76749000Y-95750000D01*
X76789000Y-99114000D02*
X76789000Y-95686000D01*
X76829000Y-99176000D02*
X76829000Y-95624000D01*
X76869000Y-99234000D02*
X76869000Y-95566000D01*
X76909000Y-99290000D02*
X76909000Y-95510000D01*
X76949000Y-99344000D02*
X76949000Y-95456000D01*
X76989000Y-99395000D02*
X76989000Y-95405000D01*
X77029000Y-99444000D02*
X77029000Y-95356000D01*
X77069000Y-99492000D02*
X77069000Y-95308000D01*
X77109000Y-99537000D02*
X77109000Y-95263000D01*
X77149000Y-99582000D02*
X77149000Y-95218000D01*
X77189000Y-99624000D02*
X77189000Y-95176000D01*
X77229000Y-99665000D02*
X77229000Y-95135000D01*
X77269000Y-96360000D02*
X77269000Y-95095000D01*
X77269000Y-99705000D02*
X77269000Y-98440000D01*
X77309000Y-96360000D02*
X77309000Y-95057000D01*
X77309000Y-99743000D02*
X77309000Y-98440000D01*
X77349000Y-96360000D02*
X77349000Y-95020000D01*
X77349000Y-99780000D02*
X77349000Y-98440000D01*
X77389000Y-96360000D02*
X77389000Y-94984000D01*
X77389000Y-99816000D02*
X77389000Y-98440000D01*
X77429000Y-96360000D02*
X77429000Y-94950000D01*
X77429000Y-99850000D02*
X77429000Y-98440000D01*
X77469000Y-96360000D02*
X77469000Y-94916000D01*
X77469000Y-99884000D02*
X77469000Y-98440000D01*
X77509000Y-96360000D02*
X77509000Y-94884000D01*
X77509000Y-99916000D02*
X77509000Y-98440000D01*
X77549000Y-96360000D02*
X77549000Y-94852000D01*
X77549000Y-99948000D02*
X77549000Y-98440000D01*
X77589000Y-96360000D02*
X77589000Y-94822000D01*
X77589000Y-99978000D02*
X77589000Y-98440000D01*
X77629000Y-96360000D02*
X77629000Y-94793000D01*
X77629000Y-100007000D02*
X77629000Y-98440000D01*
X77669000Y-96360000D02*
X77669000Y-94764000D01*
X77669000Y-100036000D02*
X77669000Y-98440000D01*
X77709000Y-96360000D02*
X77709000Y-94736000D01*
X77709000Y-100064000D02*
X77709000Y-98440000D01*
X77749000Y-96360000D02*
X77749000Y-94710000D01*
X77749000Y-100090000D02*
X77749000Y-98440000D01*
X77789000Y-96360000D02*
X77789000Y-94684000D01*
X77789000Y-100116000D02*
X77789000Y-98440000D01*
X77829000Y-96360000D02*
X77829000Y-94658000D01*
X77829000Y-100142000D02*
X77829000Y-98440000D01*
X77869000Y-96360000D02*
X77869000Y-94634000D01*
X77869000Y-100166000D02*
X77869000Y-98440000D01*
X77909000Y-96360000D02*
X77909000Y-94610000D01*
X77909000Y-100190000D02*
X77909000Y-98440000D01*
X77949000Y-96360000D02*
X77949000Y-94588000D01*
X77949000Y-100212000D02*
X77949000Y-98440000D01*
X77989000Y-96360000D02*
X77989000Y-94566000D01*
X77989000Y-100234000D02*
X77989000Y-98440000D01*
X78029000Y-96360000D02*
X78029000Y-94544000D01*
X78029000Y-100256000D02*
X78029000Y-98440000D01*
X78069000Y-96360000D02*
X78069000Y-94524000D01*
X78069000Y-100276000D02*
X78069000Y-98440000D01*
X78109000Y-96360000D02*
X78109000Y-94504000D01*
X78109000Y-100296000D02*
X78109000Y-98440000D01*
X78149000Y-96360000D02*
X78149000Y-94484000D01*
X78149000Y-100316000D02*
X78149000Y-98440000D01*
X78189000Y-96360000D02*
X78189000Y-94466000D01*
X78189000Y-100334000D02*
X78189000Y-98440000D01*
X78229000Y-96360000D02*
X78229000Y-94448000D01*
X78229000Y-100352000D02*
X78229000Y-98440000D01*
X78269000Y-96360000D02*
X78269000Y-94430000D01*
X78269000Y-100370000D02*
X78269000Y-98440000D01*
X78309000Y-96360000D02*
X78309000Y-94414000D01*
X78309000Y-100386000D02*
X78309000Y-98440000D01*
X78349000Y-96360000D02*
X78349000Y-94398000D01*
X78349000Y-100402000D02*
X78349000Y-98440000D01*
X78389000Y-96360000D02*
X78389000Y-94382000D01*
X78389000Y-100418000D02*
X78389000Y-98440000D01*
X78429000Y-96360000D02*
X78429000Y-94367000D01*
X78429000Y-100433000D02*
X78429000Y-98440000D01*
X78469000Y-96360000D02*
X78469000Y-94353000D01*
X78469000Y-100447000D02*
X78469000Y-98440000D01*
X78509000Y-96360000D02*
X78509000Y-94339000D01*
X78509000Y-100461000D02*
X78509000Y-98440000D01*
X78549000Y-96360000D02*
X78549000Y-94326000D01*
X78549000Y-100474000D02*
X78549000Y-98440000D01*
X78589000Y-96360000D02*
X78589000Y-94314000D01*
X78589000Y-100486000D02*
X78589000Y-98440000D01*
X78629000Y-96360000D02*
X78629000Y-94302000D01*
X78629000Y-100498000D02*
X78629000Y-98440000D01*
X78669000Y-96360000D02*
X78669000Y-94290000D01*
X78669000Y-100510000D02*
X78669000Y-98440000D01*
X78709000Y-96360000D02*
X78709000Y-94279000D01*
X78709000Y-100521000D02*
X78709000Y-98440000D01*
X78749000Y-96360000D02*
X78749000Y-94269000D01*
X78749000Y-100531000D02*
X78749000Y-98440000D01*
X78789000Y-96360000D02*
X78789000Y-94259000D01*
X78789000Y-100541000D02*
X78789000Y-98440000D01*
X78829000Y-96360000D02*
X78829000Y-94250000D01*
X78829000Y-100550000D02*
X78829000Y-98440000D01*
X78870000Y-96360000D02*
X78870000Y-94241000D01*
X78870000Y-100559000D02*
X78870000Y-98440000D01*
X78910000Y-96360000D02*
X78910000Y-94233000D01*
X78910000Y-100567000D02*
X78910000Y-98440000D01*
X78950000Y-96360000D02*
X78950000Y-94225000D01*
X78950000Y-100575000D02*
X78950000Y-98440000D01*
X78990000Y-96360000D02*
X78990000Y-94218000D01*
X78990000Y-100582000D02*
X78990000Y-98440000D01*
X79030000Y-96360000D02*
X79030000Y-94211000D01*
X79030000Y-100589000D02*
X79030000Y-98440000D01*
X79070000Y-96360000D02*
X79070000Y-94205000D01*
X79070000Y-100595000D02*
X79070000Y-98440000D01*
X79110000Y-96360000D02*
X79110000Y-94199000D01*
X79110000Y-100601000D02*
X79110000Y-98440000D01*
X79150000Y-96360000D02*
X79150000Y-94194000D01*
X79150000Y-100606000D02*
X79150000Y-98440000D01*
X79190000Y-96360000D02*
X79190000Y-94189000D01*
X79190000Y-100611000D02*
X79190000Y-98440000D01*
X79230000Y-96360000D02*
X79230000Y-94185000D01*
X79230000Y-100615000D02*
X79230000Y-98440000D01*
X79270000Y-96360000D02*
X79270000Y-94182000D01*
X79270000Y-100618000D02*
X79270000Y-98440000D01*
X79310000Y-96360000D02*
X79310000Y-94178000D01*
X79310000Y-100622000D02*
X79310000Y-98440000D01*
X79350000Y-100624000D02*
X79350000Y-94176000D01*
X79390000Y-100627000D02*
X79390000Y-94173000D01*
X79430000Y-100628000D02*
X79430000Y-94172000D01*
X79470000Y-100630000D02*
X79470000Y-94170000D01*
X79510000Y-100630000D02*
X79510000Y-94170000D01*
X79550000Y-100630000D02*
X79550000Y-94170000D01*
X82820000Y-97400000D02*
G75*
G03*
X82820000Y-97400000I-3270000J0D01*
G01*
%TO.C,C8*%
X100564759Y-98446000D02*
X100564759Y-99076000D01*
X100249759Y-98761000D02*
X100879759Y-98761000D01*
X106991000Y-100198000D02*
X106991000Y-101002000D01*
X106951000Y-99967000D02*
X106951000Y-101233000D01*
X106911000Y-99798000D02*
X106911000Y-101402000D01*
X106871000Y-99660000D02*
X106871000Y-101540000D01*
X106831000Y-99541000D02*
X106831000Y-101659000D01*
X106791000Y-99435000D02*
X106791000Y-101765000D01*
X106751000Y-99338000D02*
X106751000Y-101862000D01*
X106711000Y-99250000D02*
X106711000Y-101950000D01*
X106671000Y-99168000D02*
X106671000Y-102032000D01*
X106631000Y-99091000D02*
X106631000Y-102109000D01*
X106591000Y-99019000D02*
X106591000Y-102181000D01*
X106551000Y-98950000D02*
X106551000Y-102250000D01*
X106511000Y-98886000D02*
X106511000Y-102314000D01*
X106471000Y-98824000D02*
X106471000Y-102376000D01*
X106431000Y-98766000D02*
X106431000Y-102434000D01*
X106391000Y-98710000D02*
X106391000Y-102490000D01*
X106351000Y-98656000D02*
X106351000Y-102544000D01*
X106311000Y-98605000D02*
X106311000Y-102595000D01*
X106271000Y-98556000D02*
X106271000Y-102644000D01*
X106231000Y-98508000D02*
X106231000Y-102692000D01*
X106191000Y-98463000D02*
X106191000Y-102737000D01*
X106151000Y-98418000D02*
X106151000Y-102782000D01*
X106111000Y-98376000D02*
X106111000Y-102824000D01*
X106071000Y-98335000D02*
X106071000Y-102865000D01*
X106031000Y-101640000D02*
X106031000Y-102905000D01*
X106031000Y-98295000D02*
X106031000Y-99560000D01*
X105991000Y-101640000D02*
X105991000Y-102943000D01*
X105991000Y-98257000D02*
X105991000Y-99560000D01*
X105951000Y-101640000D02*
X105951000Y-102980000D01*
X105951000Y-98220000D02*
X105951000Y-99560000D01*
X105911000Y-101640000D02*
X105911000Y-103016000D01*
X105911000Y-98184000D02*
X105911000Y-99560000D01*
X105871000Y-101640000D02*
X105871000Y-103050000D01*
X105871000Y-98150000D02*
X105871000Y-99560000D01*
X105831000Y-101640000D02*
X105831000Y-103084000D01*
X105831000Y-98116000D02*
X105831000Y-99560000D01*
X105791000Y-101640000D02*
X105791000Y-103116000D01*
X105791000Y-98084000D02*
X105791000Y-99560000D01*
X105751000Y-101640000D02*
X105751000Y-103148000D01*
X105751000Y-98052000D02*
X105751000Y-99560000D01*
X105711000Y-101640000D02*
X105711000Y-103178000D01*
X105711000Y-98022000D02*
X105711000Y-99560000D01*
X105671000Y-101640000D02*
X105671000Y-103207000D01*
X105671000Y-97993000D02*
X105671000Y-99560000D01*
X105631000Y-101640000D02*
X105631000Y-103236000D01*
X105631000Y-97964000D02*
X105631000Y-99560000D01*
X105591000Y-101640000D02*
X105591000Y-103264000D01*
X105591000Y-97936000D02*
X105591000Y-99560000D01*
X105551000Y-101640000D02*
X105551000Y-103290000D01*
X105551000Y-97910000D02*
X105551000Y-99560000D01*
X105511000Y-101640000D02*
X105511000Y-103316000D01*
X105511000Y-97884000D02*
X105511000Y-99560000D01*
X105471000Y-101640000D02*
X105471000Y-103342000D01*
X105471000Y-97858000D02*
X105471000Y-99560000D01*
X105431000Y-101640000D02*
X105431000Y-103366000D01*
X105431000Y-97834000D02*
X105431000Y-99560000D01*
X105391000Y-101640000D02*
X105391000Y-103390000D01*
X105391000Y-97810000D02*
X105391000Y-99560000D01*
X105351000Y-101640000D02*
X105351000Y-103412000D01*
X105351000Y-97788000D02*
X105351000Y-99560000D01*
X105311000Y-101640000D02*
X105311000Y-103434000D01*
X105311000Y-97766000D02*
X105311000Y-99560000D01*
X105271000Y-101640000D02*
X105271000Y-103456000D01*
X105271000Y-97744000D02*
X105271000Y-99560000D01*
X105231000Y-101640000D02*
X105231000Y-103476000D01*
X105231000Y-97724000D02*
X105231000Y-99560000D01*
X105191000Y-101640000D02*
X105191000Y-103496000D01*
X105191000Y-97704000D02*
X105191000Y-99560000D01*
X105151000Y-101640000D02*
X105151000Y-103516000D01*
X105151000Y-97684000D02*
X105151000Y-99560000D01*
X105111000Y-101640000D02*
X105111000Y-103534000D01*
X105111000Y-97666000D02*
X105111000Y-99560000D01*
X105071000Y-101640000D02*
X105071000Y-103552000D01*
X105071000Y-97648000D02*
X105071000Y-99560000D01*
X105031000Y-101640000D02*
X105031000Y-103570000D01*
X105031000Y-97630000D02*
X105031000Y-99560000D01*
X104991000Y-101640000D02*
X104991000Y-103586000D01*
X104991000Y-97614000D02*
X104991000Y-99560000D01*
X104951000Y-101640000D02*
X104951000Y-103602000D01*
X104951000Y-97598000D02*
X104951000Y-99560000D01*
X104911000Y-101640000D02*
X104911000Y-103618000D01*
X104911000Y-97582000D02*
X104911000Y-99560000D01*
X104871000Y-101640000D02*
X104871000Y-103633000D01*
X104871000Y-97567000D02*
X104871000Y-99560000D01*
X104831000Y-101640000D02*
X104831000Y-103647000D01*
X104831000Y-97553000D02*
X104831000Y-99560000D01*
X104791000Y-101640000D02*
X104791000Y-103661000D01*
X104791000Y-97539000D02*
X104791000Y-99560000D01*
X104751000Y-101640000D02*
X104751000Y-103674000D01*
X104751000Y-97526000D02*
X104751000Y-99560000D01*
X104711000Y-101640000D02*
X104711000Y-103686000D01*
X104711000Y-97514000D02*
X104711000Y-99560000D01*
X104671000Y-101640000D02*
X104671000Y-103698000D01*
X104671000Y-97502000D02*
X104671000Y-99560000D01*
X104631000Y-101640000D02*
X104631000Y-103710000D01*
X104631000Y-97490000D02*
X104631000Y-99560000D01*
X104591000Y-101640000D02*
X104591000Y-103721000D01*
X104591000Y-97479000D02*
X104591000Y-99560000D01*
X104551000Y-101640000D02*
X104551000Y-103731000D01*
X104551000Y-97469000D02*
X104551000Y-99560000D01*
X104511000Y-101640000D02*
X104511000Y-103741000D01*
X104511000Y-97459000D02*
X104511000Y-99560000D01*
X104471000Y-101640000D02*
X104471000Y-103750000D01*
X104471000Y-97450000D02*
X104471000Y-99560000D01*
X104430000Y-101640000D02*
X104430000Y-103759000D01*
X104430000Y-97441000D02*
X104430000Y-99560000D01*
X104390000Y-101640000D02*
X104390000Y-103767000D01*
X104390000Y-97433000D02*
X104390000Y-99560000D01*
X104350000Y-101640000D02*
X104350000Y-103775000D01*
X104350000Y-97425000D02*
X104350000Y-99560000D01*
X104310000Y-101640000D02*
X104310000Y-103782000D01*
X104310000Y-97418000D02*
X104310000Y-99560000D01*
X104270000Y-101640000D02*
X104270000Y-103789000D01*
X104270000Y-97411000D02*
X104270000Y-99560000D01*
X104230000Y-101640000D02*
X104230000Y-103795000D01*
X104230000Y-97405000D02*
X104230000Y-99560000D01*
X104190000Y-101640000D02*
X104190000Y-103801000D01*
X104190000Y-97399000D02*
X104190000Y-99560000D01*
X104150000Y-101640000D02*
X104150000Y-103806000D01*
X104150000Y-97394000D02*
X104150000Y-99560000D01*
X104110000Y-101640000D02*
X104110000Y-103811000D01*
X104110000Y-97389000D02*
X104110000Y-99560000D01*
X104070000Y-101640000D02*
X104070000Y-103815000D01*
X104070000Y-97385000D02*
X104070000Y-99560000D01*
X104030000Y-101640000D02*
X104030000Y-103818000D01*
X104030000Y-97382000D02*
X104030000Y-99560000D01*
X103990000Y-101640000D02*
X103990000Y-103822000D01*
X103990000Y-97378000D02*
X103990000Y-99560000D01*
X103950000Y-97376000D02*
X103950000Y-103824000D01*
X103910000Y-97373000D02*
X103910000Y-103827000D01*
X103870000Y-97372000D02*
X103870000Y-103828000D01*
X103830000Y-97370000D02*
X103830000Y-103830000D01*
X103790000Y-97370000D02*
X103790000Y-103830000D01*
X103750000Y-97370000D02*
X103750000Y-103830000D01*
X107020000Y-100600000D02*
G75*
G03*
X107020000Y-100600000I-3270000J0D01*
G01*
%TO.C,C7*%
X84475000Y-74020000D02*
X83079000Y-74020000D01*
X87721000Y-74020000D02*
X86325000Y-74020000D01*
X84475000Y-67780000D02*
X83079000Y-67780000D01*
X87721000Y-67780000D02*
X86325000Y-67780000D01*
X83079000Y-67780000D02*
X83079000Y-74020000D01*
X87721000Y-67780000D02*
X87721000Y-74020000D01*
%TO.C,C6*%
X102725000Y-84980000D02*
X104121000Y-84980000D01*
X99479000Y-84980000D02*
X100875000Y-84980000D01*
X102725000Y-91220000D02*
X104121000Y-91220000D01*
X99479000Y-91220000D02*
X100875000Y-91220000D01*
X104121000Y-91220000D02*
X104121000Y-84980000D01*
X99479000Y-91220000D02*
X99479000Y-84980000D01*
%TO.C,C5*%
X84875000Y-101220000D02*
X83479000Y-101220000D01*
X88121000Y-101220000D02*
X86725000Y-101220000D01*
X84875000Y-94980000D02*
X83479000Y-94980000D01*
X88121000Y-94980000D02*
X86725000Y-94980000D01*
X83479000Y-94980000D02*
X83479000Y-101220000D01*
X88121000Y-94980000D02*
X88121000Y-101220000D01*
%TO.C,C4*%
X91525000Y-67780000D02*
X92921000Y-67780000D01*
X88279000Y-67780000D02*
X89675000Y-67780000D01*
X91525000Y-74020000D02*
X92921000Y-74020000D01*
X88279000Y-74020000D02*
X89675000Y-74020000D01*
X92921000Y-74020000D02*
X92921000Y-67780000D01*
X88279000Y-74020000D02*
X88279000Y-67780000D01*
%TO.C,C3*%
X89875000Y-44220000D02*
X88479000Y-44220000D01*
X93121000Y-44220000D02*
X91725000Y-44220000D01*
X89875000Y-37980000D02*
X88479000Y-37980000D01*
X93121000Y-37980000D02*
X91725000Y-37980000D01*
X88479000Y-37980000D02*
X88479000Y-44220000D01*
X93121000Y-37980000D02*
X93121000Y-44220000D01*
%TO.C,C2*%
X95075000Y-44220000D02*
X93679000Y-44220000D01*
X98321000Y-44220000D02*
X96925000Y-44220000D01*
X95075000Y-37980000D02*
X93679000Y-37980000D01*
X98321000Y-37980000D02*
X96925000Y-37980000D01*
X93679000Y-37980000D02*
X93679000Y-44220000D01*
X98321000Y-37980000D02*
X98321000Y-44220000D01*
%TO.C,C1*%
X94875000Y-74020000D02*
X93479000Y-74020000D01*
X98121000Y-74020000D02*
X96725000Y-74020000D01*
X94875000Y-67780000D02*
X93479000Y-67780000D01*
X98121000Y-67780000D02*
X96725000Y-67780000D01*
X93479000Y-67780000D02*
X93479000Y-74020000D01*
X98121000Y-67780000D02*
X98121000Y-74020000D01*
%TO.C,U3*%
D10*
X92738095Y-79252380D02*
X92738095Y-80061904D01*
X92785714Y-80157142D01*
X92833333Y-80204761D01*
X92928571Y-80252380D01*
X93119047Y-80252380D01*
X93214285Y-80204761D01*
X93261904Y-80157142D01*
X93309523Y-80061904D01*
X93309523Y-79252380D01*
X93690476Y-79252380D02*
X94309523Y-79252380D01*
X93976190Y-79633333D01*
X94119047Y-79633333D01*
X94214285Y-79680952D01*
X94261904Y-79728571D01*
X94309523Y-79823809D01*
X94309523Y-80061904D01*
X94261904Y-80157142D01*
X94214285Y-80204761D01*
X94119047Y-80252380D01*
X93833333Y-80252380D01*
X93738095Y-80204761D01*
X93690476Y-80157142D01*
%TO.C,U1*%
X92873095Y-48252380D02*
X92873095Y-49061904D01*
X92920714Y-49157142D01*
X92968333Y-49204761D01*
X93063571Y-49252380D01*
X93254047Y-49252380D01*
X93349285Y-49204761D01*
X93396904Y-49157142D01*
X93444523Y-49061904D01*
X93444523Y-48252380D01*
X94444523Y-49252380D02*
X93873095Y-49252380D01*
X94158809Y-49252380D02*
X94158809Y-48252380D01*
X94063571Y-48395238D01*
X93968333Y-48490476D01*
X93873095Y-48538095D01*
%TO.C,RV6*%
X93264761Y-95392380D02*
X92931428Y-94916190D01*
X92693333Y-95392380D02*
X92693333Y-94392380D01*
X93074285Y-94392380D01*
X93169523Y-94440000D01*
X93217142Y-94487619D01*
X93264761Y-94582857D01*
X93264761Y-94725714D01*
X93217142Y-94820952D01*
X93169523Y-94868571D01*
X93074285Y-94916190D01*
X92693333Y-94916190D01*
X93550476Y-94392380D02*
X93883809Y-95392380D01*
X94217142Y-94392380D01*
X94979047Y-94392380D02*
X94788571Y-94392380D01*
X94693333Y-94440000D01*
X94645714Y-94487619D01*
X94550476Y-94630476D01*
X94502857Y-94820952D01*
X94502857Y-95201904D01*
X94550476Y-95297142D01*
X94598095Y-95344761D01*
X94693333Y-95392380D01*
X94883809Y-95392380D01*
X94979047Y-95344761D01*
X95026666Y-95297142D01*
X95074285Y-95201904D01*
X95074285Y-94963809D01*
X95026666Y-94868571D01*
X94979047Y-94820952D01*
X94883809Y-94773333D01*
X94693333Y-94773333D01*
X94598095Y-94820952D01*
X94550476Y-94868571D01*
X94502857Y-94963809D01*
%TO.C,TUNE*%
X106214285Y-31442380D02*
X106785714Y-31442380D01*
X106500000Y-32442380D02*
X106500000Y-31442380D01*
X107119047Y-31442380D02*
X107119047Y-32251904D01*
X107166666Y-32347142D01*
X107214285Y-32394761D01*
X107309523Y-32442380D01*
X107500000Y-32442380D01*
X107595238Y-32394761D01*
X107642857Y-32347142D01*
X107690476Y-32251904D01*
X107690476Y-31442380D01*
X108166666Y-32442380D02*
X108166666Y-31442380D01*
X108738095Y-32442380D01*
X108738095Y-31442380D01*
X109214285Y-31918571D02*
X109547619Y-31918571D01*
X109690476Y-32442380D02*
X109214285Y-32442380D01*
X109214285Y-31442380D01*
X109690476Y-31442380D01*
%TO.C,PW*%
X106452380Y-45633333D02*
X105452380Y-45633333D01*
X105452380Y-45252380D01*
X105500000Y-45157142D01*
X105547619Y-45109523D01*
X105642857Y-45061904D01*
X105785714Y-45061904D01*
X105880952Y-45109523D01*
X105928571Y-45157142D01*
X105976190Y-45252380D01*
X105976190Y-45633333D01*
X105452380Y-44728571D02*
X106452380Y-44490476D01*
X105738095Y-44300000D01*
X106452380Y-44109523D01*
X105452380Y-43871428D01*
%TO.C,PW ATT*%
X106452380Y-56704761D02*
X105452380Y-56704761D01*
X105452380Y-56323809D01*
X105500000Y-56228571D01*
X105547619Y-56180952D01*
X105642857Y-56133333D01*
X105785714Y-56133333D01*
X105880952Y-56180952D01*
X105928571Y-56228571D01*
X105976190Y-56323809D01*
X105976190Y-56704761D01*
X105452380Y-55800000D02*
X106452380Y-55561904D01*
X105738095Y-55371428D01*
X106452380Y-55180952D01*
X105452380Y-54942857D01*
X106166666Y-53847619D02*
X106166666Y-53371428D01*
X106452380Y-53942857D02*
X105452380Y-53609523D01*
X106452380Y-53276190D01*
X105452380Y-53085714D02*
X105452380Y-52514285D01*
X106452380Y-52800000D02*
X105452380Y-52800000D01*
X105452380Y-52323809D02*
X105452380Y-51752380D01*
X106452380Y-52038095D02*
X105452380Y-52038095D01*
%TO.C,RV1*%
X79452380Y-87395238D02*
X78976190Y-87728571D01*
X79452380Y-87966666D02*
X78452380Y-87966666D01*
X78452380Y-87585714D01*
X78500000Y-87490476D01*
X78547619Y-87442857D01*
X78642857Y-87395238D01*
X78785714Y-87395238D01*
X78880952Y-87442857D01*
X78928571Y-87490476D01*
X78976190Y-87585714D01*
X78976190Y-87966666D01*
X78452380Y-87109523D02*
X79452380Y-86776190D01*
X78452380Y-86442857D01*
X79452380Y-85585714D02*
X79452380Y-86157142D01*
X79452380Y-85871428D02*
X78452380Y-85871428D01*
X78595238Y-85966666D01*
X78690476Y-86061904D01*
X78738095Y-86157142D01*
%TO.C,R22*%
D12*
X91521428Y-103385714D02*
X91235714Y-103585714D01*
X91521428Y-103728571D02*
X90921428Y-103728571D01*
X90921428Y-103500000D01*
X90950000Y-103442857D01*
X90978571Y-103414285D01*
X91035714Y-103385714D01*
X91121428Y-103385714D01*
X91178571Y-103414285D01*
X91207142Y-103442857D01*
X91235714Y-103500000D01*
X91235714Y-103728571D01*
X90978571Y-103157142D02*
X90950000Y-103128571D01*
X90921428Y-103071428D01*
X90921428Y-102928571D01*
X90950000Y-102871428D01*
X90978571Y-102842857D01*
X91035714Y-102814285D01*
X91092857Y-102814285D01*
X91178571Y-102842857D01*
X91521428Y-103185714D01*
X91521428Y-102814285D01*
X90978571Y-102585714D02*
X90950000Y-102557142D01*
X90921428Y-102500000D01*
X90921428Y-102357142D01*
X90950000Y-102300000D01*
X90978571Y-102271428D01*
X91035714Y-102242857D01*
X91092857Y-102242857D01*
X91178571Y-102271428D01*
X91521428Y-102614285D01*
X91521428Y-102242857D01*
D10*
X93504285Y-103452380D02*
X92932857Y-103452380D01*
X93218571Y-103452380D02*
X93218571Y-102452380D01*
X93123333Y-102595238D01*
X93028095Y-102690476D01*
X92932857Y-102738095D01*
X93932857Y-103452380D02*
X93932857Y-102452380D01*
X94266190Y-103166666D01*
X94599523Y-102452380D01*
X94599523Y-103452380D01*
%TO.C,R19*%
D12*
X103814285Y-72421428D02*
X103614285Y-72135714D01*
X103471428Y-72421428D02*
X103471428Y-71821428D01*
X103700000Y-71821428D01*
X103757142Y-71850000D01*
X103785714Y-71878571D01*
X103814285Y-71935714D01*
X103814285Y-72021428D01*
X103785714Y-72078571D01*
X103757142Y-72107142D01*
X103700000Y-72135714D01*
X103471428Y-72135714D01*
X104385714Y-72421428D02*
X104042857Y-72421428D01*
X104214285Y-72421428D02*
X104214285Y-71821428D01*
X104157142Y-71907142D01*
X104100000Y-71964285D01*
X104042857Y-71992857D01*
X104671428Y-72421428D02*
X104785714Y-72421428D01*
X104842857Y-72392857D01*
X104871428Y-72364285D01*
X104928571Y-72278571D01*
X104957142Y-72164285D01*
X104957142Y-71935714D01*
X104928571Y-71878571D01*
X104900000Y-71850000D01*
X104842857Y-71821428D01*
X104728571Y-71821428D01*
X104671428Y-71850000D01*
X104642857Y-71878571D01*
X104614285Y-71935714D01*
X104614285Y-72078571D01*
X104642857Y-72135714D01*
X104671428Y-72164285D01*
X104728571Y-72192857D01*
X104842857Y-72192857D01*
X104900000Y-72164285D01*
X104928571Y-72135714D01*
X104957142Y-72078571D01*
D10*
X104652380Y-70776666D02*
X104652380Y-71348095D01*
X104652380Y-71062380D02*
X103652380Y-71062380D01*
X103795238Y-71157619D01*
X103890476Y-71252857D01*
X103938095Y-71348095D01*
X103652380Y-70157619D02*
X103652380Y-70062380D01*
X103700000Y-69967142D01*
X103747619Y-69919523D01*
X103842857Y-69871904D01*
X104033333Y-69824285D01*
X104271428Y-69824285D01*
X104461904Y-69871904D01*
X104557142Y-69919523D01*
X104604761Y-69967142D01*
X104652380Y-70062380D01*
X104652380Y-70157619D01*
X104604761Y-70252857D01*
X104557142Y-70300476D01*
X104461904Y-70348095D01*
X104271428Y-70395714D01*
X104033333Y-70395714D01*
X103842857Y-70348095D01*
X103747619Y-70300476D01*
X103700000Y-70252857D01*
X103652380Y-70157619D01*
X103652380Y-69205238D02*
X103652380Y-69110000D01*
X103700000Y-69014761D01*
X103747619Y-68967142D01*
X103842857Y-68919523D01*
X104033333Y-68871904D01*
X104271428Y-68871904D01*
X104461904Y-68919523D01*
X104557142Y-68967142D01*
X104604761Y-69014761D01*
X104652380Y-69110000D01*
X104652380Y-69205238D01*
X104604761Y-69300476D01*
X104557142Y-69348095D01*
X104461904Y-69395714D01*
X104271428Y-69443333D01*
X104033333Y-69443333D01*
X103842857Y-69395714D01*
X103747619Y-69348095D01*
X103700000Y-69300476D01*
X103652380Y-69205238D01*
X104652380Y-68443333D02*
X103652380Y-68443333D01*
X104652380Y-67871904D02*
X104080952Y-68300476D01*
X103652380Y-67871904D02*
X104223809Y-68443333D01*
%TO.C,R18*%
D12*
X107014285Y-67321428D02*
X106814285Y-67035714D01*
X106671428Y-67321428D02*
X106671428Y-66721428D01*
X106900000Y-66721428D01*
X106957142Y-66750000D01*
X106985714Y-66778571D01*
X107014285Y-66835714D01*
X107014285Y-66921428D01*
X106985714Y-66978571D01*
X106957142Y-67007142D01*
X106900000Y-67035714D01*
X106671428Y-67035714D01*
X107585714Y-67321428D02*
X107242857Y-67321428D01*
X107414285Y-67321428D02*
X107414285Y-66721428D01*
X107357142Y-66807142D01*
X107300000Y-66864285D01*
X107242857Y-66892857D01*
X107928571Y-66978571D02*
X107871428Y-66950000D01*
X107842857Y-66921428D01*
X107814285Y-66864285D01*
X107814285Y-66835714D01*
X107842857Y-66778571D01*
X107871428Y-66750000D01*
X107928571Y-66721428D01*
X108042857Y-66721428D01*
X108100000Y-66750000D01*
X108128571Y-66778571D01*
X108157142Y-66835714D01*
X108157142Y-66864285D01*
X108128571Y-66921428D01*
X108100000Y-66950000D01*
X108042857Y-66978571D01*
X107928571Y-66978571D01*
X107871428Y-67007142D01*
X107842857Y-67035714D01*
X107814285Y-67092857D01*
X107814285Y-67207142D01*
X107842857Y-67264285D01*
X107871428Y-67292857D01*
X107928571Y-67321428D01*
X108042857Y-67321428D01*
X108100000Y-67292857D01*
X108128571Y-67264285D01*
X108157142Y-67207142D01*
X108157142Y-67092857D01*
X108128571Y-67035714D01*
X108100000Y-67007142D01*
X108042857Y-66978571D01*
D10*
X107852380Y-70756666D02*
X107852380Y-71328095D01*
X107852380Y-71042380D02*
X106852380Y-71042380D01*
X106995238Y-71137619D01*
X107090476Y-71232857D01*
X107138095Y-71328095D01*
X106852380Y-70137619D02*
X106852380Y-70042380D01*
X106900000Y-69947142D01*
X106947619Y-69899523D01*
X107042857Y-69851904D01*
X107233333Y-69804285D01*
X107471428Y-69804285D01*
X107661904Y-69851904D01*
X107757142Y-69899523D01*
X107804761Y-69947142D01*
X107852380Y-70042380D01*
X107852380Y-70137619D01*
X107804761Y-70232857D01*
X107757142Y-70280476D01*
X107661904Y-70328095D01*
X107471428Y-70375714D01*
X107233333Y-70375714D01*
X107042857Y-70328095D01*
X106947619Y-70280476D01*
X106900000Y-70232857D01*
X106852380Y-70137619D01*
X106852380Y-69185238D02*
X106852380Y-69090000D01*
X106900000Y-68994761D01*
X106947619Y-68947142D01*
X107042857Y-68899523D01*
X107233333Y-68851904D01*
X107471428Y-68851904D01*
X107661904Y-68899523D01*
X107757142Y-68947142D01*
X107804761Y-68994761D01*
X107852380Y-69090000D01*
X107852380Y-69185238D01*
X107804761Y-69280476D01*
X107757142Y-69328095D01*
X107661904Y-69375714D01*
X107471428Y-69423333D01*
X107233333Y-69423333D01*
X107042857Y-69375714D01*
X106947619Y-69328095D01*
X106900000Y-69280476D01*
X106852380Y-69185238D01*
X107852380Y-68423333D02*
X106852380Y-68423333D01*
X107852380Y-67851904D02*
X107280952Y-68280476D01*
X106852380Y-67851904D02*
X107423809Y-68423333D01*
%TO.C,R17*%
D12*
X83014285Y-61221428D02*
X82814285Y-60935714D01*
X82671428Y-61221428D02*
X82671428Y-60621428D01*
X82900000Y-60621428D01*
X82957142Y-60650000D01*
X82985714Y-60678571D01*
X83014285Y-60735714D01*
X83014285Y-60821428D01*
X82985714Y-60878571D01*
X82957142Y-60907142D01*
X82900000Y-60935714D01*
X82671428Y-60935714D01*
X83585714Y-61221428D02*
X83242857Y-61221428D01*
X83414285Y-61221428D02*
X83414285Y-60621428D01*
X83357142Y-60707142D01*
X83300000Y-60764285D01*
X83242857Y-60792857D01*
X83785714Y-60621428D02*
X84185714Y-60621428D01*
X83928571Y-61221428D01*
D10*
X83185714Y-59100476D02*
X83852380Y-59100476D01*
X82804761Y-59338571D02*
X83519047Y-59576666D01*
X83519047Y-58957619D01*
X83852380Y-58576666D02*
X82852380Y-58576666D01*
X83471428Y-58481428D02*
X83852380Y-58195714D01*
X83185714Y-58195714D02*
X83566666Y-58576666D01*
X82852380Y-57862380D02*
X82852380Y-57195714D01*
X83852380Y-57624285D01*
%TO.C,R16*%
D12*
X86214285Y-61221428D02*
X86014285Y-60935714D01*
X85871428Y-61221428D02*
X85871428Y-60621428D01*
X86100000Y-60621428D01*
X86157142Y-60650000D01*
X86185714Y-60678571D01*
X86214285Y-60735714D01*
X86214285Y-60821428D01*
X86185714Y-60878571D01*
X86157142Y-60907142D01*
X86100000Y-60935714D01*
X85871428Y-60935714D01*
X86785714Y-61221428D02*
X86442857Y-61221428D01*
X86614285Y-61221428D02*
X86614285Y-60621428D01*
X86557142Y-60707142D01*
X86500000Y-60764285D01*
X86442857Y-60792857D01*
X87300000Y-60621428D02*
X87185714Y-60621428D01*
X87128571Y-60650000D01*
X87100000Y-60678571D01*
X87042857Y-60764285D01*
X87014285Y-60878571D01*
X87014285Y-61107142D01*
X87042857Y-61164285D01*
X87071428Y-61192857D01*
X87128571Y-61221428D01*
X87242857Y-61221428D01*
X87300000Y-61192857D01*
X87328571Y-61164285D01*
X87357142Y-61107142D01*
X87357142Y-60964285D01*
X87328571Y-60907142D01*
X87300000Y-60878571D01*
X87242857Y-60850000D01*
X87128571Y-60850000D01*
X87071428Y-60878571D01*
X87042857Y-60907142D01*
X87014285Y-60964285D01*
D10*
X87052380Y-59576666D02*
X87052380Y-60148095D01*
X87052380Y-59862380D02*
X86052380Y-59862380D01*
X86195238Y-59957619D01*
X86290476Y-60052857D01*
X86338095Y-60148095D01*
X86052380Y-58957619D02*
X86052380Y-58862380D01*
X86100000Y-58767142D01*
X86147619Y-58719523D01*
X86242857Y-58671904D01*
X86433333Y-58624285D01*
X86671428Y-58624285D01*
X86861904Y-58671904D01*
X86957142Y-58719523D01*
X87004761Y-58767142D01*
X87052380Y-58862380D01*
X87052380Y-58957619D01*
X87004761Y-59052857D01*
X86957142Y-59100476D01*
X86861904Y-59148095D01*
X86671428Y-59195714D01*
X86433333Y-59195714D01*
X86242857Y-59148095D01*
X86147619Y-59100476D01*
X86100000Y-59052857D01*
X86052380Y-58957619D01*
X86052380Y-58005238D02*
X86052380Y-57910000D01*
X86100000Y-57814761D01*
X86147619Y-57767142D01*
X86242857Y-57719523D01*
X86433333Y-57671904D01*
X86671428Y-57671904D01*
X86861904Y-57719523D01*
X86957142Y-57767142D01*
X87004761Y-57814761D01*
X87052380Y-57910000D01*
X87052380Y-58005238D01*
X87004761Y-58100476D01*
X86957142Y-58148095D01*
X86861904Y-58195714D01*
X86671428Y-58243333D01*
X86433333Y-58243333D01*
X86242857Y-58195714D01*
X86147619Y-58148095D01*
X86100000Y-58100476D01*
X86052380Y-58005238D01*
X87052380Y-57243333D02*
X86052380Y-57243333D01*
X87052380Y-56671904D02*
X86480952Y-57100476D01*
X86052380Y-56671904D02*
X86623809Y-57243333D01*
%TO.C,R15*%
D12*
X103414285Y-35121428D02*
X103214285Y-34835714D01*
X103071428Y-35121428D02*
X103071428Y-34521428D01*
X103300000Y-34521428D01*
X103357142Y-34550000D01*
X103385714Y-34578571D01*
X103414285Y-34635714D01*
X103414285Y-34721428D01*
X103385714Y-34778571D01*
X103357142Y-34807142D01*
X103300000Y-34835714D01*
X103071428Y-34835714D01*
X103985714Y-35121428D02*
X103642857Y-35121428D01*
X103814285Y-35121428D02*
X103814285Y-34521428D01*
X103757142Y-34607142D01*
X103700000Y-34664285D01*
X103642857Y-34692857D01*
X104528571Y-34521428D02*
X104242857Y-34521428D01*
X104214285Y-34807142D01*
X104242857Y-34778571D01*
X104300000Y-34750000D01*
X104442857Y-34750000D01*
X104500000Y-34778571D01*
X104528571Y-34807142D01*
X104557142Y-34864285D01*
X104557142Y-35007142D01*
X104528571Y-35064285D01*
X104500000Y-35092857D01*
X104442857Y-35121428D01*
X104300000Y-35121428D01*
X104242857Y-35092857D01*
X104214285Y-35064285D01*
D10*
X103585714Y-38556666D02*
X104252380Y-38556666D01*
X103204761Y-38794761D02*
X103919047Y-39032857D01*
X103919047Y-38413809D01*
X103252380Y-38128095D02*
X103252380Y-37461428D01*
X104252380Y-37890000D01*
X103252380Y-36890000D02*
X103252380Y-36794761D01*
X103300000Y-36699523D01*
X103347619Y-36651904D01*
X103442857Y-36604285D01*
X103633333Y-36556666D01*
X103871428Y-36556666D01*
X104061904Y-36604285D01*
X104157142Y-36651904D01*
X104204761Y-36699523D01*
X104252380Y-36794761D01*
X104252380Y-36890000D01*
X104204761Y-36985238D01*
X104157142Y-37032857D01*
X104061904Y-37080476D01*
X103871428Y-37128095D01*
X103633333Y-37128095D01*
X103442857Y-37080476D01*
X103347619Y-37032857D01*
X103300000Y-36985238D01*
X103252380Y-36890000D01*
X104252380Y-36128095D02*
X103252380Y-36128095D01*
X103871428Y-36032857D02*
X104252380Y-35747142D01*
X103585714Y-35747142D02*
X103966666Y-36128095D01*
%TO.C,R14*%
D12*
X100214285Y-60221428D02*
X100014285Y-59935714D01*
X99871428Y-60221428D02*
X99871428Y-59621428D01*
X100100000Y-59621428D01*
X100157142Y-59650000D01*
X100185714Y-59678571D01*
X100214285Y-59735714D01*
X100214285Y-59821428D01*
X100185714Y-59878571D01*
X100157142Y-59907142D01*
X100100000Y-59935714D01*
X99871428Y-59935714D01*
X100785714Y-60221428D02*
X100442857Y-60221428D01*
X100614285Y-60221428D02*
X100614285Y-59621428D01*
X100557142Y-59707142D01*
X100500000Y-59764285D01*
X100442857Y-59792857D01*
X101300000Y-59821428D02*
X101300000Y-60221428D01*
X101157142Y-59592857D02*
X101014285Y-60021428D01*
X101385714Y-60021428D01*
D10*
X100385714Y-58576666D02*
X101052380Y-58576666D01*
X100004761Y-58814761D02*
X100719047Y-59052857D01*
X100719047Y-58433809D01*
X100052380Y-58148095D02*
X100052380Y-57481428D01*
X101052380Y-57910000D01*
X100052380Y-56910000D02*
X100052380Y-56814761D01*
X100100000Y-56719523D01*
X100147619Y-56671904D01*
X100242857Y-56624285D01*
X100433333Y-56576666D01*
X100671428Y-56576666D01*
X100861904Y-56624285D01*
X100957142Y-56671904D01*
X101004761Y-56719523D01*
X101052380Y-56814761D01*
X101052380Y-56910000D01*
X101004761Y-57005238D01*
X100957142Y-57052857D01*
X100861904Y-57100476D01*
X100671428Y-57148095D01*
X100433333Y-57148095D01*
X100242857Y-57100476D01*
X100147619Y-57052857D01*
X100100000Y-57005238D01*
X100052380Y-56910000D01*
X101052380Y-56148095D02*
X100052380Y-56148095D01*
X100671428Y-56052857D02*
X101052380Y-55767142D01*
X100385714Y-55767142D02*
X100766666Y-56148095D01*
%TO.C,R13*%
D12*
X103414285Y-60221428D02*
X103214285Y-59935714D01*
X103071428Y-60221428D02*
X103071428Y-59621428D01*
X103300000Y-59621428D01*
X103357142Y-59650000D01*
X103385714Y-59678571D01*
X103414285Y-59735714D01*
X103414285Y-59821428D01*
X103385714Y-59878571D01*
X103357142Y-59907142D01*
X103300000Y-59935714D01*
X103071428Y-59935714D01*
X103985714Y-60221428D02*
X103642857Y-60221428D01*
X103814285Y-60221428D02*
X103814285Y-59621428D01*
X103757142Y-59707142D01*
X103700000Y-59764285D01*
X103642857Y-59792857D01*
X104185714Y-59621428D02*
X104557142Y-59621428D01*
X104357142Y-59850000D01*
X104442857Y-59850000D01*
X104500000Y-59878571D01*
X104528571Y-59907142D01*
X104557142Y-59964285D01*
X104557142Y-60107142D01*
X104528571Y-60164285D01*
X104500000Y-60192857D01*
X104442857Y-60221428D01*
X104271428Y-60221428D01*
X104214285Y-60192857D01*
X104185714Y-60164285D01*
D10*
X103585714Y-58671904D02*
X104252380Y-58671904D01*
X103204761Y-58910000D02*
X103919047Y-59148095D01*
X103919047Y-58529047D01*
X103252380Y-58243333D02*
X103252380Y-57576666D01*
X104252380Y-58005238D01*
X103252380Y-57005238D02*
X103252380Y-56910000D01*
X103300000Y-56814761D01*
X103347619Y-56767142D01*
X103442857Y-56719523D01*
X103633333Y-56671904D01*
X103871428Y-56671904D01*
X104061904Y-56719523D01*
X104157142Y-56767142D01*
X104204761Y-56814761D01*
X104252380Y-56910000D01*
X104252380Y-57005238D01*
X104204761Y-57100476D01*
X104157142Y-57148095D01*
X104061904Y-57195714D01*
X103871428Y-57243333D01*
X103633333Y-57243333D01*
X103442857Y-57195714D01*
X103347619Y-57148095D01*
X103300000Y-57100476D01*
X103252380Y-57005238D01*
X104252380Y-56243333D02*
X103252380Y-56243333D01*
X104252380Y-55671904D02*
X103680952Y-56100476D01*
X103252380Y-55671904D02*
X103823809Y-56243333D01*
%TO.C,R12*%
D12*
X103414285Y-50201428D02*
X103214285Y-49915714D01*
X103071428Y-50201428D02*
X103071428Y-49601428D01*
X103300000Y-49601428D01*
X103357142Y-49630000D01*
X103385714Y-49658571D01*
X103414285Y-49715714D01*
X103414285Y-49801428D01*
X103385714Y-49858571D01*
X103357142Y-49887142D01*
X103300000Y-49915714D01*
X103071428Y-49915714D01*
X103985714Y-50201428D02*
X103642857Y-50201428D01*
X103814285Y-50201428D02*
X103814285Y-49601428D01*
X103757142Y-49687142D01*
X103700000Y-49744285D01*
X103642857Y-49772857D01*
X104214285Y-49658571D02*
X104242857Y-49630000D01*
X104300000Y-49601428D01*
X104442857Y-49601428D01*
X104500000Y-49630000D01*
X104528571Y-49658571D01*
X104557142Y-49715714D01*
X104557142Y-49772857D01*
X104528571Y-49858571D01*
X104185714Y-50201428D01*
X104557142Y-50201428D01*
D10*
X104252380Y-47604285D02*
X104252380Y-48175714D01*
X104252380Y-47890000D02*
X103252380Y-47890000D01*
X103395238Y-47985238D01*
X103490476Y-48080476D01*
X103538095Y-48175714D01*
X104252380Y-47175714D02*
X103252380Y-47175714D01*
X104252380Y-46604285D02*
X103680952Y-47032857D01*
X103252380Y-46604285D02*
X103823809Y-47175714D01*
%TO.C,R11*%
D12*
X86414285Y-87221428D02*
X86214285Y-86935714D01*
X86071428Y-87221428D02*
X86071428Y-86621428D01*
X86300000Y-86621428D01*
X86357142Y-86650000D01*
X86385714Y-86678571D01*
X86414285Y-86735714D01*
X86414285Y-86821428D01*
X86385714Y-86878571D01*
X86357142Y-86907142D01*
X86300000Y-86935714D01*
X86071428Y-86935714D01*
X86985714Y-87221428D02*
X86642857Y-87221428D01*
X86814285Y-87221428D02*
X86814285Y-86621428D01*
X86757142Y-86707142D01*
X86700000Y-86764285D01*
X86642857Y-86792857D01*
X87557142Y-87221428D02*
X87214285Y-87221428D01*
X87385714Y-87221428D02*
X87385714Y-86621428D01*
X87328571Y-86707142D01*
X87271428Y-86764285D01*
X87214285Y-86792857D01*
D10*
X87252380Y-91966190D02*
X87252380Y-92537619D01*
X87252380Y-92251904D02*
X86252380Y-92251904D01*
X86395238Y-92347142D01*
X86490476Y-92442380D01*
X86538095Y-92537619D01*
X86252380Y-91347142D02*
X86252380Y-91251904D01*
X86300000Y-91156666D01*
X86347619Y-91109047D01*
X86442857Y-91061428D01*
X86633333Y-91013809D01*
X86871428Y-91013809D01*
X87061904Y-91061428D01*
X87157142Y-91109047D01*
X87204761Y-91156666D01*
X87252380Y-91251904D01*
X87252380Y-91347142D01*
X87204761Y-91442380D01*
X87157142Y-91490000D01*
X87061904Y-91537619D01*
X86871428Y-91585238D01*
X86633333Y-91585238D01*
X86442857Y-91537619D01*
X86347619Y-91490000D01*
X86300000Y-91442380D01*
X86252380Y-91347142D01*
X87252380Y-90585238D02*
X86252380Y-90585238D01*
X86871428Y-90490000D02*
X87252380Y-90204285D01*
X86585714Y-90204285D02*
X86966666Y-90585238D01*
X86204761Y-89061428D02*
X87490476Y-89918571D01*
X86585714Y-88299523D02*
X87252380Y-88299523D01*
X86204761Y-88537619D02*
X86919047Y-88775714D01*
X86919047Y-88156666D01*
X86252380Y-87870952D02*
X86252380Y-87204285D01*
X87252380Y-87632857D01*
X87252380Y-86823333D02*
X86252380Y-86823333D01*
X86871428Y-86728095D02*
X87252380Y-86442380D01*
X86585714Y-86442380D02*
X86966666Y-86823333D01*
%TO.C,R10*%
D12*
X105414285Y-92221428D02*
X105214285Y-91935714D01*
X105071428Y-92221428D02*
X105071428Y-91621428D01*
X105300000Y-91621428D01*
X105357142Y-91650000D01*
X105385714Y-91678571D01*
X105414285Y-91735714D01*
X105414285Y-91821428D01*
X105385714Y-91878571D01*
X105357142Y-91907142D01*
X105300000Y-91935714D01*
X105071428Y-91935714D01*
X105985714Y-92221428D02*
X105642857Y-92221428D01*
X105814285Y-92221428D02*
X105814285Y-91621428D01*
X105757142Y-91707142D01*
X105700000Y-91764285D01*
X105642857Y-91792857D01*
X106357142Y-91621428D02*
X106414285Y-91621428D01*
X106471428Y-91650000D01*
X106500000Y-91678571D01*
X106528571Y-91735714D01*
X106557142Y-91850000D01*
X106557142Y-91992857D01*
X106528571Y-92107142D01*
X106500000Y-92164285D01*
X106471428Y-92192857D01*
X106414285Y-92221428D01*
X106357142Y-92221428D01*
X106300000Y-92192857D01*
X106271428Y-92164285D01*
X106242857Y-92107142D01*
X106214285Y-91992857D01*
X106214285Y-91850000D01*
X106242857Y-91735714D01*
X106271428Y-91678571D01*
X106300000Y-91650000D01*
X106357142Y-91621428D01*
D10*
X106252380Y-90243333D02*
X106252380Y-90814761D01*
X106252380Y-90529047D02*
X105252380Y-90529047D01*
X105395238Y-90624285D01*
X105490476Y-90719523D01*
X105538095Y-90814761D01*
X106157142Y-89814761D02*
X106204761Y-89767142D01*
X106252380Y-89814761D01*
X106204761Y-89862380D01*
X106157142Y-89814761D01*
X106252380Y-89814761D01*
X105680952Y-89195714D02*
X105633333Y-89290952D01*
X105585714Y-89338571D01*
X105490476Y-89386190D01*
X105442857Y-89386190D01*
X105347619Y-89338571D01*
X105300000Y-89290952D01*
X105252380Y-89195714D01*
X105252380Y-89005238D01*
X105300000Y-88910000D01*
X105347619Y-88862380D01*
X105442857Y-88814761D01*
X105490476Y-88814761D01*
X105585714Y-88862380D01*
X105633333Y-88910000D01*
X105680952Y-89005238D01*
X105680952Y-89195714D01*
X105728571Y-89290952D01*
X105776190Y-89338571D01*
X105871428Y-89386190D01*
X106061904Y-89386190D01*
X106157142Y-89338571D01*
X106204761Y-89290952D01*
X106252380Y-89195714D01*
X106252380Y-89005238D01*
X106204761Y-88910000D01*
X106157142Y-88862380D01*
X106061904Y-88814761D01*
X105871428Y-88814761D01*
X105776190Y-88862380D01*
X105728571Y-88910000D01*
X105680952Y-89005238D01*
X106252380Y-88386190D02*
X105252380Y-88386190D01*
X105871428Y-88290952D02*
X106252380Y-88005238D01*
X105585714Y-88005238D02*
X105966666Y-88386190D01*
%TO.C,R9*%
D12*
X100900000Y-72421428D02*
X100700000Y-72135714D01*
X100557142Y-72421428D02*
X100557142Y-71821428D01*
X100785714Y-71821428D01*
X100842857Y-71850000D01*
X100871428Y-71878571D01*
X100900000Y-71935714D01*
X100900000Y-72021428D01*
X100871428Y-72078571D01*
X100842857Y-72107142D01*
X100785714Y-72135714D01*
X100557142Y-72135714D01*
X101185714Y-72421428D02*
X101300000Y-72421428D01*
X101357142Y-72392857D01*
X101385714Y-72364285D01*
X101442857Y-72278571D01*
X101471428Y-72164285D01*
X101471428Y-71935714D01*
X101442857Y-71878571D01*
X101414285Y-71850000D01*
X101357142Y-71821428D01*
X101242857Y-71821428D01*
X101185714Y-71850000D01*
X101157142Y-71878571D01*
X101128571Y-71935714D01*
X101128571Y-72078571D01*
X101157142Y-72135714D01*
X101185714Y-72164285D01*
X101242857Y-72192857D01*
X101357142Y-72192857D01*
X101414285Y-72164285D01*
X101442857Y-72135714D01*
X101471428Y-72078571D01*
D10*
X100785714Y-70871904D02*
X101452380Y-70871904D01*
X100404761Y-71110000D02*
X101119047Y-71348095D01*
X101119047Y-70729047D01*
X100452380Y-70443333D02*
X100452380Y-69776666D01*
X101452380Y-70205238D01*
X100452380Y-69205238D02*
X100452380Y-69110000D01*
X100500000Y-69014761D01*
X100547619Y-68967142D01*
X100642857Y-68919523D01*
X100833333Y-68871904D01*
X101071428Y-68871904D01*
X101261904Y-68919523D01*
X101357142Y-68967142D01*
X101404761Y-69014761D01*
X101452380Y-69110000D01*
X101452380Y-69205238D01*
X101404761Y-69300476D01*
X101357142Y-69348095D01*
X101261904Y-69395714D01*
X101071428Y-69443333D01*
X100833333Y-69443333D01*
X100642857Y-69395714D01*
X100547619Y-69348095D01*
X100500000Y-69300476D01*
X100452380Y-69205238D01*
X101452380Y-67871904D02*
X100976190Y-68205238D01*
X101452380Y-68443333D02*
X100452380Y-68443333D01*
X100452380Y-68062380D01*
X100500000Y-67967142D01*
X100547619Y-67919523D01*
X100642857Y-67871904D01*
X100785714Y-67871904D01*
X100880952Y-67919523D01*
X100928571Y-67967142D01*
X100976190Y-68062380D01*
X100976190Y-68443333D01*
%TO.C,R8*%
D12*
X83375000Y-87221428D02*
X83175000Y-86935714D01*
X83032142Y-87221428D02*
X83032142Y-86621428D01*
X83260714Y-86621428D01*
X83317857Y-86650000D01*
X83346428Y-86678571D01*
X83375000Y-86735714D01*
X83375000Y-86821428D01*
X83346428Y-86878571D01*
X83317857Y-86907142D01*
X83260714Y-86935714D01*
X83032142Y-86935714D01*
X83717857Y-86878571D02*
X83660714Y-86850000D01*
X83632142Y-86821428D01*
X83603571Y-86764285D01*
X83603571Y-86735714D01*
X83632142Y-86678571D01*
X83660714Y-86650000D01*
X83717857Y-86621428D01*
X83832142Y-86621428D01*
X83889285Y-86650000D01*
X83917857Y-86678571D01*
X83946428Y-86735714D01*
X83946428Y-86764285D01*
X83917857Y-86821428D01*
X83889285Y-86850000D01*
X83832142Y-86878571D01*
X83717857Y-86878571D01*
X83660714Y-86907142D01*
X83632142Y-86935714D01*
X83603571Y-86992857D01*
X83603571Y-87107142D01*
X83632142Y-87164285D01*
X83660714Y-87192857D01*
X83717857Y-87221428D01*
X83832142Y-87221428D01*
X83889285Y-87192857D01*
X83917857Y-87164285D01*
X83946428Y-87107142D01*
X83946428Y-86992857D01*
X83917857Y-86935714D01*
X83889285Y-86907142D01*
X83832142Y-86878571D01*
D10*
X82927380Y-90751904D02*
X82927380Y-90942380D01*
X82975000Y-91037619D01*
X83022619Y-91085238D01*
X83165476Y-91180476D01*
X83355952Y-91228095D01*
X83736904Y-91228095D01*
X83832142Y-91180476D01*
X83879761Y-91132857D01*
X83927380Y-91037619D01*
X83927380Y-90847142D01*
X83879761Y-90751904D01*
X83832142Y-90704285D01*
X83736904Y-90656666D01*
X83498809Y-90656666D01*
X83403571Y-90704285D01*
X83355952Y-90751904D01*
X83308333Y-90847142D01*
X83308333Y-91037619D01*
X83355952Y-91132857D01*
X83403571Y-91180476D01*
X83498809Y-91228095D01*
X83355952Y-90085238D02*
X83308333Y-90180476D01*
X83260714Y-90228095D01*
X83165476Y-90275714D01*
X83117857Y-90275714D01*
X83022619Y-90228095D01*
X82975000Y-90180476D01*
X82927380Y-90085238D01*
X82927380Y-89894761D01*
X82975000Y-89799523D01*
X83022619Y-89751904D01*
X83117857Y-89704285D01*
X83165476Y-89704285D01*
X83260714Y-89751904D01*
X83308333Y-89799523D01*
X83355952Y-89894761D01*
X83355952Y-90085238D01*
X83403571Y-90180476D01*
X83451190Y-90228095D01*
X83546428Y-90275714D01*
X83736904Y-90275714D01*
X83832142Y-90228095D01*
X83879761Y-90180476D01*
X83927380Y-90085238D01*
X83927380Y-89894761D01*
X83879761Y-89799523D01*
X83832142Y-89751904D01*
X83736904Y-89704285D01*
X83546428Y-89704285D01*
X83451190Y-89751904D01*
X83403571Y-89799523D01*
X83355952Y-89894761D01*
X82927380Y-89085238D02*
X82927380Y-88990000D01*
X82975000Y-88894761D01*
X83022619Y-88847142D01*
X83117857Y-88799523D01*
X83308333Y-88751904D01*
X83546428Y-88751904D01*
X83736904Y-88799523D01*
X83832142Y-88847142D01*
X83879761Y-88894761D01*
X83927380Y-88990000D01*
X83927380Y-89085238D01*
X83879761Y-89180476D01*
X83832142Y-89228095D01*
X83736904Y-89275714D01*
X83546428Y-89323333D01*
X83308333Y-89323333D01*
X83117857Y-89275714D01*
X83022619Y-89228095D01*
X82975000Y-89180476D01*
X82927380Y-89085238D01*
X83927380Y-87751904D02*
X83451190Y-88085238D01*
X83927380Y-88323333D02*
X82927380Y-88323333D01*
X82927380Y-87942380D01*
X82975000Y-87847142D01*
X83022619Y-87799523D01*
X83117857Y-87751904D01*
X83260714Y-87751904D01*
X83355952Y-87799523D01*
X83403571Y-87847142D01*
X83451190Y-87942380D01*
X83451190Y-88323333D01*
%TO.C,R7*%
D12*
X100746428Y-106800000D02*
X100460714Y-107000000D01*
X100746428Y-107142857D02*
X100146428Y-107142857D01*
X100146428Y-106914285D01*
X100175000Y-106857142D01*
X100203571Y-106828571D01*
X100260714Y-106800000D01*
X100346428Y-106800000D01*
X100403571Y-106828571D01*
X100432142Y-106857142D01*
X100460714Y-106914285D01*
X100460714Y-107142857D01*
X100146428Y-106600000D02*
X100146428Y-106200000D01*
X100746428Y-106457142D01*
D10*
X95119047Y-105871428D02*
X95880952Y-105871428D01*
X95500000Y-106252380D02*
X95500000Y-105490476D01*
%TO.C,R6*%
D12*
X85571428Y-106800000D02*
X85285714Y-107000000D01*
X85571428Y-107142857D02*
X84971428Y-107142857D01*
X84971428Y-106914285D01*
X85000000Y-106857142D01*
X85028571Y-106828571D01*
X85085714Y-106800000D01*
X85171428Y-106800000D01*
X85228571Y-106828571D01*
X85257142Y-106857142D01*
X85285714Y-106914285D01*
X85285714Y-107142857D01*
X84971428Y-106285714D02*
X84971428Y-106400000D01*
X85000000Y-106457142D01*
X85028571Y-106485714D01*
X85114285Y-106542857D01*
X85228571Y-106571428D01*
X85457142Y-106571428D01*
X85514285Y-106542857D01*
X85542857Y-106514285D01*
X85571428Y-106457142D01*
X85571428Y-106342857D01*
X85542857Y-106285714D01*
X85514285Y-106257142D01*
X85457142Y-106228571D01*
X85314285Y-106228571D01*
X85257142Y-106257142D01*
X85228571Y-106285714D01*
X85200000Y-106342857D01*
X85200000Y-106457142D01*
X85228571Y-106514285D01*
X85257142Y-106542857D01*
X85314285Y-106571428D01*
D10*
X82119047Y-105371428D02*
X82880952Y-105371428D01*
X82500000Y-105752380D02*
X82500000Y-104990476D01*
%TO.C,R5*%
D12*
X83375000Y-82346428D02*
X83175000Y-82060714D01*
X83032142Y-82346428D02*
X83032142Y-81746428D01*
X83260714Y-81746428D01*
X83317857Y-81775000D01*
X83346428Y-81803571D01*
X83375000Y-81860714D01*
X83375000Y-81946428D01*
X83346428Y-82003571D01*
X83317857Y-82032142D01*
X83260714Y-82060714D01*
X83032142Y-82060714D01*
X83917857Y-81746428D02*
X83632142Y-81746428D01*
X83603571Y-82032142D01*
X83632142Y-82003571D01*
X83689285Y-81975000D01*
X83832142Y-81975000D01*
X83889285Y-82003571D01*
X83917857Y-82032142D01*
X83946428Y-82089285D01*
X83946428Y-82232142D01*
X83917857Y-82289285D01*
X83889285Y-82317857D01*
X83832142Y-82346428D01*
X83689285Y-82346428D01*
X83632142Y-82317857D01*
X83603571Y-82289285D01*
D10*
X82852380Y-80293095D02*
X82852380Y-80769285D01*
X83328571Y-80816904D01*
X83280952Y-80769285D01*
X83233333Y-80674047D01*
X83233333Y-80435952D01*
X83280952Y-80340714D01*
X83328571Y-80293095D01*
X83423809Y-80245476D01*
X83661904Y-80245476D01*
X83757142Y-80293095D01*
X83804761Y-80340714D01*
X83852380Y-80435952D01*
X83852380Y-80674047D01*
X83804761Y-80769285D01*
X83757142Y-80816904D01*
X83852380Y-79816904D02*
X82852380Y-79816904D01*
X83852380Y-79245476D02*
X83280952Y-79674047D01*
X82852380Y-79245476D02*
X83423809Y-79816904D01*
X82852380Y-78388333D02*
X82852380Y-78578809D01*
X82900000Y-78674047D01*
X82947619Y-78721666D01*
X83090476Y-78816904D01*
X83280952Y-78864523D01*
X83661904Y-78864523D01*
X83757142Y-78816904D01*
X83804761Y-78769285D01*
X83852380Y-78674047D01*
X83852380Y-78483571D01*
X83804761Y-78388333D01*
X83757142Y-78340714D01*
X83661904Y-78293095D01*
X83423809Y-78293095D01*
X83328571Y-78340714D01*
X83280952Y-78388333D01*
X83233333Y-78483571D01*
X83233333Y-78674047D01*
X83280952Y-78769285D01*
X83328571Y-78816904D01*
X83423809Y-78864523D01*
%TO.C,R4*%
D12*
X107300000Y-77321428D02*
X107100000Y-77035714D01*
X106957142Y-77321428D02*
X106957142Y-76721428D01*
X107185714Y-76721428D01*
X107242857Y-76750000D01*
X107271428Y-76778571D01*
X107300000Y-76835714D01*
X107300000Y-76921428D01*
X107271428Y-76978571D01*
X107242857Y-77007142D01*
X107185714Y-77035714D01*
X106957142Y-77035714D01*
X107814285Y-76921428D02*
X107814285Y-77321428D01*
X107671428Y-76692857D02*
X107528571Y-77121428D01*
X107900000Y-77121428D01*
D10*
X107852380Y-80351904D02*
X107852380Y-80923333D01*
X107852380Y-80637619D02*
X106852380Y-80637619D01*
X106995238Y-80732857D01*
X107090476Y-80828095D01*
X107138095Y-80923333D01*
X107852380Y-79923333D02*
X106852380Y-79923333D01*
X107566666Y-79590000D01*
X106852380Y-79256666D01*
X107852380Y-79256666D01*
X106852380Y-78304285D02*
X106852380Y-78780476D01*
X107328571Y-78828095D01*
X107280952Y-78780476D01*
X107233333Y-78685238D01*
X107233333Y-78447142D01*
X107280952Y-78351904D01*
X107328571Y-78304285D01*
X107423809Y-78256666D01*
X107661904Y-78256666D01*
X107757142Y-78304285D01*
X107804761Y-78351904D01*
X107852380Y-78447142D01*
X107852380Y-78685238D01*
X107804761Y-78780476D01*
X107757142Y-78828095D01*
%TO.C,R3*%
D12*
X86700000Y-82321428D02*
X86500000Y-82035714D01*
X86357142Y-82321428D02*
X86357142Y-81721428D01*
X86585714Y-81721428D01*
X86642857Y-81750000D01*
X86671428Y-81778571D01*
X86700000Y-81835714D01*
X86700000Y-81921428D01*
X86671428Y-81978571D01*
X86642857Y-82007142D01*
X86585714Y-82035714D01*
X86357142Y-82035714D01*
X86900000Y-81721428D02*
X87271428Y-81721428D01*
X87071428Y-81950000D01*
X87157142Y-81950000D01*
X87214285Y-81978571D01*
X87242857Y-82007142D01*
X87271428Y-82064285D01*
X87271428Y-82207142D01*
X87242857Y-82264285D01*
X87214285Y-82292857D01*
X87157142Y-82321428D01*
X86985714Y-82321428D01*
X86928571Y-82292857D01*
X86900000Y-82264285D01*
D10*
X86347619Y-80771904D02*
X86300000Y-80724285D01*
X86252380Y-80629047D01*
X86252380Y-80390952D01*
X86300000Y-80295714D01*
X86347619Y-80248095D01*
X86442857Y-80200476D01*
X86538095Y-80200476D01*
X86680952Y-80248095D01*
X87252380Y-80819523D01*
X87252380Y-80200476D01*
X86585714Y-79343333D02*
X87252380Y-79343333D01*
X86204761Y-79581428D02*
X86919047Y-79819523D01*
X86919047Y-79200476D01*
X87252380Y-78819523D02*
X86252380Y-78819523D01*
X87252380Y-78248095D02*
X86680952Y-78676666D01*
X86252380Y-78248095D02*
X86823809Y-78819523D01*
%TO.C,R2*%
D12*
X104125000Y-77326428D02*
X103925000Y-77040714D01*
X103782142Y-77326428D02*
X103782142Y-76726428D01*
X104010714Y-76726428D01*
X104067857Y-76755000D01*
X104096428Y-76783571D01*
X104125000Y-76840714D01*
X104125000Y-76926428D01*
X104096428Y-76983571D01*
X104067857Y-77012142D01*
X104010714Y-77040714D01*
X103782142Y-77040714D01*
X104353571Y-76783571D02*
X104382142Y-76755000D01*
X104439285Y-76726428D01*
X104582142Y-76726428D01*
X104639285Y-76755000D01*
X104667857Y-76783571D01*
X104696428Y-76840714D01*
X104696428Y-76897857D01*
X104667857Y-76983571D01*
X104325000Y-77326428D01*
X104696428Y-77326428D01*
D10*
X104010714Y-80856904D02*
X104677380Y-80856904D01*
X103629761Y-81095000D02*
X104344047Y-81333095D01*
X104344047Y-80714047D01*
X103677380Y-80428333D02*
X103677380Y-79761666D01*
X104677380Y-80190238D01*
X103677380Y-79190238D02*
X103677380Y-79095000D01*
X103725000Y-78999761D01*
X103772619Y-78952142D01*
X103867857Y-78904523D01*
X104058333Y-78856904D01*
X104296428Y-78856904D01*
X104486904Y-78904523D01*
X104582142Y-78952142D01*
X104629761Y-78999761D01*
X104677380Y-79095000D01*
X104677380Y-79190238D01*
X104629761Y-79285476D01*
X104582142Y-79333095D01*
X104486904Y-79380714D01*
X104296428Y-79428333D01*
X104058333Y-79428333D01*
X103867857Y-79380714D01*
X103772619Y-79333095D01*
X103725000Y-79285476D01*
X103677380Y-79190238D01*
X104677380Y-77856904D02*
X104201190Y-78190238D01*
X104677380Y-78428333D02*
X103677380Y-78428333D01*
X103677380Y-78047380D01*
X103725000Y-77952142D01*
X103772619Y-77904523D01*
X103867857Y-77856904D01*
X104010714Y-77856904D01*
X104105952Y-77904523D01*
X104153571Y-77952142D01*
X104201190Y-78047380D01*
X104201190Y-78428333D01*
%TO.C,R1*%
D12*
X100900000Y-77321428D02*
X100700000Y-77035714D01*
X100557142Y-77321428D02*
X100557142Y-76721428D01*
X100785714Y-76721428D01*
X100842857Y-76750000D01*
X100871428Y-76778571D01*
X100900000Y-76835714D01*
X100900000Y-76921428D01*
X100871428Y-76978571D01*
X100842857Y-77007142D01*
X100785714Y-77035714D01*
X100557142Y-77035714D01*
X101471428Y-77321428D02*
X101128571Y-77321428D01*
X101300000Y-77321428D02*
X101300000Y-76721428D01*
X101242857Y-76807142D01*
X101185714Y-76864285D01*
X101128571Y-76892857D01*
D10*
X101452380Y-79875714D02*
X101452380Y-80447142D01*
X101452380Y-80161428D02*
X100452380Y-80161428D01*
X100595238Y-80256666D01*
X100690476Y-80351904D01*
X100738095Y-80447142D01*
X101452380Y-79447142D02*
X100452380Y-79447142D01*
X101166666Y-79113809D01*
X100452380Y-78780476D01*
X101452380Y-78780476D01*
%TO.C,J2*%
X77162380Y-30233333D02*
X77876666Y-30233333D01*
X78019523Y-30280952D01*
X78114761Y-30376190D01*
X78162380Y-30519047D01*
X78162380Y-30614285D01*
X77257619Y-29804761D02*
X77210000Y-29757142D01*
X77162380Y-29661904D01*
X77162380Y-29423809D01*
X77210000Y-29328571D01*
X77257619Y-29280952D01*
X77352857Y-29233333D01*
X77448095Y-29233333D01*
X77590952Y-29280952D01*
X78162380Y-29852380D01*
X78162380Y-29233333D01*
%TO.C,J1*%
X93447380Y-121008333D02*
X94161666Y-121008333D01*
X94304523Y-121055952D01*
X94399761Y-121151190D01*
X94447380Y-121294047D01*
X94447380Y-121389285D01*
X94447380Y-120008333D02*
X94447380Y-120579761D01*
X94447380Y-120294047D02*
X93447380Y-120294047D01*
X93590238Y-120389285D01*
X93685476Y-120484523D01*
X93733095Y-120579761D01*
X104896428Y-115586904D02*
X104896428Y-114825000D01*
X105277380Y-115205952D02*
X104515476Y-115205952D01*
X105277380Y-113825000D02*
X105277380Y-114396428D01*
X105277380Y-114110714D02*
X104277380Y-114110714D01*
X104420238Y-114205952D01*
X104515476Y-114301190D01*
X104563095Y-114396428D01*
X104372619Y-113444047D02*
X104325000Y-113396428D01*
X104277380Y-113301190D01*
X104277380Y-113063095D01*
X104325000Y-112967857D01*
X104372619Y-112920238D01*
X104467857Y-112872619D01*
X104563095Y-112872619D01*
X104705952Y-112920238D01*
X105277380Y-113491666D01*
X105277380Y-112872619D01*
X104277380Y-112586904D02*
X105277380Y-112253571D01*
X104277380Y-111920238D01*
X80896428Y-115586904D02*
X80896428Y-114825000D01*
X81277380Y-113825000D02*
X81277380Y-114396428D01*
X81277380Y-114110714D02*
X80277380Y-114110714D01*
X80420238Y-114205952D01*
X80515476Y-114301190D01*
X80563095Y-114396428D01*
X80372619Y-113444047D02*
X80325000Y-113396428D01*
X80277380Y-113301190D01*
X80277380Y-113063095D01*
X80325000Y-112967857D01*
X80372619Y-112920238D01*
X80467857Y-112872619D01*
X80563095Y-112872619D01*
X80705952Y-112920238D01*
X81277380Y-113491666D01*
X81277380Y-112872619D01*
X80277380Y-112586904D02*
X81277380Y-112253571D01*
X80277380Y-111920238D01*
X82777380Y-116896428D02*
X82301190Y-117229761D01*
X82777380Y-117467857D02*
X81777380Y-117467857D01*
X81777380Y-117086904D01*
X81825000Y-116991666D01*
X81872619Y-116944047D01*
X81967857Y-116896428D01*
X82110714Y-116896428D01*
X82205952Y-116944047D01*
X82253571Y-116991666D01*
X82301190Y-117086904D01*
X82301190Y-117467857D01*
X82253571Y-116467857D02*
X82253571Y-116134523D01*
X82777380Y-115991666D02*
X82777380Y-116467857D01*
X81777380Y-116467857D01*
X81777380Y-115991666D01*
X82777380Y-115563095D02*
X81777380Y-115563095D01*
X81777380Y-115325000D01*
X81825000Y-115182142D01*
X81920238Y-115086904D01*
X82015476Y-115039285D01*
X82205952Y-114991666D01*
X82348809Y-114991666D01*
X82539285Y-115039285D01*
X82634523Y-115086904D01*
X82729761Y-115182142D01*
X82777380Y-115325000D01*
X82777380Y-115563095D01*
X82729761Y-113848809D02*
X82777380Y-113705952D01*
X82777380Y-113467857D01*
X82729761Y-113372619D01*
X82682142Y-113325000D01*
X82586904Y-113277380D01*
X82491666Y-113277380D01*
X82396428Y-113325000D01*
X82348809Y-113372619D01*
X82301190Y-113467857D01*
X82253571Y-113658333D01*
X82205952Y-113753571D01*
X82158333Y-113801190D01*
X82063095Y-113848809D01*
X81967857Y-113848809D01*
X81872619Y-113801190D01*
X81825000Y-113753571D01*
X81777380Y-113658333D01*
X81777380Y-113420238D01*
X81825000Y-113277380D01*
X81777380Y-112991666D02*
X81777380Y-112420238D01*
X82777380Y-112705952D02*
X81777380Y-112705952D01*
X82777380Y-111515476D02*
X82301190Y-111848809D01*
X82777380Y-112086904D02*
X81777380Y-112086904D01*
X81777380Y-111705952D01*
X81825000Y-111610714D01*
X81872619Y-111563095D01*
X81967857Y-111515476D01*
X82110714Y-111515476D01*
X82205952Y-111563095D01*
X82253571Y-111610714D01*
X82301190Y-111705952D01*
X82301190Y-112086904D01*
X82777380Y-111086904D02*
X81777380Y-111086904D01*
X82777380Y-110610714D02*
X81777380Y-110610714D01*
X81777380Y-110229761D01*
X81825000Y-110134523D01*
X81872619Y-110086904D01*
X81967857Y-110039285D01*
X82110714Y-110039285D01*
X82205952Y-110086904D01*
X82253571Y-110134523D01*
X82301190Y-110229761D01*
X82301190Y-110610714D01*
X82253571Y-109610714D02*
X82253571Y-109277380D01*
X82777380Y-109134523D02*
X82777380Y-109610714D01*
X81777380Y-109610714D01*
X81777380Y-109134523D01*
%TO.C,C12*%
X79147442Y-71172657D02*
X79195061Y-71220276D01*
X79242680Y-71363133D01*
X79242680Y-71458371D01*
X79195061Y-71601228D01*
X79099823Y-71696466D01*
X79004585Y-71744085D01*
X78814109Y-71791704D01*
X78671252Y-71791704D01*
X78480776Y-71744085D01*
X78385538Y-71696466D01*
X78290300Y-71601228D01*
X78242680Y-71458371D01*
X78242680Y-71363133D01*
X78290300Y-71220276D01*
X78337919Y-71172657D01*
X79242680Y-70220276D02*
X79242680Y-70791704D01*
X79242680Y-70505990D02*
X78242680Y-70505990D01*
X78385538Y-70601228D01*
X78480776Y-70696466D01*
X78528395Y-70791704D01*
X78337919Y-69839323D02*
X78290300Y-69791704D01*
X78242680Y-69696466D01*
X78242680Y-69458371D01*
X78290300Y-69363133D01*
X78337919Y-69315514D01*
X78433157Y-69267895D01*
X78528395Y-69267895D01*
X78671252Y-69315514D01*
X79242680Y-69886942D01*
X79242680Y-69267895D01*
X82039220Y-72313021D02*
X82039220Y-72884450D01*
X82039220Y-72598736D02*
X81039220Y-72598736D01*
X81182078Y-72693974D01*
X81277316Y-72789212D01*
X81324935Y-72884450D01*
X81039220Y-71693974D02*
X81039220Y-71598736D01*
X81086840Y-71503498D01*
X81134459Y-71455879D01*
X81229697Y-71408260D01*
X81420173Y-71360640D01*
X81658268Y-71360640D01*
X81848744Y-71408260D01*
X81943982Y-71455879D01*
X81991601Y-71503498D01*
X82039220Y-71598736D01*
X82039220Y-71693974D01*
X81991601Y-71789212D01*
X81943982Y-71836831D01*
X81848744Y-71884450D01*
X81658268Y-71932069D01*
X81420173Y-71932069D01*
X81229697Y-71884450D01*
X81134459Y-71836831D01*
X81086840Y-71789212D01*
X81039220Y-71693974D01*
X81039220Y-70741593D02*
X81039220Y-70646355D01*
X81086840Y-70551117D01*
X81134459Y-70503498D01*
X81229697Y-70455879D01*
X81420173Y-70408260D01*
X81658268Y-70408260D01*
X81848744Y-70455879D01*
X81943982Y-70503498D01*
X81991601Y-70551117D01*
X82039220Y-70646355D01*
X82039220Y-70741593D01*
X81991601Y-70836831D01*
X81943982Y-70884450D01*
X81848744Y-70932069D01*
X81658268Y-70979688D01*
X81420173Y-70979688D01*
X81229697Y-70932069D01*
X81134459Y-70884450D01*
X81086840Y-70836831D01*
X81039220Y-70741593D01*
X81372554Y-69979688D02*
X82039220Y-69979688D01*
X81467792Y-69979688D02*
X81420173Y-69932069D01*
X81372554Y-69836831D01*
X81372554Y-69693974D01*
X81420173Y-69598736D01*
X81515411Y-69551117D01*
X82039220Y-69551117D01*
X81372554Y-69217783D02*
X81372554Y-68836831D01*
X82039220Y-69074926D02*
X81182078Y-69074926D01*
X81086840Y-69027307D01*
X81039220Y-68932069D01*
X81039220Y-68836831D01*
%TO.C,C9*%
X79383333Y-102157142D02*
X79335714Y-102204761D01*
X79192857Y-102252380D01*
X79097619Y-102252380D01*
X78954761Y-102204761D01*
X78859523Y-102109523D01*
X78811904Y-102014285D01*
X78764285Y-101823809D01*
X78764285Y-101680952D01*
X78811904Y-101490476D01*
X78859523Y-101395238D01*
X78954761Y-101300000D01*
X79097619Y-101252380D01*
X79192857Y-101252380D01*
X79335714Y-101300000D01*
X79383333Y-101347619D01*
X79859523Y-102252380D02*
X80050000Y-102252380D01*
X80145238Y-102204761D01*
X80192857Y-102157142D01*
X80288095Y-102014285D01*
X80335714Y-101823809D01*
X80335714Y-101442857D01*
X80288095Y-101347619D01*
X80240476Y-101300000D01*
X80145238Y-101252380D01*
X79954761Y-101252380D01*
X79859523Y-101300000D01*
X79811904Y-101347619D01*
X79764285Y-101442857D01*
X79764285Y-101680952D01*
X79811904Y-101776190D01*
X79859523Y-101823809D01*
X79954761Y-101871428D01*
X80145238Y-101871428D01*
X80240476Y-101823809D01*
X80288095Y-101776190D01*
X80335714Y-101680952D01*
%TO.C,C8*%
X103583333Y-96557142D02*
X103535714Y-96604761D01*
X103392857Y-96652380D01*
X103297619Y-96652380D01*
X103154761Y-96604761D01*
X103059523Y-96509523D01*
X103011904Y-96414285D01*
X102964285Y-96223809D01*
X102964285Y-96080952D01*
X103011904Y-95890476D01*
X103059523Y-95795238D01*
X103154761Y-95700000D01*
X103297619Y-95652380D01*
X103392857Y-95652380D01*
X103535714Y-95700000D01*
X103583333Y-95747619D01*
X104154761Y-96080952D02*
X104059523Y-96033333D01*
X104011904Y-95985714D01*
X103964285Y-95890476D01*
X103964285Y-95842857D01*
X104011904Y-95747619D01*
X104059523Y-95700000D01*
X104154761Y-95652380D01*
X104345238Y-95652380D01*
X104440476Y-95700000D01*
X104488095Y-95747619D01*
X104535714Y-95842857D01*
X104535714Y-95890476D01*
X104488095Y-95985714D01*
X104440476Y-96033333D01*
X104345238Y-96080952D01*
X104154761Y-96080952D01*
X104059523Y-96128571D01*
X104011904Y-96176190D01*
X103964285Y-96271428D01*
X103964285Y-96461904D01*
X104011904Y-96557142D01*
X104059523Y-96604761D01*
X104154761Y-96652380D01*
X104345238Y-96652380D01*
X104440476Y-96604761D01*
X104488095Y-96557142D01*
X104535714Y-96461904D01*
X104535714Y-96271428D01*
X104488095Y-96176190D01*
X104440476Y-96128571D01*
X104345238Y-96080952D01*
%TO.C,C7*%
X87166842Y-71436866D02*
X87214461Y-71484485D01*
X87262080Y-71627342D01*
X87262080Y-71722580D01*
X87214461Y-71865438D01*
X87119223Y-71960676D01*
X87023985Y-72008295D01*
X86833509Y-72055914D01*
X86690652Y-72055914D01*
X86500176Y-72008295D01*
X86404938Y-71960676D01*
X86309700Y-71865438D01*
X86262080Y-71722580D01*
X86262080Y-71627342D01*
X86309700Y-71484485D01*
X86357319Y-71436866D01*
X86262080Y-71103533D02*
X86262080Y-70436866D01*
X87262080Y-70865438D01*
X84465540Y-71820311D02*
X84465540Y-72391740D01*
X84465540Y-72106025D02*
X83465540Y-72106025D01*
X83608398Y-72201263D01*
X83703636Y-72296501D01*
X83751255Y-72391740D01*
X83465540Y-71201263D02*
X83465540Y-71106025D01*
X83513160Y-71010787D01*
X83560779Y-70963168D01*
X83656017Y-70915549D01*
X83846493Y-70867930D01*
X84084588Y-70867930D01*
X84275064Y-70915549D01*
X84370302Y-70963168D01*
X84417921Y-71010787D01*
X84465540Y-71106025D01*
X84465540Y-71201263D01*
X84417921Y-71296501D01*
X84370302Y-71344120D01*
X84275064Y-71391740D01*
X84084588Y-71439359D01*
X83846493Y-71439359D01*
X83656017Y-71391740D01*
X83560779Y-71344120D01*
X83513160Y-71296501D01*
X83465540Y-71201263D01*
X83798874Y-70439359D02*
X84465540Y-70439359D01*
X83894112Y-70439359D02*
X83846493Y-70391740D01*
X83798874Y-70296501D01*
X83798874Y-70153644D01*
X83846493Y-70058406D01*
X83941731Y-70010787D01*
X84465540Y-70010787D01*
X83798874Y-69677454D02*
X83798874Y-69296501D01*
X84465540Y-69534597D02*
X83608398Y-69534597D01*
X83513160Y-69486978D01*
X83465540Y-69391740D01*
X83465540Y-69296501D01*
%TO.C,C6*%
X100747442Y-87896466D02*
X100795061Y-87944085D01*
X100842680Y-88086942D01*
X100842680Y-88182180D01*
X100795061Y-88325038D01*
X100699823Y-88420276D01*
X100604585Y-88467895D01*
X100414109Y-88515514D01*
X100271252Y-88515514D01*
X100080776Y-88467895D01*
X99985538Y-88420276D01*
X99890300Y-88325038D01*
X99842680Y-88182180D01*
X99842680Y-88086942D01*
X99890300Y-87944085D01*
X99937919Y-87896466D01*
X99842680Y-87039323D02*
X99842680Y-87229800D01*
X99890300Y-87325038D01*
X99937919Y-87372657D01*
X100080776Y-87467895D01*
X100271252Y-87515514D01*
X100652204Y-87515514D01*
X100747442Y-87467895D01*
X100795061Y-87420276D01*
X100842680Y-87325038D01*
X100842680Y-87134561D01*
X100795061Y-87039323D01*
X100747442Y-86991704D01*
X100652204Y-86944085D01*
X100414109Y-86944085D01*
X100318871Y-86991704D01*
X100271252Y-87039323D01*
X100223633Y-87134561D01*
X100223633Y-87325038D01*
X100271252Y-87420276D01*
X100318871Y-87467895D01*
X100414109Y-87515514D01*
X103639220Y-88560640D02*
X103639220Y-89132069D01*
X103639220Y-88846355D02*
X102639220Y-88846355D01*
X102782078Y-88941593D01*
X102877316Y-89036831D01*
X102924935Y-89132069D01*
X102972554Y-88132069D02*
X103639220Y-88132069D01*
X103067792Y-88132069D02*
X103020173Y-88084450D01*
X102972554Y-87989212D01*
X102972554Y-87846355D01*
X103020173Y-87751117D01*
X103115411Y-87703498D01*
X103639220Y-87703498D01*
X102972554Y-87370164D02*
X102972554Y-86989212D01*
X103639220Y-87227307D02*
X102782078Y-87227307D01*
X102686840Y-87179688D01*
X102639220Y-87084450D01*
X102639220Y-86989212D01*
%TO.C,C5*%
X87566842Y-98636866D02*
X87614461Y-98684485D01*
X87662080Y-98827342D01*
X87662080Y-98922580D01*
X87614461Y-99065438D01*
X87519223Y-99160676D01*
X87423985Y-99208295D01*
X87233509Y-99255914D01*
X87090652Y-99255914D01*
X86900176Y-99208295D01*
X86804938Y-99160676D01*
X86709700Y-99065438D01*
X86662080Y-98922580D01*
X86662080Y-98827342D01*
X86709700Y-98684485D01*
X86757319Y-98636866D01*
X86662080Y-97732104D02*
X86662080Y-98208295D01*
X87138271Y-98255914D01*
X87090652Y-98208295D01*
X87043033Y-98113057D01*
X87043033Y-97874961D01*
X87090652Y-97779723D01*
X87138271Y-97732104D01*
X87233509Y-97684485D01*
X87471604Y-97684485D01*
X87566842Y-97732104D01*
X87614461Y-97779723D01*
X87662080Y-97874961D01*
X87662080Y-98113057D01*
X87614461Y-98208295D01*
X87566842Y-98255914D01*
X84865540Y-99496501D02*
X84865540Y-100067930D01*
X84865540Y-99782216D02*
X83865540Y-99782216D01*
X84008398Y-99877454D01*
X84103636Y-99972692D01*
X84151255Y-100067930D01*
X83865540Y-98877454D02*
X83865540Y-98782216D01*
X83913160Y-98686978D01*
X83960779Y-98639359D01*
X84056017Y-98591740D01*
X84246493Y-98544120D01*
X84484588Y-98544120D01*
X84675064Y-98591740D01*
X84770302Y-98639359D01*
X84817921Y-98686978D01*
X84865540Y-98782216D01*
X84865540Y-98877454D01*
X84817921Y-98972692D01*
X84770302Y-99020311D01*
X84675064Y-99067930D01*
X84484588Y-99115549D01*
X84246493Y-99115549D01*
X84056017Y-99067930D01*
X83960779Y-99020311D01*
X83913160Y-98972692D01*
X83865540Y-98877454D01*
X83865540Y-97925073D02*
X83865540Y-97829835D01*
X83913160Y-97734597D01*
X83960779Y-97686978D01*
X84056017Y-97639359D01*
X84246493Y-97591740D01*
X84484588Y-97591740D01*
X84675064Y-97639359D01*
X84770302Y-97686978D01*
X84817921Y-97734597D01*
X84865540Y-97829835D01*
X84865540Y-97925073D01*
X84817921Y-98020311D01*
X84770302Y-98067930D01*
X84675064Y-98115549D01*
X84484588Y-98163168D01*
X84246493Y-98163168D01*
X84056017Y-98115549D01*
X83960779Y-98067930D01*
X83913160Y-98020311D01*
X83865540Y-97925073D01*
X84198874Y-97163168D02*
X84865540Y-97163168D01*
X84294112Y-97163168D02*
X84246493Y-97115549D01*
X84198874Y-97020311D01*
X84198874Y-96877454D01*
X84246493Y-96782216D01*
X84341731Y-96734597D01*
X84865540Y-96734597D01*
X84198874Y-96401263D02*
X84198874Y-96020311D01*
X84865540Y-96258406D02*
X84008398Y-96258406D01*
X83913160Y-96210787D01*
X83865540Y-96115549D01*
X83865540Y-96020311D01*
%TO.C,C4*%
X89547442Y-70696466D02*
X89595061Y-70744085D01*
X89642680Y-70886942D01*
X89642680Y-70982180D01*
X89595061Y-71125038D01*
X89499823Y-71220276D01*
X89404585Y-71267895D01*
X89214109Y-71315514D01*
X89071252Y-71315514D01*
X88880776Y-71267895D01*
X88785538Y-71220276D01*
X88690300Y-71125038D01*
X88642680Y-70982180D01*
X88642680Y-70886942D01*
X88690300Y-70744085D01*
X88737919Y-70696466D01*
X88976014Y-69839323D02*
X89642680Y-69839323D01*
X88595061Y-70077419D02*
X89309347Y-70315514D01*
X89309347Y-69696466D01*
X92439220Y-71360640D02*
X92439220Y-71932069D01*
X92439220Y-71646355D02*
X91439220Y-71646355D01*
X91582078Y-71741593D01*
X91677316Y-71836831D01*
X91724935Y-71932069D01*
X91772554Y-70932069D02*
X92439220Y-70932069D01*
X91867792Y-70932069D02*
X91820173Y-70884450D01*
X91772554Y-70789212D01*
X91772554Y-70646355D01*
X91820173Y-70551117D01*
X91915411Y-70503498D01*
X92439220Y-70503498D01*
X91772554Y-70170164D02*
X91772554Y-69789212D01*
X92439220Y-70027307D02*
X91582078Y-70027307D01*
X91486840Y-69979688D01*
X91439220Y-69884450D01*
X91439220Y-69789212D01*
%TO.C,C3*%
X92566842Y-41636866D02*
X92614461Y-41684485D01*
X92662080Y-41827342D01*
X92662080Y-41922580D01*
X92614461Y-42065438D01*
X92519223Y-42160676D01*
X92423985Y-42208295D01*
X92233509Y-42255914D01*
X92090652Y-42255914D01*
X91900176Y-42208295D01*
X91804938Y-42160676D01*
X91709700Y-42065438D01*
X91662080Y-41922580D01*
X91662080Y-41827342D01*
X91709700Y-41684485D01*
X91757319Y-41636866D01*
X91662080Y-41303533D02*
X91662080Y-40684485D01*
X92043033Y-41017819D01*
X92043033Y-40874961D01*
X92090652Y-40779723D01*
X92138271Y-40732104D01*
X92233509Y-40684485D01*
X92471604Y-40684485D01*
X92566842Y-40732104D01*
X92614461Y-40779723D01*
X92662080Y-40874961D01*
X92662080Y-41160676D01*
X92614461Y-41255914D01*
X92566842Y-41303533D01*
X89865540Y-42496501D02*
X89865540Y-43067930D01*
X89865540Y-42782216D02*
X88865540Y-42782216D01*
X89008398Y-42877454D01*
X89103636Y-42972692D01*
X89151255Y-43067930D01*
X88865540Y-41877454D02*
X88865540Y-41782216D01*
X88913160Y-41686978D01*
X88960779Y-41639359D01*
X89056017Y-41591740D01*
X89246493Y-41544120D01*
X89484588Y-41544120D01*
X89675064Y-41591740D01*
X89770302Y-41639359D01*
X89817921Y-41686978D01*
X89865540Y-41782216D01*
X89865540Y-41877454D01*
X89817921Y-41972692D01*
X89770302Y-42020311D01*
X89675064Y-42067930D01*
X89484588Y-42115549D01*
X89246493Y-42115549D01*
X89056017Y-42067930D01*
X88960779Y-42020311D01*
X88913160Y-41972692D01*
X88865540Y-41877454D01*
X88865540Y-40925073D02*
X88865540Y-40829835D01*
X88913160Y-40734597D01*
X88960779Y-40686978D01*
X89056017Y-40639359D01*
X89246493Y-40591740D01*
X89484588Y-40591740D01*
X89675064Y-40639359D01*
X89770302Y-40686978D01*
X89817921Y-40734597D01*
X89865540Y-40829835D01*
X89865540Y-40925073D01*
X89817921Y-41020311D01*
X89770302Y-41067930D01*
X89675064Y-41115549D01*
X89484588Y-41163168D01*
X89246493Y-41163168D01*
X89056017Y-41115549D01*
X88960779Y-41067930D01*
X88913160Y-41020311D01*
X88865540Y-40925073D01*
X89198874Y-40163168D02*
X89865540Y-40163168D01*
X89294112Y-40163168D02*
X89246493Y-40115549D01*
X89198874Y-40020311D01*
X89198874Y-39877454D01*
X89246493Y-39782216D01*
X89341731Y-39734597D01*
X89865540Y-39734597D01*
X89198874Y-39401263D02*
X89198874Y-39020311D01*
X89865540Y-39258406D02*
X89008398Y-39258406D01*
X88913160Y-39210787D01*
X88865540Y-39115549D01*
X88865540Y-39020311D01*
%TO.C,C2*%
X97766842Y-41636866D02*
X97814461Y-41684485D01*
X97862080Y-41827342D01*
X97862080Y-41922580D01*
X97814461Y-42065438D01*
X97719223Y-42160676D01*
X97623985Y-42208295D01*
X97433509Y-42255914D01*
X97290652Y-42255914D01*
X97100176Y-42208295D01*
X97004938Y-42160676D01*
X96909700Y-42065438D01*
X96862080Y-41922580D01*
X96862080Y-41827342D01*
X96909700Y-41684485D01*
X96957319Y-41636866D01*
X96957319Y-41255914D02*
X96909700Y-41208295D01*
X96862080Y-41113057D01*
X96862080Y-40874961D01*
X96909700Y-40779723D01*
X96957319Y-40732104D01*
X97052557Y-40684485D01*
X97147795Y-40684485D01*
X97290652Y-40732104D01*
X97862080Y-41303533D01*
X97862080Y-40684485D01*
X95065540Y-42496501D02*
X95065540Y-43067930D01*
X95065540Y-42782216D02*
X94065540Y-42782216D01*
X94208398Y-42877454D01*
X94303636Y-42972692D01*
X94351255Y-43067930D01*
X94065540Y-41877454D02*
X94065540Y-41782216D01*
X94113160Y-41686978D01*
X94160779Y-41639359D01*
X94256017Y-41591740D01*
X94446493Y-41544120D01*
X94684588Y-41544120D01*
X94875064Y-41591740D01*
X94970302Y-41639359D01*
X95017921Y-41686978D01*
X95065540Y-41782216D01*
X95065540Y-41877454D01*
X95017921Y-41972692D01*
X94970302Y-42020311D01*
X94875064Y-42067930D01*
X94684588Y-42115549D01*
X94446493Y-42115549D01*
X94256017Y-42067930D01*
X94160779Y-42020311D01*
X94113160Y-41972692D01*
X94065540Y-41877454D01*
X94065540Y-40925073D02*
X94065540Y-40829835D01*
X94113160Y-40734597D01*
X94160779Y-40686978D01*
X94256017Y-40639359D01*
X94446493Y-40591740D01*
X94684588Y-40591740D01*
X94875064Y-40639359D01*
X94970302Y-40686978D01*
X95017921Y-40734597D01*
X95065540Y-40829835D01*
X95065540Y-40925073D01*
X95017921Y-41020311D01*
X94970302Y-41067930D01*
X94875064Y-41115549D01*
X94684588Y-41163168D01*
X94446493Y-41163168D01*
X94256017Y-41115549D01*
X94160779Y-41067930D01*
X94113160Y-41020311D01*
X94065540Y-40925073D01*
X94398874Y-40163168D02*
X95065540Y-40163168D01*
X94494112Y-40163168D02*
X94446493Y-40115549D01*
X94398874Y-40020311D01*
X94398874Y-39877454D01*
X94446493Y-39782216D01*
X94541731Y-39734597D01*
X95065540Y-39734597D01*
X94398874Y-39401263D02*
X94398874Y-39020311D01*
X95065540Y-39258406D02*
X94208398Y-39258406D01*
X94113160Y-39210787D01*
X94065540Y-39115549D01*
X94065540Y-39020311D01*
%TO.C,C1*%
X97566842Y-71436866D02*
X97614461Y-71484485D01*
X97662080Y-71627342D01*
X97662080Y-71722580D01*
X97614461Y-71865438D01*
X97519223Y-71960676D01*
X97423985Y-72008295D01*
X97233509Y-72055914D01*
X97090652Y-72055914D01*
X96900176Y-72008295D01*
X96804938Y-71960676D01*
X96709700Y-71865438D01*
X96662080Y-71722580D01*
X96662080Y-71627342D01*
X96709700Y-71484485D01*
X96757319Y-71436866D01*
X97662080Y-70484485D02*
X97662080Y-71055914D01*
X97662080Y-70770200D02*
X96662080Y-70770200D01*
X96804938Y-70865438D01*
X96900176Y-70960676D01*
X96947795Y-71055914D01*
X94865540Y-72296501D02*
X94865540Y-72867930D01*
X94865540Y-72582216D02*
X93865540Y-72582216D01*
X94008398Y-72677454D01*
X94103636Y-72772692D01*
X94151255Y-72867930D01*
X93865540Y-71677454D02*
X93865540Y-71582216D01*
X93913160Y-71486978D01*
X93960779Y-71439359D01*
X94056017Y-71391740D01*
X94246493Y-71344120D01*
X94484588Y-71344120D01*
X94675064Y-71391740D01*
X94770302Y-71439359D01*
X94817921Y-71486978D01*
X94865540Y-71582216D01*
X94865540Y-71677454D01*
X94817921Y-71772692D01*
X94770302Y-71820311D01*
X94675064Y-71867930D01*
X94484588Y-71915549D01*
X94246493Y-71915549D01*
X94056017Y-71867930D01*
X93960779Y-71820311D01*
X93913160Y-71772692D01*
X93865540Y-71677454D01*
X93865540Y-70725073D02*
X93865540Y-70629835D01*
X93913160Y-70534597D01*
X93960779Y-70486978D01*
X94056017Y-70439359D01*
X94246493Y-70391740D01*
X94484588Y-70391740D01*
X94675064Y-70439359D01*
X94770302Y-70486978D01*
X94817921Y-70534597D01*
X94865540Y-70629835D01*
X94865540Y-70725073D01*
X94817921Y-70820311D01*
X94770302Y-70867930D01*
X94675064Y-70915549D01*
X94484588Y-70963168D01*
X94246493Y-70963168D01*
X94056017Y-70915549D01*
X93960779Y-70867930D01*
X93913160Y-70820311D01*
X93865540Y-70725073D01*
X94198874Y-69963168D02*
X94865540Y-69963168D01*
X94294112Y-69963168D02*
X94246493Y-69915549D01*
X94198874Y-69820311D01*
X94198874Y-69677454D01*
X94246493Y-69582216D01*
X94341731Y-69534597D01*
X94865540Y-69534597D01*
X94198874Y-69201263D02*
X94198874Y-68820311D01*
X94865540Y-69058406D02*
X94008398Y-69058406D01*
X93913160Y-69010787D01*
X93865540Y-68915549D01*
X93865540Y-68820311D01*
%TD*%
M02*
