%TF.GenerationSoftware,KiCad,Pcbnew,(5.1.9)-1*%
%TF.CreationDate,2021-09-28T20:21:56+01:00*%
%TF.ProjectId,1222 LMNC VCO ,31323232-204c-44d4-9e43-2056434f202e,rev?*%
%TF.SameCoordinates,Original*%
%TF.FileFunction,Copper,L2,Bot*%
%TF.FilePolarity,Positive*%
%FSLAX46Y46*%
G04 Gerber Fmt 4.6, Leading zero omitted, Abs format (unit mm)*
G04 Created by KiCad (PCBNEW (5.1.9)-1) date 2021-09-28 20:21:56*
%MOMM*%
%LPD*%
G01*
G04 APERTURE LIST*
%TA.AperFunction,ComponentPad*%
%ADD10O,2.400000X1.600000*%
%TD*%
%TA.AperFunction,ComponentPad*%
%ADD11R,2.400000X1.600000*%
%TD*%
%TA.AperFunction,ComponentPad*%
%ADD12C,1.440000*%
%TD*%
%TA.AperFunction,ComponentPad*%
%ADD13O,1.700000X1.700000*%
%TD*%
%TA.AperFunction,ComponentPad*%
%ADD14R,1.700000X1.700000*%
%TD*%
%TA.AperFunction,ComponentPad*%
%ADD15O,1.600000X1.600000*%
%TD*%
%TA.AperFunction,ComponentPad*%
%ADD16C,1.600000*%
%TD*%
%TA.AperFunction,ComponentPad*%
%ADD17R,1.727200X1.727200*%
%TD*%
%TA.AperFunction,ComponentPad*%
%ADD18O,1.727200X1.727200*%
%TD*%
%TA.AperFunction,ComponentPad*%
%ADD19R,1.600000X1.600000*%
%TD*%
%TA.AperFunction,ViaPad*%
%ADD20C,0.800000*%
%TD*%
%TA.AperFunction,Conductor*%
%ADD21C,0.250000*%
%TD*%
%TA.AperFunction,Conductor*%
%ADD22C,0.320000*%
%TD*%
%TA.AperFunction,Conductor*%
%ADD23C,0.254000*%
%TD*%
%TA.AperFunction,Conductor*%
%ADD24C,0.100000*%
%TD*%
G04 APERTURE END LIST*
D10*
%TO.P,U3,16*%
%TO.N,+12V*%
X97775000Y-76285000D03*
%TO.P,U3,8*%
%TO.N,VSO*%
X90155000Y-94065000D03*
%TO.P,U3,15*%
%TO.N,CVINPUTS*%
X97775000Y-78825000D03*
%TO.P,U3,7*%
%TO.N,HighFtrack*%
X90155000Y-91525000D03*
%TO.P,U3,14*%
%TO.N,Net-(R10-Pad2)*%
X97775000Y-81365000D03*
%TO.P,U3,6*%
%TO.N,Net-(C4-Pad1)*%
X90155000Y-88985000D03*
%TO.P,U3,13*%
%TO.N,Net-(R1-Pad2)*%
X97775000Y-83905000D03*
%TO.P,U3,5*%
%TO.N,VPWM*%
X90155000Y-86445000D03*
%TO.P,U3,12*%
%TO.N,GND*%
X97775000Y-86445000D03*
%TO.P,U3,4*%
%TO.N,VP*%
X90155000Y-83905000D03*
%TO.P,U3,11*%
%TO.N,Net-(C6-Pad1)*%
X97775000Y-88985000D03*
%TO.P,U3,3*%
%TO.N,Net-(C5-Pad1)*%
X90155000Y-81365000D03*
%TO.P,U3,10*%
%TO.N,VTO*%
X97775000Y-91525000D03*
%TO.P,U3,2*%
%TO.N,Net-(R5-Pad1)*%
X90155000Y-78825000D03*
%TO.P,U3,9*%
%TO.N,Net-(U3-Pad9)*%
X97775000Y-94065000D03*
D11*
%TO.P,U3,1*%
%TO.N,Net-(R3-Pad1)*%
X90155000Y-76285000D03*
%TD*%
D10*
%TO.P,U1,14*%
%TO.N,TRIANGLEOUT*%
X97445000Y-46550000D03*
%TO.P,U1,7*%
%TO.N,VPWM*%
X89825000Y-61790000D03*
%TO.P,U1,13*%
%TO.N,TRIANGLEOUT*%
X97445000Y-49090000D03*
%TO.P,U1,6*%
%TO.N,Net-(R16-Pad2)*%
X89825000Y-59250000D03*
%TO.P,U1,12*%
%TO.N,VTO*%
X97445000Y-51630000D03*
%TO.P,U1,5*%
%TO.N,Net-(R13-Pad1)*%
X89825000Y-56710000D03*
%TO.P,U1,11*%
%TO.N,-12V*%
X97445000Y-54170000D03*
%TO.P,U1,4*%
%TO.N,+12V*%
X89825000Y-54170000D03*
%TO.P,U1,10*%
%TO.N,VSO*%
X97445000Y-56710000D03*
%TO.P,U1,3*%
%TO.N,VP*%
X89825000Y-51630000D03*
%TO.P,U1,9*%
%TO.N,RAMPOUT*%
X97445000Y-59250000D03*
%TO.P,U1,2*%
%TO.N,SQUAREOUT*%
X89825000Y-49090000D03*
%TO.P,U1,8*%
%TO.N,RAMPOUT*%
X97445000Y-61790000D03*
D11*
%TO.P,U1,1*%
%TO.N,SQUAREOUT*%
X89825000Y-46550000D03*
%TD*%
D12*
%TO.P,RV6,3*%
%TO.N,GND*%
X91320000Y-98600000D03*
%TO.P,RV6,2*%
%TO.N,Net-(R22-Pad2)*%
X93860000Y-98600000D03*
%TO.P,RV6,1*%
%TO.N,HighFtrack*%
X96400000Y-98600000D03*
%TD*%
D13*
%TO.P,TUNE,3*%
%TO.N,GND*%
X108000000Y-39400000D03*
%TO.P,TUNE,2*%
%TO.N,Net-(R18-Pad1)*%
X108000000Y-36860000D03*
D14*
%TO.P,TUNE,1*%
%TO.N,+12V*%
X108000000Y-34320000D03*
%TD*%
D13*
%TO.P,PW,3*%
%TO.N,Net-(R12-Pad1)*%
X108000000Y-48400000D03*
%TO.P,PW,2*%
%TO.N,Net-(R14-Pad2)*%
X108000000Y-45860000D03*
D14*
%TO.P,PW,1*%
%TO.N,Net-(R15-Pad2)*%
X108000000Y-43320000D03*
%TD*%
D13*
%TO.P,PW ATT,3*%
%TO.N,GND*%
X108000000Y-57400000D03*
%TO.P,PW ATT,2*%
%TO.N,Net-(R13-Pad2)*%
X108000000Y-54860000D03*
D14*
%TO.P,PW ATT,1*%
%TO.N,PWMIN*%
X108000000Y-52320000D03*
%TD*%
D12*
%TO.P,RV1,3*%
%TO.N,Net-(C5-Pad1)*%
X78800000Y-82400000D03*
%TO.P,RV1,2*%
X78800000Y-79860000D03*
%TO.P,RV1,1*%
%TO.N,Net-(R3-Pad2)*%
X78800000Y-77320000D03*
%TD*%
D15*
%TO.P,R22,2*%
%TO.N,Net-(R22-Pad2)*%
X97600000Y-103000000D03*
D16*
%TO.P,R22,1*%
%TO.N,CVINPUTS*%
X89980000Y-103000000D03*
%TD*%
D15*
%TO.P,R19,2*%
%TO.N,1voctin*%
X104200000Y-65800000D03*
D16*
%TO.P,R19,1*%
%TO.N,CVINPUTS*%
X104200000Y-73420000D03*
%TD*%
D15*
%TO.P,R18,2*%
%TO.N,CVINPUTS*%
X107400000Y-73400000D03*
D16*
%TO.P,R18,1*%
%TO.N,Net-(R18-Pad1)*%
X107400000Y-65780000D03*
%TD*%
D15*
%TO.P,R17,2*%
%TO.N,GND*%
X83400000Y-54600000D03*
D16*
%TO.P,R17,1*%
%TO.N,VPWM*%
X83400000Y-62220000D03*
%TD*%
D15*
%TO.P,R16,2*%
%TO.N,Net-(R16-Pad2)*%
X86600000Y-54600000D03*
D16*
%TO.P,R16,1*%
%TO.N,VPWM*%
X86600000Y-62220000D03*
%TD*%
D15*
%TO.P,R15,2*%
%TO.N,Net-(R15-Pad2)*%
X103800000Y-41200000D03*
D16*
%TO.P,R15,1*%
%TO.N,+12V*%
X103800000Y-33580000D03*
%TD*%
D15*
%TO.P,R14,2*%
%TO.N,Net-(R14-Pad2)*%
X100600000Y-53600000D03*
D16*
%TO.P,R14,1*%
%TO.N,Net-(R13-Pad1)*%
X100600000Y-61220000D03*
%TD*%
D15*
%TO.P,R13,2*%
%TO.N,Net-(R13-Pad2)*%
X103800000Y-53600000D03*
D16*
%TO.P,R13,1*%
%TO.N,Net-(R13-Pad1)*%
X103800000Y-61220000D03*
%TD*%
D15*
%TO.P,R12,2*%
%TO.N,GND*%
X103800000Y-43580000D03*
D16*
%TO.P,R12,1*%
%TO.N,Net-(R12-Pad1)*%
X103800000Y-51200000D03*
%TD*%
D15*
%TO.P,R11,2*%
%TO.N,GND*%
X86800000Y-93300000D03*
D16*
%TO.P,R11,1*%
%TO.N,VP*%
X86800000Y-85680000D03*
%TD*%
D15*
%TO.P,R10,2*%
%TO.N,Net-(R10-Pad2)*%
X105800000Y-85600000D03*
D16*
%TO.P,R10,1*%
%TO.N,GND*%
X105800000Y-93220000D03*
%TD*%
D15*
%TO.P,R9,2*%
%TO.N,Net-(C7-Pad1)*%
X101000000Y-65800000D03*
D16*
%TO.P,R9,1*%
%TO.N,CVINPUTS*%
X101000000Y-73420000D03*
%TD*%
D15*
%TO.P,R8,2*%
%TO.N,-12V*%
X83475000Y-93300000D03*
D16*
%TO.P,R8,1*%
%TO.N,Net-(C5-Pad1)*%
X83475000Y-85680000D03*
%TD*%
D15*
%TO.P,R7,2*%
%TO.N,Net-(J1-Pad1)*%
X94125000Y-106700000D03*
D16*
%TO.P,R7,1*%
%TO.N,-12V*%
X101745000Y-106700000D03*
%TD*%
D15*
%TO.P,R6,2*%
%TO.N,Net-(J1-Pad10)*%
X91650000Y-106700000D03*
D16*
%TO.P,R6,1*%
%TO.N,+12V*%
X84030000Y-106700000D03*
%TD*%
D15*
%TO.P,R5,2*%
%TO.N,Net-(C5-Pad1)*%
X83475000Y-75725000D03*
D16*
%TO.P,R5,1*%
%TO.N,Net-(R5-Pad1)*%
X83475000Y-83345000D03*
%TD*%
D15*
%TO.P,R4,2*%
%TO.N,+12V*%
X107400000Y-83400000D03*
D16*
%TO.P,R4,1*%
%TO.N,Net-(R1-Pad2)*%
X107400000Y-75780000D03*
%TD*%
D15*
%TO.P,R3,2*%
%TO.N,Net-(R3-Pad2)*%
X86800000Y-75700000D03*
D16*
%TO.P,R3,1*%
%TO.N,Net-(R3-Pad1)*%
X86800000Y-83320000D03*
%TD*%
D15*
%TO.P,R2,2*%
%TO.N,GND*%
X104225000Y-83405000D03*
D16*
%TO.P,R2,1*%
%TO.N,Net-(R1-Pad2)*%
X104225000Y-75785000D03*
%TD*%
D15*
%TO.P,R1,2*%
%TO.N,Net-(R1-Pad2)*%
X101000000Y-83400000D03*
D16*
%TO.P,R1,1*%
%TO.N,Net-(C1-Pad2)*%
X101000000Y-75780000D03*
%TD*%
D13*
%TO.P,J2,12*%
%TO.N,GND*%
X107980000Y-29900000D03*
%TO.P,J2,11*%
X105440000Y-29900000D03*
%TO.P,J2,10*%
%TO.N,1voctin*%
X102900000Y-29900000D03*
%TO.P,J2,9*%
%TO.N,CVIN*%
X100360000Y-29900000D03*
%TO.P,J2,8*%
%TO.N,FMINPUT*%
X97820000Y-29900000D03*
%TO.P,J2,7*%
%TO.N,SYNCIN1*%
X95280000Y-29900000D03*
%TO.P,J2,6*%
%TO.N,PWMIN*%
X92740000Y-29900000D03*
%TO.P,J2,5*%
%TO.N,TRIANGLEOUT*%
X90200000Y-29900000D03*
%TO.P,J2,4*%
%TO.N,RAMPOUT*%
X87660000Y-29900000D03*
%TO.P,J2,3*%
%TO.N,SQUAREOUT*%
X85120000Y-29900000D03*
%TO.P,J2,2*%
%TO.N,GND*%
X82580000Y-29900000D03*
D14*
%TO.P,J2,1*%
X80040000Y-29900000D03*
%TD*%
D17*
%TO.P,J1,1*%
%TO.N,Net-(J1-Pad1)*%
X88325000Y-114825000D03*
D18*
%TO.P,J1,2*%
X88325000Y-112285000D03*
%TO.P,J1,3*%
%TO.N,GND*%
X90865000Y-114825000D03*
%TO.P,J1,4*%
X90865000Y-112285000D03*
%TO.P,J1,5*%
X93405000Y-114825000D03*
%TO.P,J1,6*%
X93405000Y-112285000D03*
%TO.P,J1,7*%
X95945000Y-114825000D03*
%TO.P,J1,8*%
X95945000Y-112285000D03*
%TO.P,J1,9*%
%TO.N,Net-(J1-Pad10)*%
X98485000Y-114825000D03*
%TO.P,J1,10*%
X98485000Y-112285000D03*
%TD*%
D16*
%TO.P,C12,2*%
%TO.N,+12V*%
X80200000Y-68400000D03*
%TO.P,C12,1*%
%TO.N,GND*%
X80200000Y-73400000D03*
%TD*%
%TO.P,C9,2*%
%TO.N,-12V*%
X78300000Y-97400000D03*
D19*
%TO.P,C9,1*%
%TO.N,GND*%
X80800000Y-97400000D03*
%TD*%
D16*
%TO.P,C8,2*%
%TO.N,GND*%
X105000000Y-100600000D03*
D19*
%TO.P,C8,1*%
%TO.N,+12V*%
X102500000Y-100600000D03*
%TD*%
D16*
%TO.P,C7,2*%
%TO.N,GND*%
X85400000Y-73400000D03*
%TO.P,C7,1*%
%TO.N,Net-(C7-Pad1)*%
X85400000Y-68400000D03*
%TD*%
%TO.P,C6,2*%
%TO.N,GND*%
X101800000Y-85600000D03*
%TO.P,C6,1*%
%TO.N,Net-(C6-Pad1)*%
X101800000Y-90600000D03*
%TD*%
%TO.P,C5,2*%
%TO.N,GND*%
X85800000Y-100600000D03*
%TO.P,C5,1*%
%TO.N,Net-(C5-Pad1)*%
X85800000Y-95600000D03*
%TD*%
%TO.P,C4,2*%
%TO.N,SYNCIN1*%
X90600000Y-68400000D03*
%TO.P,C4,1*%
%TO.N,Net-(C4-Pad1)*%
X90600000Y-73400000D03*
%TD*%
%TO.P,C3,2*%
%TO.N,-12V*%
X90800000Y-43600000D03*
%TO.P,C3,1*%
%TO.N,GND*%
X90800000Y-38600000D03*
%TD*%
%TO.P,C2,2*%
%TO.N,+12V*%
X96000000Y-43600000D03*
%TO.P,C2,1*%
%TO.N,GND*%
X96000000Y-38600000D03*
%TD*%
%TO.P,C1,2*%
%TO.N,Net-(C1-Pad2)*%
X95800000Y-73400000D03*
%TO.P,C1,1*%
%TO.N,FMINPUT*%
X95800000Y-68400000D03*
%TD*%
D20*
%TO.N,VP*%
X92500000Y-78300000D03*
X93500000Y-71300000D03*
X94500000Y-56300000D03*
%TO.N,VPWM*%
X87500000Y-70800000D03*
%TO.N,VTO*%
X95000000Y-81800000D03*
X95500000Y-71300000D03*
%TD*%
D21*
%TO.N,FMINPUT*%
X101725001Y-33805001D02*
X97820000Y-29900000D01*
X95800000Y-68400000D02*
X101725001Y-62474999D01*
X101725001Y-62474999D02*
X101725001Y-33805001D01*
D22*
%TO.N,+12V*%
X107400000Y-95700000D02*
X107400000Y-83400000D01*
X102500000Y-100600000D02*
X107400000Y-95700000D01*
X106410000Y-83400000D02*
X107400000Y-83400000D01*
X99295000Y-76285000D02*
X106410000Y-83400000D01*
X97775000Y-76285000D02*
X99295000Y-76285000D01*
%TO.N,-12V*%
X78300000Y-107175202D02*
X78300000Y-97400000D01*
X87173399Y-116048601D02*
X78300000Y-107175202D01*
X99072329Y-116048601D02*
X87173399Y-116048601D01*
X101745000Y-113375930D02*
X99072329Y-116048601D01*
X101745000Y-106700000D02*
X101745000Y-113375930D01*
X82400000Y-93300000D02*
X83475000Y-93300000D01*
X78300000Y-97400000D02*
X82400000Y-93300000D01*
X91599999Y-44399999D02*
X90800000Y-43600000D01*
X91599999Y-48324999D02*
X91599999Y-44399999D01*
X97445000Y-54170000D02*
X91599999Y-48324999D01*
X93239998Y-54935198D02*
X94005196Y-54170000D01*
X83475000Y-93300000D02*
X88594990Y-88180010D01*
X88594990Y-88180010D02*
X88594990Y-73688208D01*
X94005196Y-54170000D02*
X97445000Y-54170000D01*
X93239998Y-69043200D02*
X93239998Y-54935198D01*
X88594990Y-73688208D02*
X93239998Y-69043200D01*
D21*
%TO.N,SYNCIN1*%
X94104999Y-28724999D02*
X78929999Y-28724999D01*
X78929999Y-28724999D02*
X78864999Y-28789999D01*
X78864999Y-28789999D02*
X78864999Y-32815997D01*
X82274999Y-36225997D02*
X82274999Y-56229997D01*
X95280000Y-29900000D02*
X94104999Y-28724999D01*
X82274999Y-56229997D02*
X87950011Y-61905009D01*
X78864999Y-32815997D02*
X82274999Y-36225997D01*
X87950011Y-61905009D02*
X87950011Y-65750011D01*
X87950011Y-65750011D02*
X90600000Y-68400000D01*
%TO.N,Net-(C4-Pad1)*%
X90155000Y-88985000D02*
X93225002Y-85914998D01*
X93225002Y-85914998D02*
X93225002Y-76025002D01*
X93225002Y-76025002D02*
X90600000Y-73400000D01*
%TO.N,1voctin*%
X102900000Y-29900000D02*
X105000000Y-32000000D01*
X104999999Y-65000001D02*
X104200000Y-65800000D01*
X105000000Y-32000000D02*
X104999999Y-65000001D01*
%TO.N,PWMIN*%
X105450011Y-66214991D02*
X104740001Y-66925001D01*
X97255999Y-28724999D02*
X96549991Y-29431007D01*
X93915001Y-31075001D02*
X92740000Y-29900000D01*
X102175012Y-65440014D02*
X102175012Y-33618601D01*
X96549991Y-30613599D02*
X96088589Y-31075001D01*
X96549991Y-29431007D02*
X96549991Y-30613599D01*
X98384001Y-28724999D02*
X97255999Y-28724999D01*
X98995001Y-30438591D02*
X98995001Y-29335999D01*
X98995001Y-29335999D02*
X98384001Y-28724999D01*
X102175012Y-33618601D02*
X98995001Y-30438591D01*
X103659999Y-66925001D02*
X102175012Y-65440014D01*
X105450011Y-54869989D02*
X105450011Y-66214991D01*
X108000000Y-52320000D02*
X105450011Y-54869989D01*
X96088589Y-31075001D02*
X93915001Y-31075001D01*
X104740001Y-66925001D02*
X103659999Y-66925001D01*
%TO.N,TRIANGLEOUT*%
X97445000Y-46550000D02*
X97445000Y-37145000D01*
X97445000Y-37145000D02*
X90200000Y-29900000D01*
%TO.N,RAMPOUT*%
X98970010Y-57724990D02*
X97445000Y-59250000D01*
X98970010Y-51164006D02*
X98970010Y-57724990D01*
X96868986Y-50504990D02*
X98310994Y-50504990D01*
X95919990Y-49555994D02*
X96868986Y-50504990D01*
X95919990Y-45384992D02*
X95919990Y-49555994D01*
X87660000Y-29900000D02*
X87660000Y-37125002D01*
X98310994Y-50504990D02*
X98970010Y-51164006D01*
X87660000Y-37125002D02*
X95919990Y-45384992D01*
%TO.N,SQUAREOUT*%
X85120000Y-41845000D02*
X85120000Y-29900000D01*
X89825000Y-46550000D02*
X85120000Y-41845000D01*
%TO.N,VP*%
X92500000Y-83010000D02*
X92500000Y-78300000D01*
X91605000Y-83905000D02*
X92500000Y-83010000D01*
X90155000Y-83905000D02*
X91605000Y-83905000D01*
X93500000Y-71300000D02*
X94500000Y-70300000D01*
X94500000Y-70300000D02*
X94500000Y-56300000D01*
%TO.N,VPWM*%
X87500000Y-70800000D02*
X87500000Y-63120000D01*
X87500000Y-63120000D02*
X86600000Y-62220000D01*
%TO.N,VTO*%
X94674999Y-72125001D02*
X95500000Y-71300000D01*
X94674999Y-81474999D02*
X94674999Y-72125001D01*
X95000000Y-81800000D02*
X94674999Y-81474999D01*
%TO.N,VSO*%
X95871094Y-55136094D02*
X97445000Y-56710000D01*
X93725008Y-55136094D02*
X95871094Y-55136094D01*
X93725008Y-69689992D02*
X93725008Y-55136094D01*
X91140001Y-72274999D02*
X93725008Y-69689992D01*
X93675011Y-90544989D02*
X93675011Y-74810009D01*
X90155000Y-94065000D02*
X93675011Y-90544989D01*
X93675011Y-74810009D02*
X91140001Y-72274999D01*
%TD*%
D23*
%TO.N,GND*%
X107449016Y-26032312D02*
X107880930Y-26162714D01*
X108279285Y-26374524D01*
X108628914Y-26659675D01*
X108916497Y-27007303D01*
X109131086Y-27404177D01*
X109264498Y-27835161D01*
X109315000Y-28315654D01*
X109315000Y-29253375D01*
X109175178Y-29018645D01*
X108980269Y-28802412D01*
X108746920Y-28628359D01*
X108484099Y-28503175D01*
X108336890Y-28458524D01*
X108107000Y-28579845D01*
X108107000Y-29773000D01*
X108127000Y-29773000D01*
X108127000Y-30027000D01*
X108107000Y-30027000D01*
X108107000Y-31220155D01*
X108336890Y-31341476D01*
X108484099Y-31296825D01*
X108746920Y-31171641D01*
X108980269Y-30997588D01*
X109175178Y-30781355D01*
X109315000Y-30546625D01*
X109315000Y-33035649D01*
X109301185Y-33018815D01*
X109204494Y-32939463D01*
X109094180Y-32880498D01*
X108974482Y-32844188D01*
X108850000Y-32831928D01*
X107150000Y-32831928D01*
X107025518Y-32844188D01*
X106905820Y-32880498D01*
X106795506Y-32939463D01*
X106698815Y-33018815D01*
X106619463Y-33115506D01*
X106560498Y-33225820D01*
X106524188Y-33345518D01*
X106511928Y-33470000D01*
X106511928Y-35170000D01*
X106524188Y-35294482D01*
X106560498Y-35414180D01*
X106619463Y-35524494D01*
X106698815Y-35621185D01*
X106795506Y-35700537D01*
X106905820Y-35759502D01*
X106978380Y-35781513D01*
X106846525Y-35913368D01*
X106684010Y-36156589D01*
X106572068Y-36426842D01*
X106515000Y-36713740D01*
X106515000Y-37006260D01*
X106572068Y-37293158D01*
X106684010Y-37563411D01*
X106846525Y-37806632D01*
X107053368Y-38013475D01*
X107235534Y-38135195D01*
X107118645Y-38204822D01*
X106902412Y-38399731D01*
X106728359Y-38633080D01*
X106603175Y-38895901D01*
X106558524Y-39043110D01*
X106679845Y-39273000D01*
X107873000Y-39273000D01*
X107873000Y-39253000D01*
X108127000Y-39253000D01*
X108127000Y-39273000D01*
X108147000Y-39273000D01*
X108147000Y-39527000D01*
X108127000Y-39527000D01*
X108127000Y-40720814D01*
X108356891Y-40841481D01*
X108631252Y-40744157D01*
X108881355Y-40595178D01*
X109097588Y-40400269D01*
X109271641Y-40166920D01*
X109315000Y-40075888D01*
X109315000Y-42035649D01*
X109301185Y-42018815D01*
X109204494Y-41939463D01*
X109094180Y-41880498D01*
X108974482Y-41844188D01*
X108850000Y-41831928D01*
X107150000Y-41831928D01*
X107025518Y-41844188D01*
X106905820Y-41880498D01*
X106795506Y-41939463D01*
X106698815Y-42018815D01*
X106619463Y-42115506D01*
X106560498Y-42225820D01*
X106524188Y-42345518D01*
X106511928Y-42470000D01*
X106511928Y-44170000D01*
X106524188Y-44294482D01*
X106560498Y-44414180D01*
X106619463Y-44524494D01*
X106698815Y-44621185D01*
X106795506Y-44700537D01*
X106905820Y-44759502D01*
X106978380Y-44781513D01*
X106846525Y-44913368D01*
X106684010Y-45156589D01*
X106572068Y-45426842D01*
X106515000Y-45713740D01*
X106515000Y-46006260D01*
X106572068Y-46293158D01*
X106684010Y-46563411D01*
X106846525Y-46806632D01*
X107053368Y-47013475D01*
X107227760Y-47130000D01*
X107053368Y-47246525D01*
X106846525Y-47453368D01*
X106684010Y-47696589D01*
X106572068Y-47966842D01*
X106515000Y-48253740D01*
X106515000Y-48546260D01*
X106572068Y-48833158D01*
X106684010Y-49103411D01*
X106846525Y-49346632D01*
X107053368Y-49553475D01*
X107296589Y-49715990D01*
X107566842Y-49827932D01*
X107853740Y-49885000D01*
X108146260Y-49885000D01*
X108433158Y-49827932D01*
X108703411Y-49715990D01*
X108946632Y-49553475D01*
X109153475Y-49346632D01*
X109315000Y-49104892D01*
X109315000Y-51035649D01*
X109301185Y-51018815D01*
X109204494Y-50939463D01*
X109094180Y-50880498D01*
X108974482Y-50844188D01*
X108850000Y-50831928D01*
X107150000Y-50831928D01*
X107025518Y-50844188D01*
X106905820Y-50880498D01*
X106795506Y-50939463D01*
X106698815Y-51018815D01*
X106619463Y-51115506D01*
X106560498Y-51225820D01*
X106524188Y-51345518D01*
X106511928Y-51470000D01*
X106511928Y-52733270D01*
X105759999Y-53485200D01*
X105759999Y-39756890D01*
X106558524Y-39756890D01*
X106603175Y-39904099D01*
X106728359Y-40166920D01*
X106902412Y-40400269D01*
X107118645Y-40595178D01*
X107368748Y-40744157D01*
X107643109Y-40841481D01*
X107873000Y-40720814D01*
X107873000Y-39527000D01*
X106679845Y-39527000D01*
X106558524Y-39756890D01*
X105759999Y-39756890D01*
X105760000Y-32037322D01*
X105763676Y-31999999D01*
X105760000Y-31962676D01*
X105760000Y-31962668D01*
X105749003Y-31851015D01*
X105705546Y-31707754D01*
X105634974Y-31575725D01*
X105634973Y-31575723D01*
X105563799Y-31488996D01*
X105563790Y-31488987D01*
X105540001Y-31460000D01*
X105511014Y-31436211D01*
X105459803Y-31385000D01*
X105567002Y-31385000D01*
X105567002Y-31220156D01*
X105796890Y-31341476D01*
X105944099Y-31296825D01*
X106206920Y-31171641D01*
X106440269Y-30997588D01*
X106635178Y-30781355D01*
X106710000Y-30655745D01*
X106784822Y-30781355D01*
X106979731Y-30997588D01*
X107213080Y-31171641D01*
X107475901Y-31296825D01*
X107623110Y-31341476D01*
X107853000Y-31220155D01*
X107853000Y-30027000D01*
X105567000Y-30027000D01*
X105567000Y-30047000D01*
X105313000Y-30047000D01*
X105313000Y-30027000D01*
X105293000Y-30027000D01*
X105293000Y-29773000D01*
X105313000Y-29773000D01*
X105313000Y-28579845D01*
X105567000Y-28579845D01*
X105567000Y-29773000D01*
X107853000Y-29773000D01*
X107853000Y-28579845D01*
X107623110Y-28458524D01*
X107475901Y-28503175D01*
X107213080Y-28628359D01*
X106979731Y-28802412D01*
X106784822Y-29018645D01*
X106710000Y-29144255D01*
X106635178Y-29018645D01*
X106440269Y-28802412D01*
X106206920Y-28628359D01*
X105944099Y-28503175D01*
X105796890Y-28458524D01*
X105567000Y-28579845D01*
X105313000Y-28579845D01*
X105083110Y-28458524D01*
X104935901Y-28503175D01*
X104673080Y-28628359D01*
X104439731Y-28802412D01*
X104244822Y-29018645D01*
X104175195Y-29135534D01*
X104053475Y-28953368D01*
X103846632Y-28746525D01*
X103603411Y-28584010D01*
X103333158Y-28472068D01*
X103046260Y-28415000D01*
X102753740Y-28415000D01*
X102466842Y-28472068D01*
X102196589Y-28584010D01*
X101953368Y-28746525D01*
X101746525Y-28953368D01*
X101630000Y-29127760D01*
X101513475Y-28953368D01*
X101306632Y-28746525D01*
X101063411Y-28584010D01*
X100793158Y-28472068D01*
X100506260Y-28415000D01*
X100213740Y-28415000D01*
X99926842Y-28472068D01*
X99656589Y-28584010D01*
X99453509Y-28719704D01*
X98947804Y-28214001D01*
X98924002Y-28184998D01*
X98808277Y-28090025D01*
X98676248Y-28019453D01*
X98532987Y-27975996D01*
X98421334Y-27964999D01*
X98421323Y-27964999D01*
X98384001Y-27961323D01*
X98346679Y-27964999D01*
X97293321Y-27964999D01*
X97255998Y-27961323D01*
X97218675Y-27964999D01*
X97218666Y-27964999D01*
X97107013Y-27975996D01*
X96963752Y-28019453D01*
X96831722Y-28090025D01*
X96758353Y-28150238D01*
X96715998Y-28184998D01*
X96692200Y-28213997D01*
X96186492Y-28719704D01*
X95983411Y-28584010D01*
X95713158Y-28472068D01*
X95426260Y-28415000D01*
X95133740Y-28415000D01*
X94913592Y-28458791D01*
X94668803Y-28214002D01*
X94645000Y-28184998D01*
X94529275Y-28090025D01*
X94397246Y-28019453D01*
X94253985Y-27975996D01*
X94142332Y-27964999D01*
X94142321Y-27964999D01*
X94104999Y-27961323D01*
X94067677Y-27964999D01*
X78967322Y-27964999D01*
X78929999Y-27961323D01*
X78892677Y-27964999D01*
X78892666Y-27964999D01*
X78781013Y-27975996D01*
X78637752Y-28019453D01*
X78505723Y-28090025D01*
X78389998Y-28184998D01*
X78366195Y-28214002D01*
X78354002Y-28226195D01*
X78324998Y-28249998D01*
X78282662Y-28301585D01*
X78230025Y-28365723D01*
X78159454Y-28497752D01*
X78159453Y-28497753D01*
X78115996Y-28641014D01*
X78104999Y-28752667D01*
X78104999Y-28752677D01*
X78101323Y-28789999D01*
X78104999Y-28827322D01*
X78105000Y-32778665D01*
X78101323Y-32815997D01*
X78105000Y-32853330D01*
X78115997Y-32964983D01*
X78129179Y-33008439D01*
X78159453Y-33108243D01*
X78230025Y-33240273D01*
X78274116Y-33293997D01*
X78324999Y-33355998D01*
X78353997Y-33379796D01*
X78579131Y-33604930D01*
X78348075Y-33650890D01*
X77941331Y-33819369D01*
X77575271Y-34063962D01*
X77263962Y-34375271D01*
X77019369Y-34741331D01*
X76850890Y-35148075D01*
X76765000Y-35579872D01*
X76765000Y-36020128D01*
X76850890Y-36451925D01*
X77019369Y-36858669D01*
X77263962Y-37224729D01*
X77575271Y-37536038D01*
X77941331Y-37780631D01*
X78348075Y-37949110D01*
X78779872Y-38035000D01*
X79220128Y-38035000D01*
X79651925Y-37949110D01*
X80058669Y-37780631D01*
X80424729Y-37536038D01*
X80736038Y-37224729D01*
X80980631Y-36858669D01*
X81149110Y-36451925D01*
X81195070Y-36220870D01*
X81514999Y-36540799D01*
X81515000Y-56192664D01*
X81511323Y-56229997D01*
X81525997Y-56378982D01*
X81569453Y-56522243D01*
X81640025Y-56654273D01*
X81711200Y-56740999D01*
X81734999Y-56769998D01*
X81763997Y-56793796D01*
X85919222Y-60949022D01*
X85685241Y-61105363D01*
X85485363Y-61305241D01*
X85328320Y-61540273D01*
X85220147Y-61801426D01*
X85165000Y-62078665D01*
X85165000Y-62361335D01*
X85220147Y-62638574D01*
X85328320Y-62899727D01*
X85485363Y-63134759D01*
X85685241Y-63334637D01*
X85920273Y-63491680D01*
X86181426Y-63599853D01*
X86458665Y-63655000D01*
X86740001Y-63655000D01*
X86740000Y-67885213D01*
X86671680Y-67720273D01*
X86514637Y-67485241D01*
X86314759Y-67285363D01*
X86079727Y-67128320D01*
X85818574Y-67020147D01*
X85541335Y-66965000D01*
X85258665Y-66965000D01*
X84981426Y-67020147D01*
X84720273Y-67128320D01*
X84485241Y-67285363D01*
X84285363Y-67485241D01*
X84128320Y-67720273D01*
X84020147Y-67981426D01*
X83965000Y-68258665D01*
X83965000Y-68541335D01*
X84020147Y-68818574D01*
X84128320Y-69079727D01*
X84285363Y-69314759D01*
X84485241Y-69514637D01*
X84720273Y-69671680D01*
X84981426Y-69779853D01*
X85258665Y-69835000D01*
X85541335Y-69835000D01*
X85818574Y-69779853D01*
X86079727Y-69671680D01*
X86314759Y-69514637D01*
X86514637Y-69314759D01*
X86671680Y-69079727D01*
X86740000Y-68914787D01*
X86740000Y-70096289D01*
X86696063Y-70140226D01*
X86582795Y-70309744D01*
X86504774Y-70498102D01*
X86465000Y-70698061D01*
X86465000Y-70901939D01*
X86504774Y-71101898D01*
X86582795Y-71290256D01*
X86696063Y-71459774D01*
X86840226Y-71603937D01*
X87009744Y-71717205D01*
X87198102Y-71795226D01*
X87398061Y-71835000D01*
X87601939Y-71835000D01*
X87801898Y-71795226D01*
X87990256Y-71717205D01*
X88159774Y-71603937D01*
X88303937Y-71459774D01*
X88417205Y-71290256D01*
X88495226Y-71101898D01*
X88535000Y-70901939D01*
X88535000Y-70698061D01*
X88495226Y-70498102D01*
X88417205Y-70309744D01*
X88303937Y-70140226D01*
X88260000Y-70096289D01*
X88260000Y-67134802D01*
X89201312Y-68076114D01*
X89165000Y-68258665D01*
X89165000Y-68541335D01*
X89220147Y-68818574D01*
X89328320Y-69079727D01*
X89485363Y-69314759D01*
X89685241Y-69514637D01*
X89920273Y-69671680D01*
X90181426Y-69779853D01*
X90458665Y-69835000D01*
X90741335Y-69835000D01*
X91018574Y-69779853D01*
X91279727Y-69671680D01*
X91514759Y-69514637D01*
X91714637Y-69314759D01*
X91871680Y-69079727D01*
X91979853Y-68818574D01*
X92035000Y-68541335D01*
X92035000Y-68258665D01*
X91979853Y-67981426D01*
X91871680Y-67720273D01*
X91714637Y-67485241D01*
X91514759Y-67285363D01*
X91279727Y-67128320D01*
X91018574Y-67020147D01*
X90741335Y-66965000D01*
X90458665Y-66965000D01*
X90276114Y-67001312D01*
X88710011Y-65435210D01*
X88710011Y-63034960D01*
X88873192Y-63122182D01*
X89143691Y-63204236D01*
X89354508Y-63225000D01*
X90295492Y-63225000D01*
X90506309Y-63204236D01*
X90776808Y-63122182D01*
X91026101Y-62988932D01*
X91244608Y-62809608D01*
X91423932Y-62591101D01*
X91557182Y-62341808D01*
X91639236Y-62071309D01*
X91666943Y-61790000D01*
X91639236Y-61508691D01*
X91557182Y-61238192D01*
X91423932Y-60988899D01*
X91244608Y-60770392D01*
X91026101Y-60591068D01*
X90893142Y-60520000D01*
X91026101Y-60448932D01*
X91244608Y-60269608D01*
X91423932Y-60051101D01*
X91557182Y-59801808D01*
X91639236Y-59531309D01*
X91666943Y-59250000D01*
X91639236Y-58968691D01*
X91557182Y-58698192D01*
X91423932Y-58448899D01*
X91244608Y-58230392D01*
X91026101Y-58051068D01*
X90893142Y-57980000D01*
X91026101Y-57908932D01*
X91244608Y-57729608D01*
X91423932Y-57511101D01*
X91557182Y-57261808D01*
X91639236Y-56991309D01*
X91666943Y-56710000D01*
X91639236Y-56428691D01*
X91557182Y-56158192D01*
X91423932Y-55908899D01*
X91244608Y-55690392D01*
X91026101Y-55511068D01*
X90893142Y-55440000D01*
X91026101Y-55368932D01*
X91244608Y-55189608D01*
X91423932Y-54971101D01*
X91557182Y-54721808D01*
X91639236Y-54451309D01*
X91666943Y-54170000D01*
X91639236Y-53888691D01*
X91557182Y-53618192D01*
X91423932Y-53368899D01*
X91244608Y-53150392D01*
X91026101Y-52971068D01*
X90893142Y-52900000D01*
X91026101Y-52828932D01*
X91244608Y-52649608D01*
X91423932Y-52431101D01*
X91557182Y-52181808D01*
X91639236Y-51911309D01*
X91666943Y-51630000D01*
X91639236Y-51348691D01*
X91557182Y-51078192D01*
X91423932Y-50828899D01*
X91244608Y-50610392D01*
X91026101Y-50431068D01*
X90893142Y-50360000D01*
X91026101Y-50288932D01*
X91244608Y-50109608D01*
X91423932Y-49891101D01*
X91557182Y-49641808D01*
X91611953Y-49461251D01*
X95525700Y-53375000D01*
X94044233Y-53375000D01*
X94005195Y-53371155D01*
X93966157Y-53375000D01*
X93966148Y-53375000D01*
X93849349Y-53386504D01*
X93699491Y-53431963D01*
X93561381Y-53505784D01*
X93561379Y-53505785D01*
X93561380Y-53505785D01*
X93470656Y-53580240D01*
X93470653Y-53580243D01*
X93440327Y-53605131D01*
X93415438Y-53635458D01*
X92705461Y-54345437D01*
X92675130Y-54370329D01*
X92575783Y-54491383D01*
X92536324Y-54565205D01*
X92501961Y-54629494D01*
X92456502Y-54779351D01*
X92441153Y-54935198D01*
X92444999Y-54974249D01*
X92444998Y-68713900D01*
X88060454Y-73098446D01*
X88030122Y-73123339D01*
X87930775Y-73244393D01*
X87891316Y-73318215D01*
X87856953Y-73382504D01*
X87811494Y-73532361D01*
X87796145Y-73688208D01*
X87799991Y-73727259D01*
X87799991Y-74670595D01*
X87714759Y-74585363D01*
X87479727Y-74428320D01*
X87218574Y-74320147D01*
X86941335Y-74265000D01*
X86658665Y-74265000D01*
X86480122Y-74300515D01*
X86392704Y-74213097D01*
X86636671Y-74141514D01*
X86757571Y-73886004D01*
X86826300Y-73611816D01*
X86840217Y-73329488D01*
X86798787Y-73049870D01*
X86703603Y-72783708D01*
X86636671Y-72658486D01*
X86392702Y-72586903D01*
X85579605Y-73400000D01*
X85593748Y-73414143D01*
X85414143Y-73593748D01*
X85400000Y-73579605D01*
X84586903Y-74392702D01*
X84658486Y-74636671D01*
X84913996Y-74757571D01*
X85188184Y-74826300D01*
X85470512Y-74840217D01*
X85668201Y-74810926D01*
X85528320Y-75020273D01*
X85420147Y-75281426D01*
X85365000Y-75558665D01*
X85365000Y-75841335D01*
X85420147Y-76118574D01*
X85528320Y-76379727D01*
X85685363Y-76614759D01*
X85885241Y-76814637D01*
X86120273Y-76971680D01*
X86381426Y-77079853D01*
X86658665Y-77135000D01*
X86941335Y-77135000D01*
X87218574Y-77079853D01*
X87479727Y-76971680D01*
X87714759Y-76814637D01*
X87799991Y-76729405D01*
X87799990Y-82290594D01*
X87714759Y-82205363D01*
X87479727Y-82048320D01*
X87218574Y-81940147D01*
X86941335Y-81885000D01*
X86658665Y-81885000D01*
X86381426Y-81940147D01*
X86120273Y-82048320D01*
X85885241Y-82205363D01*
X85685363Y-82405241D01*
X85528320Y-82640273D01*
X85420147Y-82901426D01*
X85365000Y-83178665D01*
X85365000Y-83461335D01*
X85420147Y-83738574D01*
X85528320Y-83999727D01*
X85685363Y-84234759D01*
X85885241Y-84434637D01*
X85983064Y-84500000D01*
X85885241Y-84565363D01*
X85685363Y-84765241D01*
X85528320Y-85000273D01*
X85420147Y-85261426D01*
X85365000Y-85538665D01*
X85365000Y-85821335D01*
X85420147Y-86098574D01*
X85528320Y-86359727D01*
X85685363Y-86594759D01*
X85885241Y-86794637D01*
X86120273Y-86951680D01*
X86381426Y-87059853D01*
X86658665Y-87115000D01*
X86941335Y-87115000D01*
X87218574Y-87059853D01*
X87479727Y-86951680D01*
X87714759Y-86794637D01*
X87799990Y-86709406D01*
X87799990Y-87850711D01*
X83757602Y-91893100D01*
X83616335Y-91865000D01*
X83333665Y-91865000D01*
X83056426Y-91920147D01*
X82795273Y-92028320D01*
X82560241Y-92185363D01*
X82360363Y-92385241D01*
X82274664Y-92513499D01*
X82244153Y-92516504D01*
X82094295Y-92561963D01*
X81956185Y-92635784D01*
X81865461Y-92710239D01*
X81865457Y-92710243D01*
X81835131Y-92735131D01*
X81810243Y-92765457D01*
X78582602Y-95993100D01*
X78441335Y-95965000D01*
X78158665Y-95965000D01*
X77881426Y-96020147D01*
X77620273Y-96128320D01*
X77385241Y-96285363D01*
X77185363Y-96485241D01*
X77028320Y-96720273D01*
X76920147Y-96981426D01*
X76865000Y-97258665D01*
X76865000Y-97541335D01*
X76920147Y-97818574D01*
X77028320Y-98079727D01*
X77185363Y-98314759D01*
X77385241Y-98514637D01*
X77505001Y-98594658D01*
X77505000Y-107136161D01*
X77501155Y-107175202D01*
X77505000Y-107214242D01*
X77505000Y-107214249D01*
X77514982Y-107315598D01*
X77516504Y-107331049D01*
X77561963Y-107480906D01*
X77635784Y-107619016D01*
X77735131Y-107740071D01*
X77765468Y-107764968D01*
X86583637Y-116583138D01*
X86608530Y-116613470D01*
X86729584Y-116712817D01*
X86867694Y-116786638D01*
X86963307Y-116815642D01*
X87017551Y-116832097D01*
X87033002Y-116833619D01*
X87134351Y-116843601D01*
X87134358Y-116843601D01*
X87173398Y-116847446D01*
X87212438Y-116843601D01*
X99033289Y-116843601D01*
X99072329Y-116847446D01*
X99111369Y-116843601D01*
X99111377Y-116843601D01*
X99228176Y-116832097D01*
X99378034Y-116786638D01*
X99516144Y-116712817D01*
X99637198Y-116613470D01*
X99662095Y-116583133D01*
X100665356Y-115579872D01*
X104765000Y-115579872D01*
X104765000Y-116020128D01*
X104850890Y-116451925D01*
X105019369Y-116858669D01*
X105263962Y-117224729D01*
X105575271Y-117536038D01*
X105941331Y-117780631D01*
X106348075Y-117949110D01*
X106779872Y-118035000D01*
X107220128Y-118035000D01*
X107651925Y-117949110D01*
X108058669Y-117780631D01*
X108424729Y-117536038D01*
X108736038Y-117224729D01*
X108980631Y-116858669D01*
X109149110Y-116451925D01*
X109235000Y-116020128D01*
X109235000Y-115579872D01*
X109149110Y-115148075D01*
X108980631Y-114741331D01*
X108736038Y-114375271D01*
X108424729Y-114063962D01*
X108058669Y-113819369D01*
X107651925Y-113650890D01*
X107220128Y-113565000D01*
X106779872Y-113565000D01*
X106348075Y-113650890D01*
X105941331Y-113819369D01*
X105575271Y-114063962D01*
X105263962Y-114375271D01*
X105019369Y-114741331D01*
X104850890Y-115148075D01*
X104765000Y-115579872D01*
X100665356Y-115579872D01*
X102279543Y-113965687D01*
X102309869Y-113940799D01*
X102334757Y-113910473D01*
X102334761Y-113910469D01*
X102409216Y-113819745D01*
X102483037Y-113681635D01*
X102528496Y-113531777D01*
X102538435Y-113430863D01*
X102540000Y-113414978D01*
X102540000Y-113414970D01*
X102543845Y-113375930D01*
X102540000Y-113336890D01*
X102540000Y-107894657D01*
X102659759Y-107814637D01*
X102859637Y-107614759D01*
X103016680Y-107379727D01*
X103124853Y-107118574D01*
X103180000Y-106841335D01*
X103180000Y-106558665D01*
X103124853Y-106281426D01*
X103016680Y-106020273D01*
X102859637Y-105785241D01*
X102659759Y-105585363D01*
X102424727Y-105428320D01*
X102163574Y-105320147D01*
X101886335Y-105265000D01*
X101603665Y-105265000D01*
X101326426Y-105320147D01*
X101065273Y-105428320D01*
X100830241Y-105585363D01*
X100630363Y-105785241D01*
X100473320Y-106020273D01*
X100365147Y-106281426D01*
X100310000Y-106558665D01*
X100310000Y-106841335D01*
X100365147Y-107118574D01*
X100473320Y-107379727D01*
X100630363Y-107614759D01*
X100830241Y-107814637D01*
X100950000Y-107894657D01*
X100950001Y-113046629D01*
X99833088Y-114163543D01*
X99813042Y-114115147D01*
X99649039Y-113869698D01*
X99440302Y-113660961D01*
X99281719Y-113555000D01*
X99440302Y-113449039D01*
X99649039Y-113240302D01*
X99813042Y-112994853D01*
X99926010Y-112722125D01*
X99983600Y-112432599D01*
X99983600Y-112137401D01*
X99926010Y-111847875D01*
X99813042Y-111575147D01*
X99649039Y-111329698D01*
X99440302Y-111120961D01*
X99194853Y-110956958D01*
X98922125Y-110843990D01*
X98632599Y-110786400D01*
X98337401Y-110786400D01*
X98047875Y-110843990D01*
X97775147Y-110956958D01*
X97529698Y-111120961D01*
X97320961Y-111329698D01*
X97210441Y-111495103D01*
X97151817Y-111396512D01*
X96955293Y-111178146D01*
X96719944Y-111002316D01*
X96454814Y-110875778D01*
X96304026Y-110830042D01*
X96072000Y-110951183D01*
X96072000Y-112158000D01*
X96092000Y-112158000D01*
X96092000Y-112412000D01*
X96072000Y-112412000D01*
X96072000Y-114698000D01*
X96092000Y-114698000D01*
X96092000Y-114952000D01*
X96072000Y-114952000D01*
X96072000Y-114972000D01*
X95818000Y-114972000D01*
X95818000Y-114952000D01*
X93532000Y-114952000D01*
X93532000Y-114972000D01*
X93278000Y-114972000D01*
X93278000Y-114952000D01*
X90992000Y-114952000D01*
X90992000Y-114972000D01*
X90738000Y-114972000D01*
X90738000Y-114952000D01*
X90718000Y-114952000D01*
X90718000Y-114698000D01*
X90738000Y-114698000D01*
X90738000Y-112412000D01*
X90992000Y-112412000D01*
X90992000Y-114698000D01*
X93278000Y-114698000D01*
X93278000Y-112412000D01*
X93532000Y-112412000D01*
X93532000Y-114698000D01*
X95818000Y-114698000D01*
X95818000Y-112412000D01*
X93532000Y-112412000D01*
X93278000Y-112412000D01*
X90992000Y-112412000D01*
X90738000Y-112412000D01*
X90718000Y-112412000D01*
X90718000Y-112158000D01*
X90738000Y-112158000D01*
X90738000Y-110951183D01*
X90992000Y-110951183D01*
X90992000Y-112158000D01*
X93278000Y-112158000D01*
X93278000Y-110951183D01*
X93532000Y-110951183D01*
X93532000Y-112158000D01*
X95818000Y-112158000D01*
X95818000Y-110951183D01*
X95585974Y-110830042D01*
X95435186Y-110875778D01*
X95170056Y-111002316D01*
X94934707Y-111178146D01*
X94738183Y-111396512D01*
X94675000Y-111502770D01*
X94611817Y-111396512D01*
X94415293Y-111178146D01*
X94179944Y-111002316D01*
X93914814Y-110875778D01*
X93764026Y-110830042D01*
X93532000Y-110951183D01*
X93278000Y-110951183D01*
X93045974Y-110830042D01*
X92895186Y-110875778D01*
X92630056Y-111002316D01*
X92394707Y-111178146D01*
X92198183Y-111396512D01*
X92135000Y-111502770D01*
X92071817Y-111396512D01*
X91875293Y-111178146D01*
X91639944Y-111002316D01*
X91374814Y-110875778D01*
X91224026Y-110830042D01*
X90992000Y-110951183D01*
X90738000Y-110951183D01*
X90505974Y-110830042D01*
X90355186Y-110875778D01*
X90090056Y-111002316D01*
X89854707Y-111178146D01*
X89658183Y-111396512D01*
X89599559Y-111495103D01*
X89489039Y-111329698D01*
X89280302Y-111120961D01*
X89034853Y-110956958D01*
X88762125Y-110843990D01*
X88472599Y-110786400D01*
X88177401Y-110786400D01*
X87887875Y-110843990D01*
X87615147Y-110956958D01*
X87369698Y-111120961D01*
X87160961Y-111329698D01*
X86996958Y-111575147D01*
X86883990Y-111847875D01*
X86826400Y-112137401D01*
X86826400Y-112432599D01*
X86883990Y-112722125D01*
X86996958Y-112994853D01*
X87160961Y-113240302D01*
X87275023Y-113354364D01*
X87217220Y-113371898D01*
X87106906Y-113430863D01*
X87010215Y-113510215D01*
X86930863Y-113606906D01*
X86871898Y-113717220D01*
X86835588Y-113836918D01*
X86823328Y-113961400D01*
X86823328Y-114574231D01*
X79095000Y-106845904D01*
X79095000Y-106558665D01*
X82595000Y-106558665D01*
X82595000Y-106841335D01*
X82650147Y-107118574D01*
X82758320Y-107379727D01*
X82915363Y-107614759D01*
X83115241Y-107814637D01*
X83350273Y-107971680D01*
X83611426Y-108079853D01*
X83888665Y-108135000D01*
X84171335Y-108135000D01*
X84448574Y-108079853D01*
X84709727Y-107971680D01*
X84944759Y-107814637D01*
X85144637Y-107614759D01*
X85301680Y-107379727D01*
X85409853Y-107118574D01*
X85465000Y-106841335D01*
X85465000Y-106558665D01*
X90215000Y-106558665D01*
X90215000Y-106841335D01*
X90270147Y-107118574D01*
X90378320Y-107379727D01*
X90535363Y-107614759D01*
X90735241Y-107814637D01*
X90970273Y-107971680D01*
X91231426Y-108079853D01*
X91508665Y-108135000D01*
X91791335Y-108135000D01*
X92068574Y-108079853D01*
X92329727Y-107971680D01*
X92564759Y-107814637D01*
X92764637Y-107614759D01*
X92887500Y-107430881D01*
X93010363Y-107614759D01*
X93210241Y-107814637D01*
X93445273Y-107971680D01*
X93706426Y-108079853D01*
X93983665Y-108135000D01*
X94266335Y-108135000D01*
X94543574Y-108079853D01*
X94804727Y-107971680D01*
X95039759Y-107814637D01*
X95239637Y-107614759D01*
X95396680Y-107379727D01*
X95504853Y-107118574D01*
X95560000Y-106841335D01*
X95560000Y-106558665D01*
X95504853Y-106281426D01*
X95396680Y-106020273D01*
X95239637Y-105785241D01*
X95039759Y-105585363D01*
X94804727Y-105428320D01*
X94543574Y-105320147D01*
X94266335Y-105265000D01*
X93983665Y-105265000D01*
X93706426Y-105320147D01*
X93445273Y-105428320D01*
X93210241Y-105585363D01*
X93010363Y-105785241D01*
X92887500Y-105969119D01*
X92764637Y-105785241D01*
X92564759Y-105585363D01*
X92329727Y-105428320D01*
X92068574Y-105320147D01*
X91791335Y-105265000D01*
X91508665Y-105265000D01*
X91231426Y-105320147D01*
X90970273Y-105428320D01*
X90735241Y-105585363D01*
X90535363Y-105785241D01*
X90378320Y-106020273D01*
X90270147Y-106281426D01*
X90215000Y-106558665D01*
X85465000Y-106558665D01*
X85409853Y-106281426D01*
X85301680Y-106020273D01*
X85144637Y-105785241D01*
X84944759Y-105585363D01*
X84709727Y-105428320D01*
X84448574Y-105320147D01*
X84171335Y-105265000D01*
X83888665Y-105265000D01*
X83611426Y-105320147D01*
X83350273Y-105428320D01*
X83115241Y-105585363D01*
X82915363Y-105785241D01*
X82758320Y-106020273D01*
X82650147Y-106281426D01*
X82595000Y-106558665D01*
X79095000Y-106558665D01*
X79095000Y-102858665D01*
X88545000Y-102858665D01*
X88545000Y-103141335D01*
X88600147Y-103418574D01*
X88708320Y-103679727D01*
X88865363Y-103914759D01*
X89065241Y-104114637D01*
X89300273Y-104271680D01*
X89561426Y-104379853D01*
X89838665Y-104435000D01*
X90121335Y-104435000D01*
X90398574Y-104379853D01*
X90659727Y-104271680D01*
X90894759Y-104114637D01*
X91094637Y-103914759D01*
X91251680Y-103679727D01*
X91359853Y-103418574D01*
X91415000Y-103141335D01*
X91415000Y-102858665D01*
X96165000Y-102858665D01*
X96165000Y-103141335D01*
X96220147Y-103418574D01*
X96328320Y-103679727D01*
X96485363Y-103914759D01*
X96685241Y-104114637D01*
X96920273Y-104271680D01*
X97181426Y-104379853D01*
X97458665Y-104435000D01*
X97741335Y-104435000D01*
X98018574Y-104379853D01*
X98279727Y-104271680D01*
X98514759Y-104114637D01*
X98714637Y-103914759D01*
X98871680Y-103679727D01*
X98979853Y-103418574D01*
X99035000Y-103141335D01*
X99035000Y-102858665D01*
X98979853Y-102581426D01*
X98871680Y-102320273D01*
X98714637Y-102085241D01*
X98514759Y-101885363D01*
X98279727Y-101728320D01*
X98018574Y-101620147D01*
X97741335Y-101565000D01*
X97458665Y-101565000D01*
X97181426Y-101620147D01*
X96920273Y-101728320D01*
X96685241Y-101885363D01*
X96485363Y-102085241D01*
X96328320Y-102320273D01*
X96220147Y-102581426D01*
X96165000Y-102858665D01*
X91415000Y-102858665D01*
X91359853Y-102581426D01*
X91251680Y-102320273D01*
X91094637Y-102085241D01*
X90894759Y-101885363D01*
X90659727Y-101728320D01*
X90398574Y-101620147D01*
X90121335Y-101565000D01*
X89838665Y-101565000D01*
X89561426Y-101620147D01*
X89300273Y-101728320D01*
X89065241Y-101885363D01*
X88865363Y-102085241D01*
X88708320Y-102320273D01*
X88600147Y-102581426D01*
X88545000Y-102858665D01*
X79095000Y-102858665D01*
X79095000Y-101592702D01*
X84986903Y-101592702D01*
X85058486Y-101836671D01*
X85313996Y-101957571D01*
X85588184Y-102026300D01*
X85870512Y-102040217D01*
X86150130Y-101998787D01*
X86416292Y-101903603D01*
X86541514Y-101836671D01*
X86613097Y-101592702D01*
X85800000Y-100779605D01*
X84986903Y-101592702D01*
X79095000Y-101592702D01*
X79095000Y-100670512D01*
X84359783Y-100670512D01*
X84401213Y-100950130D01*
X84496397Y-101216292D01*
X84563329Y-101341514D01*
X84807298Y-101413097D01*
X85620395Y-100600000D01*
X85979605Y-100600000D01*
X86792702Y-101413097D01*
X87036671Y-101341514D01*
X87157571Y-101086004D01*
X87226300Y-100811816D01*
X87240217Y-100529488D01*
X87198787Y-100249870D01*
X87103603Y-99983708D01*
X87036671Y-99858486D01*
X86792702Y-99786903D01*
X85979605Y-100600000D01*
X85620395Y-100600000D01*
X84807298Y-99786903D01*
X84563329Y-99858486D01*
X84442429Y-100113996D01*
X84373700Y-100388184D01*
X84359783Y-100670512D01*
X79095000Y-100670512D01*
X79095000Y-99607298D01*
X84986903Y-99607298D01*
X85800000Y-100420395D01*
X86613097Y-99607298D01*
X86592049Y-99535560D01*
X90564045Y-99535560D01*
X90625932Y-99771368D01*
X90867790Y-99884266D01*
X91127027Y-99947811D01*
X91393680Y-99959561D01*
X91657501Y-99919063D01*
X91908353Y-99827875D01*
X92014068Y-99771368D01*
X92075955Y-99535560D01*
X91320000Y-98779605D01*
X90564045Y-99535560D01*
X86592049Y-99535560D01*
X86541514Y-99363329D01*
X86286004Y-99242429D01*
X86011816Y-99173700D01*
X85729488Y-99159783D01*
X85449870Y-99201213D01*
X85183708Y-99296397D01*
X85058486Y-99363329D01*
X84986903Y-99607298D01*
X79095000Y-99607298D01*
X79095000Y-98594657D01*
X79214759Y-98514637D01*
X79381339Y-98348057D01*
X79410498Y-98444180D01*
X79469463Y-98554494D01*
X79548815Y-98651185D01*
X79645506Y-98730537D01*
X79755820Y-98789502D01*
X79875518Y-98825812D01*
X80000000Y-98838072D01*
X80514250Y-98835000D01*
X80673000Y-98676250D01*
X80673000Y-97527000D01*
X80927000Y-97527000D01*
X80927000Y-98676250D01*
X81085750Y-98835000D01*
X81600000Y-98838072D01*
X81724482Y-98825812D01*
X81844180Y-98789502D01*
X81954494Y-98730537D01*
X82023774Y-98673680D01*
X89960439Y-98673680D01*
X90000937Y-98937501D01*
X90092125Y-99188353D01*
X90148632Y-99294068D01*
X90384440Y-99355955D01*
X91140395Y-98600000D01*
X91499605Y-98600000D01*
X92255560Y-99355955D01*
X92491368Y-99294068D01*
X92591764Y-99078993D01*
X92659215Y-99241833D01*
X92807503Y-99463762D01*
X92996238Y-99652497D01*
X93218167Y-99800785D01*
X93464761Y-99902928D01*
X93726544Y-99955000D01*
X93993456Y-99955000D01*
X94255239Y-99902928D01*
X94501833Y-99800785D01*
X94723762Y-99652497D01*
X94912497Y-99463762D01*
X95060785Y-99241833D01*
X95130000Y-99074734D01*
X95199215Y-99241833D01*
X95347503Y-99463762D01*
X95536238Y-99652497D01*
X95758167Y-99800785D01*
X96004761Y-99902928D01*
X96266544Y-99955000D01*
X96533456Y-99955000D01*
X96795239Y-99902928D01*
X97041833Y-99800785D01*
X97263762Y-99652497D01*
X97452497Y-99463762D01*
X97600785Y-99241833D01*
X97702928Y-98995239D01*
X97755000Y-98733456D01*
X97755000Y-98466544D01*
X97702928Y-98204761D01*
X97600785Y-97958167D01*
X97452497Y-97736238D01*
X97263762Y-97547503D01*
X97041833Y-97399215D01*
X96795239Y-97297072D01*
X96533456Y-97245000D01*
X96266544Y-97245000D01*
X96004761Y-97297072D01*
X95758167Y-97399215D01*
X95536238Y-97547503D01*
X95347503Y-97736238D01*
X95199215Y-97958167D01*
X95130000Y-98125266D01*
X95060785Y-97958167D01*
X94912497Y-97736238D01*
X94723762Y-97547503D01*
X94501833Y-97399215D01*
X94255239Y-97297072D01*
X93993456Y-97245000D01*
X93726544Y-97245000D01*
X93464761Y-97297072D01*
X93218167Y-97399215D01*
X92996238Y-97547503D01*
X92807503Y-97736238D01*
X92659215Y-97958167D01*
X92589562Y-98126324D01*
X92547875Y-98011647D01*
X92491368Y-97905932D01*
X92255560Y-97844045D01*
X91499605Y-98600000D01*
X91140395Y-98600000D01*
X90384440Y-97844045D01*
X90148632Y-97905932D01*
X90035734Y-98147790D01*
X89972189Y-98407027D01*
X89960439Y-98673680D01*
X82023774Y-98673680D01*
X82051185Y-98651185D01*
X82130537Y-98554494D01*
X82189502Y-98444180D01*
X82225812Y-98324482D01*
X82238072Y-98200000D01*
X82235000Y-97685750D01*
X82213690Y-97664440D01*
X90564045Y-97664440D01*
X91320000Y-98420395D01*
X92075955Y-97664440D01*
X92014068Y-97428632D01*
X91772210Y-97315734D01*
X91512973Y-97252189D01*
X91246320Y-97240439D01*
X90982499Y-97280937D01*
X90731647Y-97372125D01*
X90625932Y-97428632D01*
X90564045Y-97664440D01*
X82213690Y-97664440D01*
X82076250Y-97527000D01*
X80927000Y-97527000D01*
X80673000Y-97527000D01*
X80653000Y-97527000D01*
X80653000Y-97273000D01*
X80673000Y-97273000D01*
X80673000Y-97253000D01*
X80927000Y-97253000D01*
X80927000Y-97273000D01*
X82076250Y-97273000D01*
X82235000Y-97114250D01*
X82238072Y-96600000D01*
X82225812Y-96475518D01*
X82189502Y-96355820D01*
X82130537Y-96245506D01*
X82051185Y-96148815D01*
X81954494Y-96069463D01*
X81844180Y-96010498D01*
X81724482Y-95974188D01*
X81600000Y-95961928D01*
X81085750Y-95965000D01*
X80927002Y-96123748D01*
X80927002Y-95965000D01*
X80859299Y-95965000D01*
X81365634Y-95458665D01*
X84365000Y-95458665D01*
X84365000Y-95741335D01*
X84420147Y-96018574D01*
X84528320Y-96279727D01*
X84685363Y-96514759D01*
X84885241Y-96714637D01*
X85120273Y-96871680D01*
X85381426Y-96979853D01*
X85658665Y-97035000D01*
X85941335Y-97035000D01*
X86218574Y-96979853D01*
X86479727Y-96871680D01*
X86714759Y-96714637D01*
X86914637Y-96514759D01*
X87071680Y-96279727D01*
X87179853Y-96018574D01*
X87235000Y-95741335D01*
X87235000Y-95458665D01*
X87179853Y-95181426D01*
X87071680Y-94920273D01*
X86927002Y-94703747D01*
X86927002Y-94569916D01*
X87149039Y-94691904D01*
X87283087Y-94651246D01*
X87537420Y-94531037D01*
X87763414Y-94363519D01*
X87952385Y-94155131D01*
X88097070Y-93913881D01*
X88191909Y-93649040D01*
X88070624Y-93427000D01*
X86927000Y-93427000D01*
X86927000Y-93447000D01*
X86673000Y-93447000D01*
X86673000Y-93427000D01*
X85529376Y-93427000D01*
X85408091Y-93649040D01*
X85502930Y-93913881D01*
X85647615Y-94155131D01*
X85656885Y-94165354D01*
X85381426Y-94220147D01*
X85120273Y-94328320D01*
X84885241Y-94485363D01*
X84685363Y-94685241D01*
X84528320Y-94920273D01*
X84420147Y-95181426D01*
X84365000Y-95458665D01*
X81365634Y-95458665D01*
X82484952Y-94339348D01*
X82560241Y-94414637D01*
X82795273Y-94571680D01*
X83056426Y-94679853D01*
X83333665Y-94735000D01*
X83616335Y-94735000D01*
X83893574Y-94679853D01*
X84154727Y-94571680D01*
X84389759Y-94414637D01*
X84589637Y-94214759D01*
X84746680Y-93979727D01*
X84854853Y-93718574D01*
X84910000Y-93441335D01*
X84910000Y-93158665D01*
X84881900Y-93017398D01*
X84948338Y-92950960D01*
X85408091Y-92950960D01*
X85529376Y-93173000D01*
X86673000Y-93173000D01*
X86673000Y-92030085D01*
X86927000Y-92030085D01*
X86927000Y-93173000D01*
X88070624Y-93173000D01*
X88191909Y-92950960D01*
X88097070Y-92686119D01*
X87952385Y-92444869D01*
X87763414Y-92236481D01*
X87537420Y-92068963D01*
X87283087Y-91948754D01*
X87149039Y-91908096D01*
X86927000Y-92030085D01*
X86673000Y-92030085D01*
X86450961Y-91908096D01*
X86316913Y-91948754D01*
X86062580Y-92068963D01*
X85836586Y-92236481D01*
X85647615Y-92444869D01*
X85502930Y-92686119D01*
X85408091Y-92950960D01*
X84948338Y-92950960D01*
X88408777Y-89490522D01*
X88422818Y-89536808D01*
X88556068Y-89786101D01*
X88735392Y-90004608D01*
X88953899Y-90183932D01*
X89086858Y-90255000D01*
X88953899Y-90326068D01*
X88735392Y-90505392D01*
X88556068Y-90723899D01*
X88422818Y-90973192D01*
X88340764Y-91243691D01*
X88313057Y-91525000D01*
X88340764Y-91806309D01*
X88422818Y-92076808D01*
X88556068Y-92326101D01*
X88735392Y-92544608D01*
X88953899Y-92723932D01*
X89086858Y-92795000D01*
X88953899Y-92866068D01*
X88735392Y-93045392D01*
X88556068Y-93263899D01*
X88422818Y-93513192D01*
X88340764Y-93783691D01*
X88313057Y-94065000D01*
X88340764Y-94346309D01*
X88422818Y-94616808D01*
X88556068Y-94866101D01*
X88735392Y-95084608D01*
X88953899Y-95263932D01*
X89203192Y-95397182D01*
X89473691Y-95479236D01*
X89684508Y-95500000D01*
X90625492Y-95500000D01*
X90836309Y-95479236D01*
X91106808Y-95397182D01*
X91356101Y-95263932D01*
X91574608Y-95084608D01*
X91753932Y-94866101D01*
X91887182Y-94616808D01*
X91969236Y-94346309D01*
X91996943Y-94065000D01*
X91969236Y-93783691D01*
X91887182Y-93513192D01*
X91850408Y-93444393D01*
X94186015Y-91108787D01*
X94215012Y-91084990D01*
X94309985Y-90969265D01*
X94380557Y-90837236D01*
X94424014Y-90693975D01*
X94435011Y-90582322D01*
X94435011Y-90582313D01*
X94438687Y-90544990D01*
X94435011Y-90507667D01*
X94435011Y-88985000D01*
X95933057Y-88985000D01*
X95960764Y-89266309D01*
X96042818Y-89536808D01*
X96176068Y-89786101D01*
X96355392Y-90004608D01*
X96573899Y-90183932D01*
X96706858Y-90255000D01*
X96573899Y-90326068D01*
X96355392Y-90505392D01*
X96176068Y-90723899D01*
X96042818Y-90973192D01*
X95960764Y-91243691D01*
X95933057Y-91525000D01*
X95960764Y-91806309D01*
X96042818Y-92076808D01*
X96176068Y-92326101D01*
X96355392Y-92544608D01*
X96573899Y-92723932D01*
X96706858Y-92795000D01*
X96573899Y-92866068D01*
X96355392Y-93045392D01*
X96176068Y-93263899D01*
X96042818Y-93513192D01*
X95960764Y-93783691D01*
X95933057Y-94065000D01*
X95960764Y-94346309D01*
X96042818Y-94616808D01*
X96176068Y-94866101D01*
X96355392Y-95084608D01*
X96573899Y-95263932D01*
X96823192Y-95397182D01*
X97093691Y-95479236D01*
X97304508Y-95500000D01*
X98245492Y-95500000D01*
X98456309Y-95479236D01*
X98726808Y-95397182D01*
X98976101Y-95263932D01*
X99194608Y-95084608D01*
X99373932Y-94866101D01*
X99507182Y-94616808D01*
X99589236Y-94346309D01*
X99616943Y-94065000D01*
X99589236Y-93783691D01*
X99507182Y-93513192D01*
X99388157Y-93290512D01*
X104359783Y-93290512D01*
X104401213Y-93570130D01*
X104496397Y-93836292D01*
X104563329Y-93961514D01*
X104807298Y-94033097D01*
X105620395Y-93220000D01*
X104807298Y-92406903D01*
X104563329Y-92478486D01*
X104442429Y-92733996D01*
X104373700Y-93008184D01*
X104359783Y-93290512D01*
X99388157Y-93290512D01*
X99373932Y-93263899D01*
X99194608Y-93045392D01*
X98976101Y-92866068D01*
X98843142Y-92795000D01*
X98976101Y-92723932D01*
X99194608Y-92544608D01*
X99373932Y-92326101D01*
X99507182Y-92076808D01*
X99589236Y-91806309D01*
X99616943Y-91525000D01*
X99589236Y-91243691D01*
X99507182Y-90973192D01*
X99373932Y-90723899D01*
X99194608Y-90505392D01*
X99137671Y-90458665D01*
X100365000Y-90458665D01*
X100365000Y-90741335D01*
X100420147Y-91018574D01*
X100528320Y-91279727D01*
X100685363Y-91514759D01*
X100885241Y-91714637D01*
X101120273Y-91871680D01*
X101381426Y-91979853D01*
X101658665Y-92035000D01*
X101941335Y-92035000D01*
X102218574Y-91979853D01*
X102479727Y-91871680D01*
X102714759Y-91714637D01*
X102914637Y-91514759D01*
X103071680Y-91279727D01*
X103179853Y-91018574D01*
X103235000Y-90741335D01*
X103235000Y-90458665D01*
X103179853Y-90181426D01*
X103071680Y-89920273D01*
X102914637Y-89685241D01*
X102714759Y-89485363D01*
X102479727Y-89328320D01*
X102218574Y-89220147D01*
X101941335Y-89165000D01*
X101658665Y-89165000D01*
X101381426Y-89220147D01*
X101120273Y-89328320D01*
X100885241Y-89485363D01*
X100685363Y-89685241D01*
X100528320Y-89920273D01*
X100420147Y-90181426D01*
X100365000Y-90458665D01*
X99137671Y-90458665D01*
X98976101Y-90326068D01*
X98843142Y-90255000D01*
X98976101Y-90183932D01*
X99194608Y-90004608D01*
X99373932Y-89786101D01*
X99507182Y-89536808D01*
X99589236Y-89266309D01*
X99616943Y-88985000D01*
X99589236Y-88703691D01*
X99507182Y-88433192D01*
X99373932Y-88183899D01*
X99194608Y-87965392D01*
X98976101Y-87786068D01*
X98848259Y-87717735D01*
X99077839Y-87567601D01*
X99279500Y-87369895D01*
X99438715Y-87136646D01*
X99549367Y-86876818D01*
X99566904Y-86794039D01*
X99456289Y-86592702D01*
X100986903Y-86592702D01*
X101058486Y-86836671D01*
X101313996Y-86957571D01*
X101588184Y-87026300D01*
X101870512Y-87040217D01*
X102150130Y-86998787D01*
X102416292Y-86903603D01*
X102541514Y-86836671D01*
X102613097Y-86592702D01*
X101800000Y-85779605D01*
X100986903Y-86592702D01*
X99456289Y-86592702D01*
X99444915Y-86572000D01*
X97902000Y-86572000D01*
X97902000Y-86592000D01*
X97648000Y-86592000D01*
X97648000Y-86572000D01*
X96105085Y-86572000D01*
X95983096Y-86794039D01*
X96000633Y-86876818D01*
X96111285Y-87136646D01*
X96270500Y-87369895D01*
X96472161Y-87567601D01*
X96701741Y-87717735D01*
X96573899Y-87786068D01*
X96355392Y-87965392D01*
X96176068Y-88183899D01*
X96042818Y-88433192D01*
X95960764Y-88703691D01*
X95933057Y-88985000D01*
X94435011Y-88985000D01*
X94435011Y-82667270D01*
X94509744Y-82717205D01*
X94698102Y-82795226D01*
X94898061Y-82835000D01*
X95101939Y-82835000D01*
X95301898Y-82795226D01*
X95490256Y-82717205D01*
X95659774Y-82603937D01*
X95803937Y-82459774D01*
X95917205Y-82290256D01*
X95995226Y-82101898D01*
X96035000Y-81901939D01*
X96035000Y-81891035D01*
X96042818Y-81916808D01*
X96176068Y-82166101D01*
X96355392Y-82384608D01*
X96573899Y-82563932D01*
X96706858Y-82635000D01*
X96573899Y-82706068D01*
X96355392Y-82885392D01*
X96176068Y-83103899D01*
X96042818Y-83353192D01*
X95960764Y-83623691D01*
X95933057Y-83905000D01*
X95960764Y-84186309D01*
X96042818Y-84456808D01*
X96176068Y-84706101D01*
X96355392Y-84924608D01*
X96573899Y-85103932D01*
X96701741Y-85172265D01*
X96472161Y-85322399D01*
X96270500Y-85520105D01*
X96111285Y-85753354D01*
X96000633Y-86013182D01*
X95983096Y-86095961D01*
X96105085Y-86318000D01*
X97648000Y-86318000D01*
X97648000Y-86298000D01*
X97902000Y-86298000D01*
X97902000Y-86318000D01*
X99444915Y-86318000D01*
X99566904Y-86095961D01*
X99549367Y-86013182D01*
X99438715Y-85753354D01*
X99279500Y-85520105D01*
X99077839Y-85322399D01*
X98848259Y-85172265D01*
X98976101Y-85103932D01*
X99194608Y-84924608D01*
X99373932Y-84706101D01*
X99507182Y-84456808D01*
X99589236Y-84186309D01*
X99616943Y-83905000D01*
X99596939Y-83701903D01*
X99620147Y-83818574D01*
X99728320Y-84079727D01*
X99885363Y-84314759D01*
X100085241Y-84514637D01*
X100320273Y-84671680D01*
X100581426Y-84779853D01*
X100730358Y-84809478D01*
X100563329Y-84858486D01*
X100442429Y-85113996D01*
X100373700Y-85388184D01*
X100359783Y-85670512D01*
X100401213Y-85950130D01*
X100496397Y-86216292D01*
X100563329Y-86341514D01*
X100807298Y-86413097D01*
X101620395Y-85600000D01*
X101979605Y-85600000D01*
X102792702Y-86413097D01*
X103036671Y-86341514D01*
X103157571Y-86086004D01*
X103226300Y-85811816D01*
X103240217Y-85529488D01*
X103198787Y-85249870D01*
X103103603Y-84983708D01*
X103036671Y-84858486D01*
X102792702Y-84786903D01*
X101979605Y-85600000D01*
X101620395Y-85600000D01*
X101606253Y-85585858D01*
X101785858Y-85406253D01*
X101800000Y-85420395D01*
X102613097Y-84607298D01*
X102541514Y-84363329D01*
X102286004Y-84242429D01*
X102180617Y-84216012D01*
X102271680Y-84079727D01*
X102379853Y-83818574D01*
X102392689Y-83754040D01*
X102833091Y-83754040D01*
X102927930Y-84018881D01*
X103072615Y-84260131D01*
X103261586Y-84468519D01*
X103487580Y-84636037D01*
X103741913Y-84756246D01*
X103875961Y-84796904D01*
X104098000Y-84674915D01*
X104098000Y-83532000D01*
X102954376Y-83532000D01*
X102833091Y-83754040D01*
X102392689Y-83754040D01*
X102435000Y-83541335D01*
X102435000Y-83258665D01*
X102379853Y-82981426D01*
X102271680Y-82720273D01*
X102114637Y-82485241D01*
X101914759Y-82285363D01*
X101679727Y-82128320D01*
X101418574Y-82020147D01*
X101141335Y-81965000D01*
X100858665Y-81965000D01*
X100581426Y-82020147D01*
X100320273Y-82128320D01*
X100085241Y-82285363D01*
X99885363Y-82485241D01*
X99728320Y-82720273D01*
X99620147Y-82981426D01*
X99565000Y-83258665D01*
X99565000Y-83541335D01*
X99566421Y-83548480D01*
X99507182Y-83353192D01*
X99373932Y-83103899D01*
X99194608Y-82885392D01*
X98976101Y-82706068D01*
X98843142Y-82635000D01*
X98976101Y-82563932D01*
X99194608Y-82384608D01*
X99373932Y-82166101D01*
X99507182Y-81916808D01*
X99589236Y-81646309D01*
X99616943Y-81365000D01*
X99589236Y-81083691D01*
X99507182Y-80813192D01*
X99373932Y-80563899D01*
X99194608Y-80345392D01*
X98976101Y-80166068D01*
X98843142Y-80095000D01*
X98976101Y-80023932D01*
X99194608Y-79844608D01*
X99373932Y-79626101D01*
X99507182Y-79376808D01*
X99589236Y-79106309D01*
X99616943Y-78825000D01*
X99589236Y-78543691D01*
X99507182Y-78273192D01*
X99373932Y-78023899D01*
X99194608Y-77805392D01*
X98976101Y-77626068D01*
X98843142Y-77555000D01*
X98976101Y-77483932D01*
X99192247Y-77306545D01*
X103926639Y-82040939D01*
X103875961Y-82013096D01*
X103741913Y-82053754D01*
X103487580Y-82173963D01*
X103261586Y-82341481D01*
X103072615Y-82549869D01*
X102927930Y-82791119D01*
X102833091Y-83055960D01*
X102954376Y-83278000D01*
X104098000Y-83278000D01*
X104098000Y-83258000D01*
X104352000Y-83258000D01*
X104352000Y-83278000D01*
X104372000Y-83278000D01*
X104372000Y-83532000D01*
X104352000Y-83532000D01*
X104352000Y-84674915D01*
X104574039Y-84796904D01*
X104620084Y-84782938D01*
X104528320Y-84920273D01*
X104420147Y-85181426D01*
X104365000Y-85458665D01*
X104365000Y-85741335D01*
X104420147Y-86018574D01*
X104528320Y-86279727D01*
X104685363Y-86514759D01*
X104885241Y-86714637D01*
X105120273Y-86871680D01*
X105381426Y-86979853D01*
X105658665Y-87035000D01*
X105941335Y-87035000D01*
X106218574Y-86979853D01*
X106479727Y-86871680D01*
X106605001Y-86787975D01*
X106605000Y-92199703D01*
X106541514Y-91983329D01*
X106286004Y-91862429D01*
X106011816Y-91793700D01*
X105729488Y-91779783D01*
X105449870Y-91821213D01*
X105183708Y-91916397D01*
X105058486Y-91983329D01*
X104986903Y-92227298D01*
X105800000Y-93040395D01*
X105814143Y-93026253D01*
X105993748Y-93205858D01*
X105979605Y-93220000D01*
X105993748Y-93234143D01*
X105814143Y-93413748D01*
X105800000Y-93399605D01*
X104986903Y-94212702D01*
X105058486Y-94456671D01*
X105313996Y-94577571D01*
X105588184Y-94646300D01*
X105870512Y-94660217D01*
X106150130Y-94618787D01*
X106416292Y-94523603D01*
X106541514Y-94456671D01*
X106605000Y-94240298D01*
X106605000Y-95370700D01*
X102813774Y-99161928D01*
X101700000Y-99161928D01*
X101575518Y-99174188D01*
X101455820Y-99210498D01*
X101345506Y-99269463D01*
X101248815Y-99348815D01*
X101169463Y-99445506D01*
X101110498Y-99555820D01*
X101074188Y-99675518D01*
X101061928Y-99800000D01*
X101061928Y-101400000D01*
X101074188Y-101524482D01*
X101110498Y-101644180D01*
X101169463Y-101754494D01*
X101248815Y-101851185D01*
X101345506Y-101930537D01*
X101455820Y-101989502D01*
X101575518Y-102025812D01*
X101700000Y-102038072D01*
X103300000Y-102038072D01*
X103424482Y-102025812D01*
X103544180Y-101989502D01*
X103654494Y-101930537D01*
X103751185Y-101851185D01*
X103830537Y-101754494D01*
X103889502Y-101644180D01*
X103905117Y-101592702D01*
X104186903Y-101592702D01*
X104258486Y-101836671D01*
X104513996Y-101957571D01*
X104788184Y-102026300D01*
X105070512Y-102040217D01*
X105350130Y-101998787D01*
X105616292Y-101903603D01*
X105741514Y-101836671D01*
X105813097Y-101592702D01*
X105000000Y-100779605D01*
X104186903Y-101592702D01*
X103905117Y-101592702D01*
X103925812Y-101524482D01*
X103938072Y-101400000D01*
X103938072Y-101392785D01*
X104007298Y-101413097D01*
X104820395Y-100600000D01*
X105179605Y-100600000D01*
X105992702Y-101413097D01*
X106236671Y-101341514D01*
X106357571Y-101086004D01*
X106426300Y-100811816D01*
X106440217Y-100529488D01*
X106398787Y-100249870D01*
X106303603Y-99983708D01*
X106236671Y-99858486D01*
X105992702Y-99786903D01*
X105179605Y-100600000D01*
X104820395Y-100600000D01*
X104806253Y-100585858D01*
X104985858Y-100406253D01*
X105000000Y-100420395D01*
X105813097Y-99607298D01*
X105741514Y-99363329D01*
X105486004Y-99242429D01*
X105211816Y-99173700D01*
X105058172Y-99166126D01*
X107934544Y-96289756D01*
X107964869Y-96264869D01*
X108064216Y-96143815D01*
X108138037Y-96005705D01*
X108183496Y-95855847D01*
X108195000Y-95739048D01*
X108195000Y-95739039D01*
X108198845Y-95700001D01*
X108195000Y-95660963D01*
X108195000Y-84594657D01*
X108314759Y-84514637D01*
X108514637Y-84314759D01*
X108671680Y-84079727D01*
X108779853Y-83818574D01*
X108835000Y-83541335D01*
X108835000Y-83258665D01*
X108779853Y-82981426D01*
X108671680Y-82720273D01*
X108514637Y-82485241D01*
X108314759Y-82285363D01*
X108079727Y-82128320D01*
X107818574Y-82020147D01*
X107541335Y-81965000D01*
X107258665Y-81965000D01*
X106981426Y-82020147D01*
X106720273Y-82128320D01*
X106485241Y-82285363D01*
X106452452Y-82318152D01*
X101314795Y-77180496D01*
X101418574Y-77159853D01*
X101679727Y-77051680D01*
X101914759Y-76894637D01*
X102114637Y-76694759D01*
X102271680Y-76459727D01*
X102379853Y-76198574D01*
X102435000Y-75921335D01*
X102435000Y-75638665D01*
X102379853Y-75361426D01*
X102271680Y-75100273D01*
X102114637Y-74865241D01*
X101914759Y-74665363D01*
X101816936Y-74600000D01*
X101914759Y-74534637D01*
X102114637Y-74334759D01*
X102271680Y-74099727D01*
X102379853Y-73838574D01*
X102435000Y-73561335D01*
X102435000Y-73278665D01*
X102765000Y-73278665D01*
X102765000Y-73561335D01*
X102820147Y-73838574D01*
X102928320Y-74099727D01*
X103085363Y-74334759D01*
X103285241Y-74534637D01*
X103399305Y-74610852D01*
X103310241Y-74670363D01*
X103110363Y-74870241D01*
X102953320Y-75105273D01*
X102845147Y-75366426D01*
X102790000Y-75643665D01*
X102790000Y-75926335D01*
X102845147Y-76203574D01*
X102953320Y-76464727D01*
X103110363Y-76699759D01*
X103310241Y-76899637D01*
X103545273Y-77056680D01*
X103806426Y-77164853D01*
X104083665Y-77220000D01*
X104366335Y-77220000D01*
X104643574Y-77164853D01*
X104904727Y-77056680D01*
X105139759Y-76899637D01*
X105339637Y-76699759D01*
X105496680Y-76464727D01*
X105604853Y-76203574D01*
X105660000Y-75926335D01*
X105660000Y-75643665D01*
X105604853Y-75366426D01*
X105496680Y-75105273D01*
X105339637Y-74870241D01*
X105139759Y-74670363D01*
X105025695Y-74594148D01*
X105114759Y-74534637D01*
X105314637Y-74334759D01*
X105471680Y-74099727D01*
X105579853Y-73838574D01*
X105635000Y-73561335D01*
X105635000Y-73278665D01*
X105631022Y-73258665D01*
X105965000Y-73258665D01*
X105965000Y-73541335D01*
X106020147Y-73818574D01*
X106128320Y-74079727D01*
X106285363Y-74314759D01*
X106485241Y-74514637D01*
X106598030Y-74590000D01*
X106485241Y-74665363D01*
X106285363Y-74865241D01*
X106128320Y-75100273D01*
X106020147Y-75361426D01*
X105965000Y-75638665D01*
X105965000Y-75921335D01*
X106020147Y-76198574D01*
X106128320Y-76459727D01*
X106285363Y-76694759D01*
X106485241Y-76894637D01*
X106720273Y-77051680D01*
X106981426Y-77159853D01*
X107258665Y-77215000D01*
X107541335Y-77215000D01*
X107818574Y-77159853D01*
X108079727Y-77051680D01*
X108314759Y-76894637D01*
X108514637Y-76694759D01*
X108671680Y-76459727D01*
X108779853Y-76198574D01*
X108835000Y-75921335D01*
X108835000Y-75638665D01*
X108779853Y-75361426D01*
X108671680Y-75100273D01*
X108514637Y-74865241D01*
X108314759Y-74665363D01*
X108201970Y-74590000D01*
X108314759Y-74514637D01*
X108514637Y-74314759D01*
X108671680Y-74079727D01*
X108779853Y-73818574D01*
X108835000Y-73541335D01*
X108835000Y-73258665D01*
X108779853Y-72981426D01*
X108671680Y-72720273D01*
X108514637Y-72485241D01*
X108314759Y-72285363D01*
X108079727Y-72128320D01*
X107818574Y-72020147D01*
X107541335Y-71965000D01*
X107258665Y-71965000D01*
X106981426Y-72020147D01*
X106720273Y-72128320D01*
X106485241Y-72285363D01*
X106285363Y-72485241D01*
X106128320Y-72720273D01*
X106020147Y-72981426D01*
X105965000Y-73258665D01*
X105631022Y-73258665D01*
X105579853Y-73001426D01*
X105471680Y-72740273D01*
X105314637Y-72505241D01*
X105114759Y-72305363D01*
X104879727Y-72148320D01*
X104618574Y-72040147D01*
X104341335Y-71985000D01*
X104058665Y-71985000D01*
X103781426Y-72040147D01*
X103520273Y-72148320D01*
X103285241Y-72305363D01*
X103085363Y-72505241D01*
X102928320Y-72740273D01*
X102820147Y-73001426D01*
X102765000Y-73278665D01*
X102435000Y-73278665D01*
X102379853Y-73001426D01*
X102271680Y-72740273D01*
X102114637Y-72505241D01*
X101914759Y-72305363D01*
X101679727Y-72148320D01*
X101418574Y-72040147D01*
X101141335Y-71985000D01*
X100858665Y-71985000D01*
X100581426Y-72040147D01*
X100320273Y-72148320D01*
X100085241Y-72305363D01*
X99885363Y-72505241D01*
X99728320Y-72740273D01*
X99620147Y-73001426D01*
X99565000Y-73278665D01*
X99565000Y-73561335D01*
X99620147Y-73838574D01*
X99728320Y-74099727D01*
X99885363Y-74334759D01*
X100085241Y-74534637D01*
X100183064Y-74600000D01*
X100085241Y-74665363D01*
X99885363Y-74865241D01*
X99728320Y-75100273D01*
X99620147Y-75361426D01*
X99584235Y-75541967D01*
X99450847Y-75501504D01*
X99379591Y-75494486D01*
X99373932Y-75483899D01*
X99194608Y-75265392D01*
X98976101Y-75086068D01*
X98726808Y-74952818D01*
X98456309Y-74870764D01*
X98245492Y-74850000D01*
X97304508Y-74850000D01*
X97093691Y-74870764D01*
X96823192Y-74952818D01*
X96573899Y-75086068D01*
X96355392Y-75265392D01*
X96176068Y-75483899D01*
X96042818Y-75733192D01*
X95960764Y-76003691D01*
X95933057Y-76285000D01*
X95960764Y-76566309D01*
X96042818Y-76836808D01*
X96176068Y-77086101D01*
X96355392Y-77304608D01*
X96573899Y-77483932D01*
X96706858Y-77555000D01*
X96573899Y-77626068D01*
X96355392Y-77805392D01*
X96176068Y-78023899D01*
X96042818Y-78273192D01*
X95960764Y-78543691D01*
X95933057Y-78825000D01*
X95960764Y-79106309D01*
X96042818Y-79376808D01*
X96176068Y-79626101D01*
X96355392Y-79844608D01*
X96573899Y-80023932D01*
X96706858Y-80095000D01*
X96573899Y-80166068D01*
X96355392Y-80345392D01*
X96176068Y-80563899D01*
X96042818Y-80813192D01*
X95960764Y-81083691D01*
X95934409Y-81351277D01*
X95917205Y-81309744D01*
X95803937Y-81140226D01*
X95659774Y-80996063D01*
X95490256Y-80882795D01*
X95434999Y-80859907D01*
X95434999Y-74790509D01*
X95658665Y-74835000D01*
X95941335Y-74835000D01*
X96218574Y-74779853D01*
X96479727Y-74671680D01*
X96714759Y-74514637D01*
X96914637Y-74314759D01*
X97071680Y-74079727D01*
X97179853Y-73818574D01*
X97235000Y-73541335D01*
X97235000Y-73258665D01*
X97179853Y-72981426D01*
X97071680Y-72720273D01*
X96914637Y-72485241D01*
X96714759Y-72285363D01*
X96479727Y-72128320D01*
X96236245Y-72027466D01*
X96303937Y-71959774D01*
X96417205Y-71790256D01*
X96495226Y-71601898D01*
X96535000Y-71401939D01*
X96535000Y-71198061D01*
X96495226Y-70998102D01*
X96417205Y-70809744D01*
X96303937Y-70640226D01*
X96159774Y-70496063D01*
X95990256Y-70382795D01*
X95801898Y-70304774D01*
X95601939Y-70265000D01*
X95398061Y-70265000D01*
X95262878Y-70291889D01*
X95260000Y-70262667D01*
X95260000Y-69729557D01*
X95381426Y-69779853D01*
X95658665Y-69835000D01*
X95941335Y-69835000D01*
X96218574Y-69779853D01*
X96479727Y-69671680D01*
X96714759Y-69514637D01*
X96914637Y-69314759D01*
X97071680Y-69079727D01*
X97179853Y-68818574D01*
X97235000Y-68541335D01*
X97235000Y-68258665D01*
X97198688Y-68076113D01*
X99565000Y-65709802D01*
X99565000Y-65941335D01*
X99620147Y-66218574D01*
X99728320Y-66479727D01*
X99885363Y-66714759D01*
X100085241Y-66914637D01*
X100320273Y-67071680D01*
X100581426Y-67179853D01*
X100858665Y-67235000D01*
X101141335Y-67235000D01*
X101418574Y-67179853D01*
X101679727Y-67071680D01*
X101914759Y-66914637D01*
X102114637Y-66714759D01*
X102218906Y-66558709D01*
X103096200Y-67436004D01*
X103119998Y-67465002D01*
X103235723Y-67559975D01*
X103367752Y-67630547D01*
X103511013Y-67674004D01*
X103622666Y-67685001D01*
X103622674Y-67685001D01*
X103659999Y-67688677D01*
X103697324Y-67685001D01*
X104702679Y-67685001D01*
X104740001Y-67688677D01*
X104777323Y-67685001D01*
X104777334Y-67685001D01*
X104888987Y-67674004D01*
X105032248Y-67630547D01*
X105164277Y-67559975D01*
X105280002Y-67465002D01*
X105303804Y-67435999D01*
X105961013Y-66778790D01*
X105990012Y-66754992D01*
X106084985Y-66639267D01*
X106155557Y-66507238D01*
X106156965Y-66502597D01*
X106285363Y-66694759D01*
X106485241Y-66894637D01*
X106720273Y-67051680D01*
X106981426Y-67159853D01*
X107258665Y-67215000D01*
X107541335Y-67215000D01*
X107818574Y-67159853D01*
X108079727Y-67051680D01*
X108314759Y-66894637D01*
X108514637Y-66694759D01*
X108671680Y-66459727D01*
X108779853Y-66198574D01*
X108835000Y-65921335D01*
X108835000Y-65638665D01*
X108779853Y-65361426D01*
X108671680Y-65100273D01*
X108514637Y-64865241D01*
X108314759Y-64665363D01*
X108079727Y-64508320D01*
X107818574Y-64400147D01*
X107541335Y-64345000D01*
X107258665Y-64345000D01*
X106981426Y-64400147D01*
X106720273Y-64508320D01*
X106485241Y-64665363D01*
X106285363Y-64865241D01*
X106210011Y-64978013D01*
X106210011Y-57756890D01*
X106558524Y-57756890D01*
X106603175Y-57904099D01*
X106728359Y-58166920D01*
X106902412Y-58400269D01*
X107118645Y-58595178D01*
X107368748Y-58744157D01*
X107643109Y-58841481D01*
X107873000Y-58720814D01*
X107873000Y-57527000D01*
X106679845Y-57527000D01*
X106558524Y-57756890D01*
X106210011Y-57756890D01*
X106210011Y-55184790D01*
X106515000Y-54879801D01*
X106515000Y-55006260D01*
X106572068Y-55293158D01*
X106684010Y-55563411D01*
X106846525Y-55806632D01*
X107053368Y-56013475D01*
X107235534Y-56135195D01*
X107118645Y-56204822D01*
X106902412Y-56399731D01*
X106728359Y-56633080D01*
X106603175Y-56895901D01*
X106558524Y-57043110D01*
X106679845Y-57273000D01*
X107873000Y-57273000D01*
X107873000Y-57253000D01*
X108127000Y-57253000D01*
X108127000Y-57273000D01*
X108147000Y-57273000D01*
X108147000Y-57527000D01*
X108127000Y-57527000D01*
X108127000Y-58720814D01*
X108356891Y-58841481D01*
X108631252Y-58744157D01*
X108881355Y-58595178D01*
X109097588Y-58400269D01*
X109271641Y-58166920D01*
X109315000Y-58075888D01*
X109315001Y-115766485D01*
X109267688Y-116249016D01*
X109137287Y-116680927D01*
X108925480Y-117079280D01*
X108640325Y-117428914D01*
X108292697Y-117716497D01*
X107895825Y-117931085D01*
X107464834Y-118064500D01*
X106984346Y-118115000D01*
X79033504Y-118115000D01*
X78550984Y-118067688D01*
X78119073Y-117937287D01*
X77720720Y-117725480D01*
X77371086Y-117440325D01*
X77083503Y-117092697D01*
X76868915Y-116695825D01*
X76735500Y-116264834D01*
X76685000Y-115784346D01*
X76685000Y-115579872D01*
X76765000Y-115579872D01*
X76765000Y-116020128D01*
X76850890Y-116451925D01*
X77019369Y-116858669D01*
X77263962Y-117224729D01*
X77575271Y-117536038D01*
X77941331Y-117780631D01*
X78348075Y-117949110D01*
X78779872Y-118035000D01*
X79220128Y-118035000D01*
X79651925Y-117949110D01*
X80058669Y-117780631D01*
X80424729Y-117536038D01*
X80736038Y-117224729D01*
X80980631Y-116858669D01*
X81149110Y-116451925D01*
X81235000Y-116020128D01*
X81235000Y-115579872D01*
X81149110Y-115148075D01*
X80980631Y-114741331D01*
X80736038Y-114375271D01*
X80424729Y-114063962D01*
X80058669Y-113819369D01*
X79651925Y-113650890D01*
X79220128Y-113565000D01*
X78779872Y-113565000D01*
X78348075Y-113650890D01*
X77941331Y-113819369D01*
X77575271Y-114063962D01*
X77263962Y-114375271D01*
X77019369Y-114741331D01*
X76850890Y-115148075D01*
X76765000Y-115579872D01*
X76685000Y-115579872D01*
X76685000Y-77186544D01*
X77445000Y-77186544D01*
X77445000Y-77453456D01*
X77497072Y-77715239D01*
X77599215Y-77961833D01*
X77747503Y-78183762D01*
X77936238Y-78372497D01*
X78158167Y-78520785D01*
X78325266Y-78590000D01*
X78158167Y-78659215D01*
X77936238Y-78807503D01*
X77747503Y-78996238D01*
X77599215Y-79218167D01*
X77497072Y-79464761D01*
X77445000Y-79726544D01*
X77445000Y-79993456D01*
X77497072Y-80255239D01*
X77599215Y-80501833D01*
X77747503Y-80723762D01*
X77936238Y-80912497D01*
X78158167Y-81060785D01*
X78325266Y-81130000D01*
X78158167Y-81199215D01*
X77936238Y-81347503D01*
X77747503Y-81536238D01*
X77599215Y-81758167D01*
X77497072Y-82004761D01*
X77445000Y-82266544D01*
X77445000Y-82533456D01*
X77497072Y-82795239D01*
X77599215Y-83041833D01*
X77747503Y-83263762D01*
X77936238Y-83452497D01*
X78158167Y-83600785D01*
X78404761Y-83702928D01*
X78666544Y-83755000D01*
X78933456Y-83755000D01*
X79195239Y-83702928D01*
X79441833Y-83600785D01*
X79663762Y-83452497D01*
X79852497Y-83263762D01*
X79892652Y-83203665D01*
X82040000Y-83203665D01*
X82040000Y-83486335D01*
X82095147Y-83763574D01*
X82203320Y-84024727D01*
X82360363Y-84259759D01*
X82560241Y-84459637D01*
X82639356Y-84512500D01*
X82560241Y-84565363D01*
X82360363Y-84765241D01*
X82203320Y-85000273D01*
X82095147Y-85261426D01*
X82040000Y-85538665D01*
X82040000Y-85821335D01*
X82095147Y-86098574D01*
X82203320Y-86359727D01*
X82360363Y-86594759D01*
X82560241Y-86794637D01*
X82795273Y-86951680D01*
X83056426Y-87059853D01*
X83333665Y-87115000D01*
X83616335Y-87115000D01*
X83893574Y-87059853D01*
X84154727Y-86951680D01*
X84389759Y-86794637D01*
X84589637Y-86594759D01*
X84746680Y-86359727D01*
X84854853Y-86098574D01*
X84910000Y-85821335D01*
X84910000Y-85538665D01*
X84854853Y-85261426D01*
X84746680Y-85000273D01*
X84589637Y-84765241D01*
X84389759Y-84565363D01*
X84310644Y-84512500D01*
X84389759Y-84459637D01*
X84589637Y-84259759D01*
X84746680Y-84024727D01*
X84854853Y-83763574D01*
X84910000Y-83486335D01*
X84910000Y-83203665D01*
X84854853Y-82926426D01*
X84746680Y-82665273D01*
X84589637Y-82430241D01*
X84389759Y-82230363D01*
X84154727Y-82073320D01*
X83893574Y-81965147D01*
X83616335Y-81910000D01*
X83333665Y-81910000D01*
X83056426Y-81965147D01*
X82795273Y-82073320D01*
X82560241Y-82230363D01*
X82360363Y-82430241D01*
X82203320Y-82665273D01*
X82095147Y-82926426D01*
X82040000Y-83203665D01*
X79892652Y-83203665D01*
X80000785Y-83041833D01*
X80102928Y-82795239D01*
X80155000Y-82533456D01*
X80155000Y-82266544D01*
X80102928Y-82004761D01*
X80000785Y-81758167D01*
X79852497Y-81536238D01*
X79663762Y-81347503D01*
X79441833Y-81199215D01*
X79274734Y-81130000D01*
X79441833Y-81060785D01*
X79663762Y-80912497D01*
X79852497Y-80723762D01*
X80000785Y-80501833D01*
X80102928Y-80255239D01*
X80155000Y-79993456D01*
X80155000Y-79726544D01*
X80102928Y-79464761D01*
X80000785Y-79218167D01*
X79852497Y-78996238D01*
X79663762Y-78807503D01*
X79441833Y-78659215D01*
X79274734Y-78590000D01*
X79441833Y-78520785D01*
X79663762Y-78372497D01*
X79852497Y-78183762D01*
X80000785Y-77961833D01*
X80102928Y-77715239D01*
X80155000Y-77453456D01*
X80155000Y-77186544D01*
X80102928Y-76924761D01*
X80000785Y-76678167D01*
X79852497Y-76456238D01*
X79663762Y-76267503D01*
X79441833Y-76119215D01*
X79195239Y-76017072D01*
X78933456Y-75965000D01*
X78666544Y-75965000D01*
X78404761Y-76017072D01*
X78158167Y-76119215D01*
X77936238Y-76267503D01*
X77747503Y-76456238D01*
X77599215Y-76678167D01*
X77497072Y-76924761D01*
X77445000Y-77186544D01*
X76685000Y-77186544D01*
X76685000Y-75583665D01*
X82040000Y-75583665D01*
X82040000Y-75866335D01*
X82095147Y-76143574D01*
X82203320Y-76404727D01*
X82360363Y-76639759D01*
X82560241Y-76839637D01*
X82795273Y-76996680D01*
X83056426Y-77104853D01*
X83333665Y-77160000D01*
X83616335Y-77160000D01*
X83893574Y-77104853D01*
X84154727Y-76996680D01*
X84389759Y-76839637D01*
X84589637Y-76639759D01*
X84746680Y-76404727D01*
X84854853Y-76143574D01*
X84910000Y-75866335D01*
X84910000Y-75583665D01*
X84854853Y-75306426D01*
X84746680Y-75045273D01*
X84589637Y-74810241D01*
X84389759Y-74610363D01*
X84154727Y-74453320D01*
X83893574Y-74345147D01*
X83616335Y-74290000D01*
X83333665Y-74290000D01*
X83056426Y-74345147D01*
X82795273Y-74453320D01*
X82560241Y-74610363D01*
X82360363Y-74810241D01*
X82203320Y-75045273D01*
X82095147Y-75306426D01*
X82040000Y-75583665D01*
X76685000Y-75583665D01*
X76685000Y-74392702D01*
X79386903Y-74392702D01*
X79458486Y-74636671D01*
X79713996Y-74757571D01*
X79988184Y-74826300D01*
X80270512Y-74840217D01*
X80550130Y-74798787D01*
X80816292Y-74703603D01*
X80941514Y-74636671D01*
X81013097Y-74392702D01*
X80200000Y-73579605D01*
X79386903Y-74392702D01*
X76685000Y-74392702D01*
X76685000Y-73470512D01*
X78759783Y-73470512D01*
X78801213Y-73750130D01*
X78896397Y-74016292D01*
X78963329Y-74141514D01*
X79207298Y-74213097D01*
X80020395Y-73400000D01*
X80379605Y-73400000D01*
X81192702Y-74213097D01*
X81436671Y-74141514D01*
X81557571Y-73886004D01*
X81626300Y-73611816D01*
X81633265Y-73470512D01*
X83959783Y-73470512D01*
X84001213Y-73750130D01*
X84096397Y-74016292D01*
X84163329Y-74141514D01*
X84407298Y-74213097D01*
X85220395Y-73400000D01*
X84407298Y-72586903D01*
X84163329Y-72658486D01*
X84042429Y-72913996D01*
X83973700Y-73188184D01*
X83959783Y-73470512D01*
X81633265Y-73470512D01*
X81640217Y-73329488D01*
X81598787Y-73049870D01*
X81503603Y-72783708D01*
X81436671Y-72658486D01*
X81192702Y-72586903D01*
X80379605Y-73400000D01*
X80020395Y-73400000D01*
X79207298Y-72586903D01*
X78963329Y-72658486D01*
X78842429Y-72913996D01*
X78773700Y-73188184D01*
X78759783Y-73470512D01*
X76685000Y-73470512D01*
X76685000Y-72407298D01*
X79386903Y-72407298D01*
X80200000Y-73220395D01*
X81013097Y-72407298D01*
X84586903Y-72407298D01*
X85400000Y-73220395D01*
X86213097Y-72407298D01*
X86141514Y-72163329D01*
X85886004Y-72042429D01*
X85611816Y-71973700D01*
X85329488Y-71959783D01*
X85049870Y-72001213D01*
X84783708Y-72096397D01*
X84658486Y-72163329D01*
X84586903Y-72407298D01*
X81013097Y-72407298D01*
X80941514Y-72163329D01*
X80686004Y-72042429D01*
X80411816Y-71973700D01*
X80129488Y-71959783D01*
X79849870Y-72001213D01*
X79583708Y-72096397D01*
X79458486Y-72163329D01*
X79386903Y-72407298D01*
X76685000Y-72407298D01*
X76685000Y-68258665D01*
X78765000Y-68258665D01*
X78765000Y-68541335D01*
X78820147Y-68818574D01*
X78928320Y-69079727D01*
X79085363Y-69314759D01*
X79285241Y-69514637D01*
X79520273Y-69671680D01*
X79781426Y-69779853D01*
X80058665Y-69835000D01*
X80341335Y-69835000D01*
X80618574Y-69779853D01*
X80879727Y-69671680D01*
X81114759Y-69514637D01*
X81314637Y-69314759D01*
X81471680Y-69079727D01*
X81579853Y-68818574D01*
X81635000Y-68541335D01*
X81635000Y-68258665D01*
X81579853Y-67981426D01*
X81471680Y-67720273D01*
X81314637Y-67485241D01*
X81114759Y-67285363D01*
X80879727Y-67128320D01*
X80618574Y-67020147D01*
X80341335Y-66965000D01*
X80058665Y-66965000D01*
X79781426Y-67020147D01*
X79520273Y-67128320D01*
X79285241Y-67285363D01*
X79085363Y-67485241D01*
X78928320Y-67720273D01*
X78820147Y-67981426D01*
X78765000Y-68258665D01*
X76685000Y-68258665D01*
X76685000Y-62078665D01*
X81965000Y-62078665D01*
X81965000Y-62361335D01*
X82020147Y-62638574D01*
X82128320Y-62899727D01*
X82285363Y-63134759D01*
X82485241Y-63334637D01*
X82720273Y-63491680D01*
X82981426Y-63599853D01*
X83258665Y-63655000D01*
X83541335Y-63655000D01*
X83818574Y-63599853D01*
X84079727Y-63491680D01*
X84314759Y-63334637D01*
X84514637Y-63134759D01*
X84671680Y-62899727D01*
X84779853Y-62638574D01*
X84835000Y-62361335D01*
X84835000Y-62078665D01*
X84779853Y-61801426D01*
X84671680Y-61540273D01*
X84514637Y-61305241D01*
X84314759Y-61105363D01*
X84079727Y-60948320D01*
X83818574Y-60840147D01*
X83541335Y-60785000D01*
X83258665Y-60785000D01*
X82981426Y-60840147D01*
X82720273Y-60948320D01*
X82485241Y-61105363D01*
X82285363Y-61305241D01*
X82128320Y-61540273D01*
X82020147Y-61801426D01*
X81965000Y-62078665D01*
X76685000Y-62078665D01*
X76685000Y-28333505D01*
X76732312Y-27850984D01*
X76862714Y-27419070D01*
X77074524Y-27020715D01*
X77359675Y-26671086D01*
X77707303Y-26383503D01*
X78104177Y-26168914D01*
X78535161Y-26035502D01*
X79015654Y-25985000D01*
X106966495Y-25985000D01*
X107449016Y-26032312D01*
%TA.AperFunction,Conductor*%
D24*
G36*
X107449016Y-26032312D02*
G01*
X107880930Y-26162714D01*
X108279285Y-26374524D01*
X108628914Y-26659675D01*
X108916497Y-27007303D01*
X109131086Y-27404177D01*
X109264498Y-27835161D01*
X109315000Y-28315654D01*
X109315000Y-29253375D01*
X109175178Y-29018645D01*
X108980269Y-28802412D01*
X108746920Y-28628359D01*
X108484099Y-28503175D01*
X108336890Y-28458524D01*
X108107000Y-28579845D01*
X108107000Y-29773000D01*
X108127000Y-29773000D01*
X108127000Y-30027000D01*
X108107000Y-30027000D01*
X108107000Y-31220155D01*
X108336890Y-31341476D01*
X108484099Y-31296825D01*
X108746920Y-31171641D01*
X108980269Y-30997588D01*
X109175178Y-30781355D01*
X109315000Y-30546625D01*
X109315000Y-33035649D01*
X109301185Y-33018815D01*
X109204494Y-32939463D01*
X109094180Y-32880498D01*
X108974482Y-32844188D01*
X108850000Y-32831928D01*
X107150000Y-32831928D01*
X107025518Y-32844188D01*
X106905820Y-32880498D01*
X106795506Y-32939463D01*
X106698815Y-33018815D01*
X106619463Y-33115506D01*
X106560498Y-33225820D01*
X106524188Y-33345518D01*
X106511928Y-33470000D01*
X106511928Y-35170000D01*
X106524188Y-35294482D01*
X106560498Y-35414180D01*
X106619463Y-35524494D01*
X106698815Y-35621185D01*
X106795506Y-35700537D01*
X106905820Y-35759502D01*
X106978380Y-35781513D01*
X106846525Y-35913368D01*
X106684010Y-36156589D01*
X106572068Y-36426842D01*
X106515000Y-36713740D01*
X106515000Y-37006260D01*
X106572068Y-37293158D01*
X106684010Y-37563411D01*
X106846525Y-37806632D01*
X107053368Y-38013475D01*
X107235534Y-38135195D01*
X107118645Y-38204822D01*
X106902412Y-38399731D01*
X106728359Y-38633080D01*
X106603175Y-38895901D01*
X106558524Y-39043110D01*
X106679845Y-39273000D01*
X107873000Y-39273000D01*
X107873000Y-39253000D01*
X108127000Y-39253000D01*
X108127000Y-39273000D01*
X108147000Y-39273000D01*
X108147000Y-39527000D01*
X108127000Y-39527000D01*
X108127000Y-40720814D01*
X108356891Y-40841481D01*
X108631252Y-40744157D01*
X108881355Y-40595178D01*
X109097588Y-40400269D01*
X109271641Y-40166920D01*
X109315000Y-40075888D01*
X109315000Y-42035649D01*
X109301185Y-42018815D01*
X109204494Y-41939463D01*
X109094180Y-41880498D01*
X108974482Y-41844188D01*
X108850000Y-41831928D01*
X107150000Y-41831928D01*
X107025518Y-41844188D01*
X106905820Y-41880498D01*
X106795506Y-41939463D01*
X106698815Y-42018815D01*
X106619463Y-42115506D01*
X106560498Y-42225820D01*
X106524188Y-42345518D01*
X106511928Y-42470000D01*
X106511928Y-44170000D01*
X106524188Y-44294482D01*
X106560498Y-44414180D01*
X106619463Y-44524494D01*
X106698815Y-44621185D01*
X106795506Y-44700537D01*
X106905820Y-44759502D01*
X106978380Y-44781513D01*
X106846525Y-44913368D01*
X106684010Y-45156589D01*
X106572068Y-45426842D01*
X106515000Y-45713740D01*
X106515000Y-46006260D01*
X106572068Y-46293158D01*
X106684010Y-46563411D01*
X106846525Y-46806632D01*
X107053368Y-47013475D01*
X107227760Y-47130000D01*
X107053368Y-47246525D01*
X106846525Y-47453368D01*
X106684010Y-47696589D01*
X106572068Y-47966842D01*
X106515000Y-48253740D01*
X106515000Y-48546260D01*
X106572068Y-48833158D01*
X106684010Y-49103411D01*
X106846525Y-49346632D01*
X107053368Y-49553475D01*
X107296589Y-49715990D01*
X107566842Y-49827932D01*
X107853740Y-49885000D01*
X108146260Y-49885000D01*
X108433158Y-49827932D01*
X108703411Y-49715990D01*
X108946632Y-49553475D01*
X109153475Y-49346632D01*
X109315000Y-49104892D01*
X109315000Y-51035649D01*
X109301185Y-51018815D01*
X109204494Y-50939463D01*
X109094180Y-50880498D01*
X108974482Y-50844188D01*
X108850000Y-50831928D01*
X107150000Y-50831928D01*
X107025518Y-50844188D01*
X106905820Y-50880498D01*
X106795506Y-50939463D01*
X106698815Y-51018815D01*
X106619463Y-51115506D01*
X106560498Y-51225820D01*
X106524188Y-51345518D01*
X106511928Y-51470000D01*
X106511928Y-52733270D01*
X105759999Y-53485200D01*
X105759999Y-39756890D01*
X106558524Y-39756890D01*
X106603175Y-39904099D01*
X106728359Y-40166920D01*
X106902412Y-40400269D01*
X107118645Y-40595178D01*
X107368748Y-40744157D01*
X107643109Y-40841481D01*
X107873000Y-40720814D01*
X107873000Y-39527000D01*
X106679845Y-39527000D01*
X106558524Y-39756890D01*
X105759999Y-39756890D01*
X105760000Y-32037322D01*
X105763676Y-31999999D01*
X105760000Y-31962676D01*
X105760000Y-31962668D01*
X105749003Y-31851015D01*
X105705546Y-31707754D01*
X105634974Y-31575725D01*
X105634973Y-31575723D01*
X105563799Y-31488996D01*
X105563790Y-31488987D01*
X105540001Y-31460000D01*
X105511014Y-31436211D01*
X105459803Y-31385000D01*
X105567002Y-31385000D01*
X105567002Y-31220156D01*
X105796890Y-31341476D01*
X105944099Y-31296825D01*
X106206920Y-31171641D01*
X106440269Y-30997588D01*
X106635178Y-30781355D01*
X106710000Y-30655745D01*
X106784822Y-30781355D01*
X106979731Y-30997588D01*
X107213080Y-31171641D01*
X107475901Y-31296825D01*
X107623110Y-31341476D01*
X107853000Y-31220155D01*
X107853000Y-30027000D01*
X105567000Y-30027000D01*
X105567000Y-30047000D01*
X105313000Y-30047000D01*
X105313000Y-30027000D01*
X105293000Y-30027000D01*
X105293000Y-29773000D01*
X105313000Y-29773000D01*
X105313000Y-28579845D01*
X105567000Y-28579845D01*
X105567000Y-29773000D01*
X107853000Y-29773000D01*
X107853000Y-28579845D01*
X107623110Y-28458524D01*
X107475901Y-28503175D01*
X107213080Y-28628359D01*
X106979731Y-28802412D01*
X106784822Y-29018645D01*
X106710000Y-29144255D01*
X106635178Y-29018645D01*
X106440269Y-28802412D01*
X106206920Y-28628359D01*
X105944099Y-28503175D01*
X105796890Y-28458524D01*
X105567000Y-28579845D01*
X105313000Y-28579845D01*
X105083110Y-28458524D01*
X104935901Y-28503175D01*
X104673080Y-28628359D01*
X104439731Y-28802412D01*
X104244822Y-29018645D01*
X104175195Y-29135534D01*
X104053475Y-28953368D01*
X103846632Y-28746525D01*
X103603411Y-28584010D01*
X103333158Y-28472068D01*
X103046260Y-28415000D01*
X102753740Y-28415000D01*
X102466842Y-28472068D01*
X102196589Y-28584010D01*
X101953368Y-28746525D01*
X101746525Y-28953368D01*
X101630000Y-29127760D01*
X101513475Y-28953368D01*
X101306632Y-28746525D01*
X101063411Y-28584010D01*
X100793158Y-28472068D01*
X100506260Y-28415000D01*
X100213740Y-28415000D01*
X99926842Y-28472068D01*
X99656589Y-28584010D01*
X99453509Y-28719704D01*
X98947804Y-28214001D01*
X98924002Y-28184998D01*
X98808277Y-28090025D01*
X98676248Y-28019453D01*
X98532987Y-27975996D01*
X98421334Y-27964999D01*
X98421323Y-27964999D01*
X98384001Y-27961323D01*
X98346679Y-27964999D01*
X97293321Y-27964999D01*
X97255998Y-27961323D01*
X97218675Y-27964999D01*
X97218666Y-27964999D01*
X97107013Y-27975996D01*
X96963752Y-28019453D01*
X96831722Y-28090025D01*
X96758353Y-28150238D01*
X96715998Y-28184998D01*
X96692200Y-28213997D01*
X96186492Y-28719704D01*
X95983411Y-28584010D01*
X95713158Y-28472068D01*
X95426260Y-28415000D01*
X95133740Y-28415000D01*
X94913592Y-28458791D01*
X94668803Y-28214002D01*
X94645000Y-28184998D01*
X94529275Y-28090025D01*
X94397246Y-28019453D01*
X94253985Y-27975996D01*
X94142332Y-27964999D01*
X94142321Y-27964999D01*
X94104999Y-27961323D01*
X94067677Y-27964999D01*
X78967322Y-27964999D01*
X78929999Y-27961323D01*
X78892677Y-27964999D01*
X78892666Y-27964999D01*
X78781013Y-27975996D01*
X78637752Y-28019453D01*
X78505723Y-28090025D01*
X78389998Y-28184998D01*
X78366195Y-28214002D01*
X78354002Y-28226195D01*
X78324998Y-28249998D01*
X78282662Y-28301585D01*
X78230025Y-28365723D01*
X78159454Y-28497752D01*
X78159453Y-28497753D01*
X78115996Y-28641014D01*
X78104999Y-28752667D01*
X78104999Y-28752677D01*
X78101323Y-28789999D01*
X78104999Y-28827322D01*
X78105000Y-32778665D01*
X78101323Y-32815997D01*
X78105000Y-32853330D01*
X78115997Y-32964983D01*
X78129179Y-33008439D01*
X78159453Y-33108243D01*
X78230025Y-33240273D01*
X78274116Y-33293997D01*
X78324999Y-33355998D01*
X78353997Y-33379796D01*
X78579131Y-33604930D01*
X78348075Y-33650890D01*
X77941331Y-33819369D01*
X77575271Y-34063962D01*
X77263962Y-34375271D01*
X77019369Y-34741331D01*
X76850890Y-35148075D01*
X76765000Y-35579872D01*
X76765000Y-36020128D01*
X76850890Y-36451925D01*
X77019369Y-36858669D01*
X77263962Y-37224729D01*
X77575271Y-37536038D01*
X77941331Y-37780631D01*
X78348075Y-37949110D01*
X78779872Y-38035000D01*
X79220128Y-38035000D01*
X79651925Y-37949110D01*
X80058669Y-37780631D01*
X80424729Y-37536038D01*
X80736038Y-37224729D01*
X80980631Y-36858669D01*
X81149110Y-36451925D01*
X81195070Y-36220870D01*
X81514999Y-36540799D01*
X81515000Y-56192664D01*
X81511323Y-56229997D01*
X81525997Y-56378982D01*
X81569453Y-56522243D01*
X81640025Y-56654273D01*
X81711200Y-56740999D01*
X81734999Y-56769998D01*
X81763997Y-56793796D01*
X85919222Y-60949022D01*
X85685241Y-61105363D01*
X85485363Y-61305241D01*
X85328320Y-61540273D01*
X85220147Y-61801426D01*
X85165000Y-62078665D01*
X85165000Y-62361335D01*
X85220147Y-62638574D01*
X85328320Y-62899727D01*
X85485363Y-63134759D01*
X85685241Y-63334637D01*
X85920273Y-63491680D01*
X86181426Y-63599853D01*
X86458665Y-63655000D01*
X86740001Y-63655000D01*
X86740000Y-67885213D01*
X86671680Y-67720273D01*
X86514637Y-67485241D01*
X86314759Y-67285363D01*
X86079727Y-67128320D01*
X85818574Y-67020147D01*
X85541335Y-66965000D01*
X85258665Y-66965000D01*
X84981426Y-67020147D01*
X84720273Y-67128320D01*
X84485241Y-67285363D01*
X84285363Y-67485241D01*
X84128320Y-67720273D01*
X84020147Y-67981426D01*
X83965000Y-68258665D01*
X83965000Y-68541335D01*
X84020147Y-68818574D01*
X84128320Y-69079727D01*
X84285363Y-69314759D01*
X84485241Y-69514637D01*
X84720273Y-69671680D01*
X84981426Y-69779853D01*
X85258665Y-69835000D01*
X85541335Y-69835000D01*
X85818574Y-69779853D01*
X86079727Y-69671680D01*
X86314759Y-69514637D01*
X86514637Y-69314759D01*
X86671680Y-69079727D01*
X86740000Y-68914787D01*
X86740000Y-70096289D01*
X86696063Y-70140226D01*
X86582795Y-70309744D01*
X86504774Y-70498102D01*
X86465000Y-70698061D01*
X86465000Y-70901939D01*
X86504774Y-71101898D01*
X86582795Y-71290256D01*
X86696063Y-71459774D01*
X86840226Y-71603937D01*
X87009744Y-71717205D01*
X87198102Y-71795226D01*
X87398061Y-71835000D01*
X87601939Y-71835000D01*
X87801898Y-71795226D01*
X87990256Y-71717205D01*
X88159774Y-71603937D01*
X88303937Y-71459774D01*
X88417205Y-71290256D01*
X88495226Y-71101898D01*
X88535000Y-70901939D01*
X88535000Y-70698061D01*
X88495226Y-70498102D01*
X88417205Y-70309744D01*
X88303937Y-70140226D01*
X88260000Y-70096289D01*
X88260000Y-67134802D01*
X89201312Y-68076114D01*
X89165000Y-68258665D01*
X89165000Y-68541335D01*
X89220147Y-68818574D01*
X89328320Y-69079727D01*
X89485363Y-69314759D01*
X89685241Y-69514637D01*
X89920273Y-69671680D01*
X90181426Y-69779853D01*
X90458665Y-69835000D01*
X90741335Y-69835000D01*
X91018574Y-69779853D01*
X91279727Y-69671680D01*
X91514759Y-69514637D01*
X91714637Y-69314759D01*
X91871680Y-69079727D01*
X91979853Y-68818574D01*
X92035000Y-68541335D01*
X92035000Y-68258665D01*
X91979853Y-67981426D01*
X91871680Y-67720273D01*
X91714637Y-67485241D01*
X91514759Y-67285363D01*
X91279727Y-67128320D01*
X91018574Y-67020147D01*
X90741335Y-66965000D01*
X90458665Y-66965000D01*
X90276114Y-67001312D01*
X88710011Y-65435210D01*
X88710011Y-63034960D01*
X88873192Y-63122182D01*
X89143691Y-63204236D01*
X89354508Y-63225000D01*
X90295492Y-63225000D01*
X90506309Y-63204236D01*
X90776808Y-63122182D01*
X91026101Y-62988932D01*
X91244608Y-62809608D01*
X91423932Y-62591101D01*
X91557182Y-62341808D01*
X91639236Y-62071309D01*
X91666943Y-61790000D01*
X91639236Y-61508691D01*
X91557182Y-61238192D01*
X91423932Y-60988899D01*
X91244608Y-60770392D01*
X91026101Y-60591068D01*
X90893142Y-60520000D01*
X91026101Y-60448932D01*
X91244608Y-60269608D01*
X91423932Y-60051101D01*
X91557182Y-59801808D01*
X91639236Y-59531309D01*
X91666943Y-59250000D01*
X91639236Y-58968691D01*
X91557182Y-58698192D01*
X91423932Y-58448899D01*
X91244608Y-58230392D01*
X91026101Y-58051068D01*
X90893142Y-57980000D01*
X91026101Y-57908932D01*
X91244608Y-57729608D01*
X91423932Y-57511101D01*
X91557182Y-57261808D01*
X91639236Y-56991309D01*
X91666943Y-56710000D01*
X91639236Y-56428691D01*
X91557182Y-56158192D01*
X91423932Y-55908899D01*
X91244608Y-55690392D01*
X91026101Y-55511068D01*
X90893142Y-55440000D01*
X91026101Y-55368932D01*
X91244608Y-55189608D01*
X91423932Y-54971101D01*
X91557182Y-54721808D01*
X91639236Y-54451309D01*
X91666943Y-54170000D01*
X91639236Y-53888691D01*
X91557182Y-53618192D01*
X91423932Y-53368899D01*
X91244608Y-53150392D01*
X91026101Y-52971068D01*
X90893142Y-52900000D01*
X91026101Y-52828932D01*
X91244608Y-52649608D01*
X91423932Y-52431101D01*
X91557182Y-52181808D01*
X91639236Y-51911309D01*
X91666943Y-51630000D01*
X91639236Y-51348691D01*
X91557182Y-51078192D01*
X91423932Y-50828899D01*
X91244608Y-50610392D01*
X91026101Y-50431068D01*
X90893142Y-50360000D01*
X91026101Y-50288932D01*
X91244608Y-50109608D01*
X91423932Y-49891101D01*
X91557182Y-49641808D01*
X91611953Y-49461251D01*
X95525700Y-53375000D01*
X94044233Y-53375000D01*
X94005195Y-53371155D01*
X93966157Y-53375000D01*
X93966148Y-53375000D01*
X93849349Y-53386504D01*
X93699491Y-53431963D01*
X93561381Y-53505784D01*
X93561379Y-53505785D01*
X93561380Y-53505785D01*
X93470656Y-53580240D01*
X93470653Y-53580243D01*
X93440327Y-53605131D01*
X93415438Y-53635458D01*
X92705461Y-54345437D01*
X92675130Y-54370329D01*
X92575783Y-54491383D01*
X92536324Y-54565205D01*
X92501961Y-54629494D01*
X92456502Y-54779351D01*
X92441153Y-54935198D01*
X92444999Y-54974249D01*
X92444998Y-68713900D01*
X88060454Y-73098446D01*
X88030122Y-73123339D01*
X87930775Y-73244393D01*
X87891316Y-73318215D01*
X87856953Y-73382504D01*
X87811494Y-73532361D01*
X87796145Y-73688208D01*
X87799991Y-73727259D01*
X87799991Y-74670595D01*
X87714759Y-74585363D01*
X87479727Y-74428320D01*
X87218574Y-74320147D01*
X86941335Y-74265000D01*
X86658665Y-74265000D01*
X86480122Y-74300515D01*
X86392704Y-74213097D01*
X86636671Y-74141514D01*
X86757571Y-73886004D01*
X86826300Y-73611816D01*
X86840217Y-73329488D01*
X86798787Y-73049870D01*
X86703603Y-72783708D01*
X86636671Y-72658486D01*
X86392702Y-72586903D01*
X85579605Y-73400000D01*
X85593748Y-73414143D01*
X85414143Y-73593748D01*
X85400000Y-73579605D01*
X84586903Y-74392702D01*
X84658486Y-74636671D01*
X84913996Y-74757571D01*
X85188184Y-74826300D01*
X85470512Y-74840217D01*
X85668201Y-74810926D01*
X85528320Y-75020273D01*
X85420147Y-75281426D01*
X85365000Y-75558665D01*
X85365000Y-75841335D01*
X85420147Y-76118574D01*
X85528320Y-76379727D01*
X85685363Y-76614759D01*
X85885241Y-76814637D01*
X86120273Y-76971680D01*
X86381426Y-77079853D01*
X86658665Y-77135000D01*
X86941335Y-77135000D01*
X87218574Y-77079853D01*
X87479727Y-76971680D01*
X87714759Y-76814637D01*
X87799991Y-76729405D01*
X87799990Y-82290594D01*
X87714759Y-82205363D01*
X87479727Y-82048320D01*
X87218574Y-81940147D01*
X86941335Y-81885000D01*
X86658665Y-81885000D01*
X86381426Y-81940147D01*
X86120273Y-82048320D01*
X85885241Y-82205363D01*
X85685363Y-82405241D01*
X85528320Y-82640273D01*
X85420147Y-82901426D01*
X85365000Y-83178665D01*
X85365000Y-83461335D01*
X85420147Y-83738574D01*
X85528320Y-83999727D01*
X85685363Y-84234759D01*
X85885241Y-84434637D01*
X85983064Y-84500000D01*
X85885241Y-84565363D01*
X85685363Y-84765241D01*
X85528320Y-85000273D01*
X85420147Y-85261426D01*
X85365000Y-85538665D01*
X85365000Y-85821335D01*
X85420147Y-86098574D01*
X85528320Y-86359727D01*
X85685363Y-86594759D01*
X85885241Y-86794637D01*
X86120273Y-86951680D01*
X86381426Y-87059853D01*
X86658665Y-87115000D01*
X86941335Y-87115000D01*
X87218574Y-87059853D01*
X87479727Y-86951680D01*
X87714759Y-86794637D01*
X87799990Y-86709406D01*
X87799990Y-87850711D01*
X83757602Y-91893100D01*
X83616335Y-91865000D01*
X83333665Y-91865000D01*
X83056426Y-91920147D01*
X82795273Y-92028320D01*
X82560241Y-92185363D01*
X82360363Y-92385241D01*
X82274664Y-92513499D01*
X82244153Y-92516504D01*
X82094295Y-92561963D01*
X81956185Y-92635784D01*
X81865461Y-92710239D01*
X81865457Y-92710243D01*
X81835131Y-92735131D01*
X81810243Y-92765457D01*
X78582602Y-95993100D01*
X78441335Y-95965000D01*
X78158665Y-95965000D01*
X77881426Y-96020147D01*
X77620273Y-96128320D01*
X77385241Y-96285363D01*
X77185363Y-96485241D01*
X77028320Y-96720273D01*
X76920147Y-96981426D01*
X76865000Y-97258665D01*
X76865000Y-97541335D01*
X76920147Y-97818574D01*
X77028320Y-98079727D01*
X77185363Y-98314759D01*
X77385241Y-98514637D01*
X77505001Y-98594658D01*
X77505000Y-107136161D01*
X77501155Y-107175202D01*
X77505000Y-107214242D01*
X77505000Y-107214249D01*
X77514982Y-107315598D01*
X77516504Y-107331049D01*
X77561963Y-107480906D01*
X77635784Y-107619016D01*
X77735131Y-107740071D01*
X77765468Y-107764968D01*
X86583637Y-116583138D01*
X86608530Y-116613470D01*
X86729584Y-116712817D01*
X86867694Y-116786638D01*
X86963307Y-116815642D01*
X87017551Y-116832097D01*
X87033002Y-116833619D01*
X87134351Y-116843601D01*
X87134358Y-116843601D01*
X87173398Y-116847446D01*
X87212438Y-116843601D01*
X99033289Y-116843601D01*
X99072329Y-116847446D01*
X99111369Y-116843601D01*
X99111377Y-116843601D01*
X99228176Y-116832097D01*
X99378034Y-116786638D01*
X99516144Y-116712817D01*
X99637198Y-116613470D01*
X99662095Y-116583133D01*
X100665356Y-115579872D01*
X104765000Y-115579872D01*
X104765000Y-116020128D01*
X104850890Y-116451925D01*
X105019369Y-116858669D01*
X105263962Y-117224729D01*
X105575271Y-117536038D01*
X105941331Y-117780631D01*
X106348075Y-117949110D01*
X106779872Y-118035000D01*
X107220128Y-118035000D01*
X107651925Y-117949110D01*
X108058669Y-117780631D01*
X108424729Y-117536038D01*
X108736038Y-117224729D01*
X108980631Y-116858669D01*
X109149110Y-116451925D01*
X109235000Y-116020128D01*
X109235000Y-115579872D01*
X109149110Y-115148075D01*
X108980631Y-114741331D01*
X108736038Y-114375271D01*
X108424729Y-114063962D01*
X108058669Y-113819369D01*
X107651925Y-113650890D01*
X107220128Y-113565000D01*
X106779872Y-113565000D01*
X106348075Y-113650890D01*
X105941331Y-113819369D01*
X105575271Y-114063962D01*
X105263962Y-114375271D01*
X105019369Y-114741331D01*
X104850890Y-115148075D01*
X104765000Y-115579872D01*
X100665356Y-115579872D01*
X102279543Y-113965687D01*
X102309869Y-113940799D01*
X102334757Y-113910473D01*
X102334761Y-113910469D01*
X102409216Y-113819745D01*
X102483037Y-113681635D01*
X102528496Y-113531777D01*
X102538435Y-113430863D01*
X102540000Y-113414978D01*
X102540000Y-113414970D01*
X102543845Y-113375930D01*
X102540000Y-113336890D01*
X102540000Y-107894657D01*
X102659759Y-107814637D01*
X102859637Y-107614759D01*
X103016680Y-107379727D01*
X103124853Y-107118574D01*
X103180000Y-106841335D01*
X103180000Y-106558665D01*
X103124853Y-106281426D01*
X103016680Y-106020273D01*
X102859637Y-105785241D01*
X102659759Y-105585363D01*
X102424727Y-105428320D01*
X102163574Y-105320147D01*
X101886335Y-105265000D01*
X101603665Y-105265000D01*
X101326426Y-105320147D01*
X101065273Y-105428320D01*
X100830241Y-105585363D01*
X100630363Y-105785241D01*
X100473320Y-106020273D01*
X100365147Y-106281426D01*
X100310000Y-106558665D01*
X100310000Y-106841335D01*
X100365147Y-107118574D01*
X100473320Y-107379727D01*
X100630363Y-107614759D01*
X100830241Y-107814637D01*
X100950000Y-107894657D01*
X100950001Y-113046629D01*
X99833088Y-114163543D01*
X99813042Y-114115147D01*
X99649039Y-113869698D01*
X99440302Y-113660961D01*
X99281719Y-113555000D01*
X99440302Y-113449039D01*
X99649039Y-113240302D01*
X99813042Y-112994853D01*
X99926010Y-112722125D01*
X99983600Y-112432599D01*
X99983600Y-112137401D01*
X99926010Y-111847875D01*
X99813042Y-111575147D01*
X99649039Y-111329698D01*
X99440302Y-111120961D01*
X99194853Y-110956958D01*
X98922125Y-110843990D01*
X98632599Y-110786400D01*
X98337401Y-110786400D01*
X98047875Y-110843990D01*
X97775147Y-110956958D01*
X97529698Y-111120961D01*
X97320961Y-111329698D01*
X97210441Y-111495103D01*
X97151817Y-111396512D01*
X96955293Y-111178146D01*
X96719944Y-111002316D01*
X96454814Y-110875778D01*
X96304026Y-110830042D01*
X96072000Y-110951183D01*
X96072000Y-112158000D01*
X96092000Y-112158000D01*
X96092000Y-112412000D01*
X96072000Y-112412000D01*
X96072000Y-114698000D01*
X96092000Y-114698000D01*
X96092000Y-114952000D01*
X96072000Y-114952000D01*
X96072000Y-114972000D01*
X95818000Y-114972000D01*
X95818000Y-114952000D01*
X93532000Y-114952000D01*
X93532000Y-114972000D01*
X93278000Y-114972000D01*
X93278000Y-114952000D01*
X90992000Y-114952000D01*
X90992000Y-114972000D01*
X90738000Y-114972000D01*
X90738000Y-114952000D01*
X90718000Y-114952000D01*
X90718000Y-114698000D01*
X90738000Y-114698000D01*
X90738000Y-112412000D01*
X90992000Y-112412000D01*
X90992000Y-114698000D01*
X93278000Y-114698000D01*
X93278000Y-112412000D01*
X93532000Y-112412000D01*
X93532000Y-114698000D01*
X95818000Y-114698000D01*
X95818000Y-112412000D01*
X93532000Y-112412000D01*
X93278000Y-112412000D01*
X90992000Y-112412000D01*
X90738000Y-112412000D01*
X90718000Y-112412000D01*
X90718000Y-112158000D01*
X90738000Y-112158000D01*
X90738000Y-110951183D01*
X90992000Y-110951183D01*
X90992000Y-112158000D01*
X93278000Y-112158000D01*
X93278000Y-110951183D01*
X93532000Y-110951183D01*
X93532000Y-112158000D01*
X95818000Y-112158000D01*
X95818000Y-110951183D01*
X95585974Y-110830042D01*
X95435186Y-110875778D01*
X95170056Y-111002316D01*
X94934707Y-111178146D01*
X94738183Y-111396512D01*
X94675000Y-111502770D01*
X94611817Y-111396512D01*
X94415293Y-111178146D01*
X94179944Y-111002316D01*
X93914814Y-110875778D01*
X93764026Y-110830042D01*
X93532000Y-110951183D01*
X93278000Y-110951183D01*
X93045974Y-110830042D01*
X92895186Y-110875778D01*
X92630056Y-111002316D01*
X92394707Y-111178146D01*
X92198183Y-111396512D01*
X92135000Y-111502770D01*
X92071817Y-111396512D01*
X91875293Y-111178146D01*
X91639944Y-111002316D01*
X91374814Y-110875778D01*
X91224026Y-110830042D01*
X90992000Y-110951183D01*
X90738000Y-110951183D01*
X90505974Y-110830042D01*
X90355186Y-110875778D01*
X90090056Y-111002316D01*
X89854707Y-111178146D01*
X89658183Y-111396512D01*
X89599559Y-111495103D01*
X89489039Y-111329698D01*
X89280302Y-111120961D01*
X89034853Y-110956958D01*
X88762125Y-110843990D01*
X88472599Y-110786400D01*
X88177401Y-110786400D01*
X87887875Y-110843990D01*
X87615147Y-110956958D01*
X87369698Y-111120961D01*
X87160961Y-111329698D01*
X86996958Y-111575147D01*
X86883990Y-111847875D01*
X86826400Y-112137401D01*
X86826400Y-112432599D01*
X86883990Y-112722125D01*
X86996958Y-112994853D01*
X87160961Y-113240302D01*
X87275023Y-113354364D01*
X87217220Y-113371898D01*
X87106906Y-113430863D01*
X87010215Y-113510215D01*
X86930863Y-113606906D01*
X86871898Y-113717220D01*
X86835588Y-113836918D01*
X86823328Y-113961400D01*
X86823328Y-114574231D01*
X79095000Y-106845904D01*
X79095000Y-106558665D01*
X82595000Y-106558665D01*
X82595000Y-106841335D01*
X82650147Y-107118574D01*
X82758320Y-107379727D01*
X82915363Y-107614759D01*
X83115241Y-107814637D01*
X83350273Y-107971680D01*
X83611426Y-108079853D01*
X83888665Y-108135000D01*
X84171335Y-108135000D01*
X84448574Y-108079853D01*
X84709727Y-107971680D01*
X84944759Y-107814637D01*
X85144637Y-107614759D01*
X85301680Y-107379727D01*
X85409853Y-107118574D01*
X85465000Y-106841335D01*
X85465000Y-106558665D01*
X90215000Y-106558665D01*
X90215000Y-106841335D01*
X90270147Y-107118574D01*
X90378320Y-107379727D01*
X90535363Y-107614759D01*
X90735241Y-107814637D01*
X90970273Y-107971680D01*
X91231426Y-108079853D01*
X91508665Y-108135000D01*
X91791335Y-108135000D01*
X92068574Y-108079853D01*
X92329727Y-107971680D01*
X92564759Y-107814637D01*
X92764637Y-107614759D01*
X92887500Y-107430881D01*
X93010363Y-107614759D01*
X93210241Y-107814637D01*
X93445273Y-107971680D01*
X93706426Y-108079853D01*
X93983665Y-108135000D01*
X94266335Y-108135000D01*
X94543574Y-108079853D01*
X94804727Y-107971680D01*
X95039759Y-107814637D01*
X95239637Y-107614759D01*
X95396680Y-107379727D01*
X95504853Y-107118574D01*
X95560000Y-106841335D01*
X95560000Y-106558665D01*
X95504853Y-106281426D01*
X95396680Y-106020273D01*
X95239637Y-105785241D01*
X95039759Y-105585363D01*
X94804727Y-105428320D01*
X94543574Y-105320147D01*
X94266335Y-105265000D01*
X93983665Y-105265000D01*
X93706426Y-105320147D01*
X93445273Y-105428320D01*
X93210241Y-105585363D01*
X93010363Y-105785241D01*
X92887500Y-105969119D01*
X92764637Y-105785241D01*
X92564759Y-105585363D01*
X92329727Y-105428320D01*
X92068574Y-105320147D01*
X91791335Y-105265000D01*
X91508665Y-105265000D01*
X91231426Y-105320147D01*
X90970273Y-105428320D01*
X90735241Y-105585363D01*
X90535363Y-105785241D01*
X90378320Y-106020273D01*
X90270147Y-106281426D01*
X90215000Y-106558665D01*
X85465000Y-106558665D01*
X85409853Y-106281426D01*
X85301680Y-106020273D01*
X85144637Y-105785241D01*
X84944759Y-105585363D01*
X84709727Y-105428320D01*
X84448574Y-105320147D01*
X84171335Y-105265000D01*
X83888665Y-105265000D01*
X83611426Y-105320147D01*
X83350273Y-105428320D01*
X83115241Y-105585363D01*
X82915363Y-105785241D01*
X82758320Y-106020273D01*
X82650147Y-106281426D01*
X82595000Y-106558665D01*
X79095000Y-106558665D01*
X79095000Y-102858665D01*
X88545000Y-102858665D01*
X88545000Y-103141335D01*
X88600147Y-103418574D01*
X88708320Y-103679727D01*
X88865363Y-103914759D01*
X89065241Y-104114637D01*
X89300273Y-104271680D01*
X89561426Y-104379853D01*
X89838665Y-104435000D01*
X90121335Y-104435000D01*
X90398574Y-104379853D01*
X90659727Y-104271680D01*
X90894759Y-104114637D01*
X91094637Y-103914759D01*
X91251680Y-103679727D01*
X91359853Y-103418574D01*
X91415000Y-103141335D01*
X91415000Y-102858665D01*
X96165000Y-102858665D01*
X96165000Y-103141335D01*
X96220147Y-103418574D01*
X96328320Y-103679727D01*
X96485363Y-103914759D01*
X96685241Y-104114637D01*
X96920273Y-104271680D01*
X97181426Y-104379853D01*
X97458665Y-104435000D01*
X97741335Y-104435000D01*
X98018574Y-104379853D01*
X98279727Y-104271680D01*
X98514759Y-104114637D01*
X98714637Y-103914759D01*
X98871680Y-103679727D01*
X98979853Y-103418574D01*
X99035000Y-103141335D01*
X99035000Y-102858665D01*
X98979853Y-102581426D01*
X98871680Y-102320273D01*
X98714637Y-102085241D01*
X98514759Y-101885363D01*
X98279727Y-101728320D01*
X98018574Y-101620147D01*
X97741335Y-101565000D01*
X97458665Y-101565000D01*
X97181426Y-101620147D01*
X96920273Y-101728320D01*
X96685241Y-101885363D01*
X96485363Y-102085241D01*
X96328320Y-102320273D01*
X96220147Y-102581426D01*
X96165000Y-102858665D01*
X91415000Y-102858665D01*
X91359853Y-102581426D01*
X91251680Y-102320273D01*
X91094637Y-102085241D01*
X90894759Y-101885363D01*
X90659727Y-101728320D01*
X90398574Y-101620147D01*
X90121335Y-101565000D01*
X89838665Y-101565000D01*
X89561426Y-101620147D01*
X89300273Y-101728320D01*
X89065241Y-101885363D01*
X88865363Y-102085241D01*
X88708320Y-102320273D01*
X88600147Y-102581426D01*
X88545000Y-102858665D01*
X79095000Y-102858665D01*
X79095000Y-101592702D01*
X84986903Y-101592702D01*
X85058486Y-101836671D01*
X85313996Y-101957571D01*
X85588184Y-102026300D01*
X85870512Y-102040217D01*
X86150130Y-101998787D01*
X86416292Y-101903603D01*
X86541514Y-101836671D01*
X86613097Y-101592702D01*
X85800000Y-100779605D01*
X84986903Y-101592702D01*
X79095000Y-101592702D01*
X79095000Y-100670512D01*
X84359783Y-100670512D01*
X84401213Y-100950130D01*
X84496397Y-101216292D01*
X84563329Y-101341514D01*
X84807298Y-101413097D01*
X85620395Y-100600000D01*
X85979605Y-100600000D01*
X86792702Y-101413097D01*
X87036671Y-101341514D01*
X87157571Y-101086004D01*
X87226300Y-100811816D01*
X87240217Y-100529488D01*
X87198787Y-100249870D01*
X87103603Y-99983708D01*
X87036671Y-99858486D01*
X86792702Y-99786903D01*
X85979605Y-100600000D01*
X85620395Y-100600000D01*
X84807298Y-99786903D01*
X84563329Y-99858486D01*
X84442429Y-100113996D01*
X84373700Y-100388184D01*
X84359783Y-100670512D01*
X79095000Y-100670512D01*
X79095000Y-99607298D01*
X84986903Y-99607298D01*
X85800000Y-100420395D01*
X86613097Y-99607298D01*
X86592049Y-99535560D01*
X90564045Y-99535560D01*
X90625932Y-99771368D01*
X90867790Y-99884266D01*
X91127027Y-99947811D01*
X91393680Y-99959561D01*
X91657501Y-99919063D01*
X91908353Y-99827875D01*
X92014068Y-99771368D01*
X92075955Y-99535560D01*
X91320000Y-98779605D01*
X90564045Y-99535560D01*
X86592049Y-99535560D01*
X86541514Y-99363329D01*
X86286004Y-99242429D01*
X86011816Y-99173700D01*
X85729488Y-99159783D01*
X85449870Y-99201213D01*
X85183708Y-99296397D01*
X85058486Y-99363329D01*
X84986903Y-99607298D01*
X79095000Y-99607298D01*
X79095000Y-98594657D01*
X79214759Y-98514637D01*
X79381339Y-98348057D01*
X79410498Y-98444180D01*
X79469463Y-98554494D01*
X79548815Y-98651185D01*
X79645506Y-98730537D01*
X79755820Y-98789502D01*
X79875518Y-98825812D01*
X80000000Y-98838072D01*
X80514250Y-98835000D01*
X80673000Y-98676250D01*
X80673000Y-97527000D01*
X80927000Y-97527000D01*
X80927000Y-98676250D01*
X81085750Y-98835000D01*
X81600000Y-98838072D01*
X81724482Y-98825812D01*
X81844180Y-98789502D01*
X81954494Y-98730537D01*
X82023774Y-98673680D01*
X89960439Y-98673680D01*
X90000937Y-98937501D01*
X90092125Y-99188353D01*
X90148632Y-99294068D01*
X90384440Y-99355955D01*
X91140395Y-98600000D01*
X91499605Y-98600000D01*
X92255560Y-99355955D01*
X92491368Y-99294068D01*
X92591764Y-99078993D01*
X92659215Y-99241833D01*
X92807503Y-99463762D01*
X92996238Y-99652497D01*
X93218167Y-99800785D01*
X93464761Y-99902928D01*
X93726544Y-99955000D01*
X93993456Y-99955000D01*
X94255239Y-99902928D01*
X94501833Y-99800785D01*
X94723762Y-99652497D01*
X94912497Y-99463762D01*
X95060785Y-99241833D01*
X95130000Y-99074734D01*
X95199215Y-99241833D01*
X95347503Y-99463762D01*
X95536238Y-99652497D01*
X95758167Y-99800785D01*
X96004761Y-99902928D01*
X96266544Y-99955000D01*
X96533456Y-99955000D01*
X96795239Y-99902928D01*
X97041833Y-99800785D01*
X97263762Y-99652497D01*
X97452497Y-99463762D01*
X97600785Y-99241833D01*
X97702928Y-98995239D01*
X97755000Y-98733456D01*
X97755000Y-98466544D01*
X97702928Y-98204761D01*
X97600785Y-97958167D01*
X97452497Y-97736238D01*
X97263762Y-97547503D01*
X97041833Y-97399215D01*
X96795239Y-97297072D01*
X96533456Y-97245000D01*
X96266544Y-97245000D01*
X96004761Y-97297072D01*
X95758167Y-97399215D01*
X95536238Y-97547503D01*
X95347503Y-97736238D01*
X95199215Y-97958167D01*
X95130000Y-98125266D01*
X95060785Y-97958167D01*
X94912497Y-97736238D01*
X94723762Y-97547503D01*
X94501833Y-97399215D01*
X94255239Y-97297072D01*
X93993456Y-97245000D01*
X93726544Y-97245000D01*
X93464761Y-97297072D01*
X93218167Y-97399215D01*
X92996238Y-97547503D01*
X92807503Y-97736238D01*
X92659215Y-97958167D01*
X92589562Y-98126324D01*
X92547875Y-98011647D01*
X92491368Y-97905932D01*
X92255560Y-97844045D01*
X91499605Y-98600000D01*
X91140395Y-98600000D01*
X90384440Y-97844045D01*
X90148632Y-97905932D01*
X90035734Y-98147790D01*
X89972189Y-98407027D01*
X89960439Y-98673680D01*
X82023774Y-98673680D01*
X82051185Y-98651185D01*
X82130537Y-98554494D01*
X82189502Y-98444180D01*
X82225812Y-98324482D01*
X82238072Y-98200000D01*
X82235000Y-97685750D01*
X82213690Y-97664440D01*
X90564045Y-97664440D01*
X91320000Y-98420395D01*
X92075955Y-97664440D01*
X92014068Y-97428632D01*
X91772210Y-97315734D01*
X91512973Y-97252189D01*
X91246320Y-97240439D01*
X90982499Y-97280937D01*
X90731647Y-97372125D01*
X90625932Y-97428632D01*
X90564045Y-97664440D01*
X82213690Y-97664440D01*
X82076250Y-97527000D01*
X80927000Y-97527000D01*
X80673000Y-97527000D01*
X80653000Y-97527000D01*
X80653000Y-97273000D01*
X80673000Y-97273000D01*
X80673000Y-97253000D01*
X80927000Y-97253000D01*
X80927000Y-97273000D01*
X82076250Y-97273000D01*
X82235000Y-97114250D01*
X82238072Y-96600000D01*
X82225812Y-96475518D01*
X82189502Y-96355820D01*
X82130537Y-96245506D01*
X82051185Y-96148815D01*
X81954494Y-96069463D01*
X81844180Y-96010498D01*
X81724482Y-95974188D01*
X81600000Y-95961928D01*
X81085750Y-95965000D01*
X80927002Y-96123748D01*
X80927002Y-95965000D01*
X80859299Y-95965000D01*
X81365634Y-95458665D01*
X84365000Y-95458665D01*
X84365000Y-95741335D01*
X84420147Y-96018574D01*
X84528320Y-96279727D01*
X84685363Y-96514759D01*
X84885241Y-96714637D01*
X85120273Y-96871680D01*
X85381426Y-96979853D01*
X85658665Y-97035000D01*
X85941335Y-97035000D01*
X86218574Y-96979853D01*
X86479727Y-96871680D01*
X86714759Y-96714637D01*
X86914637Y-96514759D01*
X87071680Y-96279727D01*
X87179853Y-96018574D01*
X87235000Y-95741335D01*
X87235000Y-95458665D01*
X87179853Y-95181426D01*
X87071680Y-94920273D01*
X86927002Y-94703747D01*
X86927002Y-94569916D01*
X87149039Y-94691904D01*
X87283087Y-94651246D01*
X87537420Y-94531037D01*
X87763414Y-94363519D01*
X87952385Y-94155131D01*
X88097070Y-93913881D01*
X88191909Y-93649040D01*
X88070624Y-93427000D01*
X86927000Y-93427000D01*
X86927000Y-93447000D01*
X86673000Y-93447000D01*
X86673000Y-93427000D01*
X85529376Y-93427000D01*
X85408091Y-93649040D01*
X85502930Y-93913881D01*
X85647615Y-94155131D01*
X85656885Y-94165354D01*
X85381426Y-94220147D01*
X85120273Y-94328320D01*
X84885241Y-94485363D01*
X84685363Y-94685241D01*
X84528320Y-94920273D01*
X84420147Y-95181426D01*
X84365000Y-95458665D01*
X81365634Y-95458665D01*
X82484952Y-94339348D01*
X82560241Y-94414637D01*
X82795273Y-94571680D01*
X83056426Y-94679853D01*
X83333665Y-94735000D01*
X83616335Y-94735000D01*
X83893574Y-94679853D01*
X84154727Y-94571680D01*
X84389759Y-94414637D01*
X84589637Y-94214759D01*
X84746680Y-93979727D01*
X84854853Y-93718574D01*
X84910000Y-93441335D01*
X84910000Y-93158665D01*
X84881900Y-93017398D01*
X84948338Y-92950960D01*
X85408091Y-92950960D01*
X85529376Y-93173000D01*
X86673000Y-93173000D01*
X86673000Y-92030085D01*
X86927000Y-92030085D01*
X86927000Y-93173000D01*
X88070624Y-93173000D01*
X88191909Y-92950960D01*
X88097070Y-92686119D01*
X87952385Y-92444869D01*
X87763414Y-92236481D01*
X87537420Y-92068963D01*
X87283087Y-91948754D01*
X87149039Y-91908096D01*
X86927000Y-92030085D01*
X86673000Y-92030085D01*
X86450961Y-91908096D01*
X86316913Y-91948754D01*
X86062580Y-92068963D01*
X85836586Y-92236481D01*
X85647615Y-92444869D01*
X85502930Y-92686119D01*
X85408091Y-92950960D01*
X84948338Y-92950960D01*
X88408777Y-89490522D01*
X88422818Y-89536808D01*
X88556068Y-89786101D01*
X88735392Y-90004608D01*
X88953899Y-90183932D01*
X89086858Y-90255000D01*
X88953899Y-90326068D01*
X88735392Y-90505392D01*
X88556068Y-90723899D01*
X88422818Y-90973192D01*
X88340764Y-91243691D01*
X88313057Y-91525000D01*
X88340764Y-91806309D01*
X88422818Y-92076808D01*
X88556068Y-92326101D01*
X88735392Y-92544608D01*
X88953899Y-92723932D01*
X89086858Y-92795000D01*
X88953899Y-92866068D01*
X88735392Y-93045392D01*
X88556068Y-93263899D01*
X88422818Y-93513192D01*
X88340764Y-93783691D01*
X88313057Y-94065000D01*
X88340764Y-94346309D01*
X88422818Y-94616808D01*
X88556068Y-94866101D01*
X88735392Y-95084608D01*
X88953899Y-95263932D01*
X89203192Y-95397182D01*
X89473691Y-95479236D01*
X89684508Y-95500000D01*
X90625492Y-95500000D01*
X90836309Y-95479236D01*
X91106808Y-95397182D01*
X91356101Y-95263932D01*
X91574608Y-95084608D01*
X91753932Y-94866101D01*
X91887182Y-94616808D01*
X91969236Y-94346309D01*
X91996943Y-94065000D01*
X91969236Y-93783691D01*
X91887182Y-93513192D01*
X91850408Y-93444393D01*
X94186015Y-91108787D01*
X94215012Y-91084990D01*
X94309985Y-90969265D01*
X94380557Y-90837236D01*
X94424014Y-90693975D01*
X94435011Y-90582322D01*
X94435011Y-90582313D01*
X94438687Y-90544990D01*
X94435011Y-90507667D01*
X94435011Y-88985000D01*
X95933057Y-88985000D01*
X95960764Y-89266309D01*
X96042818Y-89536808D01*
X96176068Y-89786101D01*
X96355392Y-90004608D01*
X96573899Y-90183932D01*
X96706858Y-90255000D01*
X96573899Y-90326068D01*
X96355392Y-90505392D01*
X96176068Y-90723899D01*
X96042818Y-90973192D01*
X95960764Y-91243691D01*
X95933057Y-91525000D01*
X95960764Y-91806309D01*
X96042818Y-92076808D01*
X96176068Y-92326101D01*
X96355392Y-92544608D01*
X96573899Y-92723932D01*
X96706858Y-92795000D01*
X96573899Y-92866068D01*
X96355392Y-93045392D01*
X96176068Y-93263899D01*
X96042818Y-93513192D01*
X95960764Y-93783691D01*
X95933057Y-94065000D01*
X95960764Y-94346309D01*
X96042818Y-94616808D01*
X96176068Y-94866101D01*
X96355392Y-95084608D01*
X96573899Y-95263932D01*
X96823192Y-95397182D01*
X97093691Y-95479236D01*
X97304508Y-95500000D01*
X98245492Y-95500000D01*
X98456309Y-95479236D01*
X98726808Y-95397182D01*
X98976101Y-95263932D01*
X99194608Y-95084608D01*
X99373932Y-94866101D01*
X99507182Y-94616808D01*
X99589236Y-94346309D01*
X99616943Y-94065000D01*
X99589236Y-93783691D01*
X99507182Y-93513192D01*
X99388157Y-93290512D01*
X104359783Y-93290512D01*
X104401213Y-93570130D01*
X104496397Y-93836292D01*
X104563329Y-93961514D01*
X104807298Y-94033097D01*
X105620395Y-93220000D01*
X104807298Y-92406903D01*
X104563329Y-92478486D01*
X104442429Y-92733996D01*
X104373700Y-93008184D01*
X104359783Y-93290512D01*
X99388157Y-93290512D01*
X99373932Y-93263899D01*
X99194608Y-93045392D01*
X98976101Y-92866068D01*
X98843142Y-92795000D01*
X98976101Y-92723932D01*
X99194608Y-92544608D01*
X99373932Y-92326101D01*
X99507182Y-92076808D01*
X99589236Y-91806309D01*
X99616943Y-91525000D01*
X99589236Y-91243691D01*
X99507182Y-90973192D01*
X99373932Y-90723899D01*
X99194608Y-90505392D01*
X99137671Y-90458665D01*
X100365000Y-90458665D01*
X100365000Y-90741335D01*
X100420147Y-91018574D01*
X100528320Y-91279727D01*
X100685363Y-91514759D01*
X100885241Y-91714637D01*
X101120273Y-91871680D01*
X101381426Y-91979853D01*
X101658665Y-92035000D01*
X101941335Y-92035000D01*
X102218574Y-91979853D01*
X102479727Y-91871680D01*
X102714759Y-91714637D01*
X102914637Y-91514759D01*
X103071680Y-91279727D01*
X103179853Y-91018574D01*
X103235000Y-90741335D01*
X103235000Y-90458665D01*
X103179853Y-90181426D01*
X103071680Y-89920273D01*
X102914637Y-89685241D01*
X102714759Y-89485363D01*
X102479727Y-89328320D01*
X102218574Y-89220147D01*
X101941335Y-89165000D01*
X101658665Y-89165000D01*
X101381426Y-89220147D01*
X101120273Y-89328320D01*
X100885241Y-89485363D01*
X100685363Y-89685241D01*
X100528320Y-89920273D01*
X100420147Y-90181426D01*
X100365000Y-90458665D01*
X99137671Y-90458665D01*
X98976101Y-90326068D01*
X98843142Y-90255000D01*
X98976101Y-90183932D01*
X99194608Y-90004608D01*
X99373932Y-89786101D01*
X99507182Y-89536808D01*
X99589236Y-89266309D01*
X99616943Y-88985000D01*
X99589236Y-88703691D01*
X99507182Y-88433192D01*
X99373932Y-88183899D01*
X99194608Y-87965392D01*
X98976101Y-87786068D01*
X98848259Y-87717735D01*
X99077839Y-87567601D01*
X99279500Y-87369895D01*
X99438715Y-87136646D01*
X99549367Y-86876818D01*
X99566904Y-86794039D01*
X99456289Y-86592702D01*
X100986903Y-86592702D01*
X101058486Y-86836671D01*
X101313996Y-86957571D01*
X101588184Y-87026300D01*
X101870512Y-87040217D01*
X102150130Y-86998787D01*
X102416292Y-86903603D01*
X102541514Y-86836671D01*
X102613097Y-86592702D01*
X101800000Y-85779605D01*
X100986903Y-86592702D01*
X99456289Y-86592702D01*
X99444915Y-86572000D01*
X97902000Y-86572000D01*
X97902000Y-86592000D01*
X97648000Y-86592000D01*
X97648000Y-86572000D01*
X96105085Y-86572000D01*
X95983096Y-86794039D01*
X96000633Y-86876818D01*
X96111285Y-87136646D01*
X96270500Y-87369895D01*
X96472161Y-87567601D01*
X96701741Y-87717735D01*
X96573899Y-87786068D01*
X96355392Y-87965392D01*
X96176068Y-88183899D01*
X96042818Y-88433192D01*
X95960764Y-88703691D01*
X95933057Y-88985000D01*
X94435011Y-88985000D01*
X94435011Y-82667270D01*
X94509744Y-82717205D01*
X94698102Y-82795226D01*
X94898061Y-82835000D01*
X95101939Y-82835000D01*
X95301898Y-82795226D01*
X95490256Y-82717205D01*
X95659774Y-82603937D01*
X95803937Y-82459774D01*
X95917205Y-82290256D01*
X95995226Y-82101898D01*
X96035000Y-81901939D01*
X96035000Y-81891035D01*
X96042818Y-81916808D01*
X96176068Y-82166101D01*
X96355392Y-82384608D01*
X96573899Y-82563932D01*
X96706858Y-82635000D01*
X96573899Y-82706068D01*
X96355392Y-82885392D01*
X96176068Y-83103899D01*
X96042818Y-83353192D01*
X95960764Y-83623691D01*
X95933057Y-83905000D01*
X95960764Y-84186309D01*
X96042818Y-84456808D01*
X96176068Y-84706101D01*
X96355392Y-84924608D01*
X96573899Y-85103932D01*
X96701741Y-85172265D01*
X96472161Y-85322399D01*
X96270500Y-85520105D01*
X96111285Y-85753354D01*
X96000633Y-86013182D01*
X95983096Y-86095961D01*
X96105085Y-86318000D01*
X97648000Y-86318000D01*
X97648000Y-86298000D01*
X97902000Y-86298000D01*
X97902000Y-86318000D01*
X99444915Y-86318000D01*
X99566904Y-86095961D01*
X99549367Y-86013182D01*
X99438715Y-85753354D01*
X99279500Y-85520105D01*
X99077839Y-85322399D01*
X98848259Y-85172265D01*
X98976101Y-85103932D01*
X99194608Y-84924608D01*
X99373932Y-84706101D01*
X99507182Y-84456808D01*
X99589236Y-84186309D01*
X99616943Y-83905000D01*
X99596939Y-83701903D01*
X99620147Y-83818574D01*
X99728320Y-84079727D01*
X99885363Y-84314759D01*
X100085241Y-84514637D01*
X100320273Y-84671680D01*
X100581426Y-84779853D01*
X100730358Y-84809478D01*
X100563329Y-84858486D01*
X100442429Y-85113996D01*
X100373700Y-85388184D01*
X100359783Y-85670512D01*
X100401213Y-85950130D01*
X100496397Y-86216292D01*
X100563329Y-86341514D01*
X100807298Y-86413097D01*
X101620395Y-85600000D01*
X101979605Y-85600000D01*
X102792702Y-86413097D01*
X103036671Y-86341514D01*
X103157571Y-86086004D01*
X103226300Y-85811816D01*
X103240217Y-85529488D01*
X103198787Y-85249870D01*
X103103603Y-84983708D01*
X103036671Y-84858486D01*
X102792702Y-84786903D01*
X101979605Y-85600000D01*
X101620395Y-85600000D01*
X101606253Y-85585858D01*
X101785858Y-85406253D01*
X101800000Y-85420395D01*
X102613097Y-84607298D01*
X102541514Y-84363329D01*
X102286004Y-84242429D01*
X102180617Y-84216012D01*
X102271680Y-84079727D01*
X102379853Y-83818574D01*
X102392689Y-83754040D01*
X102833091Y-83754040D01*
X102927930Y-84018881D01*
X103072615Y-84260131D01*
X103261586Y-84468519D01*
X103487580Y-84636037D01*
X103741913Y-84756246D01*
X103875961Y-84796904D01*
X104098000Y-84674915D01*
X104098000Y-83532000D01*
X102954376Y-83532000D01*
X102833091Y-83754040D01*
X102392689Y-83754040D01*
X102435000Y-83541335D01*
X102435000Y-83258665D01*
X102379853Y-82981426D01*
X102271680Y-82720273D01*
X102114637Y-82485241D01*
X101914759Y-82285363D01*
X101679727Y-82128320D01*
X101418574Y-82020147D01*
X101141335Y-81965000D01*
X100858665Y-81965000D01*
X100581426Y-82020147D01*
X100320273Y-82128320D01*
X100085241Y-82285363D01*
X99885363Y-82485241D01*
X99728320Y-82720273D01*
X99620147Y-82981426D01*
X99565000Y-83258665D01*
X99565000Y-83541335D01*
X99566421Y-83548480D01*
X99507182Y-83353192D01*
X99373932Y-83103899D01*
X99194608Y-82885392D01*
X98976101Y-82706068D01*
X98843142Y-82635000D01*
X98976101Y-82563932D01*
X99194608Y-82384608D01*
X99373932Y-82166101D01*
X99507182Y-81916808D01*
X99589236Y-81646309D01*
X99616943Y-81365000D01*
X99589236Y-81083691D01*
X99507182Y-80813192D01*
X99373932Y-80563899D01*
X99194608Y-80345392D01*
X98976101Y-80166068D01*
X98843142Y-80095000D01*
X98976101Y-80023932D01*
X99194608Y-79844608D01*
X99373932Y-79626101D01*
X99507182Y-79376808D01*
X99589236Y-79106309D01*
X99616943Y-78825000D01*
X99589236Y-78543691D01*
X99507182Y-78273192D01*
X99373932Y-78023899D01*
X99194608Y-77805392D01*
X98976101Y-77626068D01*
X98843142Y-77555000D01*
X98976101Y-77483932D01*
X99192247Y-77306545D01*
X103926639Y-82040939D01*
X103875961Y-82013096D01*
X103741913Y-82053754D01*
X103487580Y-82173963D01*
X103261586Y-82341481D01*
X103072615Y-82549869D01*
X102927930Y-82791119D01*
X102833091Y-83055960D01*
X102954376Y-83278000D01*
X104098000Y-83278000D01*
X104098000Y-83258000D01*
X104352000Y-83258000D01*
X104352000Y-83278000D01*
X104372000Y-83278000D01*
X104372000Y-83532000D01*
X104352000Y-83532000D01*
X104352000Y-84674915D01*
X104574039Y-84796904D01*
X104620084Y-84782938D01*
X104528320Y-84920273D01*
X104420147Y-85181426D01*
X104365000Y-85458665D01*
X104365000Y-85741335D01*
X104420147Y-86018574D01*
X104528320Y-86279727D01*
X104685363Y-86514759D01*
X104885241Y-86714637D01*
X105120273Y-86871680D01*
X105381426Y-86979853D01*
X105658665Y-87035000D01*
X105941335Y-87035000D01*
X106218574Y-86979853D01*
X106479727Y-86871680D01*
X106605001Y-86787975D01*
X106605000Y-92199703D01*
X106541514Y-91983329D01*
X106286004Y-91862429D01*
X106011816Y-91793700D01*
X105729488Y-91779783D01*
X105449870Y-91821213D01*
X105183708Y-91916397D01*
X105058486Y-91983329D01*
X104986903Y-92227298D01*
X105800000Y-93040395D01*
X105814143Y-93026253D01*
X105993748Y-93205858D01*
X105979605Y-93220000D01*
X105993748Y-93234143D01*
X105814143Y-93413748D01*
X105800000Y-93399605D01*
X104986903Y-94212702D01*
X105058486Y-94456671D01*
X105313996Y-94577571D01*
X105588184Y-94646300D01*
X105870512Y-94660217D01*
X106150130Y-94618787D01*
X106416292Y-94523603D01*
X106541514Y-94456671D01*
X106605000Y-94240298D01*
X106605000Y-95370700D01*
X102813774Y-99161928D01*
X101700000Y-99161928D01*
X101575518Y-99174188D01*
X101455820Y-99210498D01*
X101345506Y-99269463D01*
X101248815Y-99348815D01*
X101169463Y-99445506D01*
X101110498Y-99555820D01*
X101074188Y-99675518D01*
X101061928Y-99800000D01*
X101061928Y-101400000D01*
X101074188Y-101524482D01*
X101110498Y-101644180D01*
X101169463Y-101754494D01*
X101248815Y-101851185D01*
X101345506Y-101930537D01*
X101455820Y-101989502D01*
X101575518Y-102025812D01*
X101700000Y-102038072D01*
X103300000Y-102038072D01*
X103424482Y-102025812D01*
X103544180Y-101989502D01*
X103654494Y-101930537D01*
X103751185Y-101851185D01*
X103830537Y-101754494D01*
X103889502Y-101644180D01*
X103905117Y-101592702D01*
X104186903Y-101592702D01*
X104258486Y-101836671D01*
X104513996Y-101957571D01*
X104788184Y-102026300D01*
X105070512Y-102040217D01*
X105350130Y-101998787D01*
X105616292Y-101903603D01*
X105741514Y-101836671D01*
X105813097Y-101592702D01*
X105000000Y-100779605D01*
X104186903Y-101592702D01*
X103905117Y-101592702D01*
X103925812Y-101524482D01*
X103938072Y-101400000D01*
X103938072Y-101392785D01*
X104007298Y-101413097D01*
X104820395Y-100600000D01*
X105179605Y-100600000D01*
X105992702Y-101413097D01*
X106236671Y-101341514D01*
X106357571Y-101086004D01*
X106426300Y-100811816D01*
X106440217Y-100529488D01*
X106398787Y-100249870D01*
X106303603Y-99983708D01*
X106236671Y-99858486D01*
X105992702Y-99786903D01*
X105179605Y-100600000D01*
X104820395Y-100600000D01*
X104806253Y-100585858D01*
X104985858Y-100406253D01*
X105000000Y-100420395D01*
X105813097Y-99607298D01*
X105741514Y-99363329D01*
X105486004Y-99242429D01*
X105211816Y-99173700D01*
X105058172Y-99166126D01*
X107934544Y-96289756D01*
X107964869Y-96264869D01*
X108064216Y-96143815D01*
X108138037Y-96005705D01*
X108183496Y-95855847D01*
X108195000Y-95739048D01*
X108195000Y-95739039D01*
X108198845Y-95700001D01*
X108195000Y-95660963D01*
X108195000Y-84594657D01*
X108314759Y-84514637D01*
X108514637Y-84314759D01*
X108671680Y-84079727D01*
X108779853Y-83818574D01*
X108835000Y-83541335D01*
X108835000Y-83258665D01*
X108779853Y-82981426D01*
X108671680Y-82720273D01*
X108514637Y-82485241D01*
X108314759Y-82285363D01*
X108079727Y-82128320D01*
X107818574Y-82020147D01*
X107541335Y-81965000D01*
X107258665Y-81965000D01*
X106981426Y-82020147D01*
X106720273Y-82128320D01*
X106485241Y-82285363D01*
X106452452Y-82318152D01*
X101314795Y-77180496D01*
X101418574Y-77159853D01*
X101679727Y-77051680D01*
X101914759Y-76894637D01*
X102114637Y-76694759D01*
X102271680Y-76459727D01*
X102379853Y-76198574D01*
X102435000Y-75921335D01*
X102435000Y-75638665D01*
X102379853Y-75361426D01*
X102271680Y-75100273D01*
X102114637Y-74865241D01*
X101914759Y-74665363D01*
X101816936Y-74600000D01*
X101914759Y-74534637D01*
X102114637Y-74334759D01*
X102271680Y-74099727D01*
X102379853Y-73838574D01*
X102435000Y-73561335D01*
X102435000Y-73278665D01*
X102765000Y-73278665D01*
X102765000Y-73561335D01*
X102820147Y-73838574D01*
X102928320Y-74099727D01*
X103085363Y-74334759D01*
X103285241Y-74534637D01*
X103399305Y-74610852D01*
X103310241Y-74670363D01*
X103110363Y-74870241D01*
X102953320Y-75105273D01*
X102845147Y-75366426D01*
X102790000Y-75643665D01*
X102790000Y-75926335D01*
X102845147Y-76203574D01*
X102953320Y-76464727D01*
X103110363Y-76699759D01*
X103310241Y-76899637D01*
X103545273Y-77056680D01*
X103806426Y-77164853D01*
X104083665Y-77220000D01*
X104366335Y-77220000D01*
X104643574Y-77164853D01*
X104904727Y-77056680D01*
X105139759Y-76899637D01*
X105339637Y-76699759D01*
X105496680Y-76464727D01*
X105604853Y-76203574D01*
X105660000Y-75926335D01*
X105660000Y-75643665D01*
X105604853Y-75366426D01*
X105496680Y-75105273D01*
X105339637Y-74870241D01*
X105139759Y-74670363D01*
X105025695Y-74594148D01*
X105114759Y-74534637D01*
X105314637Y-74334759D01*
X105471680Y-74099727D01*
X105579853Y-73838574D01*
X105635000Y-73561335D01*
X105635000Y-73278665D01*
X105631022Y-73258665D01*
X105965000Y-73258665D01*
X105965000Y-73541335D01*
X106020147Y-73818574D01*
X106128320Y-74079727D01*
X106285363Y-74314759D01*
X106485241Y-74514637D01*
X106598030Y-74590000D01*
X106485241Y-74665363D01*
X106285363Y-74865241D01*
X106128320Y-75100273D01*
X106020147Y-75361426D01*
X105965000Y-75638665D01*
X105965000Y-75921335D01*
X106020147Y-76198574D01*
X106128320Y-76459727D01*
X106285363Y-76694759D01*
X106485241Y-76894637D01*
X106720273Y-77051680D01*
X106981426Y-77159853D01*
X107258665Y-77215000D01*
X107541335Y-77215000D01*
X107818574Y-77159853D01*
X108079727Y-77051680D01*
X108314759Y-76894637D01*
X108514637Y-76694759D01*
X108671680Y-76459727D01*
X108779853Y-76198574D01*
X108835000Y-75921335D01*
X108835000Y-75638665D01*
X108779853Y-75361426D01*
X108671680Y-75100273D01*
X108514637Y-74865241D01*
X108314759Y-74665363D01*
X108201970Y-74590000D01*
X108314759Y-74514637D01*
X108514637Y-74314759D01*
X108671680Y-74079727D01*
X108779853Y-73818574D01*
X108835000Y-73541335D01*
X108835000Y-73258665D01*
X108779853Y-72981426D01*
X108671680Y-72720273D01*
X108514637Y-72485241D01*
X108314759Y-72285363D01*
X108079727Y-72128320D01*
X107818574Y-72020147D01*
X107541335Y-71965000D01*
X107258665Y-71965000D01*
X106981426Y-72020147D01*
X106720273Y-72128320D01*
X106485241Y-72285363D01*
X106285363Y-72485241D01*
X106128320Y-72720273D01*
X106020147Y-72981426D01*
X105965000Y-73258665D01*
X105631022Y-73258665D01*
X105579853Y-73001426D01*
X105471680Y-72740273D01*
X105314637Y-72505241D01*
X105114759Y-72305363D01*
X104879727Y-72148320D01*
X104618574Y-72040147D01*
X104341335Y-71985000D01*
X104058665Y-71985000D01*
X103781426Y-72040147D01*
X103520273Y-72148320D01*
X103285241Y-72305363D01*
X103085363Y-72505241D01*
X102928320Y-72740273D01*
X102820147Y-73001426D01*
X102765000Y-73278665D01*
X102435000Y-73278665D01*
X102379853Y-73001426D01*
X102271680Y-72740273D01*
X102114637Y-72505241D01*
X101914759Y-72305363D01*
X101679727Y-72148320D01*
X101418574Y-72040147D01*
X101141335Y-71985000D01*
X100858665Y-71985000D01*
X100581426Y-72040147D01*
X100320273Y-72148320D01*
X100085241Y-72305363D01*
X99885363Y-72505241D01*
X99728320Y-72740273D01*
X99620147Y-73001426D01*
X99565000Y-73278665D01*
X99565000Y-73561335D01*
X99620147Y-73838574D01*
X99728320Y-74099727D01*
X99885363Y-74334759D01*
X100085241Y-74534637D01*
X100183064Y-74600000D01*
X100085241Y-74665363D01*
X99885363Y-74865241D01*
X99728320Y-75100273D01*
X99620147Y-75361426D01*
X99584235Y-75541967D01*
X99450847Y-75501504D01*
X99379591Y-75494486D01*
X99373932Y-75483899D01*
X99194608Y-75265392D01*
X98976101Y-75086068D01*
X98726808Y-74952818D01*
X98456309Y-74870764D01*
X98245492Y-74850000D01*
X97304508Y-74850000D01*
X97093691Y-74870764D01*
X96823192Y-74952818D01*
X96573899Y-75086068D01*
X96355392Y-75265392D01*
X96176068Y-75483899D01*
X96042818Y-75733192D01*
X95960764Y-76003691D01*
X95933057Y-76285000D01*
X95960764Y-76566309D01*
X96042818Y-76836808D01*
X96176068Y-77086101D01*
X96355392Y-77304608D01*
X96573899Y-77483932D01*
X96706858Y-77555000D01*
X96573899Y-77626068D01*
X96355392Y-77805392D01*
X96176068Y-78023899D01*
X96042818Y-78273192D01*
X95960764Y-78543691D01*
X95933057Y-78825000D01*
X95960764Y-79106309D01*
X96042818Y-79376808D01*
X96176068Y-79626101D01*
X96355392Y-79844608D01*
X96573899Y-80023932D01*
X96706858Y-80095000D01*
X96573899Y-80166068D01*
X96355392Y-80345392D01*
X96176068Y-80563899D01*
X96042818Y-80813192D01*
X95960764Y-81083691D01*
X95934409Y-81351277D01*
X95917205Y-81309744D01*
X95803937Y-81140226D01*
X95659774Y-80996063D01*
X95490256Y-80882795D01*
X95434999Y-80859907D01*
X95434999Y-74790509D01*
X95658665Y-74835000D01*
X95941335Y-74835000D01*
X96218574Y-74779853D01*
X96479727Y-74671680D01*
X96714759Y-74514637D01*
X96914637Y-74314759D01*
X97071680Y-74079727D01*
X97179853Y-73818574D01*
X97235000Y-73541335D01*
X97235000Y-73258665D01*
X97179853Y-72981426D01*
X97071680Y-72720273D01*
X96914637Y-72485241D01*
X96714759Y-72285363D01*
X96479727Y-72128320D01*
X96236245Y-72027466D01*
X96303937Y-71959774D01*
X96417205Y-71790256D01*
X96495226Y-71601898D01*
X96535000Y-71401939D01*
X96535000Y-71198061D01*
X96495226Y-70998102D01*
X96417205Y-70809744D01*
X96303937Y-70640226D01*
X96159774Y-70496063D01*
X95990256Y-70382795D01*
X95801898Y-70304774D01*
X95601939Y-70265000D01*
X95398061Y-70265000D01*
X95262878Y-70291889D01*
X95260000Y-70262667D01*
X95260000Y-69729557D01*
X95381426Y-69779853D01*
X95658665Y-69835000D01*
X95941335Y-69835000D01*
X96218574Y-69779853D01*
X96479727Y-69671680D01*
X96714759Y-69514637D01*
X96914637Y-69314759D01*
X97071680Y-69079727D01*
X97179853Y-68818574D01*
X97235000Y-68541335D01*
X97235000Y-68258665D01*
X97198688Y-68076113D01*
X99565000Y-65709802D01*
X99565000Y-65941335D01*
X99620147Y-66218574D01*
X99728320Y-66479727D01*
X99885363Y-66714759D01*
X100085241Y-66914637D01*
X100320273Y-67071680D01*
X100581426Y-67179853D01*
X100858665Y-67235000D01*
X101141335Y-67235000D01*
X101418574Y-67179853D01*
X101679727Y-67071680D01*
X101914759Y-66914637D01*
X102114637Y-66714759D01*
X102218906Y-66558709D01*
X103096200Y-67436004D01*
X103119998Y-67465002D01*
X103235723Y-67559975D01*
X103367752Y-67630547D01*
X103511013Y-67674004D01*
X103622666Y-67685001D01*
X103622674Y-67685001D01*
X103659999Y-67688677D01*
X103697324Y-67685001D01*
X104702679Y-67685001D01*
X104740001Y-67688677D01*
X104777323Y-67685001D01*
X104777334Y-67685001D01*
X104888987Y-67674004D01*
X105032248Y-67630547D01*
X105164277Y-67559975D01*
X105280002Y-67465002D01*
X105303804Y-67435999D01*
X105961013Y-66778790D01*
X105990012Y-66754992D01*
X106084985Y-66639267D01*
X106155557Y-66507238D01*
X106156965Y-66502597D01*
X106285363Y-66694759D01*
X106485241Y-66894637D01*
X106720273Y-67051680D01*
X106981426Y-67159853D01*
X107258665Y-67215000D01*
X107541335Y-67215000D01*
X107818574Y-67159853D01*
X108079727Y-67051680D01*
X108314759Y-66894637D01*
X108514637Y-66694759D01*
X108671680Y-66459727D01*
X108779853Y-66198574D01*
X108835000Y-65921335D01*
X108835000Y-65638665D01*
X108779853Y-65361426D01*
X108671680Y-65100273D01*
X108514637Y-64865241D01*
X108314759Y-64665363D01*
X108079727Y-64508320D01*
X107818574Y-64400147D01*
X107541335Y-64345000D01*
X107258665Y-64345000D01*
X106981426Y-64400147D01*
X106720273Y-64508320D01*
X106485241Y-64665363D01*
X106285363Y-64865241D01*
X106210011Y-64978013D01*
X106210011Y-57756890D01*
X106558524Y-57756890D01*
X106603175Y-57904099D01*
X106728359Y-58166920D01*
X106902412Y-58400269D01*
X107118645Y-58595178D01*
X107368748Y-58744157D01*
X107643109Y-58841481D01*
X107873000Y-58720814D01*
X107873000Y-57527000D01*
X106679845Y-57527000D01*
X106558524Y-57756890D01*
X106210011Y-57756890D01*
X106210011Y-55184790D01*
X106515000Y-54879801D01*
X106515000Y-55006260D01*
X106572068Y-55293158D01*
X106684010Y-55563411D01*
X106846525Y-55806632D01*
X107053368Y-56013475D01*
X107235534Y-56135195D01*
X107118645Y-56204822D01*
X106902412Y-56399731D01*
X106728359Y-56633080D01*
X106603175Y-56895901D01*
X106558524Y-57043110D01*
X106679845Y-57273000D01*
X107873000Y-57273000D01*
X107873000Y-57253000D01*
X108127000Y-57253000D01*
X108127000Y-57273000D01*
X108147000Y-57273000D01*
X108147000Y-57527000D01*
X108127000Y-57527000D01*
X108127000Y-58720814D01*
X108356891Y-58841481D01*
X108631252Y-58744157D01*
X108881355Y-58595178D01*
X109097588Y-58400269D01*
X109271641Y-58166920D01*
X109315000Y-58075888D01*
X109315001Y-115766485D01*
X109267688Y-116249016D01*
X109137287Y-116680927D01*
X108925480Y-117079280D01*
X108640325Y-117428914D01*
X108292697Y-117716497D01*
X107895825Y-117931085D01*
X107464834Y-118064500D01*
X106984346Y-118115000D01*
X79033504Y-118115000D01*
X78550984Y-118067688D01*
X78119073Y-117937287D01*
X77720720Y-117725480D01*
X77371086Y-117440325D01*
X77083503Y-117092697D01*
X76868915Y-116695825D01*
X76735500Y-116264834D01*
X76685000Y-115784346D01*
X76685000Y-115579872D01*
X76765000Y-115579872D01*
X76765000Y-116020128D01*
X76850890Y-116451925D01*
X77019369Y-116858669D01*
X77263962Y-117224729D01*
X77575271Y-117536038D01*
X77941331Y-117780631D01*
X78348075Y-117949110D01*
X78779872Y-118035000D01*
X79220128Y-118035000D01*
X79651925Y-117949110D01*
X80058669Y-117780631D01*
X80424729Y-117536038D01*
X80736038Y-117224729D01*
X80980631Y-116858669D01*
X81149110Y-116451925D01*
X81235000Y-116020128D01*
X81235000Y-115579872D01*
X81149110Y-115148075D01*
X80980631Y-114741331D01*
X80736038Y-114375271D01*
X80424729Y-114063962D01*
X80058669Y-113819369D01*
X79651925Y-113650890D01*
X79220128Y-113565000D01*
X78779872Y-113565000D01*
X78348075Y-113650890D01*
X77941331Y-113819369D01*
X77575271Y-114063962D01*
X77263962Y-114375271D01*
X77019369Y-114741331D01*
X76850890Y-115148075D01*
X76765000Y-115579872D01*
X76685000Y-115579872D01*
X76685000Y-77186544D01*
X77445000Y-77186544D01*
X77445000Y-77453456D01*
X77497072Y-77715239D01*
X77599215Y-77961833D01*
X77747503Y-78183762D01*
X77936238Y-78372497D01*
X78158167Y-78520785D01*
X78325266Y-78590000D01*
X78158167Y-78659215D01*
X77936238Y-78807503D01*
X77747503Y-78996238D01*
X77599215Y-79218167D01*
X77497072Y-79464761D01*
X77445000Y-79726544D01*
X77445000Y-79993456D01*
X77497072Y-80255239D01*
X77599215Y-80501833D01*
X77747503Y-80723762D01*
X77936238Y-80912497D01*
X78158167Y-81060785D01*
X78325266Y-81130000D01*
X78158167Y-81199215D01*
X77936238Y-81347503D01*
X77747503Y-81536238D01*
X77599215Y-81758167D01*
X77497072Y-82004761D01*
X77445000Y-82266544D01*
X77445000Y-82533456D01*
X77497072Y-82795239D01*
X77599215Y-83041833D01*
X77747503Y-83263762D01*
X77936238Y-83452497D01*
X78158167Y-83600785D01*
X78404761Y-83702928D01*
X78666544Y-83755000D01*
X78933456Y-83755000D01*
X79195239Y-83702928D01*
X79441833Y-83600785D01*
X79663762Y-83452497D01*
X79852497Y-83263762D01*
X79892652Y-83203665D01*
X82040000Y-83203665D01*
X82040000Y-83486335D01*
X82095147Y-83763574D01*
X82203320Y-84024727D01*
X82360363Y-84259759D01*
X82560241Y-84459637D01*
X82639356Y-84512500D01*
X82560241Y-84565363D01*
X82360363Y-84765241D01*
X82203320Y-85000273D01*
X82095147Y-85261426D01*
X82040000Y-85538665D01*
X82040000Y-85821335D01*
X82095147Y-86098574D01*
X82203320Y-86359727D01*
X82360363Y-86594759D01*
X82560241Y-86794637D01*
X82795273Y-86951680D01*
X83056426Y-87059853D01*
X83333665Y-87115000D01*
X83616335Y-87115000D01*
X83893574Y-87059853D01*
X84154727Y-86951680D01*
X84389759Y-86794637D01*
X84589637Y-86594759D01*
X84746680Y-86359727D01*
X84854853Y-86098574D01*
X84910000Y-85821335D01*
X84910000Y-85538665D01*
X84854853Y-85261426D01*
X84746680Y-85000273D01*
X84589637Y-84765241D01*
X84389759Y-84565363D01*
X84310644Y-84512500D01*
X84389759Y-84459637D01*
X84589637Y-84259759D01*
X84746680Y-84024727D01*
X84854853Y-83763574D01*
X84910000Y-83486335D01*
X84910000Y-83203665D01*
X84854853Y-82926426D01*
X84746680Y-82665273D01*
X84589637Y-82430241D01*
X84389759Y-82230363D01*
X84154727Y-82073320D01*
X83893574Y-81965147D01*
X83616335Y-81910000D01*
X83333665Y-81910000D01*
X83056426Y-81965147D01*
X82795273Y-82073320D01*
X82560241Y-82230363D01*
X82360363Y-82430241D01*
X82203320Y-82665273D01*
X82095147Y-82926426D01*
X82040000Y-83203665D01*
X79892652Y-83203665D01*
X80000785Y-83041833D01*
X80102928Y-82795239D01*
X80155000Y-82533456D01*
X80155000Y-82266544D01*
X80102928Y-82004761D01*
X80000785Y-81758167D01*
X79852497Y-81536238D01*
X79663762Y-81347503D01*
X79441833Y-81199215D01*
X79274734Y-81130000D01*
X79441833Y-81060785D01*
X79663762Y-80912497D01*
X79852497Y-80723762D01*
X80000785Y-80501833D01*
X80102928Y-80255239D01*
X80155000Y-79993456D01*
X80155000Y-79726544D01*
X80102928Y-79464761D01*
X80000785Y-79218167D01*
X79852497Y-78996238D01*
X79663762Y-78807503D01*
X79441833Y-78659215D01*
X79274734Y-78590000D01*
X79441833Y-78520785D01*
X79663762Y-78372497D01*
X79852497Y-78183762D01*
X80000785Y-77961833D01*
X80102928Y-77715239D01*
X80155000Y-77453456D01*
X80155000Y-77186544D01*
X80102928Y-76924761D01*
X80000785Y-76678167D01*
X79852497Y-76456238D01*
X79663762Y-76267503D01*
X79441833Y-76119215D01*
X79195239Y-76017072D01*
X78933456Y-75965000D01*
X78666544Y-75965000D01*
X78404761Y-76017072D01*
X78158167Y-76119215D01*
X77936238Y-76267503D01*
X77747503Y-76456238D01*
X77599215Y-76678167D01*
X77497072Y-76924761D01*
X77445000Y-77186544D01*
X76685000Y-77186544D01*
X76685000Y-75583665D01*
X82040000Y-75583665D01*
X82040000Y-75866335D01*
X82095147Y-76143574D01*
X82203320Y-76404727D01*
X82360363Y-76639759D01*
X82560241Y-76839637D01*
X82795273Y-76996680D01*
X83056426Y-77104853D01*
X83333665Y-77160000D01*
X83616335Y-77160000D01*
X83893574Y-77104853D01*
X84154727Y-76996680D01*
X84389759Y-76839637D01*
X84589637Y-76639759D01*
X84746680Y-76404727D01*
X84854853Y-76143574D01*
X84910000Y-75866335D01*
X84910000Y-75583665D01*
X84854853Y-75306426D01*
X84746680Y-75045273D01*
X84589637Y-74810241D01*
X84389759Y-74610363D01*
X84154727Y-74453320D01*
X83893574Y-74345147D01*
X83616335Y-74290000D01*
X83333665Y-74290000D01*
X83056426Y-74345147D01*
X82795273Y-74453320D01*
X82560241Y-74610363D01*
X82360363Y-74810241D01*
X82203320Y-75045273D01*
X82095147Y-75306426D01*
X82040000Y-75583665D01*
X76685000Y-75583665D01*
X76685000Y-74392702D01*
X79386903Y-74392702D01*
X79458486Y-74636671D01*
X79713996Y-74757571D01*
X79988184Y-74826300D01*
X80270512Y-74840217D01*
X80550130Y-74798787D01*
X80816292Y-74703603D01*
X80941514Y-74636671D01*
X81013097Y-74392702D01*
X80200000Y-73579605D01*
X79386903Y-74392702D01*
X76685000Y-74392702D01*
X76685000Y-73470512D01*
X78759783Y-73470512D01*
X78801213Y-73750130D01*
X78896397Y-74016292D01*
X78963329Y-74141514D01*
X79207298Y-74213097D01*
X80020395Y-73400000D01*
X80379605Y-73400000D01*
X81192702Y-74213097D01*
X81436671Y-74141514D01*
X81557571Y-73886004D01*
X81626300Y-73611816D01*
X81633265Y-73470512D01*
X83959783Y-73470512D01*
X84001213Y-73750130D01*
X84096397Y-74016292D01*
X84163329Y-74141514D01*
X84407298Y-74213097D01*
X85220395Y-73400000D01*
X84407298Y-72586903D01*
X84163329Y-72658486D01*
X84042429Y-72913996D01*
X83973700Y-73188184D01*
X83959783Y-73470512D01*
X81633265Y-73470512D01*
X81640217Y-73329488D01*
X81598787Y-73049870D01*
X81503603Y-72783708D01*
X81436671Y-72658486D01*
X81192702Y-72586903D01*
X80379605Y-73400000D01*
X80020395Y-73400000D01*
X79207298Y-72586903D01*
X78963329Y-72658486D01*
X78842429Y-72913996D01*
X78773700Y-73188184D01*
X78759783Y-73470512D01*
X76685000Y-73470512D01*
X76685000Y-72407298D01*
X79386903Y-72407298D01*
X80200000Y-73220395D01*
X81013097Y-72407298D01*
X84586903Y-72407298D01*
X85400000Y-73220395D01*
X86213097Y-72407298D01*
X86141514Y-72163329D01*
X85886004Y-72042429D01*
X85611816Y-71973700D01*
X85329488Y-71959783D01*
X85049870Y-72001213D01*
X84783708Y-72096397D01*
X84658486Y-72163329D01*
X84586903Y-72407298D01*
X81013097Y-72407298D01*
X80941514Y-72163329D01*
X80686004Y-72042429D01*
X80411816Y-71973700D01*
X80129488Y-71959783D01*
X79849870Y-72001213D01*
X79583708Y-72096397D01*
X79458486Y-72163329D01*
X79386903Y-72407298D01*
X76685000Y-72407298D01*
X76685000Y-68258665D01*
X78765000Y-68258665D01*
X78765000Y-68541335D01*
X78820147Y-68818574D01*
X78928320Y-69079727D01*
X79085363Y-69314759D01*
X79285241Y-69514637D01*
X79520273Y-69671680D01*
X79781426Y-69779853D01*
X80058665Y-69835000D01*
X80341335Y-69835000D01*
X80618574Y-69779853D01*
X80879727Y-69671680D01*
X81114759Y-69514637D01*
X81314637Y-69314759D01*
X81471680Y-69079727D01*
X81579853Y-68818574D01*
X81635000Y-68541335D01*
X81635000Y-68258665D01*
X81579853Y-67981426D01*
X81471680Y-67720273D01*
X81314637Y-67485241D01*
X81114759Y-67285363D01*
X80879727Y-67128320D01*
X80618574Y-67020147D01*
X80341335Y-66965000D01*
X80058665Y-66965000D01*
X79781426Y-67020147D01*
X79520273Y-67128320D01*
X79285241Y-67285363D01*
X79085363Y-67485241D01*
X78928320Y-67720273D01*
X78820147Y-67981426D01*
X78765000Y-68258665D01*
X76685000Y-68258665D01*
X76685000Y-62078665D01*
X81965000Y-62078665D01*
X81965000Y-62361335D01*
X82020147Y-62638574D01*
X82128320Y-62899727D01*
X82285363Y-63134759D01*
X82485241Y-63334637D01*
X82720273Y-63491680D01*
X82981426Y-63599853D01*
X83258665Y-63655000D01*
X83541335Y-63655000D01*
X83818574Y-63599853D01*
X84079727Y-63491680D01*
X84314759Y-63334637D01*
X84514637Y-63134759D01*
X84671680Y-62899727D01*
X84779853Y-62638574D01*
X84835000Y-62361335D01*
X84835000Y-62078665D01*
X84779853Y-61801426D01*
X84671680Y-61540273D01*
X84514637Y-61305241D01*
X84314759Y-61105363D01*
X84079727Y-60948320D01*
X83818574Y-60840147D01*
X83541335Y-60785000D01*
X83258665Y-60785000D01*
X82981426Y-60840147D01*
X82720273Y-60948320D01*
X82485241Y-61105363D01*
X82285363Y-61305241D01*
X82128320Y-61540273D01*
X82020147Y-61801426D01*
X81965000Y-62078665D01*
X76685000Y-62078665D01*
X76685000Y-28333505D01*
X76732312Y-27850984D01*
X76862714Y-27419070D01*
X77074524Y-27020715D01*
X77359675Y-26671086D01*
X77707303Y-26383503D01*
X78104177Y-26168914D01*
X78535161Y-26035502D01*
X79015654Y-25985000D01*
X106966495Y-25985000D01*
X107449016Y-26032312D01*
G37*
%TD.AperFunction*%
D23*
X80167000Y-29773000D02*
X82453000Y-29773000D01*
X82453000Y-29753000D01*
X82707000Y-29753000D01*
X82707000Y-29773000D01*
X82727000Y-29773000D01*
X82727000Y-30027000D01*
X82707000Y-30027000D01*
X82707000Y-31220155D01*
X82936890Y-31341476D01*
X83084099Y-31296825D01*
X83346920Y-31171641D01*
X83580269Y-30997588D01*
X83775178Y-30781355D01*
X83844805Y-30664466D01*
X83966525Y-30846632D01*
X84173368Y-31053475D01*
X84360001Y-31178179D01*
X84360000Y-41807678D01*
X84356324Y-41845000D01*
X84360000Y-41882322D01*
X84360000Y-41882332D01*
X84370997Y-41993985D01*
X84414454Y-42137246D01*
X84485026Y-42269276D01*
X84522253Y-42314637D01*
X84579999Y-42385001D01*
X84609003Y-42408804D01*
X87986928Y-45786730D01*
X87986928Y-47350000D01*
X87999188Y-47474482D01*
X88035498Y-47594180D01*
X88094463Y-47704494D01*
X88173815Y-47801185D01*
X88270506Y-47880537D01*
X88380820Y-47939502D01*
X88500518Y-47975812D01*
X88518482Y-47977581D01*
X88405392Y-48070392D01*
X88226068Y-48288899D01*
X88092818Y-48538192D01*
X88010764Y-48808691D01*
X87983057Y-49090000D01*
X88010764Y-49371309D01*
X88092818Y-49641808D01*
X88226068Y-49891101D01*
X88405392Y-50109608D01*
X88623899Y-50288932D01*
X88756858Y-50360000D01*
X88623899Y-50431068D01*
X88405392Y-50610392D01*
X88226068Y-50828899D01*
X88092818Y-51078192D01*
X88010764Y-51348691D01*
X87983057Y-51630000D01*
X88010764Y-51911309D01*
X88092818Y-52181808D01*
X88226068Y-52431101D01*
X88405392Y-52649608D01*
X88623899Y-52828932D01*
X88756858Y-52900000D01*
X88623899Y-52971068D01*
X88405392Y-53150392D01*
X88226068Y-53368899D01*
X88092818Y-53618192D01*
X88010764Y-53888691D01*
X87983057Y-54170000D01*
X87988429Y-54224538D01*
X87979853Y-54181426D01*
X87871680Y-53920273D01*
X87714637Y-53685241D01*
X87514759Y-53485363D01*
X87279727Y-53328320D01*
X87018574Y-53220147D01*
X86741335Y-53165000D01*
X86458665Y-53165000D01*
X86181426Y-53220147D01*
X85920273Y-53328320D01*
X85685241Y-53485363D01*
X85485363Y-53685241D01*
X85328320Y-53920273D01*
X85220147Y-54181426D01*
X85165000Y-54458665D01*
X85165000Y-54741335D01*
X85220147Y-55018574D01*
X85328320Y-55279727D01*
X85485363Y-55514759D01*
X85685241Y-55714637D01*
X85920273Y-55871680D01*
X86181426Y-55979853D01*
X86458665Y-56035000D01*
X86741335Y-56035000D01*
X87018574Y-55979853D01*
X87279727Y-55871680D01*
X87514759Y-55714637D01*
X87714637Y-55514759D01*
X87871680Y-55279727D01*
X87979853Y-55018574D01*
X88035000Y-54741335D01*
X88035000Y-54531205D01*
X88092818Y-54721808D01*
X88226068Y-54971101D01*
X88405392Y-55189608D01*
X88623899Y-55368932D01*
X88756858Y-55440000D01*
X88623899Y-55511068D01*
X88405392Y-55690392D01*
X88226068Y-55908899D01*
X88092818Y-56158192D01*
X88010764Y-56428691D01*
X87983057Y-56710000D01*
X88010764Y-56991309D01*
X88092818Y-57261808D01*
X88226068Y-57511101D01*
X88405392Y-57729608D01*
X88623899Y-57908932D01*
X88756858Y-57980000D01*
X88623899Y-58051068D01*
X88405392Y-58230392D01*
X88226068Y-58448899D01*
X88092818Y-58698192D01*
X88010764Y-58968691D01*
X87983057Y-59250000D01*
X88010764Y-59531309D01*
X88092818Y-59801808D01*
X88226068Y-60051101D01*
X88405392Y-60269608D01*
X88623899Y-60448932D01*
X88756858Y-60520000D01*
X88623899Y-60591068D01*
X88405392Y-60770392D01*
X88226068Y-60988899D01*
X88185187Y-61065383D01*
X83090167Y-55970364D01*
X83273000Y-55869915D01*
X83273000Y-54727000D01*
X83527000Y-54727000D01*
X83527000Y-55869915D01*
X83749039Y-55991904D01*
X83883087Y-55951246D01*
X84137420Y-55831037D01*
X84363414Y-55663519D01*
X84552385Y-55455131D01*
X84697070Y-55213881D01*
X84791909Y-54949040D01*
X84670624Y-54727000D01*
X83527000Y-54727000D01*
X83273000Y-54727000D01*
X83253000Y-54727000D01*
X83253000Y-54473000D01*
X83273000Y-54473000D01*
X83273000Y-53330085D01*
X83527000Y-53330085D01*
X83527000Y-54473000D01*
X84670624Y-54473000D01*
X84791909Y-54250960D01*
X84697070Y-53986119D01*
X84552385Y-53744869D01*
X84363414Y-53536481D01*
X84137420Y-53368963D01*
X83883087Y-53248754D01*
X83749039Y-53208096D01*
X83527000Y-53330085D01*
X83273000Y-53330085D01*
X83050961Y-53208096D01*
X83034999Y-53212937D01*
X83034999Y-36263319D01*
X83038675Y-36225996D01*
X83034999Y-36188673D01*
X83034999Y-36188664D01*
X83024002Y-36077011D01*
X82980545Y-35933750D01*
X82909973Y-35801721D01*
X82815000Y-35685996D01*
X82786003Y-35662199D01*
X79624999Y-32501196D01*
X79624999Y-31385704D01*
X79754250Y-31385000D01*
X79913000Y-31226250D01*
X79913000Y-30027000D01*
X80167000Y-30027000D01*
X80167000Y-31226250D01*
X80325750Y-31385000D01*
X80890000Y-31388072D01*
X81014482Y-31375812D01*
X81134180Y-31339502D01*
X81244494Y-31280537D01*
X81341185Y-31201185D01*
X81420537Y-31104494D01*
X81479502Y-30994180D01*
X81503966Y-30913534D01*
X81579731Y-30997588D01*
X81813080Y-31171641D01*
X82075901Y-31296825D01*
X82223110Y-31341476D01*
X82453000Y-31220155D01*
X82453000Y-30027000D01*
X80167000Y-30027000D01*
X79913000Y-30027000D01*
X79893000Y-30027000D01*
X79893000Y-29773000D01*
X79913000Y-29773000D01*
X79913000Y-29753000D01*
X80167000Y-29753000D01*
X80167000Y-29773000D01*
%TA.AperFunction,Conductor*%
D24*
G36*
X80167000Y-29773000D02*
G01*
X82453000Y-29773000D01*
X82453000Y-29753000D01*
X82707000Y-29753000D01*
X82707000Y-29773000D01*
X82727000Y-29773000D01*
X82727000Y-30027000D01*
X82707000Y-30027000D01*
X82707000Y-31220155D01*
X82936890Y-31341476D01*
X83084099Y-31296825D01*
X83346920Y-31171641D01*
X83580269Y-30997588D01*
X83775178Y-30781355D01*
X83844805Y-30664466D01*
X83966525Y-30846632D01*
X84173368Y-31053475D01*
X84360001Y-31178179D01*
X84360000Y-41807678D01*
X84356324Y-41845000D01*
X84360000Y-41882322D01*
X84360000Y-41882332D01*
X84370997Y-41993985D01*
X84414454Y-42137246D01*
X84485026Y-42269276D01*
X84522253Y-42314637D01*
X84579999Y-42385001D01*
X84609003Y-42408804D01*
X87986928Y-45786730D01*
X87986928Y-47350000D01*
X87999188Y-47474482D01*
X88035498Y-47594180D01*
X88094463Y-47704494D01*
X88173815Y-47801185D01*
X88270506Y-47880537D01*
X88380820Y-47939502D01*
X88500518Y-47975812D01*
X88518482Y-47977581D01*
X88405392Y-48070392D01*
X88226068Y-48288899D01*
X88092818Y-48538192D01*
X88010764Y-48808691D01*
X87983057Y-49090000D01*
X88010764Y-49371309D01*
X88092818Y-49641808D01*
X88226068Y-49891101D01*
X88405392Y-50109608D01*
X88623899Y-50288932D01*
X88756858Y-50360000D01*
X88623899Y-50431068D01*
X88405392Y-50610392D01*
X88226068Y-50828899D01*
X88092818Y-51078192D01*
X88010764Y-51348691D01*
X87983057Y-51630000D01*
X88010764Y-51911309D01*
X88092818Y-52181808D01*
X88226068Y-52431101D01*
X88405392Y-52649608D01*
X88623899Y-52828932D01*
X88756858Y-52900000D01*
X88623899Y-52971068D01*
X88405392Y-53150392D01*
X88226068Y-53368899D01*
X88092818Y-53618192D01*
X88010764Y-53888691D01*
X87983057Y-54170000D01*
X87988429Y-54224538D01*
X87979853Y-54181426D01*
X87871680Y-53920273D01*
X87714637Y-53685241D01*
X87514759Y-53485363D01*
X87279727Y-53328320D01*
X87018574Y-53220147D01*
X86741335Y-53165000D01*
X86458665Y-53165000D01*
X86181426Y-53220147D01*
X85920273Y-53328320D01*
X85685241Y-53485363D01*
X85485363Y-53685241D01*
X85328320Y-53920273D01*
X85220147Y-54181426D01*
X85165000Y-54458665D01*
X85165000Y-54741335D01*
X85220147Y-55018574D01*
X85328320Y-55279727D01*
X85485363Y-55514759D01*
X85685241Y-55714637D01*
X85920273Y-55871680D01*
X86181426Y-55979853D01*
X86458665Y-56035000D01*
X86741335Y-56035000D01*
X87018574Y-55979853D01*
X87279727Y-55871680D01*
X87514759Y-55714637D01*
X87714637Y-55514759D01*
X87871680Y-55279727D01*
X87979853Y-55018574D01*
X88035000Y-54741335D01*
X88035000Y-54531205D01*
X88092818Y-54721808D01*
X88226068Y-54971101D01*
X88405392Y-55189608D01*
X88623899Y-55368932D01*
X88756858Y-55440000D01*
X88623899Y-55511068D01*
X88405392Y-55690392D01*
X88226068Y-55908899D01*
X88092818Y-56158192D01*
X88010764Y-56428691D01*
X87983057Y-56710000D01*
X88010764Y-56991309D01*
X88092818Y-57261808D01*
X88226068Y-57511101D01*
X88405392Y-57729608D01*
X88623899Y-57908932D01*
X88756858Y-57980000D01*
X88623899Y-58051068D01*
X88405392Y-58230392D01*
X88226068Y-58448899D01*
X88092818Y-58698192D01*
X88010764Y-58968691D01*
X87983057Y-59250000D01*
X88010764Y-59531309D01*
X88092818Y-59801808D01*
X88226068Y-60051101D01*
X88405392Y-60269608D01*
X88623899Y-60448932D01*
X88756858Y-60520000D01*
X88623899Y-60591068D01*
X88405392Y-60770392D01*
X88226068Y-60988899D01*
X88185187Y-61065383D01*
X83090167Y-55970364D01*
X83273000Y-55869915D01*
X83273000Y-54727000D01*
X83527000Y-54727000D01*
X83527000Y-55869915D01*
X83749039Y-55991904D01*
X83883087Y-55951246D01*
X84137420Y-55831037D01*
X84363414Y-55663519D01*
X84552385Y-55455131D01*
X84697070Y-55213881D01*
X84791909Y-54949040D01*
X84670624Y-54727000D01*
X83527000Y-54727000D01*
X83273000Y-54727000D01*
X83253000Y-54727000D01*
X83253000Y-54473000D01*
X83273000Y-54473000D01*
X83273000Y-53330085D01*
X83527000Y-53330085D01*
X83527000Y-54473000D01*
X84670624Y-54473000D01*
X84791909Y-54250960D01*
X84697070Y-53986119D01*
X84552385Y-53744869D01*
X84363414Y-53536481D01*
X84137420Y-53368963D01*
X83883087Y-53248754D01*
X83749039Y-53208096D01*
X83527000Y-53330085D01*
X83273000Y-53330085D01*
X83050961Y-53208096D01*
X83034999Y-53212937D01*
X83034999Y-36263319D01*
X83038675Y-36225996D01*
X83034999Y-36188673D01*
X83034999Y-36188664D01*
X83024002Y-36077011D01*
X82980545Y-35933750D01*
X82909973Y-35801721D01*
X82815000Y-35685996D01*
X82786003Y-35662199D01*
X79624999Y-32501196D01*
X79624999Y-31385704D01*
X79754250Y-31385000D01*
X79913000Y-31226250D01*
X79913000Y-30027000D01*
X80167000Y-30027000D01*
X80167000Y-31226250D01*
X80325750Y-31385000D01*
X80890000Y-31388072D01*
X81014482Y-31375812D01*
X81134180Y-31339502D01*
X81244494Y-31280537D01*
X81341185Y-31201185D01*
X81420537Y-31104494D01*
X81479502Y-30994180D01*
X81503966Y-30913534D01*
X81579731Y-30997588D01*
X81813080Y-31171641D01*
X82075901Y-31296825D01*
X82223110Y-31341476D01*
X82453000Y-31220155D01*
X82453000Y-30027000D01*
X80167000Y-30027000D01*
X79913000Y-30027000D01*
X79893000Y-30027000D01*
X79893000Y-29773000D01*
X79913000Y-29773000D01*
X79913000Y-29753000D01*
X80167000Y-29753000D01*
X80167000Y-29773000D01*
G37*
%TD.AperFunction*%
D23*
X103927000Y-43453000D02*
X103947000Y-43453000D01*
X103947000Y-43707000D01*
X103927000Y-43707000D01*
X103927000Y-44849915D01*
X104149039Y-44971904D01*
X104240000Y-44944315D01*
X104240000Y-49829022D01*
X104218574Y-49820147D01*
X103941335Y-49765000D01*
X103658665Y-49765000D01*
X103381426Y-49820147D01*
X103120273Y-49928320D01*
X102935012Y-50052107D01*
X102935012Y-44716477D01*
X103062580Y-44811037D01*
X103316913Y-44931246D01*
X103450961Y-44971904D01*
X103673000Y-44849915D01*
X103673000Y-43707000D01*
X103653000Y-43707000D01*
X103653000Y-43453000D01*
X103673000Y-43453000D01*
X103673000Y-43433000D01*
X103927000Y-43433000D01*
X103927000Y-43453000D01*
%TA.AperFunction,Conductor*%
D24*
G36*
X103927000Y-43453000D02*
G01*
X103947000Y-43453000D01*
X103947000Y-43707000D01*
X103927000Y-43707000D01*
X103927000Y-44849915D01*
X104149039Y-44971904D01*
X104240000Y-44944315D01*
X104240000Y-49829022D01*
X104218574Y-49820147D01*
X103941335Y-49765000D01*
X103658665Y-49765000D01*
X103381426Y-49820147D01*
X103120273Y-49928320D01*
X102935012Y-50052107D01*
X102935012Y-44716477D01*
X103062580Y-44811037D01*
X103316913Y-44931246D01*
X103450961Y-44971904D01*
X103673000Y-44849915D01*
X103673000Y-43707000D01*
X103653000Y-43707000D01*
X103653000Y-43453000D01*
X103673000Y-43453000D01*
X103673000Y-43433000D01*
X103927000Y-43433000D01*
X103927000Y-43453000D01*
G37*
%TD.AperFunction*%
D23*
X89046525Y-30846632D02*
X89253368Y-31053475D01*
X89496589Y-31215990D01*
X89766842Y-31327932D01*
X90053740Y-31385000D01*
X90346260Y-31385000D01*
X90566408Y-31341209D01*
X96461480Y-37236282D01*
X96211816Y-37173700D01*
X95929488Y-37159783D01*
X95649870Y-37201213D01*
X95383708Y-37296397D01*
X95258486Y-37363329D01*
X95186903Y-37607298D01*
X96000000Y-38420395D01*
X96014143Y-38406253D01*
X96193748Y-38585858D01*
X96179605Y-38600000D01*
X96193748Y-38614143D01*
X96014143Y-38793748D01*
X96000000Y-38779605D01*
X95186903Y-39592702D01*
X95258486Y-39836671D01*
X95513996Y-39957571D01*
X95788184Y-40026300D01*
X96070512Y-40040217D01*
X96350130Y-39998787D01*
X96616292Y-39903603D01*
X96685001Y-39866878D01*
X96685000Y-42331844D01*
X96679727Y-42328320D01*
X96418574Y-42220147D01*
X96141335Y-42165000D01*
X95858665Y-42165000D01*
X95581426Y-42220147D01*
X95320273Y-42328320D01*
X95085241Y-42485363D01*
X94885363Y-42685241D01*
X94728320Y-42920273D01*
X94670255Y-43060455D01*
X91479576Y-39869777D01*
X91541514Y-39836671D01*
X91613097Y-39592702D01*
X90800000Y-38779605D01*
X90785858Y-38793748D01*
X90606253Y-38614143D01*
X90620395Y-38600000D01*
X90979605Y-38600000D01*
X91792702Y-39413097D01*
X92036671Y-39341514D01*
X92157571Y-39086004D01*
X92226300Y-38811816D01*
X92233265Y-38670512D01*
X94559783Y-38670512D01*
X94601213Y-38950130D01*
X94696397Y-39216292D01*
X94763329Y-39341514D01*
X95007298Y-39413097D01*
X95820395Y-38600000D01*
X95007298Y-37786903D01*
X94763329Y-37858486D01*
X94642429Y-38113996D01*
X94573700Y-38388184D01*
X94559783Y-38670512D01*
X92233265Y-38670512D01*
X92240217Y-38529488D01*
X92198787Y-38249870D01*
X92103603Y-37983708D01*
X92036671Y-37858486D01*
X91792702Y-37786903D01*
X90979605Y-38600000D01*
X90620395Y-38600000D01*
X89807298Y-37786903D01*
X89563329Y-37858486D01*
X89532802Y-37923002D01*
X89217098Y-37607298D01*
X89986903Y-37607298D01*
X90800000Y-38420395D01*
X91613097Y-37607298D01*
X91541514Y-37363329D01*
X91286004Y-37242429D01*
X91011816Y-37173700D01*
X90729488Y-37159783D01*
X90449870Y-37201213D01*
X90183708Y-37296397D01*
X90058486Y-37363329D01*
X89986903Y-37607298D01*
X89217098Y-37607298D01*
X88420000Y-36810201D01*
X88420000Y-31178178D01*
X88606632Y-31053475D01*
X88813475Y-30846632D01*
X88930000Y-30672240D01*
X89046525Y-30846632D01*
%TA.AperFunction,Conductor*%
D24*
G36*
X89046525Y-30846632D02*
G01*
X89253368Y-31053475D01*
X89496589Y-31215990D01*
X89766842Y-31327932D01*
X90053740Y-31385000D01*
X90346260Y-31385000D01*
X90566408Y-31341209D01*
X96461480Y-37236282D01*
X96211816Y-37173700D01*
X95929488Y-37159783D01*
X95649870Y-37201213D01*
X95383708Y-37296397D01*
X95258486Y-37363329D01*
X95186903Y-37607298D01*
X96000000Y-38420395D01*
X96014143Y-38406253D01*
X96193748Y-38585858D01*
X96179605Y-38600000D01*
X96193748Y-38614143D01*
X96014143Y-38793748D01*
X96000000Y-38779605D01*
X95186903Y-39592702D01*
X95258486Y-39836671D01*
X95513996Y-39957571D01*
X95788184Y-40026300D01*
X96070512Y-40040217D01*
X96350130Y-39998787D01*
X96616292Y-39903603D01*
X96685001Y-39866878D01*
X96685000Y-42331844D01*
X96679727Y-42328320D01*
X96418574Y-42220147D01*
X96141335Y-42165000D01*
X95858665Y-42165000D01*
X95581426Y-42220147D01*
X95320273Y-42328320D01*
X95085241Y-42485363D01*
X94885363Y-42685241D01*
X94728320Y-42920273D01*
X94670255Y-43060455D01*
X91479576Y-39869777D01*
X91541514Y-39836671D01*
X91613097Y-39592702D01*
X90800000Y-38779605D01*
X90785858Y-38793748D01*
X90606253Y-38614143D01*
X90620395Y-38600000D01*
X90979605Y-38600000D01*
X91792702Y-39413097D01*
X92036671Y-39341514D01*
X92157571Y-39086004D01*
X92226300Y-38811816D01*
X92233265Y-38670512D01*
X94559783Y-38670512D01*
X94601213Y-38950130D01*
X94696397Y-39216292D01*
X94763329Y-39341514D01*
X95007298Y-39413097D01*
X95820395Y-38600000D01*
X95007298Y-37786903D01*
X94763329Y-37858486D01*
X94642429Y-38113996D01*
X94573700Y-38388184D01*
X94559783Y-38670512D01*
X92233265Y-38670512D01*
X92240217Y-38529488D01*
X92198787Y-38249870D01*
X92103603Y-37983708D01*
X92036671Y-37858486D01*
X91792702Y-37786903D01*
X90979605Y-38600000D01*
X90620395Y-38600000D01*
X89807298Y-37786903D01*
X89563329Y-37858486D01*
X89532802Y-37923002D01*
X89217098Y-37607298D01*
X89986903Y-37607298D01*
X90800000Y-38420395D01*
X91613097Y-37607298D01*
X91541514Y-37363329D01*
X91286004Y-37242429D01*
X91011816Y-37173700D01*
X90729488Y-37159783D01*
X90449870Y-37201213D01*
X90183708Y-37296397D01*
X90058486Y-37363329D01*
X89986903Y-37607298D01*
X89217098Y-37607298D01*
X88420000Y-36810201D01*
X88420000Y-31178178D01*
X88606632Y-31053475D01*
X88813475Y-30846632D01*
X88930000Y-30672240D01*
X89046525Y-30846632D01*
G37*
%TD.AperFunction*%
%TD*%
M02*
